<?xml version="1.0" encoding="utf-8" standalone="no"?>
<!DOCTYPE svg PUBLIC "-//W3C//DTD SVG 1.1//EN"
  "http://www.w3.org/Graphics/SVG/1.1/DTD/svg11.dtd">
<!-- Created with matplotlib (https://matplotlib.org/) -->
<svg height="324pt" version="1.1" viewBox="0 0 900 324" width="900pt" xmlns="http://www.w3.org/2000/svg" xmlns:xlink="http://www.w3.org/1999/xlink">
 <metadata>
  <rdf:RDF xmlns:cc="http://creativecommons.org/ns#" xmlns:dc="http://purl.org/dc/elements/1.1/" xmlns:rdf="http://www.w3.org/1999/02/22-rdf-syntax-ns#">
   <cc:Work>
    <dc:type rdf:resource="http://purl.org/dc/dcmitype/StillImage"/>
    <dc:date>2021-09-09T22:54:18.989691</dc:date>
    <dc:format>image/svg+xml</dc:format>
    <dc:creator>
     <cc:Agent>
      <dc:title>Matplotlib v3.3.2, https://matplotlib.org/</dc:title>
     </cc:Agent>
    </dc:creator>
   </cc:Work>
  </rdf:RDF>
 </metadata>
 <defs>
  <style type="text/css">*{stroke-linecap:butt;stroke-linejoin:round;}</style>
 </defs>
 <g id="figure_1">
  <g id="patch_1">
   <path d="M 0 324 
L 900 324 
L 900 0 
L 0 0 
z
" style="fill:none;"/>
  </g>
  <g id="axes_1">
   <g id="patch_2">
    <path d="M 112.5 283.5 
L 810 283.5 
L 810 38.88 
L 112.5 38.88 
z
" style="fill:#ffffff;"/>
   </g>
   <g id="matplotlib.axis_1">
    <g id="xtick_1">
     <g id="line2d_1">
      <defs>
       <path d="M 0 0 
L 0 3.5 
" id="m5312a3e6d0" style="stroke:#000000;stroke-width:0.8;"/>
      </defs>
      <g>
       <use style="stroke:#000000;stroke-width:0.8;" x="112.5" xlink:href="#m5312a3e6d0" y="283.5"/>
      </g>
     </g>
     <g id="text_1">
      <!-- 0 -->
      <g transform="translate(106.1375 305.696875)scale(0.2 -0.2)">
       <defs>
        <path d="M 31.78125 66.40625 
Q 24.171875 66.40625 20.328125 58.90625 
Q 16.5 51.421875 16.5 36.375 
Q 16.5 21.390625 20.328125 13.890625 
Q 24.171875 6.390625 31.78125 6.390625 
Q 39.453125 6.390625 43.28125 13.890625 
Q 47.125 21.390625 47.125 36.375 
Q 47.125 51.421875 43.28125 58.90625 
Q 39.453125 66.40625 31.78125 66.40625 
z
M 31.78125 74.21875 
Q 44.046875 74.21875 50.515625 64.515625 
Q 56.984375 54.828125 56.984375 36.375 
Q 56.984375 17.96875 50.515625 8.265625 
Q 44.046875 -1.421875 31.78125 -1.421875 
Q 19.53125 -1.421875 13.0625 8.265625 
Q 6.59375 17.96875 6.59375 36.375 
Q 6.59375 54.828125 13.0625 64.515625 
Q 19.53125 74.21875 31.78125 74.21875 
z
" id="DejaVuSans-48"/>
       </defs>
       <use xlink:href="#DejaVuSans-48"/>
      </g>
     </g>
    </g>
    <g id="xtick_2">
     <g id="line2d_2">
      <g>
       <use style="stroke:#000000;stroke-width:0.8;" x="209.375" xlink:href="#m5312a3e6d0" y="283.5"/>
      </g>
     </g>
     <g id="text_2">
      <!-- 50 -->
      <g transform="translate(196.65 305.696875)scale(0.2 -0.2)">
       <defs>
        <path d="M 10.796875 72.90625 
L 49.515625 72.90625 
L 49.515625 64.59375 
L 19.828125 64.59375 
L 19.828125 46.734375 
Q 21.96875 47.46875 24.109375 47.828125 
Q 26.265625 48.1875 28.421875 48.1875 
Q 40.625 48.1875 47.75 41.5 
Q 54.890625 34.8125 54.890625 23.390625 
Q 54.890625 11.625 47.5625 5.09375 
Q 40.234375 -1.421875 26.90625 -1.421875 
Q 22.3125 -1.421875 17.546875 -0.640625 
Q 12.796875 0.140625 7.71875 1.703125 
L 7.71875 11.625 
Q 12.109375 9.234375 16.796875 8.0625 
Q 21.484375 6.890625 26.703125 6.890625 
Q 35.15625 6.890625 40.078125 11.328125 
Q 45.015625 15.765625 45.015625 23.390625 
Q 45.015625 31 40.078125 35.4375 
Q 35.15625 39.890625 26.703125 39.890625 
Q 22.75 39.890625 18.8125 39.015625 
Q 14.890625 38.140625 10.796875 36.28125 
z
" id="DejaVuSans-53"/>
       </defs>
       <use xlink:href="#DejaVuSans-53"/>
       <use x="63.623047" xlink:href="#DejaVuSans-48"/>
      </g>
     </g>
    </g>
    <g id="xtick_3">
     <g id="line2d_3">
      <g>
       <use style="stroke:#000000;stroke-width:0.8;" x="306.25" xlink:href="#m5312a3e6d0" y="283.5"/>
      </g>
     </g>
     <g id="text_3">
      <!-- 100 -->
      <g transform="translate(287.1625 305.696875)scale(0.2 -0.2)">
       <defs>
        <path d="M 12.40625 8.296875 
L 28.515625 8.296875 
L 28.515625 63.921875 
L 10.984375 60.40625 
L 10.984375 69.390625 
L 28.421875 72.90625 
L 38.28125 72.90625 
L 38.28125 8.296875 
L 54.390625 8.296875 
L 54.390625 0 
L 12.40625 0 
z
" id="DejaVuSans-49"/>
       </defs>
       <use xlink:href="#DejaVuSans-49"/>
       <use x="63.623047" xlink:href="#DejaVuSans-48"/>
       <use x="127.246094" xlink:href="#DejaVuSans-48"/>
      </g>
     </g>
    </g>
    <g id="xtick_4">
     <g id="line2d_4">
      <g>
       <use style="stroke:#000000;stroke-width:0.8;" x="403.125" xlink:href="#m5312a3e6d0" y="283.5"/>
      </g>
     </g>
     <g id="text_4">
      <!-- 150 -->
      <g transform="translate(384.0375 305.696875)scale(0.2 -0.2)">
       <use xlink:href="#DejaVuSans-49"/>
       <use x="63.623047" xlink:href="#DejaVuSans-53"/>
       <use x="127.246094" xlink:href="#DejaVuSans-48"/>
      </g>
     </g>
    </g>
    <g id="xtick_5">
     <g id="line2d_5">
      <g>
       <use style="stroke:#000000;stroke-width:0.8;" x="500" xlink:href="#m5312a3e6d0" y="283.5"/>
      </g>
     </g>
     <g id="text_5">
      <!-- 200 -->
      <g transform="translate(480.9125 305.696875)scale(0.2 -0.2)">
       <defs>
        <path d="M 19.1875 8.296875 
L 53.609375 8.296875 
L 53.609375 0 
L 7.328125 0 
L 7.328125 8.296875 
Q 12.9375 14.109375 22.625 23.890625 
Q 32.328125 33.6875 34.8125 36.53125 
Q 39.546875 41.84375 41.421875 45.53125 
Q 43.3125 49.21875 43.3125 52.78125 
Q 43.3125 58.59375 39.234375 62.25 
Q 35.15625 65.921875 28.609375 65.921875 
Q 23.96875 65.921875 18.8125 64.3125 
Q 13.671875 62.703125 7.8125 59.421875 
L 7.8125 69.390625 
Q 13.765625 71.78125 18.9375 73 
Q 24.125 74.21875 28.421875 74.21875 
Q 39.75 74.21875 46.484375 68.546875 
Q 53.21875 62.890625 53.21875 53.421875 
Q 53.21875 48.921875 51.53125 44.890625 
Q 49.859375 40.875 45.40625 35.40625 
Q 44.1875 33.984375 37.640625 27.21875 
Q 31.109375 20.453125 19.1875 8.296875 
z
" id="DejaVuSans-50"/>
       </defs>
       <use xlink:href="#DejaVuSans-50"/>
       <use x="63.623047" xlink:href="#DejaVuSans-48"/>
       <use x="127.246094" xlink:href="#DejaVuSans-48"/>
      </g>
     </g>
    </g>
    <g id="xtick_6">
     <g id="line2d_6">
      <g>
       <use style="stroke:#000000;stroke-width:0.8;" x="596.875" xlink:href="#m5312a3e6d0" y="283.5"/>
      </g>
     </g>
     <g id="text_6">
      <!-- 250 -->
      <g transform="translate(577.7875 305.696875)scale(0.2 -0.2)">
       <use xlink:href="#DejaVuSans-50"/>
       <use x="63.623047" xlink:href="#DejaVuSans-53"/>
       <use x="127.246094" xlink:href="#DejaVuSans-48"/>
      </g>
     </g>
    </g>
    <g id="xtick_7">
     <g id="line2d_7">
      <g>
       <use style="stroke:#000000;stroke-width:0.8;" x="693.75" xlink:href="#m5312a3e6d0" y="283.5"/>
      </g>
     </g>
     <g id="text_7">
      <!-- 300 -->
      <g transform="translate(674.6625 305.696875)scale(0.2 -0.2)">
       <defs>
        <path d="M 40.578125 39.3125 
Q 47.65625 37.796875 51.625 33 
Q 55.609375 28.21875 55.609375 21.1875 
Q 55.609375 10.40625 48.1875 4.484375 
Q 40.765625 -1.421875 27.09375 -1.421875 
Q 22.515625 -1.421875 17.65625 -0.515625 
Q 12.796875 0.390625 7.625 2.203125 
L 7.625 11.71875 
Q 11.71875 9.328125 16.59375 8.109375 
Q 21.484375 6.890625 26.8125 6.890625 
Q 36.078125 6.890625 40.9375 10.546875 
Q 45.796875 14.203125 45.796875 21.1875 
Q 45.796875 27.640625 41.28125 31.265625 
Q 36.765625 34.90625 28.71875 34.90625 
L 20.21875 34.90625 
L 20.21875 43.015625 
L 29.109375 43.015625 
Q 36.375 43.015625 40.234375 45.921875 
Q 44.09375 48.828125 44.09375 54.296875 
Q 44.09375 59.90625 40.109375 62.90625 
Q 36.140625 65.921875 28.71875 65.921875 
Q 24.65625 65.921875 20.015625 65.03125 
Q 15.375 64.15625 9.8125 62.3125 
L 9.8125 71.09375 
Q 15.4375 72.65625 20.34375 73.4375 
Q 25.25 74.21875 29.59375 74.21875 
Q 40.828125 74.21875 47.359375 69.109375 
Q 53.90625 64.015625 53.90625 55.328125 
Q 53.90625 49.265625 50.4375 45.09375 
Q 46.96875 40.921875 40.578125 39.3125 
z
" id="DejaVuSans-51"/>
       </defs>
       <use xlink:href="#DejaVuSans-51"/>
       <use x="63.623047" xlink:href="#DejaVuSans-48"/>
       <use x="127.246094" xlink:href="#DejaVuSans-48"/>
      </g>
     </g>
    </g>
    <g id="xtick_8">
     <g id="line2d_8">
      <g>
       <use style="stroke:#000000;stroke-width:0.8;" x="790.625" xlink:href="#m5312a3e6d0" y="283.5"/>
      </g>
     </g>
     <g id="text_8">
      <!-- 350 -->
      <g transform="translate(771.5375 305.696875)scale(0.2 -0.2)">
       <use xlink:href="#DejaVuSans-51"/>
       <use x="63.623047" xlink:href="#DejaVuSans-53"/>
       <use x="127.246094" xlink:href="#DejaVuSans-48"/>
      </g>
     </g>
    </g>
    <g id="text_9">
     <!-- Genome Size (kbp) -->
     <g transform="translate(365.823438 329.053125)scale(0.2 -0.2)">
      <defs>
       <path d="M 59.515625 10.40625 
L 59.515625 29.984375 
L 43.40625 29.984375 
L 43.40625 38.09375 
L 69.28125 38.09375 
L 69.28125 6.78125 
Q 63.578125 2.734375 56.6875 0.65625 
Q 49.8125 -1.421875 42 -1.421875 
Q 24.90625 -1.421875 15.25 8.5625 
Q 5.609375 18.5625 5.609375 36.375 
Q 5.609375 54.25 15.25 64.234375 
Q 24.90625 74.21875 42 74.21875 
Q 49.125 74.21875 55.546875 72.453125 
Q 61.96875 70.703125 67.390625 67.28125 
L 67.390625 56.78125 
Q 61.921875 61.421875 55.765625 63.765625 
Q 49.609375 66.109375 42.828125 66.109375 
Q 29.4375 66.109375 22.71875 58.640625 
Q 16.015625 51.171875 16.015625 36.375 
Q 16.015625 21.625 22.71875 14.15625 
Q 29.4375 6.6875 42.828125 6.6875 
Q 48.046875 6.6875 52.140625 7.59375 
Q 56.25 8.5 59.515625 10.40625 
z
" id="DejaVuSans-71"/>
       <path d="M 56.203125 29.59375 
L 56.203125 25.203125 
L 14.890625 25.203125 
Q 15.484375 15.921875 20.484375 11.0625 
Q 25.484375 6.203125 34.421875 6.203125 
Q 39.59375 6.203125 44.453125 7.46875 
Q 49.3125 8.734375 54.109375 11.28125 
L 54.109375 2.78125 
Q 49.265625 0.734375 44.1875 -0.34375 
Q 39.109375 -1.421875 33.890625 -1.421875 
Q 20.796875 -1.421875 13.15625 6.1875 
Q 5.515625 13.8125 5.515625 26.8125 
Q 5.515625 40.234375 12.765625 48.109375 
Q 20.015625 56 32.328125 56 
Q 43.359375 56 49.78125 48.890625 
Q 56.203125 41.796875 56.203125 29.59375 
z
M 47.21875 32.234375 
Q 47.125 39.59375 43.09375 43.984375 
Q 39.0625 48.390625 32.421875 48.390625 
Q 24.90625 48.390625 20.390625 44.140625 
Q 15.875 39.890625 15.1875 32.171875 
z
" id="DejaVuSans-101"/>
       <path d="M 54.890625 33.015625 
L 54.890625 0 
L 45.90625 0 
L 45.90625 32.71875 
Q 45.90625 40.484375 42.875 44.328125 
Q 39.84375 48.1875 33.796875 48.1875 
Q 26.515625 48.1875 22.3125 43.546875 
Q 18.109375 38.921875 18.109375 30.90625 
L 18.109375 0 
L 9.078125 0 
L 9.078125 54.6875 
L 18.109375 54.6875 
L 18.109375 46.1875 
Q 21.34375 51.125 25.703125 53.5625 
Q 30.078125 56 35.796875 56 
Q 45.21875 56 50.046875 50.171875 
Q 54.890625 44.34375 54.890625 33.015625 
z
" id="DejaVuSans-110"/>
       <path d="M 30.609375 48.390625 
Q 23.390625 48.390625 19.1875 42.75 
Q 14.984375 37.109375 14.984375 27.296875 
Q 14.984375 17.484375 19.15625 11.84375 
Q 23.34375 6.203125 30.609375 6.203125 
Q 37.796875 6.203125 41.984375 11.859375 
Q 46.1875 17.53125 46.1875 27.296875 
Q 46.1875 37.015625 41.984375 42.703125 
Q 37.796875 48.390625 30.609375 48.390625 
z
M 30.609375 56 
Q 42.328125 56 49.015625 48.375 
Q 55.71875 40.765625 55.71875 27.296875 
Q 55.71875 13.875 49.015625 6.21875 
Q 42.328125 -1.421875 30.609375 -1.421875 
Q 18.84375 -1.421875 12.171875 6.21875 
Q 5.515625 13.875 5.515625 27.296875 
Q 5.515625 40.765625 12.171875 48.375 
Q 18.84375 56 30.609375 56 
z
" id="DejaVuSans-111"/>
       <path d="M 52 44.1875 
Q 55.375 50.25 60.0625 53.125 
Q 64.75 56 71.09375 56 
Q 79.640625 56 84.28125 50.015625 
Q 88.921875 44.046875 88.921875 33.015625 
L 88.921875 0 
L 79.890625 0 
L 79.890625 32.71875 
Q 79.890625 40.578125 77.09375 44.375 
Q 74.3125 48.1875 68.609375 48.1875 
Q 61.625 48.1875 57.5625 43.546875 
Q 53.515625 38.921875 53.515625 30.90625 
L 53.515625 0 
L 44.484375 0 
L 44.484375 32.71875 
Q 44.484375 40.625 41.703125 44.40625 
Q 38.921875 48.1875 33.109375 48.1875 
Q 26.21875 48.1875 22.15625 43.53125 
Q 18.109375 38.875 18.109375 30.90625 
L 18.109375 0 
L 9.078125 0 
L 9.078125 54.6875 
L 18.109375 54.6875 
L 18.109375 46.1875 
Q 21.1875 51.21875 25.484375 53.609375 
Q 29.78125 56 35.6875 56 
Q 41.65625 56 45.828125 52.96875 
Q 50 49.953125 52 44.1875 
z
" id="DejaVuSans-109"/>
       <path id="DejaVuSans-32"/>
       <path d="M 53.515625 70.515625 
L 53.515625 60.890625 
Q 47.90625 63.578125 42.921875 64.890625 
Q 37.9375 66.21875 33.296875 66.21875 
Q 25.25 66.21875 20.875 63.09375 
Q 16.5 59.96875 16.5 54.203125 
Q 16.5 49.359375 19.40625 46.890625 
Q 22.3125 44.4375 30.421875 42.921875 
L 36.375 41.703125 
Q 47.40625 39.59375 52.65625 34.296875 
Q 57.90625 29 57.90625 20.125 
Q 57.90625 9.515625 50.796875 4.046875 
Q 43.703125 -1.421875 29.984375 -1.421875 
Q 24.8125 -1.421875 18.96875 -0.25 
Q 13.140625 0.921875 6.890625 3.21875 
L 6.890625 13.375 
Q 12.890625 10.015625 18.65625 8.296875 
Q 24.421875 6.59375 29.984375 6.59375 
Q 38.421875 6.59375 43.015625 9.90625 
Q 47.609375 13.234375 47.609375 19.390625 
Q 47.609375 24.75 44.3125 27.78125 
Q 41.015625 30.8125 33.5 32.328125 
L 27.484375 33.5 
Q 16.453125 35.6875 11.515625 40.375 
Q 6.59375 45.0625 6.59375 53.421875 
Q 6.59375 63.09375 13.40625 68.65625 
Q 20.21875 74.21875 32.171875 74.21875 
Q 37.3125 74.21875 42.625 73.28125 
Q 47.953125 72.359375 53.515625 70.515625 
z
" id="DejaVuSans-83"/>
       <path d="M 9.421875 54.6875 
L 18.40625 54.6875 
L 18.40625 0 
L 9.421875 0 
z
M 9.421875 75.984375 
L 18.40625 75.984375 
L 18.40625 64.59375 
L 9.421875 64.59375 
z
" id="DejaVuSans-105"/>
       <path d="M 5.515625 54.6875 
L 48.1875 54.6875 
L 48.1875 46.484375 
L 14.40625 7.171875 
L 48.1875 7.171875 
L 48.1875 0 
L 4.296875 0 
L 4.296875 8.203125 
L 38.09375 47.515625 
L 5.515625 47.515625 
z
" id="DejaVuSans-122"/>
       <path d="M 31 75.875 
Q 24.46875 64.65625 21.28125 53.65625 
Q 18.109375 42.671875 18.109375 31.390625 
Q 18.109375 20.125 21.3125 9.0625 
Q 24.515625 -2 31 -13.1875 
L 23.1875 -13.1875 
Q 15.875 -1.703125 12.234375 9.375 
Q 8.59375 20.453125 8.59375 31.390625 
Q 8.59375 42.28125 12.203125 53.3125 
Q 15.828125 64.359375 23.1875 75.875 
z
" id="DejaVuSans-40"/>
       <path d="M 9.078125 75.984375 
L 18.109375 75.984375 
L 18.109375 31.109375 
L 44.921875 54.6875 
L 56.390625 54.6875 
L 27.390625 29.109375 
L 57.625 0 
L 45.90625 0 
L 18.109375 26.703125 
L 18.109375 0 
L 9.078125 0 
z
" id="DejaVuSans-107"/>
       <path d="M 48.6875 27.296875 
Q 48.6875 37.203125 44.609375 42.84375 
Q 40.53125 48.484375 33.40625 48.484375 
Q 26.265625 48.484375 22.1875 42.84375 
Q 18.109375 37.203125 18.109375 27.296875 
Q 18.109375 17.390625 22.1875 11.75 
Q 26.265625 6.109375 33.40625 6.109375 
Q 40.53125 6.109375 44.609375 11.75 
Q 48.6875 17.390625 48.6875 27.296875 
z
M 18.109375 46.390625 
Q 20.953125 51.265625 25.265625 53.625 
Q 29.59375 56 35.59375 56 
Q 45.5625 56 51.78125 48.09375 
Q 58.015625 40.1875 58.015625 27.296875 
Q 58.015625 14.40625 51.78125 6.484375 
Q 45.5625 -1.421875 35.59375 -1.421875 
Q 29.59375 -1.421875 25.265625 0.953125 
Q 20.953125 3.328125 18.109375 8.203125 
L 18.109375 0 
L 9.078125 0 
L 9.078125 75.984375 
L 18.109375 75.984375 
z
" id="DejaVuSans-98"/>
       <path d="M 18.109375 8.203125 
L 18.109375 -20.796875 
L 9.078125 -20.796875 
L 9.078125 54.6875 
L 18.109375 54.6875 
L 18.109375 46.390625 
Q 20.953125 51.265625 25.265625 53.625 
Q 29.59375 56 35.59375 56 
Q 45.5625 56 51.78125 48.09375 
Q 58.015625 40.1875 58.015625 27.296875 
Q 58.015625 14.40625 51.78125 6.484375 
Q 45.5625 -1.421875 35.59375 -1.421875 
Q 29.59375 -1.421875 25.265625 0.953125 
Q 20.953125 3.328125 18.109375 8.203125 
z
M 48.6875 27.296875 
Q 48.6875 37.203125 44.609375 42.84375 
Q 40.53125 48.484375 33.40625 48.484375 
Q 26.265625 48.484375 22.1875 42.84375 
Q 18.109375 37.203125 18.109375 27.296875 
Q 18.109375 17.390625 22.1875 11.75 
Q 26.265625 6.109375 33.40625 6.109375 
Q 40.53125 6.109375 44.609375 11.75 
Q 48.6875 17.390625 48.6875 27.296875 
z
" id="DejaVuSans-112"/>
       <path d="M 8.015625 75.875 
L 15.828125 75.875 
Q 23.140625 64.359375 26.78125 53.3125 
Q 30.421875 42.28125 30.421875 31.390625 
Q 30.421875 20.453125 26.78125 9.375 
Q 23.140625 -1.703125 15.828125 -13.1875 
L 8.015625 -13.1875 
Q 14.5 -2 17.703125 9.0625 
Q 20.90625 20.125 20.90625 31.390625 
Q 20.90625 42.671875 17.703125 53.65625 
Q 14.5 64.65625 8.015625 75.875 
z
" id="DejaVuSans-41"/>
      </defs>
      <use xlink:href="#DejaVuSans-71"/>
      <use x="77.490234" xlink:href="#DejaVuSans-101"/>
      <use x="139.013672" xlink:href="#DejaVuSans-110"/>
      <use x="202.392578" xlink:href="#DejaVuSans-111"/>
      <use x="263.574219" xlink:href="#DejaVuSans-109"/>
      <use x="360.986328" xlink:href="#DejaVuSans-101"/>
      <use x="422.509766" xlink:href="#DejaVuSans-32"/>
      <use x="454.296875" xlink:href="#DejaVuSans-83"/>
      <use x="517.773438" xlink:href="#DejaVuSans-105"/>
      <use x="545.556641" xlink:href="#DejaVuSans-122"/>
      <use x="598.046875" xlink:href="#DejaVuSans-101"/>
      <use x="659.570312" xlink:href="#DejaVuSans-32"/>
      <use x="691.357422" xlink:href="#DejaVuSans-40"/>
      <use x="730.371094" xlink:href="#DejaVuSans-107"/>
      <use x="788.28125" xlink:href="#DejaVuSans-98"/>
      <use x="851.757812" xlink:href="#DejaVuSans-112"/>
      <use x="915.234375" xlink:href="#DejaVuSans-41"/>
     </g>
    </g>
   </g>
   <g id="matplotlib.axis_2">
    <g id="ytick_1">
     <g id="line2d_9">
      <defs>
       <path d="M 0 0 
L -3.5 0 
" id="m6a1a14d6d6" style="stroke:#000000;stroke-width:0.8;"/>
      </defs>
      <g>
       <use style="stroke:#000000;stroke-width:0.8;" x="112.5" xlink:href="#m6a1a14d6d6" y="280.2384"/>
      </g>
     </g>
     <g id="text_10">
      <!-- 0.000 -->
      <g transform="translate(48.24375 287.836838)scale(0.2 -0.2)">
       <defs>
        <path d="M 10.6875 12.40625 
L 21 12.40625 
L 21 0 
L 10.6875 0 
z
" id="DejaVuSans-46"/>
       </defs>
       <use xlink:href="#DejaVuSans-48"/>
       <use x="63.623047" xlink:href="#DejaVuSans-46"/>
       <use x="95.410156" xlink:href="#DejaVuSans-48"/>
       <use x="159.033203" xlink:href="#DejaVuSans-48"/>
       <use x="222.65625" xlink:href="#DejaVuSans-48"/>
      </g>
     </g>
    </g>
    <g id="ytick_2">
     <g id="line2d_10">
      <g>
       <use style="stroke:#000000;stroke-width:0.8;" x="112.5" xlink:href="#m6a1a14d6d6" y="247.6224"/>
      </g>
     </g>
     <g id="text_11">
      <!-- 0.005 -->
      <g transform="translate(48.24375 255.220838)scale(0.2 -0.2)">
       <use xlink:href="#DejaVuSans-48"/>
       <use x="63.623047" xlink:href="#DejaVuSans-46"/>
       <use x="95.410156" xlink:href="#DejaVuSans-48"/>
       <use x="159.033203" xlink:href="#DejaVuSans-48"/>
       <use x="222.65625" xlink:href="#DejaVuSans-53"/>
      </g>
     </g>
    </g>
    <g id="ytick_3">
     <g id="line2d_11">
      <g>
       <use style="stroke:#000000;stroke-width:0.8;" x="112.5" xlink:href="#m6a1a14d6d6" y="215.0064"/>
      </g>
     </g>
     <g id="text_12">
      <!-- 0.010 -->
      <g transform="translate(48.24375 222.604838)scale(0.2 -0.2)">
       <use xlink:href="#DejaVuSans-48"/>
       <use x="63.623047" xlink:href="#DejaVuSans-46"/>
       <use x="95.410156" xlink:href="#DejaVuSans-48"/>
       <use x="159.033203" xlink:href="#DejaVuSans-49"/>
       <use x="222.65625" xlink:href="#DejaVuSans-48"/>
      </g>
     </g>
    </g>
    <g id="ytick_4">
     <g id="line2d_12">
      <g>
       <use style="stroke:#000000;stroke-width:0.8;" x="112.5" xlink:href="#m6a1a14d6d6" y="182.3904"/>
      </g>
     </g>
     <g id="text_13">
      <!-- 0.015 -->
      <g transform="translate(48.24375 189.988837)scale(0.2 -0.2)">
       <use xlink:href="#DejaVuSans-48"/>
       <use x="63.623047" xlink:href="#DejaVuSans-46"/>
       <use x="95.410156" xlink:href="#DejaVuSans-48"/>
       <use x="159.033203" xlink:href="#DejaVuSans-49"/>
       <use x="222.65625" xlink:href="#DejaVuSans-53"/>
      </g>
     </g>
    </g>
    <g id="ytick_5">
     <g id="line2d_13">
      <g>
       <use style="stroke:#000000;stroke-width:0.8;" x="112.5" xlink:href="#m6a1a14d6d6" y="149.7744"/>
      </g>
     </g>
     <g id="text_14">
      <!-- 0.020 -->
      <g transform="translate(48.24375 157.372837)scale(0.2 -0.2)">
       <use xlink:href="#DejaVuSans-48"/>
       <use x="63.623047" xlink:href="#DejaVuSans-46"/>
       <use x="95.410156" xlink:href="#DejaVuSans-48"/>
       <use x="159.033203" xlink:href="#DejaVuSans-50"/>
       <use x="222.65625" xlink:href="#DejaVuSans-48"/>
      </g>
     </g>
    </g>
    <g id="ytick_6">
     <g id="line2d_14">
      <g>
       <use style="stroke:#000000;stroke-width:0.8;" x="112.5" xlink:href="#m6a1a14d6d6" y="117.1584"/>
      </g>
     </g>
     <g id="text_15">
      <!-- 0.025 -->
      <g transform="translate(48.24375 124.756837)scale(0.2 -0.2)">
       <use xlink:href="#DejaVuSans-48"/>
       <use x="63.623047" xlink:href="#DejaVuSans-46"/>
       <use x="95.410156" xlink:href="#DejaVuSans-48"/>
       <use x="159.033203" xlink:href="#DejaVuSans-50"/>
       <use x="222.65625" xlink:href="#DejaVuSans-53"/>
      </g>
     </g>
    </g>
    <g id="ytick_7">
     <g id="line2d_15">
      <g>
       <use style="stroke:#000000;stroke-width:0.8;" x="112.5" xlink:href="#m6a1a14d6d6" y="84.5424"/>
      </g>
     </g>
     <g id="text_16">
      <!-- 0.030 -->
      <g transform="translate(48.24375 92.140837)scale(0.2 -0.2)">
       <use xlink:href="#DejaVuSans-48"/>
       <use x="63.623047" xlink:href="#DejaVuSans-46"/>
       <use x="95.410156" xlink:href="#DejaVuSans-48"/>
       <use x="159.033203" xlink:href="#DejaVuSans-51"/>
       <use x="222.65625" xlink:href="#DejaVuSans-48"/>
      </g>
     </g>
    </g>
    <g id="ytick_8">
     <g id="line2d_16">
      <g>
       <use style="stroke:#000000;stroke-width:0.8;" x="112.5" xlink:href="#m6a1a14d6d6" y="51.9264"/>
      </g>
     </g>
     <g id="text_17">
      <!-- 0.035 -->
      <g transform="translate(48.24375 59.524837)scale(0.2 -0.2)">
       <use xlink:href="#DejaVuSans-48"/>
       <use x="63.623047" xlink:href="#DejaVuSans-46"/>
       <use x="95.410156" xlink:href="#DejaVuSans-48"/>
       <use x="159.033203" xlink:href="#DejaVuSans-51"/>
       <use x="222.65625" xlink:href="#DejaVuSans-53"/>
      </g>
     </g>
    </g>
    <g id="text_18">
     <!-- Density Distribution -->
     <g transform="translate(40.084375 260.722813)rotate(-90)scale(0.2 -0.2)">
      <defs>
       <path d="M 19.671875 64.796875 
L 19.671875 8.109375 
L 31.59375 8.109375 
Q 46.6875 8.109375 53.6875 14.9375 
Q 60.6875 21.78125 60.6875 36.53125 
Q 60.6875 51.171875 53.6875 57.984375 
Q 46.6875 64.796875 31.59375 64.796875 
z
M 9.8125 72.90625 
L 30.078125 72.90625 
Q 51.265625 72.90625 61.171875 64.09375 
Q 71.09375 55.28125 71.09375 36.53125 
Q 71.09375 17.671875 61.125 8.828125 
Q 51.171875 0 30.078125 0 
L 9.8125 0 
z
" id="DejaVuSans-68"/>
       <path d="M 44.28125 53.078125 
L 44.28125 44.578125 
Q 40.484375 46.53125 36.375 47.5 
Q 32.28125 48.484375 27.875 48.484375 
Q 21.1875 48.484375 17.84375 46.4375 
Q 14.5 44.390625 14.5 40.28125 
Q 14.5 37.15625 16.890625 35.375 
Q 19.28125 33.59375 26.515625 31.984375 
L 29.59375 31.296875 
Q 39.15625 29.25 43.1875 25.515625 
Q 47.21875 21.78125 47.21875 15.09375 
Q 47.21875 7.46875 41.1875 3.015625 
Q 35.15625 -1.421875 24.609375 -1.421875 
Q 20.21875 -1.421875 15.453125 -0.5625 
Q 10.6875 0.296875 5.421875 2 
L 5.421875 11.28125 
Q 10.40625 8.6875 15.234375 7.390625 
Q 20.0625 6.109375 24.8125 6.109375 
Q 31.15625 6.109375 34.5625 8.28125 
Q 37.984375 10.453125 37.984375 14.40625 
Q 37.984375 18.0625 35.515625 20.015625 
Q 33.0625 21.96875 24.703125 23.78125 
L 21.578125 24.515625 
Q 13.234375 26.265625 9.515625 29.90625 
Q 5.8125 33.546875 5.8125 39.890625 
Q 5.8125 47.609375 11.28125 51.796875 
Q 16.75 56 26.8125 56 
Q 31.78125 56 36.171875 55.265625 
Q 40.578125 54.546875 44.28125 53.078125 
z
" id="DejaVuSans-115"/>
       <path d="M 18.3125 70.21875 
L 18.3125 54.6875 
L 36.8125 54.6875 
L 36.8125 47.703125 
L 18.3125 47.703125 
L 18.3125 18.015625 
Q 18.3125 11.328125 20.140625 9.421875 
Q 21.96875 7.515625 27.59375 7.515625 
L 36.8125 7.515625 
L 36.8125 0 
L 27.59375 0 
Q 17.1875 0 13.234375 3.875 
Q 9.28125 7.765625 9.28125 18.015625 
L 9.28125 47.703125 
L 2.6875 47.703125 
L 2.6875 54.6875 
L 9.28125 54.6875 
L 9.28125 70.21875 
z
" id="DejaVuSans-116"/>
       <path d="M 32.171875 -5.078125 
Q 28.375 -14.84375 24.75 -17.8125 
Q 21.140625 -20.796875 15.09375 -20.796875 
L 7.90625 -20.796875 
L 7.90625 -13.28125 
L 13.1875 -13.28125 
Q 16.890625 -13.28125 18.9375 -11.515625 
Q 21 -9.765625 23.484375 -3.21875 
L 25.09375 0.875 
L 2.984375 54.6875 
L 12.5 54.6875 
L 29.59375 11.921875 
L 46.6875 54.6875 
L 56.203125 54.6875 
z
" id="DejaVuSans-121"/>
       <path d="M 41.109375 46.296875 
Q 39.59375 47.171875 37.8125 47.578125 
Q 36.03125 48 33.890625 48 
Q 26.265625 48 22.1875 43.046875 
Q 18.109375 38.09375 18.109375 28.8125 
L 18.109375 0 
L 9.078125 0 
L 9.078125 54.6875 
L 18.109375 54.6875 
L 18.109375 46.1875 
Q 20.953125 51.171875 25.484375 53.578125 
Q 30.03125 56 36.53125 56 
Q 37.453125 56 38.578125 55.875 
Q 39.703125 55.765625 41.0625 55.515625 
z
" id="DejaVuSans-114"/>
       <path d="M 8.5 21.578125 
L 8.5 54.6875 
L 17.484375 54.6875 
L 17.484375 21.921875 
Q 17.484375 14.15625 20.5 10.265625 
Q 23.53125 6.390625 29.59375 6.390625 
Q 36.859375 6.390625 41.078125 11.03125 
Q 45.3125 15.671875 45.3125 23.6875 
L 45.3125 54.6875 
L 54.296875 54.6875 
L 54.296875 0 
L 45.3125 0 
L 45.3125 8.40625 
Q 42.046875 3.421875 37.71875 1 
Q 33.40625 -1.421875 27.6875 -1.421875 
Q 18.265625 -1.421875 13.375 4.4375 
Q 8.5 10.296875 8.5 21.578125 
z
M 31.109375 56 
z
" id="DejaVuSans-117"/>
      </defs>
      <use xlink:href="#DejaVuSans-68"/>
      <use x="77.001953" xlink:href="#DejaVuSans-101"/>
      <use x="138.525391" xlink:href="#DejaVuSans-110"/>
      <use x="201.904297" xlink:href="#DejaVuSans-115"/>
      <use x="254.003906" xlink:href="#DejaVuSans-105"/>
      <use x="281.787109" xlink:href="#DejaVuSans-116"/>
      <use x="320.996094" xlink:href="#DejaVuSans-121"/>
      <use x="380.175781" xlink:href="#DejaVuSans-32"/>
      <use x="411.962891" xlink:href="#DejaVuSans-68"/>
      <use x="488.964844" xlink:href="#DejaVuSans-105"/>
      <use x="516.748047" xlink:href="#DejaVuSans-115"/>
      <use x="568.847656" xlink:href="#DejaVuSans-116"/>
      <use x="608.056641" xlink:href="#DejaVuSans-114"/>
      <use x="649.169922" xlink:href="#DejaVuSans-105"/>
      <use x="676.953125" xlink:href="#DejaVuSans-98"/>
      <use x="740.429688" xlink:href="#DejaVuSans-117"/>
      <use x="803.808594" xlink:href="#DejaVuSans-116"/>
      <use x="843.017578" xlink:href="#DejaVuSans-105"/>
      <use x="870.800781" xlink:href="#DejaVuSans-111"/>
      <use x="931.982422" xlink:href="#DejaVuSans-110"/>
     </g>
    </g>
   </g>
   <g id="line2d_17">
    <path clip-path="url(#pa962dd523e)" d="M 112.5 280.2384 
L 133.8125 280.199006 
L 135.75 280.047328 
L 137.6875 279.495376 
L 139.625 277.918383 
L 141.5625 274.418581 
L 143.5 268.508266 
L 145.4375 261.232379 
L 147.375 255.429245 
L 149.3125 254.004915 
L 151.25 257.500937 
L 153.1875 263.632745 
L 155.125 269.133041 
L 157.0625 271.650077 
L 159 270.33274 
L 160.9375 265.631009 
L 166.75 245.397274 
L 168.6875 239.881432 
L 170.625 233.947773 
L 172.5625 225.70453 
L 174.5 213.808446 
L 176.4375 198.012821 
L 178.375 178.593844 
L 184.1875 110.527106 
L 186.125 93.302435 
L 190 65.292535 
L 191.9375 54.315197 
L 193.875 53.713422 
L 195.8125 69.968304 
L 197.75 101.377463 
L 199.6875 138.318788 
L 201.625 169.868815 
L 203.5625 188.938573 
L 205.5 192.889372 
L 207.4375 183.487511 
L 209.375 167.607851 
L 211.3125 155.267957 
L 213.25 154.204326 
L 215.1875 165.513801 
L 219.0625 202.665384 
L 221 215.655372 
L 222.9375 221.646378 
L 224.875 223.440799 
L 226.8125 225.82218 
L 228.75 231.926435 
L 232.625 250.497581 
L 234.5625 257.634127 
L 236.5 261.999158 
L 238.4375 264.049878 
L 240.375 264.418152 
L 242.3125 263.830629 
L 244.25 263.099934 
L 246.1875 262.780329 
L 248.125 262.751186 
L 250.0625 262.061775 
L 252 259.322691 
L 253.9375 253.881003 
L 255.875 247.184979 
L 257.8125 242.644369 
L 259.75 243.262265 
L 261.6875 249.143763 
L 263.625 257.565372 
L 265.5625 265.26094 
L 267.5 270.348803 
L 269.4375 272.667518 
L 271.375 273.170794 
L 273.3125 273.015816 
L 275.25 272.68241 
L 277.1875 271.832664 
L 281.0625 268.483481 
L 283 267.763396 
L 284.9375 268.333132 
L 290.75 271.616175 
L 292.6875 273.307023 
L 294.625 275.307363 
L 296.5625 276.802406 
L 298.5 277.244649 
L 302.375 276.35431 
L 304.3125 276.403498 
L 306.25 277.136953 
L 310.125 279.161322 
L 312.0625 279.712299 
L 314 279.764351 
L 315.9375 279.171027 
L 317.875 277.616668 
L 319.8125 274.834017 
L 323.6875 267.532643 
L 325.625 265.665204 
L 327.5625 266.402795 
L 329.5 269.322597 
L 331.4375 273.00859 
L 333.375 276.036613 
L 335.3125 277.692397 
L 337.25 278.046352 
L 339.1875 277.636575 
L 341.125 277.08154 
L 343.0625 276.808056 
L 345 276.976632 
L 348.875 278.050337 
L 350.8125 278.083959 
L 352.75 277.184359 
L 354.6875 275.446578 
L 356.625 273.48859 
L 358.5625 271.725744 
L 360.5 269.561168 
L 362.4375 265.787005 
L 366.3125 254.5094 
L 368.25 251.218556 
L 370.1875 251.445489 
L 372.125 254.108544 
L 374.0625 257.071274 
L 376 258.907991 
L 377.9375 259.635562 
L 381.8125 260.215569 
L 383.75 260.329452 
L 385.6875 260.786184 
L 387.625 262.453408 
L 391.5 268.329902 
L 393.4375 270.017332 
L 395.375 270.054346 
L 399.25 268.119 
L 401.1875 267.433639 
L 403.125 266.608866 
L 405.0625 264.997042 
L 407 262.174049 
L 408.9375 257.697656 
L 410.875 251.075335 
L 414.75 234.178685 
L 416.6875 228.679258 
L 418.625 228.393743 
L 420.5625 233.50064 
L 422.5 241.630912 
L 424.4375 248.772755 
L 426.375 251.299064 
L 428.3125 247.866659 
L 430.25 239.89387 
L 432.1875 230.716532 
L 434.125 224.125509 
L 436.0625 222.670001 
L 438 226.495369 
L 441.875 241.084381 
L 443.8125 246.623006 
L 445.75 249.184819 
L 447.6875 249.33983 
L 449.625 248.697844 
L 451.5625 248.891089 
L 453.5 250.808782 
L 455.4375 254.372732 
L 457.375 258.723754 
L 459.3125 262.769787 
L 461.25 265.893962 
L 469 275.446316 
L 470.9375 277.475057 
L 472.875 278.579181 
L 474.8125 278.612816 
L 476.75 277.784991 
L 478.6875 276.666265 
L 480.625 276.002508 
L 482.5625 276.207016 
L 486.4375 277.692513 
L 488.375 277.938808 
L 490.3125 277.950709 
L 492.25 278.150007 
L 494.1875 278.673355 
L 496.125 279.312567 
L 498.0625 279.810944 
L 500 280.084851 
L 503.875 280.229094 
L 521.3125 280.227029 
L 523.25 280.178725 
L 525.1875 279.994415 
L 527.125 279.459901 
L 529.0625 278.293025 
L 531 276.403973 
L 532.9375 274.192136 
L 534.875 272.407685 
L 536.8125 271.54082 
L 538.75 271.482462 
L 540.6875 271.880275 
L 542.625 272.583093 
L 544.5625 273.626541 
L 546.5 275.00138 
L 548.4375 276.529156 
L 550.375 277.864834 
L 552.3125 278.599942 
L 554.25 278.424581 
L 556.1875 277.289023 
L 560.0625 273.918854 
L 562 273.174106 
L 563.9375 273.614853 
L 565.875 274.960706 
L 567.8125 276.641427 
L 569.75 278.152174 
L 571.6875 279.219632 
L 573.625 279.801146 
L 575.5625 279.972093 
L 577.5 279.767101 
L 579.4375 279.098189 
L 581.375 277.839312 
L 585.25 274.140219 
L 587.1875 272.869603 
L 589.125 272.868573 
L 591.0625 274.116685 
L 593 275.846466 
L 594.9375 277.151422 
L 596.875 277.710457 
L 598.8125 277.883198 
L 600.75 278.177512 
L 606.5625 279.854796 
L 608.5 280.104683 
L 612.375 280.230768 
L 639.5 280.231884 
L 643.375 280.118759 
L 645.3125 279.8872 
L 647.25 279.437236 
L 651.125 278.281663 
L 653.0625 278.143434 
L 655 278.495334 
L 658.875 279.672076 
L 660.8125 280.017254 
L 664.6875 280.222573 
L 682.125 280.2384 
L 769.3125 280.177831 
L 771.25 280.027937 
L 773.1875 279.657783 
L 775.125 278.948048 
L 777.0625 277.881075 
L 779 276.617808 
L 780.9375 275.487499 
L 782.875 274.907684 
L 784.8125 275.198795 
L 786.75 276.311174 
L 788.6875 277.766275 
L 790.625 278.999679 
L 792.5625 279.748902 
L 794.5 280.086687 
L 798.375 280.231446 
L 804.1875 280.238389 
L 804.1875 280.238389 
" style="fill:none;stroke:#0000ff;stroke-linecap:square;stroke-width:1.5;"/>
   </g>
   <g id="line2d_18">
    <defs>
     <path d="M -3 3 
L 3 -3 
M -3 -3 
L 3 3 
" id="m8d5cf7756a" style="stroke:#000000;"/>
    </defs>
    <g clip-path="url(#pa962dd523e)">
     <use style="stroke:#000000;" x="149.3125" xlink:href="#m8d5cf7756a" y="254.004915"/>
     <use style="stroke:#000000;" x="193.875" xlink:href="#m8d5cf7756a" y="53.713422"/>
     <use style="stroke:#000000;" x="213.25" xlink:href="#m8d5cf7756a" y="154.204326"/>
     <use style="stroke:#000000;" x="224.875" xlink:href="#m8d5cf7756a" y="223.440799"/>
     <use style="stroke:#000000;" x="257.8125" xlink:href="#m8d5cf7756a" y="242.644369"/>
     <use style="stroke:#000000;" x="283" xlink:href="#m8d5cf7756a" y="267.763396"/>
     <use style="stroke:#000000;" x="302.375" xlink:href="#m8d5cf7756a" y="276.35431"/>
     <use style="stroke:#000000;" x="325.625" xlink:href="#m8d5cf7756a" y="265.665204"/>
     <use style="stroke:#000000;" x="343.0625" xlink:href="#m8d5cf7756a" y="276.808056"/>
     <use style="stroke:#000000;" x="368.25" xlink:href="#m8d5cf7756a" y="251.218556"/>
     <use style="stroke:#000000;" x="381.8125" xlink:href="#m8d5cf7756a" y="260.215569"/>
     <use style="stroke:#000000;" x="418.625" xlink:href="#m8d5cf7756a" y="228.393743"/>
     <use style="stroke:#000000;" x="436.0625" xlink:href="#m8d5cf7756a" y="222.670001"/>
     <use style="stroke:#000000;" x="449.625" xlink:href="#m8d5cf7756a" y="248.697844"/>
     <use style="stroke:#000000;" x="480.625" xlink:href="#m8d5cf7756a" y="276.002508"/>
     <use style="stroke:#000000;" x="538.75" xlink:href="#m8d5cf7756a" y="271.482462"/>
     <use style="stroke:#000000;" x="562" xlink:href="#m8d5cf7756a" y="273.174106"/>
     <use style="stroke:#000000;" x="589.125" xlink:href="#m8d5cf7756a" y="272.868573"/>
     <use style="stroke:#000000;" x="653.0625" xlink:href="#m8d5cf7756a" y="278.143434"/>
     <use style="stroke:#000000;" x="782.875" xlink:href="#m8d5cf7756a" y="274.907684"/>
    </g>
   </g>
   <g id="patch_3">
    <path d="M 112.5 283.5 
L 112.5 38.88 
" style="fill:none;stroke:#000000;stroke-linecap:square;stroke-linejoin:miter;stroke-width:0.8;"/>
   </g>
   <g id="patch_4">
    <path d="M 810 283.5 
L 810 38.88 
" style="fill:none;stroke:#000000;stroke-linecap:square;stroke-linejoin:miter;stroke-width:0.8;"/>
   </g>
   <g id="patch_5">
    <path d="M 112.5 283.5 
L 810 283.5 
" style="fill:none;stroke:#000000;stroke-linecap:square;stroke-linejoin:miter;stroke-width:0.8;"/>
   </g>
   <g id="patch_6">
    <path d="M 112.5 38.88 
L 810 38.88 
" style="fill:none;stroke:#000000;stroke-linecap:square;stroke-linejoin:miter;stroke-width:0.8;"/>
   </g>
   <g id="patch_7">
    <path d="M 147.112657 232.953033 
Q 147.229193 240.918217 147.329374 247.765487 
" style="fill:none;stroke:#000000;stroke-linecap:round;"/>
    <path d="M 151.211913 239.707826 
L 147.329374 247.765487 
L 143.212769 239.82486 
" style="fill:none;stroke:#000000;stroke-linecap:round;"/>
   </g>
   <g id="text_19">
    <!-- T=4 -->
    <g transform="translate(126.0625 224.7912)scale(0.2 -0.2)">
     <defs>
      <path d="M -0.296875 72.90625 
L 61.375 72.90625 
L 61.375 64.59375 
L 35.5 64.59375 
L 35.5 0 
L 25.59375 0 
L 25.59375 64.59375 
L -0.296875 64.59375 
z
" id="DejaVuSans-84"/>
      <path d="M 10.59375 45.40625 
L 73.1875 45.40625 
L 73.1875 37.203125 
L 10.59375 37.203125 
z
M 10.59375 25.484375 
L 73.1875 25.484375 
L 73.1875 17.1875 
L 10.59375 17.1875 
z
" id="DejaVuSans-61"/>
      <path d="M 37.796875 64.3125 
L 12.890625 25.390625 
L 37.796875 25.390625 
z
M 35.203125 72.90625 
L 47.609375 72.90625 
L 47.609375 25.390625 
L 58.015625 25.390625 
L 58.015625 17.1875 
L 47.609375 17.1875 
L 47.609375 0 
L 37.796875 0 
L 37.796875 17.1875 
L 4.890625 17.1875 
L 4.890625 26.703125 
z
" id="DejaVuSans-52"/>
     </defs>
     <use xlink:href="#DejaVuSans-84"/>
     <use x="61.083984" xlink:href="#DejaVuSans-61"/>
     <use x="144.873047" xlink:href="#DejaVuSans-52"/>
    </g>
   </g>
   <g id="patch_8">
    <path d="M 222.881216 72.308161 
Q 210.313362 68.902394 198.824621 65.789056 
" style="fill:none;stroke:#000000;stroke-linecap:round;"/>
    <path d="M 205.499899 71.742262 
L 198.824621 65.789056 
L 207.592352 64.020757 
" style="fill:none;stroke:#000000;stroke-linecap:round;"/>
   </g>
   <g id="text_20">
    <!-- T=7 -->
    <g transform="translate(226.8125 84.5424)scale(0.2 -0.2)">
     <defs>
      <path d="M 8.203125 72.90625 
L 55.078125 72.90625 
L 55.078125 68.703125 
L 28.609375 0 
L 18.3125 0 
L 43.21875 64.59375 
L 8.203125 64.59375 
z
" id="DejaVuSans-55"/>
     </defs>
     <use xlink:href="#DejaVuSans-84"/>
     <use x="61.083984" xlink:href="#DejaVuSans-61"/>
     <use x="144.873047" xlink:href="#DejaVuSans-55"/>
    </g>
   </g>
   <g id="patch_9">
    <path d="M 249.95099 147.001785 
Q 238.406301 148.278264 227.972873 149.431873 
" style="fill:none;stroke:#000000;stroke-linecap:round;"/>
    <path d="M 236.36401 152.528454 
L 227.972873 149.431873 
L 235.48482 144.576912 
" style="fill:none;stroke:#000000;stroke-linecap:round;"/>
   </g>
   <g id="text_21">
    <!-- T=9 -->
    <g transform="translate(253.9375 149.7744)scale(0.2 -0.2)">
     <defs>
      <path d="M 10.984375 1.515625 
L 10.984375 10.5 
Q 14.703125 8.734375 18.5 7.8125 
Q 22.3125 6.890625 25.984375 6.890625 
Q 35.75 6.890625 40.890625 13.453125 
Q 46.046875 20.015625 46.78125 33.40625 
Q 43.953125 29.203125 39.59375 26.953125 
Q 35.25 24.703125 29.984375 24.703125 
Q 19.046875 24.703125 12.671875 31.3125 
Q 6.296875 37.9375 6.296875 49.421875 
Q 6.296875 60.640625 12.9375 67.421875 
Q 19.578125 74.21875 30.609375 74.21875 
Q 43.265625 74.21875 49.921875 64.515625 
Q 56.59375 54.828125 56.59375 36.375 
Q 56.59375 19.140625 48.40625 8.859375 
Q 40.234375 -1.421875 26.421875 -1.421875 
Q 22.703125 -1.421875 18.890625 -0.6875 
Q 15.09375 0.046875 10.984375 1.515625 
z
M 30.609375 32.421875 
Q 37.25 32.421875 41.125 36.953125 
Q 45.015625 41.5 45.015625 49.421875 
Q 45.015625 57.28125 41.125 61.84375 
Q 37.25 66.40625 30.609375 66.40625 
Q 23.96875 66.40625 20.09375 61.84375 
Q 16.21875 57.28125 16.21875 49.421875 
Q 16.21875 41.5 20.09375 36.953125 
Q 23.96875 32.421875 30.609375 32.421875 
z
" id="DejaVuSans-57"/>
     </defs>
     <use xlink:href="#DejaVuSans-84"/>
     <use x="61.083984" xlink:href="#DejaVuSans-61"/>
     <use x="144.873047" xlink:href="#DejaVuSans-57"/>
    </g>
   </g>
   <g id="patch_10">
    <path d="M 273.28765 189.574438 
Q 252.84691 201.777402 233.366148 213.407268 
" style="fill:none;stroke:#000000;stroke-linecap:round;"/>
    <path d="M 242.285572 212.741023 
L 233.366148 213.407268 
L 238.184807 205.871982 
" style="fill:none;stroke:#000000;stroke-linecap:round;"/>
   </g>
   <g id="text_22">
    <!-- T=9.33 -->
    <g transform="translate(257.8125 182.3904)scale(0.2 -0.2)">
     <use xlink:href="#DejaVuSans-84"/>
     <use x="61.083984" xlink:href="#DejaVuSans-61"/>
     <use x="144.873047" xlink:href="#DejaVuSans-57"/>
     <use x="208.496094" xlink:href="#DejaVuSans-46"/>
     <use x="240.283203" xlink:href="#DejaVuSans-51"/>
     <use x="303.90625" xlink:href="#DejaVuSans-51"/>
    </g>
   </g>
   <g id="patch_11">
    <path d="M 291.351276 242.594481 
Q 287.540089 252.331338 284.136416 261.027074 
" style="fill:none;stroke:#000000;stroke-linecap:round;"/>
    <path d="M 290.777175 255.035388 
L 284.136416 261.027074 
L 283.327522 252.119455 
" style="fill:none;stroke:#000000;stroke-linecap:round;"/>
   </g>
   <g id="text_23">
    <!-- T=12 -->
    <g transform="translate(269.4375 234.576)scale(0.2 -0.2)">
     <use xlink:href="#DejaVuSans-84"/>
     <use x="61.083984" xlink:href="#DejaVuSans-61"/>
     <use x="144.873047" xlink:href="#DejaVuSans-49"/>
     <use x="208.496094" xlink:href="#DejaVuSans-50"/>
    </g>
   </g>
   <g id="patch_12">
    <path d="M 313.170516 261.867168 
Q 308.398718 267.825036 304.325843 272.910259 
" style="fill:none;stroke:#000000;stroke-linecap:round;"/>
    <path d="M 312.448987 269.166661 
L 304.325843 272.910259 
L 306.204851 264.165584 
" style="fill:none;stroke:#000000;stroke-linecap:round;"/>
   </g>
   <g id="text_24">
    <!-- T=13 -->
    <g transform="translate(296.5625 254.1456)scale(0.2 -0.2)">
     <use xlink:href="#DejaVuSans-84"/>
     <use x="61.083984" xlink:href="#DejaVuSans-61"/>
     <use x="144.873047" xlink:href="#DejaVuSans-49"/>
     <use x="208.496094" xlink:href="#DejaVuSans-51"/>
    </g>
   </g>
   <g id="patch_13">
    <path d="M 369.664596 232.923837 
Q 368.172275 240.91953 366.885082 247.816167 
" style="fill:none;stroke:#000000;stroke-linecap:round;"/>
    <path d="M 372.284961 240.685858 
L 366.885082 247.816167 
L 364.420762 239.218079 
" style="fill:none;stroke:#000000;stroke-linecap:round;"/>
   </g>
   <g id="text_25">
    <!-- T=16 -->
    <g transform="translate(345 224.7912)scale(0.2 -0.2)">
     <defs>
      <path d="M 33.015625 40.375 
Q 26.375 40.375 22.484375 35.828125 
Q 18.609375 31.296875 18.609375 23.390625 
Q 18.609375 15.53125 22.484375 10.953125 
Q 26.375 6.390625 33.015625 6.390625 
Q 39.65625 6.390625 43.53125 10.953125 
Q 47.40625 15.53125 47.40625 23.390625 
Q 47.40625 31.296875 43.53125 35.828125 
Q 39.65625 40.375 33.015625 40.375 
z
M 52.59375 71.296875 
L 52.59375 62.3125 
Q 48.875 64.0625 45.09375 64.984375 
Q 41.3125 65.921875 37.59375 65.921875 
Q 27.828125 65.921875 22.671875 59.328125 
Q 17.53125 52.734375 16.796875 39.40625 
Q 19.671875 43.65625 24.015625 45.921875 
Q 28.375 48.1875 33.59375 48.1875 
Q 44.578125 48.1875 50.953125 41.515625 
Q 57.328125 34.859375 57.328125 23.390625 
Q 57.328125 12.15625 50.6875 5.359375 
Q 44.046875 -1.421875 33.015625 -1.421875 
Q 20.359375 -1.421875 13.671875 8.265625 
Q 6.984375 17.96875 6.984375 36.375 
Q 6.984375 53.65625 15.1875 63.9375 
Q 23.390625 74.21875 37.203125 74.21875 
Q 40.921875 74.21875 44.703125 73.484375 
Q 48.484375 72.75 52.59375 71.296875 
z
" id="DejaVuSans-54"/>
     </defs>
     <use xlink:href="#DejaVuSans-84"/>
     <use x="61.083984" xlink:href="#DejaVuSans-61"/>
     <use x="144.873047" xlink:href="#DejaVuSans-49"/>
     <use x="208.496094" xlink:href="#DejaVuSans-54"/>
    </g>
   </g>
   <g id="patch_14">
    <path d="M 437.361146 200.335132 
Q 436.76485 211.564563 436.227839 221.677533 
" style="fill:none;stroke:#000000;stroke-linecap:round;"/>
    <path d="M 440.646424 213.900894 
L 436.227839 221.677533 
L 432.657679 213.476683 
" style="fill:none;stroke:#000000;stroke-linecap:round;"/>
   </g>
   <g id="text_26">
    <!-- T=19 -->
    <g transform="translate(410.875 192.1752)scale(0.2 -0.2)">
     <use xlink:href="#DejaVuSans-84"/>
     <use x="61.083984" xlink:href="#DejaVuSans-61"/>
     <use x="144.873047" xlink:href="#DejaVuSans-49"/>
     <use x="208.496094" xlink:href="#DejaVuSans-57"/>
    </g>
   </g>
   <g id="patch_15">
    <path d="M 485.251282 255.723867 
Q 483.167987 264.560054 481.341254 272.308044 
" style="fill:none;stroke:#000000;stroke-linecap:round;"/>
    <path d="M 487.070326 265.439438 
L 481.341254 272.308044 
L 479.283813 263.603624 
" style="fill:none;stroke:#000000;stroke-linecap:round;"/>
   </g>
   <g id="text_27">
    <!-- T=21 -->
    <g transform="translate(461.25 247.6224)scale(0.2 -0.2)">
     <use xlink:href="#DejaVuSans-84"/>
     <use x="61.083984" xlink:href="#DejaVuSans-61"/>
     <use x="144.873047" xlink:href="#DejaVuSans-50"/>
     <use x="208.496094" xlink:href="#DejaVuSans-49"/>
    </g>
   </g>
   <g id="patch_16">
    <path d="M 579.167728 239.411644 
Q 582.927486 253.964455 586.407579 267.434776 
" style="fill:none;stroke:#000000;stroke-linecap:round;"/>
    <path d="M 588.279301 258.688539 
L 586.407579 267.434776 
L 580.533623 260.689656 
" style="fill:none;stroke:#000000;stroke-linecap:round;"/>
   </g>
   <g id="text_28">
    <!-- T=25 -->
    <g transform="translate(548.4375 231.3144)scale(0.2 -0.2)">
     <use xlink:href="#DejaVuSans-84"/>
     <use x="61.083984" xlink:href="#DejaVuSans-61"/>
     <use x="144.873047" xlink:href="#DejaVuSans-50"/>
     <use x="208.496094" xlink:href="#DejaVuSans-53"/>
    </g>
   </g>
   <g id="patch_17">
    <path d="M 637.612132 255.784233 
Q 637.590085 263.749417 637.571132 270.596572 
" style="fill:none;stroke:#000000;stroke-linecap:round;"/>
    <path d="M 641.593261 262.607674 
L 637.571132 270.596572 
L 633.593291 262.58553 
" style="fill:none;stroke:#000000;stroke-linecap:round;"/>
   </g>
   <g id="text_29">
    <!-- T=27 -->
    <g transform="translate(610.4375 247.6224)scale(0.2 -0.2)">
     <use xlink:href="#DejaVuSans-84"/>
     <use x="61.083984" xlink:href="#DejaVuSans-61"/>
     <use x="144.873047" xlink:href="#DejaVuSans-50"/>
     <use x="208.496094" xlink:href="#DejaVuSans-55"/>
    </g>
   </g>
   <g id="patch_18">
    <path d="M 774.349592 255.665017 
Q 777.300158 263.749261 779.867399 270.783236 
" style="fill:none;stroke:#000000;stroke-linecap:round;"/>
    <path d="M 780.882109 261.896709 
L 779.867399 270.783236 
L 773.367003 264.639552 
" style="fill:none;stroke:#000000;stroke-linecap:round;"/>
   </g>
   <g id="text_30">
    <!-- T=31 -->
    <g transform="translate(742.1875 247.6224)scale(0.2 -0.2)">
     <use xlink:href="#DejaVuSans-84"/>
     <use x="61.083984" xlink:href="#DejaVuSans-61"/>
     <use x="144.873047" xlink:href="#DejaVuSans-51"/>
     <use x="208.496094" xlink:href="#DejaVuSans-49"/>
    </g>
   </g>
   <g id="text_31">
    <!-- MCP database (n=617) -->
    <g transform="translate(322.0875 18.88)scale(0.24 -0.24)">
     <defs>
      <path d="M 9.8125 72.90625 
L 24.515625 72.90625 
L 43.109375 23.296875 
L 61.8125 72.90625 
L 76.515625 72.90625 
L 76.515625 0 
L 66.890625 0 
L 66.890625 64.015625 
L 48.09375 14.015625 
L 38.1875 14.015625 
L 19.390625 64.015625 
L 19.390625 0 
L 9.8125 0 
z
" id="DejaVuSans-77"/>
      <path d="M 64.40625 67.28125 
L 64.40625 56.890625 
Q 59.421875 61.53125 53.78125 63.8125 
Q 48.140625 66.109375 41.796875 66.109375 
Q 29.296875 66.109375 22.65625 58.46875 
Q 16.015625 50.828125 16.015625 36.375 
Q 16.015625 21.96875 22.65625 14.328125 
Q 29.296875 6.6875 41.796875 6.6875 
Q 48.140625 6.6875 53.78125 8.984375 
Q 59.421875 11.28125 64.40625 15.921875 
L 64.40625 5.609375 
Q 59.234375 2.09375 53.4375 0.328125 
Q 47.65625 -1.421875 41.21875 -1.421875 
Q 24.65625 -1.421875 15.125 8.703125 
Q 5.609375 18.84375 5.609375 36.375 
Q 5.609375 53.953125 15.125 64.078125 
Q 24.65625 74.21875 41.21875 74.21875 
Q 47.75 74.21875 53.53125 72.484375 
Q 59.328125 70.75 64.40625 67.28125 
z
" id="DejaVuSans-67"/>
      <path d="M 19.671875 64.796875 
L 19.671875 37.40625 
L 32.078125 37.40625 
Q 38.96875 37.40625 42.71875 40.96875 
Q 46.484375 44.53125 46.484375 51.125 
Q 46.484375 57.671875 42.71875 61.234375 
Q 38.96875 64.796875 32.078125 64.796875 
z
M 9.8125 72.90625 
L 32.078125 72.90625 
Q 44.34375 72.90625 50.609375 67.359375 
Q 56.890625 61.8125 56.890625 51.125 
Q 56.890625 40.328125 50.609375 34.8125 
Q 44.34375 29.296875 32.078125 29.296875 
L 19.671875 29.296875 
L 19.671875 0 
L 9.8125 0 
z
" id="DejaVuSans-80"/>
      <path d="M 45.40625 46.390625 
L 45.40625 75.984375 
L 54.390625 75.984375 
L 54.390625 0 
L 45.40625 0 
L 45.40625 8.203125 
Q 42.578125 3.328125 38.25 0.953125 
Q 33.9375 -1.421875 27.875 -1.421875 
Q 17.96875 -1.421875 11.734375 6.484375 
Q 5.515625 14.40625 5.515625 27.296875 
Q 5.515625 40.1875 11.734375 48.09375 
Q 17.96875 56 27.875 56 
Q 33.9375 56 38.25 53.625 
Q 42.578125 51.265625 45.40625 46.390625 
z
M 14.796875 27.296875 
Q 14.796875 17.390625 18.875 11.75 
Q 22.953125 6.109375 30.078125 6.109375 
Q 37.203125 6.109375 41.296875 11.75 
Q 45.40625 17.390625 45.40625 27.296875 
Q 45.40625 37.203125 41.296875 42.84375 
Q 37.203125 48.484375 30.078125 48.484375 
Q 22.953125 48.484375 18.875 42.84375 
Q 14.796875 37.203125 14.796875 27.296875 
z
" id="DejaVuSans-100"/>
      <path d="M 34.28125 27.484375 
Q 23.390625 27.484375 19.1875 25 
Q 14.984375 22.515625 14.984375 16.5 
Q 14.984375 11.71875 18.140625 8.90625 
Q 21.296875 6.109375 26.703125 6.109375 
Q 34.1875 6.109375 38.703125 11.40625 
Q 43.21875 16.703125 43.21875 25.484375 
L 43.21875 27.484375 
z
M 52.203125 31.203125 
L 52.203125 0 
L 43.21875 0 
L 43.21875 8.296875 
Q 40.140625 3.328125 35.546875 0.953125 
Q 30.953125 -1.421875 24.3125 -1.421875 
Q 15.921875 -1.421875 10.953125 3.296875 
Q 6 8.015625 6 15.921875 
Q 6 25.140625 12.171875 29.828125 
Q 18.359375 34.515625 30.609375 34.515625 
L 43.21875 34.515625 
L 43.21875 35.40625 
Q 43.21875 41.609375 39.140625 45 
Q 35.0625 48.390625 27.6875 48.390625 
Q 23 48.390625 18.546875 47.265625 
Q 14.109375 46.140625 10.015625 43.890625 
L 10.015625 52.203125 
Q 14.9375 54.109375 19.578125 55.046875 
Q 24.21875 56 28.609375 56 
Q 40.484375 56 46.34375 49.84375 
Q 52.203125 43.703125 52.203125 31.203125 
z
" id="DejaVuSans-97"/>
     </defs>
     <use xlink:href="#DejaVuSans-77"/>
     <use x="86.279297" xlink:href="#DejaVuSans-67"/>
     <use x="156.103516" xlink:href="#DejaVuSans-80"/>
     <use x="216.40625" xlink:href="#DejaVuSans-32"/>
     <use x="248.193359" xlink:href="#DejaVuSans-100"/>
     <use x="311.669922" xlink:href="#DejaVuSans-97"/>
     <use x="372.949219" xlink:href="#DejaVuSans-116"/>
     <use x="412.158203" xlink:href="#DejaVuSans-97"/>
     <use x="473.4375" xlink:href="#DejaVuSans-98"/>
     <use x="536.914062" xlink:href="#DejaVuSans-97"/>
     <use x="598.193359" xlink:href="#DejaVuSans-115"/>
     <use x="650.292969" xlink:href="#DejaVuSans-101"/>
     <use x="711.816406" xlink:href="#DejaVuSans-32"/>
     <use x="743.603516" xlink:href="#DejaVuSans-40"/>
     <use x="782.617188" xlink:href="#DejaVuSans-110"/>
     <use x="845.996094" xlink:href="#DejaVuSans-61"/>
     <use x="929.785156" xlink:href="#DejaVuSans-54"/>
     <use x="993.408203" xlink:href="#DejaVuSans-49"/>
     <use x="1057.03125" xlink:href="#DejaVuSans-55"/>
     <use x="1120.654297" xlink:href="#DejaVuSans-41"/>
    </g>
   </g>
  </g>
 </g>
 <defs>
  <clipPath id="pa962dd523e">
   <rect height="244.62" width="697.5" x="112.5" y="38.88"/>
  </clipPath>
 </defs>
</svg>
