<?xml version="1.0" encoding="utf-8" standalone="no"?>
<!DOCTYPE svg PUBLIC "-//W3C//DTD SVG 1.1//EN"
  "http://www.w3.org/Graphics/SVG/1.1/DTD/svg11.dtd">
<!-- Created with matplotlib (https://matplotlib.org/) -->
<svg height="432pt" version="1.1" viewBox="0 0 720 432" width="720pt" xmlns="http://www.w3.org/2000/svg" xmlns:xlink="http://www.w3.org/1999/xlink">
 <metadata>
  <rdf:RDF xmlns:cc="http://creativecommons.org/ns#" xmlns:dc="http://purl.org/dc/elements/1.1/" xmlns:rdf="http://www.w3.org/1999/02/22-rdf-syntax-ns#">
   <cc:Work>
    <dc:type rdf:resource="http://purl.org/dc/dcmitype/StillImage"/>
    <dc:date>2021-09-10T00:32:00.639217</dc:date>
    <dc:format>image/svg+xml</dc:format>
    <dc:creator>
     <cc:Agent>
      <dc:title>Matplotlib v3.3.2, https://matplotlib.org/</dc:title>
     </cc:Agent>
    </dc:creator>
   </cc:Work>
  </rdf:RDF>
 </metadata>
 <defs>
  <style type="text/css">*{stroke-linecap:butt;stroke-linejoin:round;}</style>
 </defs>
 <g id="figure_1">
  <g id="patch_1">
   <path d="M 0 432 
L 720 432 
L 720 0 
L 0 0 
z
" style="fill:none;"/>
  </g>
  <g id="axes_1">
   <g id="patch_2">
    <path d="M 90 378 
L 648 378 
L 648 51.84 
L 90 51.84 
z
" style="fill:#ffffff;"/>
   </g>
   <g id="PolyCollection_1">
    <path clip-path="url(#p2b29852a5b)" d="M 90 310.244681 
L 90 326.610114 
L 103.574447 331.499227 
L 117.148894 333.320548 
L 130.723341 332.930961 
L 144.297788 331.627757 
L 157.872235 330.018277 
L 171.446682 328.37064 
L 185.021129 326.70637 
L 198.595576 325.283116 
L 212.170023 324.392323 
L 225.74447 323.889391 
L 239.318917 323.500545 
L 252.893364 323.270505 
L 266.467811 323.159154 
L 280.042258 322.947832 
L 293.616705 322.600885 
L 307.191152 322.383271 
L 320.765599 322.467664 
L 334.340046 322.677814 
L 347.914493 322.967191 
L 361.48894 323.453267 
L 375.063386 323.940842 
L 388.637833 324.067918 
L 402.21228 323.853682 
L 415.786727 323.73345 
L 429.361174 323.932636 
L 442.935621 324.206229 
L 456.510068 324.243011 
L 470.084515 323.916228 
L 483.658962 323.28555 
L 497.233409 322.545562 
L 510.807856 321.833318 
L 524.382303 321.167117 
L 537.95675 320.626036 
L 551.531197 320.254592 
L 565.105644 319.993312 
L 578.680091 319.796045 
L 592.254538 319.660555 
L 605.828985 319.554048 
L 619.403432 319.408629 
L 632.977879 319.244703 
L 646.552326 319.118934 
L 660.126773 319.021797 
L 673.70122 318.923595 
L 687.275667 318.831522 
L 700.850114 318.773278 
L 714.424561 318.748126 
L 727.999008 318.730954 
L 741.573455 318.729655 
L 755.147902 318.76067 
L 768.722349 318.795694 
L 782.296796 318.806412 
L 795.871243 318.797093 
L 809.44569 318.7833 
L 823.020137 318.760395 
L 836.594584 318.718844 
L 850.169031 318.654661 
L 863.743478 318.584615 
L 877.317925 318.533797 
L 890.892372 318.506033 
L 904.466819 318.488225 
L 918.041266 318.469262 
L 931.615713 318.455261 
L 945.190159 318.451723 
L 958.764606 318.454932 
L 972.339053 318.461477 
L 985.9135 318.467244 
L 999.487947 318.46894 
L 1013.062394 318.466849 
L 1026.636841 318.461156 
L 1040.211288 318.456921 
L 1053.785735 318.45754 
L 1067.360182 318.456196 
L 1080.934629 318.449594 
L 1094.509076 318.440992 
L 1108.083523 318.434347 
L 1121.65797 318.431848 
L 1135.232417 318.431875 
L 1148.806864 318.432021 
L 1162.381311 318.431389 
L 1175.955758 318.430093 
L 1189.530205 318.429016 
L 1203.104652 318.428458 
L 1216.679099 318.428763 
L 1230.253546 318.43013 
L 1243.827993 318.430614 
L 1257.40244 318.429186 
L 1270.976887 318.427871 
L 1284.551334 318.427656 
L 1298.125781 318.428564 
L 1311.700228 318.430951 
L 1325.274675 318.434309 
L 1338.849122 318.436861 
L 1352.423569 318.436279 
L 1365.998016 318.433572 
L 1379.572463 318.43139 
L 1393.14691 318.429925 
L 1406.721357 318.428924 
L 1420.295804 318.4288 
L 1433.870251 318.428828 
L 1433.870251 318.425966 
L 1433.870251 318.425966 
L 1420.295804 318.425994 
L 1406.721357 318.42587 
L 1393.14691 318.424869 
L 1379.572463 318.423405 
L 1365.998016 318.421222 
L 1352.423569 318.418516 
L 1338.849122 318.417934 
L 1325.274675 318.420486 
L 1311.700228 318.423844 
L 1298.125781 318.42623 
L 1284.551334 318.427139 
L 1270.976887 318.426923 
L 1257.40244 318.425608 
L 1243.827993 318.42418 
L 1230.253546 318.424664 
L 1216.679099 318.426031 
L 1203.104652 318.426337 
L 1189.530205 318.425779 
L 1175.955758 318.424702 
L 1162.381311 318.423405 
L 1148.806864 318.422773 
L 1135.232417 318.422919 
L 1121.65797 318.422946 
L 1108.083523 318.420448 
L 1094.509076 318.413803 
L 1080.934629 318.4052 
L 1067.360182 318.398598 
L 1053.785735 318.397254 
L 1040.211288 318.397873 
L 1026.636841 318.393638 
L 1013.062394 318.387945 
L 999.487947 318.385855 
L 985.9135 318.387551 
L 972.339053 318.393317 
L 958.764606 318.399863 
L 945.190159 318.403071 
L 931.615713 318.399533 
L 918.041266 318.385532 
L 904.466819 318.366569 
L 890.892372 318.348762 
L 877.317925 318.320998 
L 863.743478 318.270179 
L 850.169031 318.200133 
L 836.594584 318.135951 
L 823.020137 318.0944 
L 809.44569 318.071495 
L 795.871243 318.057702 
L 782.296796 318.048382 
L 768.722349 318.0591 
L 755.147902 318.094124 
L 741.573455 318.12514 
L 727.999008 318.123841 
L 714.424561 318.106669 
L 700.850114 318.081517 
L 687.275667 318.023273 
L 673.70122 317.9312 
L 660.126773 317.832997 
L 646.552326 317.73586 
L 632.977879 317.610091 
L 619.403432 317.446165 
L 605.828985 317.300746 
L 592.254538 317.19424 
L 578.680091 317.058749 
L 565.105644 316.861482 
L 551.531197 316.600202 
L 537.95675 316.228759 
L 524.382303 315.687677 
L 510.807856 315.021477 
L 497.233409 314.309232 
L 483.658962 313.569245 
L 470.084515 312.938566 
L 456.510068 312.611783 
L 442.935621 312.648566 
L 429.361174 312.922159 
L 415.786727 313.121344 
L 402.21228 313.001113 
L 388.637833 312.786877 
L 375.063386 312.913952 
L 361.48894 313.401527 
L 347.914493 313.887604 
L 334.340046 314.176981 
L 320.765599 314.38713 
L 307.191152 314.471524 
L 293.616705 314.25391 
L 280.042258 313.906963 
L 266.467811 313.695641 
L 252.893364 313.58429 
L 239.318917 313.354249 
L 225.74447 312.965404 
L 212.170023 312.462471 
L 198.595576 311.571678 
L 185.021129 310.148424 
L 171.446682 308.484154 
L 157.872235 306.836518 
L 144.297788 305.227037 
L 130.723341 303.923833 
L 117.148894 303.534247 
L 103.574447 305.355568 
L 90 310.244681 
z
" style="fill:#1f77b4;fill-opacity:0.3;"/>
   </g>
   <g id="PolyCollection_2">
    <path clip-path="url(#p2b29852a5b)" d="M 90 250.111734 
L 90 267.597855 
L 96.34806 271.964728 
L 102.696121 273.747945 
L 109.044181 272.804374 
L 115.392241 270.581159 
L 121.740301 268.373897 
L 128.088362 266.68422 
L 134.436422 265.448836 
L 140.784482 264.386028 
L 147.132542 263.344359 
L 153.480603 262.448245 
L 159.828663 261.856961 
L 166.176723 261.534112 
L 172.524783 261.321645 
L 178.872844 261.111511 
L 185.220904 260.872034 
L 191.568964 260.590312 
L 197.917024 260.282417 
L 204.265085 260.064436 
L 210.613145 260.0754 
L 216.961205 260.244736 
L 223.309266 260.313156 
L 229.657326 260.162923 
L 236.005386 259.938544 
L 242.353446 259.799734 
L 248.701507 259.757099 
L 255.049567 259.744996 
L 261.397627 259.687965 
L 267.745687 259.54429 
L 274.093748 259.369912 
L 280.441808 259.233379 
L 286.789868 259.130056 
L 293.137928 259.048113 
L 299.485989 258.994289 
L 305.834049 258.972963 
L 312.182109 258.984453 
L 318.530169 259.012238 
L 324.87823 259.027528 
L 331.22629 259.017433 
L 337.57435 258.998757 
L 343.922411 258.992415 
L 350.270471 258.992278 
L 356.618531 258.978198 
L 362.966591 258.948644 
L 369.314652 258.919119 
L 375.662712 258.899358 
L 382.010772 258.886973 
L 388.358832 258.877153 
L 394.706893 258.872455 
L 401.054953 258.875701 
L 407.403013 258.879438 
L 413.751073 258.876255 
L 420.099134 258.870277 
L 426.447194 258.869454 
L 432.795254 258.874038 
L 439.143314 258.875848 
L 445.491375 258.870066 
L 451.839435 258.861796 
L 458.187495 258.856795 
L 464.535556 258.855147 
L 470.883616 258.854832 
L 477.231676 258.854797 
L 483.579736 258.854795 
L 489.927797 258.854798 
L 496.275857 258.854839 
L 502.623917 258.855126 
L 508.971977 258.856228 
L 515.320038 258.858437 
L 521.668098 258.86023 
L 528.016158 258.859557 
L 534.364218 258.857245 
L 540.712279 258.855535 
L 547.060339 258.854926 
L 553.408399 258.854808 
L 559.756459 258.854795 
L 566.10452 258.854795 
L 572.45258 258.854809 
L 578.80064 258.85496 
L 585.148701 258.855916 
L 591.496761 258.859414 
L 597.844821 258.86652 
L 604.192881 258.873538 
L 610.540942 258.874063 
L 616.889002 258.867681 
L 623.237062 258.860379 
L 629.585122 258.856336 
L 635.933183 258.85506 
L 642.281243 258.854823 
L 648.629303 258.854796 
L 654.977363 258.854795 
L 661.325424 258.854795 
L 667.673484 258.854795 
L 674.021544 258.854795 
L 680.369604 258.854795 
L 686.717665 258.854802 
L 693.065725 258.854873 
L 699.413785 258.855298 
L 705.761846 258.856701 
L 712.109906 258.859031 
L 718.457966 258.860322 
L 718.457966 258.849267 
L 718.457966 258.849267 
L 712.109906 258.850558 
L 705.761846 258.852888 
L 699.413785 258.854291 
L 693.065725 258.854716 
L 686.717665 258.854787 
L 680.369604 258.854794 
L 674.021544 258.854795 
L 667.673484 258.854795 
L 661.325424 258.854795 
L 654.977363 258.854794 
L 648.629303 258.854793 
L 642.281243 258.854767 
L 635.933183 258.854529 
L 629.585122 258.853253 
L 623.237062 258.84921 
L 616.889002 258.841908 
L 610.540942 258.835526 
L 604.192881 258.836051 
L 597.844821 258.843069 
L 591.496761 258.850175 
L 585.148701 258.853673 
L 578.80064 258.85463 
L 572.45258 258.85478 
L 566.10452 258.854794 
L 559.756459 258.854794 
L 553.408399 258.854781 
L 547.060339 258.854663 
L 540.712279 258.854054 
L 534.364218 258.852344 
L 528.016158 258.850032 
L 521.668098 258.849359 
L 515.320038 258.851152 
L 508.971977 258.853361 
L 502.623917 258.854463 
L 496.275857 258.85475 
L 489.927797 258.854791 
L 483.579736 258.854794 
L 477.231676 258.854792 
L 470.883616 258.854757 
L 464.535556 258.854442 
L 458.187495 258.852794 
L 451.839435 258.847793 
L 445.491375 258.839523 
L 439.143314 258.833742 
L 432.795254 258.835551 
L 426.447194 258.840135 
L 420.099134 258.839312 
L 413.751073 258.833334 
L 407.403013 258.830151 
L 401.054953 258.833888 
L 394.706893 258.837134 
L 388.358832 258.832436 
L 382.010772 258.822616 
L 375.662712 258.810231 
L 369.314652 258.79047 
L 362.966591 258.760945 
L 356.618531 258.731391 
L 350.270471 258.717311 
L 343.922411 258.717174 
L 337.57435 258.710832 
L 331.22629 258.692156 
L 324.87823 258.682061 
L 318.530169 258.697351 
L 312.182109 258.725136 
L 305.834049 258.736626 
L 299.485989 258.7153 
L 293.137928 258.661476 
L 286.789868 258.579533 
L 280.441808 258.47621 
L 274.093748 258.339677 
L 267.745687 258.165299 
L 261.397627 258.021624 
L 255.049567 257.964593 
L 248.701507 257.95249 
L 242.353446 257.909856 
L 236.005386 257.771045 
L 229.657326 257.546666 
L 223.309266 257.396433 
L 216.961205 257.464853 
L 210.613145 257.634189 
L 204.265085 257.645153 
L 197.917024 257.427172 
L 191.568964 257.119277 
L 185.220904 256.837555 
L 178.872844 256.598078 
L 172.524783 256.387944 
L 166.176723 256.175477 
L 159.828663 255.852628 
L 153.480603 255.261344 
L 147.132542 254.36523 
L 140.784482 253.323561 
L 134.436422 252.260753 
L 128.088362 251.025369 
L 121.740301 249.335692 
L 115.392241 247.12843 
L 109.044181 244.905215 
L 102.696121 243.961644 
L 96.34806 245.744861 
L 90 250.111734 
z
" style="fill:#1f77b4;fill-opacity:0.3;"/>
   </g>
   <g id="PolyCollection_3">
    <path clip-path="url(#p2b29852a5b)" d="M 90.017314 189.779381 
L 90.017314 208.785003 
L 91.842745 210.469239 
L 93.668176 211.913248 
L 95.493607 213.021442 
L 97.319037 213.75183 
L 99.144468 214.117501 
L 100.969899 214.175342 
L 102.79533 214.007164 
L 104.620761 213.699363 
L 106.446191 213.326011 
L 108.271622 212.938118 
L 110.097053 212.559944 
L 111.922484 212.191735 
L 113.747914 211.817248 
L 115.573345 211.413552 
L 117.398776 210.960304 
L 119.224207 210.446148 
L 121.049637 209.871119 
L 122.875068 209.245421 
L 124.700499 208.586019 
L 126.52593 207.912807 
L 128.35136 207.245572 
L 130.176791 206.602265 
L 132.002222 205.998432 
L 133.827653 205.447483 
L 135.653084 204.96142 
L 137.478514 204.551775 
L 139.303945 204.230362 
L 141.129376 204.009332 
L 142.954807 203.900017 
L 144.780237 203.910385 
L 146.605668 204.041619 
L 148.431099 204.284992 
L 150.25653 204.620363 
L 152.08196 205.017096 
L 153.907391 205.437158 
L 155.732822 205.839337 
L 157.558253 206.183363 
L 159.383683 206.433377 
L 161.209114 206.56098 
L 163.034545 206.548353 
L 164.859976 206.391337 
L 166.685406 206.101311 
L 168.510837 205.704224 
L 170.336268 205.235763 
L 172.161699 204.733449 
L 173.98713 204.22821 
L 175.81256 203.738672 
L 177.637991 203.270355 
L 179.463422 202.819711 
L 181.288853 202.380705 
L 183.114283 201.950772 
L 184.939714 201.533703 
L 186.765145 201.138852 
L 188.590576 200.777849 
L 190.416006 200.460778 
L 192.241437 200.193481 
L 194.066868 199.976682 
L 195.892299 199.806657 
L 197.717729 199.676751 
L 199.54316 199.579048 
L 201.368591 199.50578 
L 203.194022 199.450285 
L 205.019453 199.407503 
L 206.844883 199.374031 
L 208.670314 199.347855 
L 210.495745 199.327923 
L 212.321176 199.313745 
L 214.146606 199.305163 
L 215.972037 199.302299 
L 217.797468 199.305616 
L 219.622899 199.315944 
L 221.448329 199.334337 
L 223.27376 199.36172 
L 225.099191 199.398379 
L 226.924622 199.443454 
L 228.750052 199.494671 
L 230.575483 199.54844 
L 232.400914 199.600358 
L 234.226345 199.645948 
L 236.051776 199.681368 
L 237.877206 199.703888 
L 239.702637 199.712033 
L 241.528068 199.705504 
L 243.353499 199.685065 
L 245.178929 199.652487 
L 247.00436 199.610562 
L 248.829791 199.562986 
L 250.655222 199.514004 
L 252.480652 199.467782 
L 254.306083 199.427679 
L 256.131514 199.395686 
L 257.956945 199.372239 
L 259.782375 199.356446 
L 261.607806 199.346585 
L 263.433237 199.340666 
L 265.258668 199.336857 
L 267.084099 199.333718 
L 268.909529 199.330272 
L 270.73496 199.325981 
L 270.73496 199.238403 
L 270.73496 199.238403 
L 268.909529 199.234112 
L 267.084099 199.230665 
L 265.258668 199.227527 
L 263.433237 199.223718 
L 261.607806 199.217798 
L 259.782375 199.207937 
L 257.956945 199.192144 
L 256.131514 199.168698 
L 254.306083 199.136705 
L 252.480652 199.096601 
L 250.655222 199.050379 
L 248.829791 199.001398 
L 247.00436 198.953822 
L 245.178929 198.911896 
L 243.353499 198.879319 
L 241.528068 198.858879 
L 239.702637 198.852351 
L 237.877206 198.860495 
L 236.051776 198.883016 
L 234.226345 198.918436 
L 232.400914 198.964025 
L 230.575483 199.015944 
L 228.750052 199.069713 
L 226.924622 199.12093 
L 225.099191 199.166005 
L 223.27376 199.202663 
L 221.448329 199.230047 
L 219.622899 199.24844 
L 217.797468 199.258767 
L 215.972037 199.262085 
L 214.146606 199.259221 
L 212.321176 199.250638 
L 210.495745 199.236461 
L 208.670314 199.216528 
L 206.844883 199.190353 
L 205.019453 199.156881 
L 203.194022 199.114099 
L 201.368591 199.058604 
L 199.54316 198.985335 
L 197.717729 198.887633 
L 195.892299 198.757727 
L 194.066868 198.587702 
L 192.241437 198.370903 
L 190.416006 198.103606 
L 188.590576 197.786534 
L 186.765145 197.425532 
L 184.939714 197.030681 
L 183.114283 196.613611 
L 181.288853 196.183679 
L 179.463422 195.744673 
L 177.637991 195.294028 
L 175.81256 194.825712 
L 173.98713 194.336173 
L 172.161699 193.830935 
L 170.336268 193.328621 
L 168.510837 192.860159 
L 166.685406 192.463072 
L 164.859976 192.173047 
L 163.034545 192.01603 
L 161.209114 192.003403 
L 159.383683 192.131006 
L 157.558253 192.381021 
L 155.732822 192.725047 
L 153.907391 193.127225 
L 152.08196 193.547288 
L 150.25653 193.94402 
L 148.431099 194.279392 
L 146.605668 194.522765 
L 144.780237 194.653999 
L 142.954807 194.664366 
L 141.129376 194.555052 
L 139.303945 194.334022 
L 137.478514 194.012609 
L 135.653084 193.602964 
L 133.827653 193.116901 
L 132.002222 192.565951 
L 130.176791 191.962119 
L 128.35136 191.318811 
L 126.52593 190.651577 
L 124.700499 189.978365 
L 122.875068 189.318963 
L 121.049637 188.693264 
L 119.224207 188.118236 
L 117.398776 187.604079 
L 115.573345 187.150831 
L 113.747914 186.747136 
L 111.922484 186.372649 
L 110.097053 186.00444 
L 108.271622 185.626265 
L 106.446191 185.238373 
L 104.620761 184.86502 
L 102.79533 184.55722 
L 100.969899 184.389041 
L 99.144468 184.446882 
L 97.319037 184.812554 
L 95.493607 185.542941 
L 93.668176 186.651135 
L 91.842745 188.095145 
L 90.017314 189.779381 
z
" style="fill:#1f77b4;fill-opacity:0.3;"/>
   </g>
   <g id="PolyCollection_4">
    <path clip-path="url(#p2b29852a5b)" d="M 90.026695 130.53067 
L 90.026695 148.888508 
L 91.067529 150.286179 
L 92.108363 151.576891 
L 93.149196 152.693846 
L 94.19003 153.582578 
L 95.230864 154.205757 
L 96.271698 154.545434 
L 97.312531 154.60274 
L 98.353365 154.395481 
L 99.394199 153.954387 
L 100.435032 153.318787 
L 101.475866 152.53239 
L 102.5167 151.639643 
L 103.557534 150.682902 
L 104.598367 149.700472 
L 105.639201 148.725426 
L 106.680035 147.785031 
L 107.720868 146.900579 
L 108.761702 146.087481 
L 109.802536 145.355499 
L 110.843369 144.709121 
L 111.884203 144.148098 
L 112.925037 143.668185 
L 113.965871 143.262104 
L 115.006704 142.920646 
L 116.047538 142.633814 
L 117.088372 142.391829 
L 118.129205 142.185894 
L 119.170039 142.008641 
L 120.210873 141.854277 
L 121.251707 141.718504 
L 122.29254 141.598279 
L 123.333374 141.491513 
L 124.374208 141.396724 
L 125.415041 141.312688 
L 126.455875 141.238095 
L 127.496709 141.17127 
L 128.537543 141.110014 
L 129.578376 141.051653 
L 130.61921 140.993287 
L 131.660044 140.932233 
L 132.700877 140.866517 
L 133.741711 140.79529 
L 134.782545 140.719009 
L 135.823378 140.639326 
L 136.864212 140.558697 
L 137.905046 140.479834 
L 138.94588 140.405155 
L 139.986713 140.336396 
L 141.027547 140.274456 
L 142.068381 140.219491 
L 143.109214 140.171172 
L 144.150048 140.12899 
L 145.190882 140.092502 
L 146.231716 140.061447 
L 147.272549 140.035731 
L 148.313383 140.015308 
L 149.354217 140.000051 
L 150.39505 139.989659 
L 151.435884 139.98365 
L 152.476718 139.981454 
L 153.517551 139.982561 
L 154.558385 139.986681 
L 155.599219 139.993866 
L 156.640053 140.004541 
L 157.680886 140.019449 
L 158.72172 140.039506 
L 159.762554 140.065625 
L 160.803387 140.098536 
L 161.844221 140.138671 
L 162.885055 140.186109 
L 163.925889 140.240609 
L 164.966722 140.301691 
L 166.007556 140.368741 
L 167.04839 140.441085 
L 168.089223 140.518002 
L 169.130057 140.598651 
L 170.170891 140.681904 
L 171.211724 140.766116 
L 172.252558 140.848897 
L 173.293392 140.926958 
L 174.334226 140.996127 
L 175.375059 141.051598 
L 176.415893 141.088426 
L 177.456727 141.10223 
L 178.49756 141.089949 
L 179.538394 141.050502 
L 180.579228 140.985173 
L 181.620062 140.897585 
L 182.660895 140.793253 
L 183.701729 140.678801 
L 184.742563 140.56101 
L 185.783396 140.445917 
L 186.82423 140.338151 
L 187.865064 140.240621 
L 188.905897 140.154565 
L 189.946731 140.079884 
L 190.987565 140.015622 
L 192.028399 139.960454 
L 193.069232 139.913067 
L 193.069232 139.506111 
L 193.069232 139.506111 
L 192.028399 139.458724 
L 190.987565 139.403556 
L 189.946731 139.339294 
L 188.905897 139.264613 
L 187.865064 139.178557 
L 186.82423 139.081027 
L 185.783396 138.973261 
L 184.742563 138.858168 
L 183.701729 138.740377 
L 182.660895 138.625925 
L 181.620062 138.521593 
L 180.579228 138.434005 
L 179.538394 138.368676 
L 178.49756 138.329229 
L 177.456727 138.316948 
L 176.415893 138.330752 
L 175.375059 138.367581 
L 174.334226 138.423051 
L 173.293392 138.49222 
L 172.252558 138.570281 
L 171.211724 138.653062 
L 170.170891 138.737274 
L 169.130057 138.820527 
L 168.089223 138.901176 
L 167.04839 138.978094 
L 166.007556 139.050437 
L 164.966722 139.117487 
L 163.925889 139.178569 
L 162.885055 139.233069 
L 161.844221 139.280507 
L 160.803387 139.320642 
L 159.762554 139.353554 
L 158.72172 139.379672 
L 157.680886 139.39973 
L 156.640053 139.414637 
L 155.599219 139.425313 
L 154.558385 139.432497 
L 153.517551 139.436617 
L 152.476718 139.437724 
L 151.435884 139.435528 
L 150.39505 139.429519 
L 149.354217 139.419127 
L 148.313383 139.40387 
L 147.272549 139.383447 
L 146.231716 139.357731 
L 145.190882 139.326676 
L 144.150048 139.290188 
L 143.109214 139.248006 
L 142.068381 139.199687 
L 141.027547 139.144722 
L 139.986713 139.082783 
L 138.94588 139.014023 
L 137.905046 138.939345 
L 136.864212 138.860481 
L 135.823378 138.779852 
L 134.782545 138.700169 
L 133.741711 138.623888 
L 132.700877 138.552661 
L 131.660044 138.486945 
L 130.61921 138.425891 
L 129.578376 138.367525 
L 128.537543 138.309164 
L 127.496709 138.247908 
L 126.455875 138.181083 
L 125.415041 138.10649 
L 124.374208 138.022455 
L 123.333374 137.927666 
L 122.29254 137.820899 
L 121.251707 137.700674 
L 120.210873 137.564901 
L 119.170039 137.410537 
L 118.129205 137.233284 
L 117.088372 137.027349 
L 116.047538 136.785364 
L 115.006704 136.498532 
L 113.965871 136.157075 
L 112.925037 135.750993 
L 111.884203 135.27108 
L 110.843369 134.710057 
L 109.802536 134.063679 
L 108.761702 133.331697 
L 107.720868 132.518599 
L 106.680035 131.634148 
L 105.639201 130.693752 
L 104.598367 129.718706 
L 103.557534 128.736276 
L 102.5167 127.779535 
L 101.475866 126.886788 
L 100.435032 126.100392 
L 99.394199 125.464791 
L 98.353365 125.023697 
L 97.312531 124.816438 
L 96.271698 124.873744 
L 95.230864 125.213421 
L 94.19003 125.8366 
L 93.149196 126.725332 
L 92.108363 127.842287 
L 91.067529 129.132999 
L 90.026695 130.53067 
z
" style="fill:#1f77b4;fill-opacity:0.3;"/>
   </g>
   <g id="PolyCollection_5">
    <path clip-path="url(#p2b29852a5b)" d="M 90 68.743398 
L 90 91.530575 
L 92.242549 95.030137 
L 94.485099 94.718674 
L 96.727648 91.7113 
L 98.970197 88.266866 
L 101.212747 85.572541 
L 103.455296 83.745806 
L 105.697845 82.616721 
L 107.940395 81.978834 
L 110.182944 81.573775 
L 112.425493 81.224469 
L 114.668043 80.897388 
L 116.910592 80.620304 
L 119.153141 80.421499 
L 121.395691 80.307219 
L 123.63824 80.252525 
L 125.880789 80.219088 
L 128.123339 80.189615 
L 130.365888 80.17459 
L 132.608437 80.178488 
L 134.850987 80.185945 
L 137.093536 80.18364 
L 139.336085 80.171597 
L 141.578635 80.15632 
L 143.821184 80.144629 
L 146.063733 80.139009 
L 148.306283 80.137332 
L 150.548832 80.137024 
L 152.791381 80.136989 
L 155.033931 80.136986 
L 157.27648 80.136986 
L 159.519029 80.136986 
L 161.761579 80.136986 
L 164.004128 80.136986 
L 166.246677 80.136986 
L 168.489227 80.136986 
L 170.731776 80.136986 
L 172.974325 80.136986 
L 175.216875 80.136986 
L 177.459424 80.136986 
L 179.701973 80.136986 
L 181.944523 80.136986 
L 184.187072 80.136986 
L 186.429621 80.136986 
L 188.672171 80.136986 
L 190.91472 80.136986 
L 193.157269 80.136986 
L 195.399819 80.136986 
L 197.642368 80.136986 
L 199.884917 80.136986 
L 202.127467 80.136986 
L 204.370016 80.136986 
L 206.612565 80.136986 
L 208.855115 80.136986 
L 211.097664 80.136986 
L 213.340213 80.136986 
L 215.582763 80.136986 
L 217.825312 80.136986 
L 220.067861 80.136986 
L 222.310411 80.136986 
L 224.55296 80.136986 
L 226.795509 80.136986 
L 229.038059 80.136986 
L 231.280608 80.136989 
L 233.523157 80.13703 
L 235.765707 80.13736 
L 238.008256 80.138942 
L 240.250805 80.143308 
L 242.493355 80.149585 
L 244.735904 80.15247 
L 246.978453 80.148722 
L 249.221003 80.142472 
L 251.463552 80.138568 
L 253.706101 80.137267 
L 255.948651 80.137017 
L 258.1912 80.136988 
L 260.433749 80.136986 
L 262.676299 80.136986 
L 264.918848 80.136986 
L 267.161397 80.136986 
L 269.403947 80.136986 
L 271.646496 80.136986 
L 273.889045 80.136986 
L 276.131595 80.136986 
L 278.374144 80.136986 
L 280.616693 80.136986 
L 282.859243 80.136986 
L 285.101792 80.136986 
L 287.344341 80.136986 
L 289.586891 80.136986 
L 291.82944 80.136987 
L 294.071989 80.136994 
L 296.314539 80.137079 
L 298.557088 80.137685 
L 300.799637 80.140361 
L 303.042187 80.147953 
L 305.284736 80.162785 
L 307.527285 80.183668 
L 309.769835 80.201306 
L 312.012384 80.200092 
L 312.012384 80.073881 
L 312.012384 80.073881 
L 309.769835 80.072667 
L 307.527285 80.090304 
L 305.284736 80.111187 
L 303.042187 80.12602 
L 300.799637 80.133612 
L 298.557088 80.136288 
L 296.314539 80.136893 
L 294.071989 80.136979 
L 291.82944 80.136986 
L 289.586891 80.136986 
L 287.344341 80.136986 
L 285.101792 80.136986 
L 282.859243 80.136986 
L 280.616693 80.136986 
L 278.374144 80.136986 
L 276.131595 80.136986 
L 273.889045 80.136986 
L 271.646496 80.136986 
L 269.403947 80.136986 
L 267.161397 80.136986 
L 264.918848 80.136986 
L 262.676299 80.136986 
L 260.433749 80.136986 
L 258.1912 80.136984 
L 255.948651 80.136955 
L 253.706101 80.136705 
L 251.463552 80.135405 
L 249.221003 80.131501 
L 246.978453 80.12525 
L 244.735904 80.121502 
L 242.493355 80.124388 
L 240.250805 80.130665 
L 238.008256 80.13503 
L 235.765707 80.136613 
L 233.523157 80.136942 
L 231.280608 80.136983 
L 229.038059 80.136986 
L 226.795509 80.136986 
L 224.55296 80.136986 
L 222.310411 80.136986 
L 220.067861 80.136986 
L 217.825312 80.136986 
L 215.582763 80.136986 
L 213.340213 80.136986 
L 211.097664 80.136986 
L 208.855115 80.136986 
L 206.612565 80.136986 
L 204.370016 80.136986 
L 202.127467 80.136986 
L 199.884917 80.136986 
L 197.642368 80.136986 
L 195.399819 80.136986 
L 193.157269 80.136986 
L 190.91472 80.136986 
L 188.672171 80.136986 
L 186.429621 80.136986 
L 184.187072 80.136986 
L 181.944523 80.136986 
L 179.701973 80.136986 
L 177.459424 80.136986 
L 175.216875 80.136986 
L 172.974325 80.136986 
L 170.731776 80.136986 
L 168.489227 80.136986 
L 166.246677 80.136986 
L 164.004128 80.136986 
L 161.761579 80.136986 
L 159.519029 80.136986 
L 157.27648 80.136986 
L 155.033931 80.136986 
L 152.791381 80.136984 
L 150.548832 80.136949 
L 148.306283 80.13664 
L 146.063733 80.134964 
L 143.821184 80.129344 
L 141.578635 80.117652 
L 139.336085 80.102376 
L 137.093536 80.090333 
L 134.850987 80.088028 
L 132.608437 80.095485 
L 130.365888 80.099382 
L 128.123339 80.084358 
L 125.880789 80.054885 
L 123.63824 80.021448 
L 121.395691 79.966754 
L 119.153141 79.852473 
L 116.910592 79.653669 
L 114.668043 79.376584 
L 112.425493 79.049504 
L 110.182944 78.700197 
L 107.940395 78.295139 
L 105.697845 77.657252 
L 103.455296 76.528166 
L 101.212747 74.701431 
L 98.970197 72.007107 
L 96.727648 68.562673 
L 94.485099 65.555299 
L 92.242549 65.243836 
L 90 68.743398 
z
" style="fill:#1f77b4;fill-opacity:0.3;"/>
   </g>
   <g id="matplotlib.axis_1">
    <g id="xtick_1">
     <g id="line2d_1">
      <defs>
       <path d="M 0 0 
L 0 6 
" id="m2ec7b5493f" style="stroke:#000000;stroke-width:2;"/>
      </defs>
      <g>
       <use style="stroke:#000000;stroke-width:2;" x="90" xlink:href="#m2ec7b5493f" y="378"/>
      </g>
     </g>
     <g id="text_1">
      <!-- 0.0 -->
      <g transform="translate(82.048438 395.098437)scale(0.1 -0.1)">
       <defs>
        <path d="M 31.78125 66.40625 
Q 24.171875 66.40625 20.328125 58.90625 
Q 16.5 51.421875 16.5 36.375 
Q 16.5 21.390625 20.328125 13.890625 
Q 24.171875 6.390625 31.78125 6.390625 
Q 39.453125 6.390625 43.28125 13.890625 
Q 47.125 21.390625 47.125 36.375 
Q 47.125 51.421875 43.28125 58.90625 
Q 39.453125 66.40625 31.78125 66.40625 
z
M 31.78125 74.21875 
Q 44.046875 74.21875 50.515625 64.515625 
Q 56.984375 54.828125 56.984375 36.375 
Q 56.984375 17.96875 50.515625 8.265625 
Q 44.046875 -1.421875 31.78125 -1.421875 
Q 19.53125 -1.421875 13.0625 8.265625 
Q 6.59375 17.96875 6.59375 36.375 
Q 6.59375 54.828125 13.0625 64.515625 
Q 19.53125 74.21875 31.78125 74.21875 
z
" id="DejaVuSans-48"/>
        <path d="M 10.6875 12.40625 
L 21 12.40625 
L 21 0 
L 10.6875 0 
z
" id="DejaVuSans-46"/>
       </defs>
       <use xlink:href="#DejaVuSans-48"/>
       <use x="63.623047" xlink:href="#DejaVuSans-46"/>
       <use x="95.410156" xlink:href="#DejaVuSans-48"/>
      </g>
     </g>
    </g>
    <g id="xtick_2">
     <g id="line2d_2">
      <g>
       <use style="stroke:#000000;stroke-width:2;" x="153.771429" xlink:href="#m2ec7b5493f" y="378"/>
      </g>
     </g>
     <g id="text_2">
      <!-- 0.2 -->
      <g transform="translate(145.819866 395.098437)scale(0.1 -0.1)">
       <defs>
        <path d="M 19.1875 8.296875 
L 53.609375 8.296875 
L 53.609375 0 
L 7.328125 0 
L 7.328125 8.296875 
Q 12.9375 14.109375 22.625 23.890625 
Q 32.328125 33.6875 34.8125 36.53125 
Q 39.546875 41.84375 41.421875 45.53125 
Q 43.3125 49.21875 43.3125 52.78125 
Q 43.3125 58.59375 39.234375 62.25 
Q 35.15625 65.921875 28.609375 65.921875 
Q 23.96875 65.921875 18.8125 64.3125 
Q 13.671875 62.703125 7.8125 59.421875 
L 7.8125 69.390625 
Q 13.765625 71.78125 18.9375 73 
Q 24.125 74.21875 28.421875 74.21875 
Q 39.75 74.21875 46.484375 68.546875 
Q 53.21875 62.890625 53.21875 53.421875 
Q 53.21875 48.921875 51.53125 44.890625 
Q 49.859375 40.875 45.40625 35.40625 
Q 44.1875 33.984375 37.640625 27.21875 
Q 31.109375 20.453125 19.1875 8.296875 
z
" id="DejaVuSans-50"/>
       </defs>
       <use xlink:href="#DejaVuSans-48"/>
       <use x="63.623047" xlink:href="#DejaVuSans-46"/>
       <use x="95.410156" xlink:href="#DejaVuSans-50"/>
      </g>
     </g>
    </g>
    <g id="xtick_3">
     <g id="line2d_3">
      <g>
       <use style="stroke:#000000;stroke-width:2;" x="217.542857" xlink:href="#m2ec7b5493f" y="378"/>
      </g>
     </g>
     <g id="text_3">
      <!-- 0.4 -->
      <g transform="translate(209.591295 395.098437)scale(0.1 -0.1)">
       <defs>
        <path d="M 37.796875 64.3125 
L 12.890625 25.390625 
L 37.796875 25.390625 
z
M 35.203125 72.90625 
L 47.609375 72.90625 
L 47.609375 25.390625 
L 58.015625 25.390625 
L 58.015625 17.1875 
L 47.609375 17.1875 
L 47.609375 0 
L 37.796875 0 
L 37.796875 17.1875 
L 4.890625 17.1875 
L 4.890625 26.703125 
z
" id="DejaVuSans-52"/>
       </defs>
       <use xlink:href="#DejaVuSans-48"/>
       <use x="63.623047" xlink:href="#DejaVuSans-46"/>
       <use x="95.410156" xlink:href="#DejaVuSans-52"/>
      </g>
     </g>
    </g>
    <g id="xtick_4">
     <g id="line2d_4">
      <g>
       <use style="stroke:#000000;stroke-width:2;" x="281.314286" xlink:href="#m2ec7b5493f" y="378"/>
      </g>
     </g>
     <g id="text_4">
      <!-- 0.6 -->
      <g transform="translate(273.362723 395.098437)scale(0.1 -0.1)">
       <defs>
        <path d="M 33.015625 40.375 
Q 26.375 40.375 22.484375 35.828125 
Q 18.609375 31.296875 18.609375 23.390625 
Q 18.609375 15.53125 22.484375 10.953125 
Q 26.375 6.390625 33.015625 6.390625 
Q 39.65625 6.390625 43.53125 10.953125 
Q 47.40625 15.53125 47.40625 23.390625 
Q 47.40625 31.296875 43.53125 35.828125 
Q 39.65625 40.375 33.015625 40.375 
z
M 52.59375 71.296875 
L 52.59375 62.3125 
Q 48.875 64.0625 45.09375 64.984375 
Q 41.3125 65.921875 37.59375 65.921875 
Q 27.828125 65.921875 22.671875 59.328125 
Q 17.53125 52.734375 16.796875 39.40625 
Q 19.671875 43.65625 24.015625 45.921875 
Q 28.375 48.1875 33.59375 48.1875 
Q 44.578125 48.1875 50.953125 41.515625 
Q 57.328125 34.859375 57.328125 23.390625 
Q 57.328125 12.15625 50.6875 5.359375 
Q 44.046875 -1.421875 33.015625 -1.421875 
Q 20.359375 -1.421875 13.671875 8.265625 
Q 6.984375 17.96875 6.984375 36.375 
Q 6.984375 53.65625 15.1875 63.9375 
Q 23.390625 74.21875 37.203125 74.21875 
Q 40.921875 74.21875 44.703125 73.484375 
Q 48.484375 72.75 52.59375 71.296875 
z
" id="DejaVuSans-54"/>
       </defs>
       <use xlink:href="#DejaVuSans-48"/>
       <use x="63.623047" xlink:href="#DejaVuSans-46"/>
       <use x="95.410156" xlink:href="#DejaVuSans-54"/>
      </g>
     </g>
    </g>
    <g id="xtick_5">
     <g id="line2d_5">
      <g>
       <use style="stroke:#000000;stroke-width:2;" x="345.085714" xlink:href="#m2ec7b5493f" y="378"/>
      </g>
     </g>
     <g id="text_5">
      <!-- 0.8 -->
      <g transform="translate(337.134152 395.098437)scale(0.1 -0.1)">
       <defs>
        <path d="M 31.78125 34.625 
Q 24.75 34.625 20.71875 30.859375 
Q 16.703125 27.09375 16.703125 20.515625 
Q 16.703125 13.921875 20.71875 10.15625 
Q 24.75 6.390625 31.78125 6.390625 
Q 38.8125 6.390625 42.859375 10.171875 
Q 46.921875 13.96875 46.921875 20.515625 
Q 46.921875 27.09375 42.890625 30.859375 
Q 38.875 34.625 31.78125 34.625 
z
M 21.921875 38.8125 
Q 15.578125 40.375 12.03125 44.71875 
Q 8.5 49.078125 8.5 55.328125 
Q 8.5 64.0625 14.71875 69.140625 
Q 20.953125 74.21875 31.78125 74.21875 
Q 42.671875 74.21875 48.875 69.140625 
Q 55.078125 64.0625 55.078125 55.328125 
Q 55.078125 49.078125 51.53125 44.71875 
Q 48 40.375 41.703125 38.8125 
Q 48.828125 37.15625 52.796875 32.3125 
Q 56.78125 27.484375 56.78125 20.515625 
Q 56.78125 9.90625 50.3125 4.234375 
Q 43.84375 -1.421875 31.78125 -1.421875 
Q 19.734375 -1.421875 13.25 4.234375 
Q 6.78125 9.90625 6.78125 20.515625 
Q 6.78125 27.484375 10.78125 32.3125 
Q 14.796875 37.15625 21.921875 38.8125 
z
M 18.3125 54.390625 
Q 18.3125 48.734375 21.84375 45.5625 
Q 25.390625 42.390625 31.78125 42.390625 
Q 38.140625 42.390625 41.71875 45.5625 
Q 45.3125 48.734375 45.3125 54.390625 
Q 45.3125 60.0625 41.71875 63.234375 
Q 38.140625 66.40625 31.78125 66.40625 
Q 25.390625 66.40625 21.84375 63.234375 
Q 18.3125 60.0625 18.3125 54.390625 
z
" id="DejaVuSans-56"/>
       </defs>
       <use xlink:href="#DejaVuSans-48"/>
       <use x="63.623047" xlink:href="#DejaVuSans-46"/>
       <use x="95.410156" xlink:href="#DejaVuSans-56"/>
      </g>
     </g>
    </g>
    <g id="xtick_6">
     <g id="line2d_6">
      <g>
       <use style="stroke:#000000;stroke-width:2;" x="408.857143" xlink:href="#m2ec7b5493f" y="378"/>
      </g>
     </g>
     <g id="text_6">
      <!-- 1.0 -->
      <g transform="translate(400.90558 395.098437)scale(0.1 -0.1)">
       <defs>
        <path d="M 12.40625 8.296875 
L 28.515625 8.296875 
L 28.515625 63.921875 
L 10.984375 60.40625 
L 10.984375 69.390625 
L 28.421875 72.90625 
L 38.28125 72.90625 
L 38.28125 8.296875 
L 54.390625 8.296875 
L 54.390625 0 
L 12.40625 0 
z
" id="DejaVuSans-49"/>
       </defs>
       <use xlink:href="#DejaVuSans-49"/>
       <use x="63.623047" xlink:href="#DejaVuSans-46"/>
       <use x="95.410156" xlink:href="#DejaVuSans-48"/>
      </g>
     </g>
    </g>
    <g id="xtick_7">
     <g id="line2d_7">
      <g>
       <use style="stroke:#000000;stroke-width:2;" x="472.628571" xlink:href="#m2ec7b5493f" y="378"/>
      </g>
     </g>
     <g id="text_7">
      <!-- 1.2 -->
      <g transform="translate(464.677009 395.098437)scale(0.1 -0.1)">
       <use xlink:href="#DejaVuSans-49"/>
       <use x="63.623047" xlink:href="#DejaVuSans-46"/>
       <use x="95.410156" xlink:href="#DejaVuSans-50"/>
      </g>
     </g>
    </g>
    <g id="xtick_8">
     <g id="line2d_8">
      <g>
       <use style="stroke:#000000;stroke-width:2;" x="536.4" xlink:href="#m2ec7b5493f" y="378"/>
      </g>
     </g>
     <g id="text_8">
      <!-- 1.4 -->
      <g transform="translate(528.448438 395.098437)scale(0.1 -0.1)">
       <use xlink:href="#DejaVuSans-49"/>
       <use x="63.623047" xlink:href="#DejaVuSans-46"/>
       <use x="95.410156" xlink:href="#DejaVuSans-52"/>
      </g>
     </g>
    </g>
    <g id="xtick_9">
     <g id="line2d_9">
      <g>
       <use style="stroke:#000000;stroke-width:2;" x="600.171429" xlink:href="#m2ec7b5493f" y="378"/>
      </g>
     </g>
     <g id="text_9">
      <!-- 1.6 -->
      <g transform="translate(592.219866 395.098437)scale(0.1 -0.1)">
       <use xlink:href="#DejaVuSans-49"/>
       <use x="63.623047" xlink:href="#DejaVuSans-46"/>
       <use x="95.410156" xlink:href="#DejaVuSans-54"/>
      </g>
     </g>
    </g>
    <g id="text_10">
     <!-- Relative Difference in T-number -->
     <g transform="translate(207.952031 414.855313)scale(0.18 -0.18)">
      <defs>
       <path d="M 35.890625 40.578125 
Q 41.796875 40.578125 44.359375 42.765625 
Q 46.921875 44.96875 46.921875 50 
Q 46.921875 54.984375 44.359375 57.125 
Q 41.796875 59.28125 35.890625 59.28125 
L 27.984375 59.28125 
L 27.984375 40.578125 
z
M 27.984375 27.59375 
L 27.984375 0 
L 9.1875 0 
L 9.1875 72.90625 
L 37.890625 72.90625 
Q 52.296875 72.90625 59 68.0625 
Q 65.71875 63.234375 65.71875 52.78125 
Q 65.71875 45.5625 62.21875 40.921875 
Q 58.734375 36.28125 51.703125 34.078125 
Q 55.5625 33.203125 58.609375 30.09375 
Q 61.671875 27 64.796875 20.703125 
L 75 0 
L 54.984375 0 
L 46.09375 18.109375 
Q 43.40625 23.578125 40.640625 25.578125 
Q 37.890625 27.59375 33.296875 27.59375 
z
" id="DejaVuSans-Bold-82"/>
       <path d="M 62.984375 27.484375 
L 62.984375 22.515625 
L 22.125 22.515625 
Q 22.75 16.359375 26.5625 13.28125 
Q 30.375 10.203125 37.203125 10.203125 
Q 42.71875 10.203125 48.5 11.84375 
Q 54.296875 13.484375 60.40625 16.796875 
L 60.40625 3.328125 
Q 54.203125 0.984375 48 -0.21875 
Q 41.796875 -1.421875 35.59375 -1.421875 
Q 20.75 -1.421875 12.515625 6.125 
Q 4.296875 13.671875 4.296875 27.296875 
Q 4.296875 40.671875 12.375 48.328125 
Q 20.453125 56 34.625 56 
Q 47.515625 56 55.25 48.234375 
Q 62.984375 40.484375 62.984375 27.484375 
z
M 45.015625 33.296875 
Q 45.015625 38.28125 42.109375 41.328125 
Q 39.203125 44.390625 34.515625 44.390625 
Q 29.4375 44.390625 26.265625 41.53125 
Q 23.09375 38.671875 22.3125 33.296875 
z
" id="DejaVuSans-Bold-101"/>
       <path d="M 8.40625 75.984375 
L 25.875 75.984375 
L 25.875 0 
L 8.40625 0 
z
" id="DejaVuSans-Bold-108"/>
       <path d="M 32.90625 24.609375 
Q 27.4375 24.609375 24.671875 22.75 
Q 21.921875 20.90625 21.921875 17.28125 
Q 21.921875 13.96875 24.140625 12.078125 
Q 26.375 10.203125 30.328125 10.203125 
Q 35.25 10.203125 38.625 13.734375 
Q 42 17.28125 42 22.609375 
L 42 24.609375 
z
M 59.625 31.203125 
L 59.625 0 
L 42 0 
L 42 8.109375 
Q 38.484375 3.125 34.078125 0.84375 
Q 29.6875 -1.421875 23.390625 -1.421875 
Q 14.890625 -1.421875 9.59375 3.53125 
Q 4.296875 8.5 4.296875 16.40625 
Q 4.296875 26.03125 10.90625 30.515625 
Q 17.53125 35.015625 31.6875 35.015625 
L 42 35.015625 
L 42 36.375 
Q 42 40.53125 38.71875 42.453125 
Q 35.453125 44.390625 28.515625 44.390625 
Q 22.90625 44.390625 18.0625 43.265625 
Q 13.234375 42.140625 9.078125 39.890625 
L 9.078125 53.21875 
Q 14.703125 54.59375 20.359375 55.296875 
Q 26.03125 56 31.6875 56 
Q 46.484375 56 53.046875 50.171875 
Q 59.625 44.34375 59.625 31.203125 
z
" id="DejaVuSans-Bold-97"/>
       <path d="M 27.484375 70.21875 
L 27.484375 54.6875 
L 45.515625 54.6875 
L 45.515625 42.1875 
L 27.484375 42.1875 
L 27.484375 19 
Q 27.484375 15.1875 29 13.84375 
Q 30.515625 12.5 35.015625 12.5 
L 44 12.5 
L 44 0 
L 29 0 
Q 18.65625 0 14.328125 4.3125 
Q 10.015625 8.640625 10.015625 19 
L 10.015625 42.1875 
L 1.3125 42.1875 
L 1.3125 54.6875 
L 10.015625 54.6875 
L 10.015625 70.21875 
z
" id="DejaVuSans-Bold-116"/>
       <path d="M 8.40625 54.6875 
L 25.875 54.6875 
L 25.875 0 
L 8.40625 0 
z
M 8.40625 75.984375 
L 25.875 75.984375 
L 25.875 61.71875 
L 8.40625 61.71875 
z
" id="DejaVuSans-Bold-105"/>
       <path d="M 1.515625 54.6875 
L 19 54.6875 
L 32.625 16.890625 
L 46.1875 54.6875 
L 63.71875 54.6875 
L 42.1875 0 
L 23 0 
z
" id="DejaVuSans-Bold-118"/>
       <path id="DejaVuSans-Bold-32"/>
       <path d="M 27.984375 58.6875 
L 27.984375 14.203125 
L 34.71875 14.203125 
Q 46.234375 14.203125 52.3125 19.921875 
Q 58.40625 25.640625 58.40625 36.53125 
Q 58.40625 47.359375 52.34375 53.015625 
Q 46.296875 58.6875 34.71875 58.6875 
z
M 9.1875 72.90625 
L 29 72.90625 
Q 45.609375 72.90625 53.734375 70.53125 
Q 61.859375 68.171875 67.671875 62.5 
Q 72.796875 57.5625 75.28125 51.109375 
Q 77.78125 44.671875 77.78125 36.53125 
Q 77.78125 28.265625 75.28125 21.796875 
Q 72.796875 15.328125 67.671875 10.40625 
Q 61.8125 4.734375 53.609375 2.359375 
Q 45.40625 0 29 0 
L 9.1875 0 
z
" id="DejaVuSans-Bold-68"/>
       <path d="M 44.390625 75.984375 
L 44.390625 64.5 
L 34.71875 64.5 
Q 31 64.5 29.53125 63.15625 
Q 28.078125 61.8125 28.078125 58.5 
L 28.078125 54.6875 
L 43.015625 54.6875 
L 43.015625 42.1875 
L 28.078125 42.1875 
L 28.078125 0 
L 10.59375 0 
L 10.59375 42.1875 
L 1.90625 42.1875 
L 1.90625 54.6875 
L 10.59375 54.6875 
L 10.59375 58.5 
Q 10.59375 67.4375 15.578125 71.703125 
Q 20.5625 75.984375 31 75.984375 
z
" id="DejaVuSans-Bold-102"/>
       <path d="M 49.03125 39.796875 
Q 46.734375 40.875 44.453125 41.375 
Q 42.1875 41.890625 39.890625 41.890625 
Q 33.15625 41.890625 29.515625 37.5625 
Q 25.875 33.25 25.875 25.203125 
L 25.875 0 
L 8.40625 0 
L 8.40625 54.6875 
L 25.875 54.6875 
L 25.875 45.703125 
Q 29.25 51.078125 33.609375 53.53125 
Q 37.984375 56 44.09375 56 
Q 44.96875 56 45.984375 55.921875 
Q 47.015625 55.859375 48.96875 55.609375 
z
" id="DejaVuSans-Bold-114"/>
       <path d="M 63.375 33.296875 
L 63.375 0 
L 45.796875 0 
L 45.796875 5.421875 
L 45.796875 25.484375 
Q 45.796875 32.5625 45.484375 35.25 
Q 45.171875 37.9375 44.390625 39.203125 
Q 43.359375 40.921875 41.59375 41.875 
Q 39.84375 42.828125 37.59375 42.828125 
Q 32.125 42.828125 29 38.59375 
Q 25.875 34.375 25.875 26.90625 
L 25.875 0 
L 8.40625 0 
L 8.40625 54.6875 
L 25.875 54.6875 
L 25.875 46.6875 
Q 29.828125 51.46875 34.265625 53.734375 
Q 38.71875 56 44.09375 56 
Q 53.5625 56 58.46875 50.1875 
Q 63.375 44.390625 63.375 33.296875 
z
" id="DejaVuSans-Bold-110"/>
       <path d="M 52.59375 52.984375 
L 52.59375 38.71875 
Q 49.03125 41.15625 45.4375 42.328125 
Q 41.84375 43.5 37.984375 43.5 
Q 30.671875 43.5 26.59375 39.234375 
Q 22.515625 34.96875 22.515625 27.296875 
Q 22.515625 19.625 26.59375 15.34375 
Q 30.671875 11.078125 37.984375 11.078125 
Q 42.09375 11.078125 45.78125 12.296875 
Q 49.46875 13.53125 52.59375 15.921875 
L 52.59375 1.609375 
Q 48.484375 0.09375 44.265625 -0.65625 
Q 40.046875 -1.421875 35.796875 -1.421875 
Q 21 -1.421875 12.640625 6.171875 
Q 4.296875 13.765625 4.296875 27.296875 
Q 4.296875 40.828125 12.640625 48.40625 
Q 21 56 35.796875 56 
Q 40.09375 56 44.265625 55.25 
Q 48.4375 54.5 52.59375 52.984375 
z
" id="DejaVuSans-Bold-99"/>
       <path d="M 0.484375 72.90625 
L 67.671875 72.90625 
L 67.671875 58.6875 
L 43.5 58.6875 
L 43.5 0 
L 24.703125 0 
L 24.703125 58.6875 
L 0.484375 58.6875 
z
" id="DejaVuSans-Bold-84"/>
       <path d="M 5.421875 35.890625 
L 36.078125 35.890625 
L 36.078125 21.6875 
L 5.421875 21.6875 
z
" id="DejaVuSans-Bold-45"/>
       <path d="M 7.8125 21.296875 
L 7.8125 54.6875 
L 25.390625 54.6875 
L 25.390625 49.21875 
Q 25.390625 44.78125 25.34375 38.0625 
Q 25.296875 31.34375 25.296875 29.109375 
Q 25.296875 22.515625 25.640625 19.609375 
Q 25.984375 16.703125 26.8125 15.375 
Q 27.875 13.671875 29.609375 12.734375 
Q 31.34375 11.8125 33.59375 11.8125 
Q 39.0625 11.8125 42.1875 16.015625 
Q 45.3125 20.21875 45.3125 27.6875 
L 45.3125 54.6875 
L 62.796875 54.6875 
L 62.796875 0 
L 45.3125 0 
L 45.3125 7.90625 
Q 41.359375 3.125 36.9375 0.84375 
Q 32.515625 -1.421875 27.203125 -1.421875 
Q 17.71875 -1.421875 12.765625 4.390625 
Q 7.8125 10.203125 7.8125 21.296875 
z
" id="DejaVuSans-Bold-117"/>
       <path d="M 59.078125 45.609375 
Q 62.40625 50.6875 66.96875 53.34375 
Q 71.53125 56 77 56 
Q 86.421875 56 91.359375 50.1875 
Q 96.296875 44.390625 96.296875 33.296875 
L 96.296875 0 
L 78.71875 0 
L 78.71875 28.515625 
Q 78.765625 29.15625 78.78125 29.828125 
Q 78.8125 30.515625 78.8125 31.78125 
Q 78.8125 37.59375 77.09375 40.203125 
Q 75.390625 42.828125 71.578125 42.828125 
Q 66.609375 42.828125 63.890625 38.71875 
Q 61.1875 34.625 61.078125 26.859375 
L 61.078125 0 
L 43.5 0 
L 43.5 28.515625 
Q 43.5 37.59375 41.9375 40.203125 
Q 40.375 42.828125 36.375 42.828125 
Q 31.34375 42.828125 28.609375 38.703125 
Q 25.875 34.578125 25.875 26.90625 
L 25.875 0 
L 8.296875 0 
L 8.296875 54.6875 
L 25.875 54.6875 
L 25.875 46.6875 
Q 29.109375 51.3125 33.28125 53.65625 
Q 37.453125 56 42.484375 56 
Q 48.140625 56 52.484375 53.265625 
Q 56.84375 50.53125 59.078125 45.609375 
z
" id="DejaVuSans-Bold-109"/>
       <path d="M 37.5 11.28125 
Q 43.109375 11.28125 46.0625 15.375 
Q 49.03125 19.484375 49.03125 27.296875 
Q 49.03125 35.109375 46.0625 39.203125 
Q 43.109375 43.3125 37.5 43.3125 
Q 31.890625 43.3125 28.875 39.1875 
Q 25.875 35.0625 25.875 27.296875 
Q 25.875 19.53125 28.875 15.40625 
Q 31.890625 11.28125 37.5 11.28125 
z
M 25.875 46.6875 
Q 29.5 51.46875 33.890625 53.734375 
Q 38.28125 56 44 56 
Q 54.109375 56 60.59375 47.96875 
Q 67.09375 39.9375 67.09375 27.296875 
Q 67.09375 14.65625 60.59375 6.609375 
Q 54.109375 -1.421875 44 -1.421875 
Q 38.28125 -1.421875 33.890625 0.84375 
Q 29.5 3.125 25.875 7.90625 
L 25.875 0 
L 8.40625 0 
L 8.40625 75.984375 
L 25.875 75.984375 
z
" id="DejaVuSans-Bold-98"/>
      </defs>
      <use xlink:href="#DejaVuSans-Bold-82"/>
      <use x="77.001953" xlink:href="#DejaVuSans-Bold-101"/>
      <use x="144.824219" xlink:href="#DejaVuSans-Bold-108"/>
      <use x="179.101562" xlink:href="#DejaVuSans-Bold-97"/>
      <use x="246.582031" xlink:href="#DejaVuSans-Bold-116"/>
      <use x="294.384766" xlink:href="#DejaVuSans-Bold-105"/>
      <use x="328.662109" xlink:href="#DejaVuSans-Bold-118"/>
      <use x="393.847656" xlink:href="#DejaVuSans-Bold-101"/>
      <use x="461.669922" xlink:href="#DejaVuSans-Bold-32"/>
      <use x="496.484375" xlink:href="#DejaVuSans-Bold-68"/>
      <use x="579.492188" xlink:href="#DejaVuSans-Bold-105"/>
      <use x="613.769531" xlink:href="#DejaVuSans-Bold-102"/>
      <use x="657.275391" xlink:href="#DejaVuSans-Bold-102"/>
      <use x="700.78125" xlink:href="#DejaVuSans-Bold-101"/>
      <use x="768.603516" xlink:href="#DejaVuSans-Bold-114"/>
      <use x="817.919922" xlink:href="#DejaVuSans-Bold-101"/>
      <use x="885.742188" xlink:href="#DejaVuSans-Bold-110"/>
      <use x="956.933594" xlink:href="#DejaVuSans-Bold-99"/>
      <use x="1016.210938" xlink:href="#DejaVuSans-Bold-101"/>
      <use x="1084.033203" xlink:href="#DejaVuSans-Bold-32"/>
      <use x="1118.847656" xlink:href="#DejaVuSans-Bold-105"/>
      <use x="1153.125" xlink:href="#DejaVuSans-Bold-110"/>
      <use x="1224.316406" xlink:href="#DejaVuSans-Bold-32"/>
      <use x="1259.130859" xlink:href="#DejaVuSans-Bold-84"/>
      <use x="1312.59375" xlink:href="#DejaVuSans-Bold-45"/>
      <use x="1354.097656" xlink:href="#DejaVuSans-Bold-110"/>
      <use x="1425.289062" xlink:href="#DejaVuSans-Bold-117"/>
      <use x="1496.480469" xlink:href="#DejaVuSans-Bold-109"/>
      <use x="1600.679688" xlink:href="#DejaVuSans-Bold-98"/>
      <use x="1672.261719" xlink:href="#DejaVuSans-Bold-101"/>
      <use x="1740.083984" xlink:href="#DejaVuSans-Bold-114"/>
     </g>
    </g>
   </g>
   <g id="matplotlib.axis_2">
    <g id="ytick_1">
     <g id="line2d_10">
      <defs>
       <path d="M 0 0 
L -6 0 
" id="m45585c2c81" style="stroke:#000000;stroke-width:2;"/>
      </defs>
      <g>
       <use style="stroke:#000000;stroke-width:2;" x="90" xlink:href="#m45585c2c81" y="378"/>
      </g>
     </g>
     <g id="text_11">
      <!-- 0 -->
      <g transform="translate(71.5925 383.318906)scale(0.14 -0.14)">
       <use xlink:href="#DejaVuSans-48"/>
      </g>
     </g>
    </g>
    <g id="ytick_2">
     <g id="line2d_11">
      <g>
       <use style="stroke:#000000;stroke-width:2;" x="90" xlink:href="#m45585c2c81" y="318.427397"/>
      </g>
     </g>
     <g id="text_12">
      <!-- 0-20 -->
      <g transform="translate(48.726562 323.746304)scale(0.14 -0.14)">
       <defs>
        <path d="M 4.890625 31.390625 
L 31.203125 31.390625 
L 31.203125 23.390625 
L 4.890625 23.390625 
z
" id="DejaVuSans-45"/>
       </defs>
       <use xlink:href="#DejaVuSans-48"/>
       <use x="63.623047" xlink:href="#DejaVuSans-45"/>
       <use x="99.707031" xlink:href="#DejaVuSans-50"/>
       <use x="163.330078" xlink:href="#DejaVuSans-48"/>
      </g>
     </g>
    </g>
    <g id="ytick_3">
     <g id="line2d_12">
      <g>
       <use style="stroke:#000000;stroke-width:2;" x="90" xlink:href="#m45585c2c81" y="258.854795"/>
      </g>
     </g>
     <g id="text_13">
      <!-- 20-40 -->
      <g transform="translate(39.819062 264.173701)scale(0.14 -0.14)">
       <use xlink:href="#DejaVuSans-50"/>
       <use x="63.623047" xlink:href="#DejaVuSans-48"/>
       <use x="127.246094" xlink:href="#DejaVuSans-45"/>
       <use x="163.330078" xlink:href="#DejaVuSans-52"/>
       <use x="226.953125" xlink:href="#DejaVuSans-48"/>
      </g>
     </g>
    </g>
    <g id="ytick_4">
     <g id="line2d_13">
      <g>
       <use style="stroke:#000000;stroke-width:2;" x="90" xlink:href="#m45585c2c81" y="199.282192"/>
      </g>
     </g>
     <g id="text_14">
      <!-- 40-60 -->
      <g transform="translate(39.819062 204.601098)scale(0.14 -0.14)">
       <use xlink:href="#DejaVuSans-52"/>
       <use x="63.623047" xlink:href="#DejaVuSans-48"/>
       <use x="127.246094" xlink:href="#DejaVuSans-45"/>
       <use x="163.330078" xlink:href="#DejaVuSans-54"/>
       <use x="226.953125" xlink:href="#DejaVuSans-48"/>
      </g>
     </g>
    </g>
    <g id="ytick_5">
     <g id="line2d_14">
      <g>
       <use style="stroke:#000000;stroke-width:2;" x="90" xlink:href="#m45585c2c81" y="139.709589"/>
      </g>
     </g>
     <g id="text_15">
      <!-- 60-80 -->
      <g transform="translate(39.819062 145.028495)scale(0.14 -0.14)">
       <use xlink:href="#DejaVuSans-54"/>
       <use x="63.623047" xlink:href="#DejaVuSans-48"/>
       <use x="127.246094" xlink:href="#DejaVuSans-45"/>
       <use x="163.330078" xlink:href="#DejaVuSans-56"/>
       <use x="226.953125" xlink:href="#DejaVuSans-48"/>
      </g>
     </g>
    </g>
    <g id="ytick_6">
     <g id="line2d_15">
      <g>
       <use style="stroke:#000000;stroke-width:2;" x="90" xlink:href="#m45585c2c81" y="80.136986"/>
      </g>
     </g>
     <g id="text_16">
      <!-- 80-100 -->
      <g transform="translate(30.911562 85.455893)scale(0.14 -0.14)">
       <use xlink:href="#DejaVuSans-56"/>
       <use x="63.623047" xlink:href="#DejaVuSans-48"/>
       <use x="127.246094" xlink:href="#DejaVuSans-45"/>
       <use x="163.330078" xlink:href="#DejaVuSans-49"/>
       <use x="226.953125" xlink:href="#DejaVuSans-48"/>
       <use x="290.576172" xlink:href="#DejaVuSans-48"/>
      </g>
     </g>
    </g>
    <g id="text_17">
     <!-- MCP-MCP similarity (%) -->
     <g transform="translate(23.0275 334.081406)rotate(-90)scale(0.18 -0.18)">
      <defs>
       <path d="M 9.1875 72.90625 
L 33.109375 72.90625 
L 49.703125 33.890625 
L 66.40625 72.90625 
L 90.28125 72.90625 
L 90.28125 0 
L 72.515625 0 
L 72.515625 53.328125 
L 55.71875 14.015625 
L 43.796875 14.015625 
L 27 53.328125 
L 27 0 
L 9.1875 0 
z
" id="DejaVuSans-Bold-77"/>
       <path d="M 67 4 
Q 61.8125 1.3125 56.203125 -0.046875 
Q 50.59375 -1.421875 44.484375 -1.421875 
Q 26.265625 -1.421875 15.625 8.765625 
Q 4.984375 18.953125 4.984375 36.375 
Q 4.984375 53.859375 15.625 64.03125 
Q 26.265625 74.21875 44.484375 74.21875 
Q 50.59375 74.21875 56.203125 72.84375 
Q 61.8125 71.484375 67 68.796875 
L 67 53.71875 
Q 61.765625 57.28125 56.6875 58.9375 
Q 51.609375 60.59375 46 60.59375 
Q 35.9375 60.59375 30.171875 54.140625 
Q 24.421875 47.703125 24.421875 36.375 
Q 24.421875 25.09375 30.171875 18.640625 
Q 35.9375 12.203125 46 12.203125 
Q 51.609375 12.203125 56.6875 13.859375 
Q 61.765625 15.53125 67 19.09375 
z
" id="DejaVuSans-Bold-67"/>
       <path d="M 9.1875 72.90625 
L 40.375 72.90625 
Q 54.296875 72.90625 61.734375 66.71875 
Q 69.1875 60.546875 69.1875 49.125 
Q 69.1875 37.640625 61.734375 31.46875 
Q 54.296875 25.296875 40.375 25.296875 
L 27.984375 25.296875 
L 27.984375 0 
L 9.1875 0 
z
M 27.984375 59.28125 
L 27.984375 38.921875 
L 38.375 38.921875 
Q 43.84375 38.921875 46.828125 41.578125 
Q 49.8125 44.234375 49.8125 49.125 
Q 49.8125 54 46.828125 56.640625 
Q 43.84375 59.28125 38.375 59.28125 
z
" id="DejaVuSans-Bold-80"/>
       <path d="M 51.125 52.984375 
L 51.125 39.703125 
Q 45.515625 42.046875 40.28125 43.21875 
Q 35.0625 44.390625 30.421875 44.390625 
Q 25.4375 44.390625 23.015625 43.140625 
Q 20.609375 41.890625 20.609375 39.3125 
Q 20.609375 37.203125 22.4375 36.078125 
Q 24.265625 34.96875 29 34.421875 
L 32.078125 33.984375 
Q 45.515625 32.28125 50.140625 28.375 
Q 54.78125 24.46875 54.78125 16.109375 
Q 54.78125 7.375 48.328125 2.96875 
Q 41.890625 -1.421875 29.109375 -1.421875 
Q 23.6875 -1.421875 17.890625 -0.5625 
Q 12.109375 0.296875 6 2 
L 6 15.28125 
Q 11.234375 12.75 16.71875 11.46875 
Q 22.21875 10.203125 27.875 10.203125 
Q 33.015625 10.203125 35.59375 11.609375 
Q 38.1875 13.03125 38.1875 15.828125 
Q 38.1875 18.171875 36.40625 19.3125 
Q 34.625 20.453125 29.296875 21.09375 
L 26.21875 21.484375 
Q 14.546875 22.953125 9.859375 26.90625 
Q 5.171875 30.859375 5.171875 38.921875 
Q 5.171875 47.609375 11.125 51.796875 
Q 17.09375 56 29.390625 56 
Q 34.234375 56 39.546875 55.265625 
Q 44.875 54.546875 51.125 52.984375 
z
" id="DejaVuSans-Bold-115"/>
       <path d="M 1.21875 54.6875 
L 18.703125 54.6875 
L 33.40625 17.578125 
L 45.90625 54.6875 
L 63.375 54.6875 
L 40.375 -5.171875 
Q 36.921875 -14.3125 32.296875 -17.9375 
Q 27.6875 -21.578125 20.125 -21.578125 
L 10.015625 -21.578125 
L 10.015625 -10.109375 
L 15.484375 -10.109375 
Q 19.921875 -10.109375 21.9375 -8.6875 
Q 23.96875 -7.28125 25.09375 -3.609375 
L 25.59375 -2.09375 
z
" id="DejaVuSans-Bold-121"/>
       <path d="M 37.703125 -13.1875 
L 23.1875 -13.1875 
Q 15.71875 -1.125 12.15625 9.734375 
Q 8.59375 20.609375 8.59375 31.296875 
Q 8.59375 42 12.171875 52.953125 
Q 15.765625 63.921875 23.1875 75.875 
L 37.703125 75.875 
Q 31.453125 64.3125 28.328125 53.25 
Q 25.203125 42.1875 25.203125 31.390625 
Q 25.203125 20.609375 28.296875 9.515625 
Q 31.390625 -1.5625 37.703125 -13.1875 
z
" id="DejaVuSans-Bold-40"/>
       <path d="M 77.484375 30.078125 
Q 74.03125 30.078125 72.125 27.078125 
Q 70.21875 24.078125 70.21875 18.5 
Q 70.21875 12.890625 72.09375 9.890625 
Q 73.96875 6.890625 77.484375 6.890625 
Q 81 6.890625 82.859375 9.890625 
Q 84.71875 12.890625 84.71875 18.5 
Q 84.71875 24.078125 82.828125 27.078125 
Q 80.953125 30.078125 77.484375 30.078125 
z
M 77.484375 38.28125 
Q 86.578125 38.28125 91.796875 33 
Q 97.015625 27.734375 97.015625 18.5 
Q 97.015625 9.28125 91.796875 3.921875 
Q 86.578125 -1.421875 77.484375 -1.421875 
Q 68.40625 -1.421875 63.15625 3.921875 
Q 57.90625 9.28125 57.90625 18.5 
Q 57.90625 27.6875 63.15625 32.984375 
Q 68.40625 38.28125 77.484375 38.28125 
z
M 32.71875 -1.421875 
L 21.921875 -1.421875 
L 67.484375 74.21875 
L 78.328125 74.21875 
z
M 22.703125 74.21875 
Q 31.78125 74.21875 36.984375 68.921875 
Q 42.1875 63.625 42.1875 54.390625 
Q 42.1875 45.171875 36.984375 39.84375 
Q 31.78125 34.515625 22.703125 34.515625 
Q 13.625 34.515625 8.421875 39.84375 
Q 3.21875 45.171875 3.21875 54.390625 
Q 3.21875 63.625 8.421875 68.921875 
Q 13.625 74.21875 22.703125 74.21875 
z
M 22.703125 66.015625 
Q 19.1875 66.015625 17.28125 62.984375 
Q 15.375 59.96875 15.375 54.390625 
Q 15.375 48.78125 17.28125 45.71875 
Q 19.1875 42.671875 22.703125 42.671875 
Q 26.21875 42.671875 28.09375 45.71875 
Q 29.984375 48.78125 29.984375 54.390625 
Q 29.984375 59.96875 28.078125 62.984375 
Q 26.171875 66.015625 22.703125 66.015625 
z
" id="DejaVuSans-Bold-37"/>
       <path d="M 8.015625 -13.1875 
Q 14.265625 -1.5625 17.390625 9.515625 
Q 20.515625 20.609375 20.515625 31.390625 
Q 20.515625 42.1875 17.390625 53.25 
Q 14.265625 64.3125 8.015625 75.875 
L 22.515625 75.875 
Q 29.9375 63.921875 33.515625 52.953125 
Q 37.109375 42 37.109375 31.296875 
Q 37.109375 20.609375 33.546875 9.734375 
Q 29.984375 -1.125 22.515625 -13.1875 
z
" id="DejaVuSans-Bold-41"/>
      </defs>
      <use xlink:href="#DejaVuSans-Bold-77"/>
      <use x="99.511719" xlink:href="#DejaVuSans-Bold-67"/>
      <use x="172.900391" xlink:href="#DejaVuSans-Bold-80"/>
      <use x="244.441406" xlink:href="#DejaVuSans-Bold-45"/>
      <use x="285.945312" xlink:href="#DejaVuSans-Bold-77"/>
      <use x="385.457031" xlink:href="#DejaVuSans-Bold-67"/>
      <use x="458.845703" xlink:href="#DejaVuSans-Bold-80"/>
      <use x="532.136719" xlink:href="#DejaVuSans-Bold-32"/>
      <use x="566.951172" xlink:href="#DejaVuSans-Bold-115"/>
      <use x="626.472656" xlink:href="#DejaVuSans-Bold-105"/>
      <use x="660.75" xlink:href="#DejaVuSans-Bold-109"/>
      <use x="764.949219" xlink:href="#DejaVuSans-Bold-105"/>
      <use x="799.226562" xlink:href="#DejaVuSans-Bold-108"/>
      <use x="833.503906" xlink:href="#DejaVuSans-Bold-97"/>
      <use x="900.984375" xlink:href="#DejaVuSans-Bold-114"/>
      <use x="950.300781" xlink:href="#DejaVuSans-Bold-105"/>
      <use x="984.578125" xlink:href="#DejaVuSans-Bold-116"/>
      <use x="1032.380859" xlink:href="#DejaVuSans-Bold-121"/>
      <use x="1097.566406" xlink:href="#DejaVuSans-Bold-32"/>
      <use x="1132.380859" xlink:href="#DejaVuSans-Bold-40"/>
      <use x="1178.083984" xlink:href="#DejaVuSans-Bold-37"/>
      <use x="1278.279297" xlink:href="#DejaVuSans-Bold-41"/>
     </g>
    </g>
   </g>
   <g id="LineCollection_1">
    <path clip-path="url(#p2b29852a5b)" style="fill:none;stroke:#1f77b4;stroke-width:1.5;"/>
    <path clip-path="url(#p2b29852a5b)" d="M 718.457966 266.30137 
L 718.457966 251.408219 
" style="fill:none;stroke:#1f77b4;stroke-width:1.5;"/>
    <path clip-path="url(#p2b29852a5b)" d="M 270.73496 206.728767 
L 270.73496 191.835616 
" style="fill:none;stroke:#1f77b4;stroke-width:1.5;"/>
    <path clip-path="url(#p2b29852a5b)" d="M 193.069232 147.156164 
L 193.069232 132.263014 
" style="fill:none;stroke:#1f77b4;stroke-width:1.5;"/>
    <path clip-path="url(#p2b29852a5b)" d="M 312.012384 87.583562 
L 312.012384 72.690411 
" style="fill:none;stroke:#1f77b4;stroke-width:1.5;"/>
   </g>
   <g id="LineCollection_2">
    <path clip-path="url(#p2b29852a5b)" d="M 90 325.873973 
L 90 310.980822 
" style="fill:none;stroke:#1f77b4;stroke-width:1.5;"/>
    <path clip-path="url(#p2b29852a5b)" d="M 90 266.30137 
L 90 251.408219 
" style="fill:none;stroke:#1f77b4;stroke-width:1.5;"/>
    <path clip-path="url(#p2b29852a5b)" d="M 90.017314 206.728767 
L 90.017314 191.835616 
" style="fill:none;stroke:#1f77b4;stroke-width:1.5;"/>
    <path clip-path="url(#p2b29852a5b)" d="M 90.026695 147.156164 
L 90.026695 132.263014 
" style="fill:none;stroke:#1f77b4;stroke-width:1.5;"/>
    <path clip-path="url(#p2b29852a5b)" d="M 90 87.583562 
L 90 72.690411 
" style="fill:none;stroke:#1f77b4;stroke-width:1.5;"/>
   </g>
   <g id="LineCollection_3">
    <path clip-path="url(#p2b29852a5b)" d="M 90 318.427397 
L 721 318.427397 
" style="fill:none;stroke:#1f77b4;stroke-width:1.5;"/>
    <path clip-path="url(#p2b29852a5b)" d="M 90 258.854795 
L 718.457966 258.854795 
" style="fill:none;stroke:#1f77b4;stroke-width:1.5;"/>
    <path clip-path="url(#p2b29852a5b)" d="M 90.017314 199.282192 
L 270.73496 199.282192 
" style="fill:none;stroke:#1f77b4;stroke-width:1.5;"/>
    <path clip-path="url(#p2b29852a5b)" d="M 90.026695 139.709589 
L 193.069232 139.709589 
" style="fill:none;stroke:#1f77b4;stroke-width:1.5;"/>
    <path clip-path="url(#p2b29852a5b)" d="M 90 80.136986 
L 312.012384 80.136986 
" style="fill:none;stroke:#1f77b4;stroke-width:1.5;"/>
   </g>
   <g id="LineCollection_4">
    <path clip-path="url(#p2b29852a5b)" d="M 141.87831 325.873973 
L 141.87831 310.980822 
" style="fill:none;stroke:#1f77b4;stroke-width:1.5;"/>
    <path clip-path="url(#p2b29852a5b)" d="M 241.55988 325.873973 
L 241.55988 310.980822 
" style="fill:none;stroke:#1f77b4;stroke-width:1.5;"/>
    <path clip-path="url(#p2b29852a5b)" d="M 412.768278 325.873973 
L 412.768278 310.980822 
" style="fill:none;stroke:#1f77b4;stroke-width:1.5;"/>
    <path clip-path="url(#p2b29852a5b)" d="M 102.218517 266.30137 
L 102.218517 251.408219 
" style="fill:none;stroke:#1f77b4;stroke-width:1.5;"/>
    <path clip-path="url(#p2b29852a5b)" d="M 117.385837 266.30137 
L 117.385837 251.408219 
" style="fill:none;stroke:#1f77b4;stroke-width:1.5;"/>
    <path clip-path="url(#p2b29852a5b)" d="M 148.99108 266.30137 
L 148.99108 251.408219 
" style="fill:none;stroke:#1f77b4;stroke-width:1.5;"/>
    <path clip-path="url(#p2b29852a5b)" d="M 101.628209 206.728767 
L 101.628209 191.835616 
" style="fill:none;stroke:#1f77b4;stroke-width:1.5;"/>
    <path clip-path="url(#p2b29852a5b)" d="M 117.684741 206.728767 
L 117.684741 191.835616 
" style="fill:none;stroke:#1f77b4;stroke-width:1.5;"/>
    <path clip-path="url(#p2b29852a5b)" d="M 152.493265 206.728767 
L 152.493265 191.835616 
" style="fill:none;stroke:#1f77b4;stroke-width:1.5;"/>
    <path clip-path="url(#p2b29852a5b)" d="M 94.937288 147.156164 
L 94.937288 132.263014 
" style="fill:none;stroke:#1f77b4;stroke-width:1.5;"/>
    <path clip-path="url(#p2b29852a5b)" d="M 99.862153 147.156164 
L 99.862153 132.263014 
" style="fill:none;stroke:#1f77b4;stroke-width:1.5;"/>
    <path clip-path="url(#p2b29852a5b)" d="M 108.903158 147.156164 
L 108.903158 132.263014 
" style="fill:none;stroke:#1f77b4;stroke-width:1.5;"/>
    <path clip-path="url(#p2b29852a5b)" d="M 91.735481 87.583562 
L 91.735481 72.690411 
" style="fill:none;stroke:#1f77b4;stroke-width:1.5;"/>
    <path clip-path="url(#p2b29852a5b)" d="M 94.110428 87.583562 
L 94.110428 72.690411 
" style="fill:none;stroke:#1f77b4;stroke-width:1.5;"/>
    <path clip-path="url(#p2b29852a5b)" d="M 97.969658 87.583562 
L 97.969658 72.690411 
" style="fill:none;stroke:#1f77b4;stroke-width:1.5;"/>
   </g>
   <g id="patch_3">
    <path d="M 90 378 
L 90 51.84 
" style="fill:none;stroke:#000000;stroke-linecap:square;stroke-linejoin:miter;stroke-width:0.8;"/>
   </g>
   <g id="patch_4">
    <path d="M 648 378 
L 648 51.84 
" style="fill:none;stroke:#000000;stroke-linecap:square;stroke-linejoin:miter;stroke-width:0.8;"/>
   </g>
   <g id="patch_5">
    <path d="M 90 378 
L 648 378 
" style="fill:none;stroke:#000000;stroke-linecap:square;stroke-linejoin:miter;stroke-width:0.8;"/>
   </g>
   <g id="patch_6">
    <path d="M 90 51.84 
L 648 51.84 
" style="fill:none;stroke:#000000;stroke-linecap:square;stroke-linejoin:miter;stroke-width:0.8;"/>
   </g>
   <g id="text_18">
    <!-- Pairwise relative difference in T-number versus similarity -->
    <g transform="translate(13.296094 45.84)scale(0.22 -0.22)">
     <defs>
      <path d="M 3.515625 54.6875 
L 20.515625 54.6875 
L 29.6875 17 
L 38.921875 54.6875 
L 53.515625 54.6875 
L 62.703125 17.390625 
L 71.921875 54.6875 
L 88.921875 54.6875 
L 74.515625 0 
L 55.421875 0 
L 46.1875 37.59375 
L 37.015625 0 
L 17.921875 0 
z
" id="DejaVuSans-Bold-119"/>
      <path d="M 45.609375 46.6875 
L 45.609375 75.984375 
L 63.1875 75.984375 
L 63.1875 0 
L 45.609375 0 
L 45.609375 7.90625 
Q 42 3.078125 37.640625 0.828125 
Q 33.296875 -1.421875 27.59375 -1.421875 
Q 17.484375 -1.421875 10.984375 6.609375 
Q 4.5 14.65625 4.5 27.296875 
Q 4.5 39.9375 10.984375 47.96875 
Q 17.484375 56 27.59375 56 
Q 33.25 56 37.625 53.734375 
Q 42 51.46875 45.609375 46.6875 
z
M 34.078125 11.28125 
Q 39.703125 11.28125 42.65625 15.375 
Q 45.609375 19.484375 45.609375 27.296875 
Q 45.609375 35.109375 42.65625 39.203125 
Q 39.703125 43.3125 34.078125 43.3125 
Q 28.515625 43.3125 25.5625 39.203125 
Q 22.609375 35.109375 22.609375 27.296875 
Q 22.609375 19.484375 25.5625 15.375 
Q 28.515625 11.28125 34.078125 11.28125 
z
" id="DejaVuSans-Bold-100"/>
     </defs>
     <use xlink:href="#DejaVuSans-Bold-80"/>
     <use x="70.666016" xlink:href="#DejaVuSans-Bold-97"/>
     <use x="138.146484" xlink:href="#DejaVuSans-Bold-105"/>
     <use x="172.423828" xlink:href="#DejaVuSans-Bold-114"/>
     <use x="221.740234" xlink:href="#DejaVuSans-Bold-119"/>
     <use x="314.123047" xlink:href="#DejaVuSans-Bold-105"/>
     <use x="348.400391" xlink:href="#DejaVuSans-Bold-115"/>
     <use x="407.921875" xlink:href="#DejaVuSans-Bold-101"/>
     <use x="475.744141" xlink:href="#DejaVuSans-Bold-32"/>
     <use x="510.558594" xlink:href="#DejaVuSans-Bold-114"/>
     <use x="559.875" xlink:href="#DejaVuSans-Bold-101"/>
     <use x="627.697266" xlink:href="#DejaVuSans-Bold-108"/>
     <use x="661.974609" xlink:href="#DejaVuSans-Bold-97"/>
     <use x="729.455078" xlink:href="#DejaVuSans-Bold-116"/>
     <use x="777.257812" xlink:href="#DejaVuSans-Bold-105"/>
     <use x="811.535156" xlink:href="#DejaVuSans-Bold-118"/>
     <use x="876.720703" xlink:href="#DejaVuSans-Bold-101"/>
     <use x="944.542969" xlink:href="#DejaVuSans-Bold-32"/>
     <use x="979.357422" xlink:href="#DejaVuSans-Bold-100"/>
     <use x="1050.939453" xlink:href="#DejaVuSans-Bold-105"/>
     <use x="1085.216797" xlink:href="#DejaVuSans-Bold-102"/>
     <use x="1128.722656" xlink:href="#DejaVuSans-Bold-102"/>
     <use x="1172.228516" xlink:href="#DejaVuSans-Bold-101"/>
     <use x="1240.050781" xlink:href="#DejaVuSans-Bold-114"/>
     <use x="1289.367188" xlink:href="#DejaVuSans-Bold-101"/>
     <use x="1357.189453" xlink:href="#DejaVuSans-Bold-110"/>
     <use x="1428.380859" xlink:href="#DejaVuSans-Bold-99"/>
     <use x="1487.658203" xlink:href="#DejaVuSans-Bold-101"/>
     <use x="1555.480469" xlink:href="#DejaVuSans-Bold-32"/>
     <use x="1590.294922" xlink:href="#DejaVuSans-Bold-105"/>
     <use x="1624.572266" xlink:href="#DejaVuSans-Bold-110"/>
     <use x="1695.763672" xlink:href="#DejaVuSans-Bold-32"/>
     <use x="1730.578125" xlink:href="#DejaVuSans-Bold-84"/>
     <use x="1784.041016" xlink:href="#DejaVuSans-Bold-45"/>
     <use x="1825.544922" xlink:href="#DejaVuSans-Bold-110"/>
     <use x="1896.736328" xlink:href="#DejaVuSans-Bold-117"/>
     <use x="1967.927734" xlink:href="#DejaVuSans-Bold-109"/>
     <use x="2072.126953" xlink:href="#DejaVuSans-Bold-98"/>
     <use x="2143.708984" xlink:href="#DejaVuSans-Bold-101"/>
     <use x="2211.53125" xlink:href="#DejaVuSans-Bold-114"/>
     <use x="2260.847656" xlink:href="#DejaVuSans-Bold-32"/>
     <use x="2295.662109" xlink:href="#DejaVuSans-Bold-118"/>
     <use x="2360.847656" xlink:href="#DejaVuSans-Bold-101"/>
     <use x="2428.669922" xlink:href="#DejaVuSans-Bold-114"/>
     <use x="2477.986328" xlink:href="#DejaVuSans-Bold-115"/>
     <use x="2537.507812" xlink:href="#DejaVuSans-Bold-117"/>
     <use x="2608.699219" xlink:href="#DejaVuSans-Bold-115"/>
     <use x="2668.220703" xlink:href="#DejaVuSans-Bold-32"/>
     <use x="2703.035156" xlink:href="#DejaVuSans-Bold-115"/>
     <use x="2762.556641" xlink:href="#DejaVuSans-Bold-105"/>
     <use x="2796.833984" xlink:href="#DejaVuSans-Bold-109"/>
     <use x="2901.033203" xlink:href="#DejaVuSans-Bold-105"/>
     <use x="2935.310547" xlink:href="#DejaVuSans-Bold-108"/>
     <use x="2969.587891" xlink:href="#DejaVuSans-Bold-97"/>
     <use x="3037.068359" xlink:href="#DejaVuSans-Bold-114"/>
     <use x="3086.384766" xlink:href="#DejaVuSans-Bold-105"/>
     <use x="3120.662109" xlink:href="#DejaVuSans-Bold-116"/>
     <use x="3168.464844" xlink:href="#DejaVuSans-Bold-121"/>
    </g>
   </g>
  </g>
 </g>
 <defs>
  <clipPath id="p2b29852a5b">
   <rect height="326.16" width="558" x="90" y="51.84"/>
  </clipPath>
 </defs>
</svg>
