<?xml version="1.0" encoding="utf-8" standalone="no"?>
<!DOCTYPE svg PUBLIC "-//W3C//DTD SVG 1.1//EN"
  "http://www.w3.org/Graphics/SVG/1.1/DTD/svg11.dtd">
<!-- Created with matplotlib (https://matplotlib.org/) -->
<svg height="324pt" version="1.1" viewBox="0 0 900 324" width="900pt" xmlns="http://www.w3.org/2000/svg" xmlns:xlink="http://www.w3.org/1999/xlink">
 <metadata>
  <rdf:RDF xmlns:cc="http://creativecommons.org/ns#" xmlns:dc="http://purl.org/dc/elements/1.1/" xmlns:rdf="http://www.w3.org/1999/02/22-rdf-syntax-ns#">
   <cc:Work>
    <dc:type rdf:resource="http://purl.org/dc/dcmitype/StillImage"/>
    <dc:date>2021-08-10T14:57:57.794666</dc:date>
    <dc:format>image/svg+xml</dc:format>
    <dc:creator>
     <cc:Agent>
      <dc:title>Matplotlib v3.3.2, https://matplotlib.org/</dc:title>
     </cc:Agent>
    </dc:creator>
   </cc:Work>
  </rdf:RDF>
 </metadata>
 <defs>
  <style type="text/css">*{stroke-linecap:butt;stroke-linejoin:round;}</style>
 </defs>
 <g id="figure_1">
  <g id="patch_1">
   <path d="M 0 324 
L 900 324 
L 900 0 
L 0 0 
z
" style="fill:none;"/>
  </g>
  <g id="axes_1">
   <g id="patch_2">
    <path d="M 112.5 283.5 
L 810 283.5 
L 810 38.88 
L 112.5 38.88 
z
" style="fill:#ffffff;"/>
   </g>
   <g id="matplotlib.axis_1">
    <g id="xtick_1">
     <g id="line2d_1">
      <defs>
       <path d="M 0 0 
L 0 3.5 
" id="m9cc324a356" style="stroke:#000000;stroke-width:0.8;"/>
      </defs>
      <g>
       <use style="stroke:#000000;stroke-width:0.8;" x="144.204545" xlink:href="#m9cc324a356" y="283.5"/>
      </g>
     </g>
     <g id="text_1">
      <!-- 0 -->
      <g transform="translate(141.023295 298.098437)scale(0.1 -0.1)">
       <defs>
        <path d="M 31.78125 66.40625 
Q 24.171875 66.40625 20.328125 58.90625 
Q 16.5 51.421875 16.5 36.375 
Q 16.5 21.390625 20.328125 13.890625 
Q 24.171875 6.390625 31.78125 6.390625 
Q 39.453125 6.390625 43.28125 13.890625 
Q 47.125 21.390625 47.125 36.375 
Q 47.125 51.421875 43.28125 58.90625 
Q 39.453125 66.40625 31.78125 66.40625 
z
M 31.78125 74.21875 
Q 44.046875 74.21875 50.515625 64.515625 
Q 56.984375 54.828125 56.984375 36.375 
Q 56.984375 17.96875 50.515625 8.265625 
Q 44.046875 -1.421875 31.78125 -1.421875 
Q 19.53125 -1.421875 13.0625 8.265625 
Q 6.59375 17.96875 6.59375 36.375 
Q 6.59375 54.828125 13.0625 64.515625 
Q 19.53125 74.21875 31.78125 74.21875 
z
" id="DejaVuSans-48"/>
       </defs>
       <use xlink:href="#DejaVuSans-48"/>
      </g>
     </g>
    </g>
    <g id="xtick_2">
     <g id="line2d_2">
      <g>
       <use style="stroke:#000000;stroke-width:0.8;" x="230.368293" xlink:href="#m9cc324a356" y="283.5"/>
      </g>
     </g>
     <g id="text_2">
      <!-- 50 -->
      <g transform="translate(224.005793 298.098437)scale(0.1 -0.1)">
       <defs>
        <path d="M 10.796875 72.90625 
L 49.515625 72.90625 
L 49.515625 64.59375 
L 19.828125 64.59375 
L 19.828125 46.734375 
Q 21.96875 47.46875 24.109375 47.828125 
Q 26.265625 48.1875 28.421875 48.1875 
Q 40.625 48.1875 47.75 41.5 
Q 54.890625 34.8125 54.890625 23.390625 
Q 54.890625 11.625 47.5625 5.09375 
Q 40.234375 -1.421875 26.90625 -1.421875 
Q 22.3125 -1.421875 17.546875 -0.640625 
Q 12.796875 0.140625 7.71875 1.703125 
L 7.71875 11.625 
Q 12.109375 9.234375 16.796875 8.0625 
Q 21.484375 6.890625 26.703125 6.890625 
Q 35.15625 6.890625 40.078125 11.328125 
Q 45.015625 15.765625 45.015625 23.390625 
Q 45.015625 31 40.078125 35.4375 
Q 35.15625 39.890625 26.703125 39.890625 
Q 22.75 39.890625 18.8125 39.015625 
Q 14.890625 38.140625 10.796875 36.28125 
z
" id="DejaVuSans-53"/>
       </defs>
       <use xlink:href="#DejaVuSans-53"/>
       <use x="63.623047" xlink:href="#DejaVuSans-48"/>
      </g>
     </g>
    </g>
    <g id="xtick_3">
     <g id="line2d_3">
      <g>
       <use style="stroke:#000000;stroke-width:0.8;" x="316.53204" xlink:href="#m9cc324a356" y="283.5"/>
      </g>
     </g>
     <g id="text_3">
      <!-- 100 -->
      <g transform="translate(306.98829 298.098437)scale(0.1 -0.1)">
       <defs>
        <path d="M 12.40625 8.296875 
L 28.515625 8.296875 
L 28.515625 63.921875 
L 10.984375 60.40625 
L 10.984375 69.390625 
L 28.421875 72.90625 
L 38.28125 72.90625 
L 38.28125 8.296875 
L 54.390625 8.296875 
L 54.390625 0 
L 12.40625 0 
z
" id="DejaVuSans-49"/>
       </defs>
       <use xlink:href="#DejaVuSans-49"/>
       <use x="63.623047" xlink:href="#DejaVuSans-48"/>
       <use x="127.246094" xlink:href="#DejaVuSans-48"/>
      </g>
     </g>
    </g>
    <g id="xtick_4">
     <g id="line2d_4">
      <g>
       <use style="stroke:#000000;stroke-width:0.8;" x="402.695787" xlink:href="#m9cc324a356" y="283.5"/>
      </g>
     </g>
     <g id="text_4">
      <!-- 150 -->
      <g transform="translate(393.152037 298.098437)scale(0.1 -0.1)">
       <use xlink:href="#DejaVuSans-49"/>
       <use x="63.623047" xlink:href="#DejaVuSans-53"/>
       <use x="127.246094" xlink:href="#DejaVuSans-48"/>
      </g>
     </g>
    </g>
    <g id="xtick_5">
     <g id="line2d_5">
      <g>
       <use style="stroke:#000000;stroke-width:0.8;" x="488.859535" xlink:href="#m9cc324a356" y="283.5"/>
      </g>
     </g>
     <g id="text_5">
      <!-- 200 -->
      <g transform="translate(479.315785 298.098437)scale(0.1 -0.1)">
       <defs>
        <path d="M 19.1875 8.296875 
L 53.609375 8.296875 
L 53.609375 0 
L 7.328125 0 
L 7.328125 8.296875 
Q 12.9375 14.109375 22.625 23.890625 
Q 32.328125 33.6875 34.8125 36.53125 
Q 39.546875 41.84375 41.421875 45.53125 
Q 43.3125 49.21875 43.3125 52.78125 
Q 43.3125 58.59375 39.234375 62.25 
Q 35.15625 65.921875 28.609375 65.921875 
Q 23.96875 65.921875 18.8125 64.3125 
Q 13.671875 62.703125 7.8125 59.421875 
L 7.8125 69.390625 
Q 13.765625 71.78125 18.9375 73 
Q 24.125 74.21875 28.421875 74.21875 
Q 39.75 74.21875 46.484375 68.546875 
Q 53.21875 62.890625 53.21875 53.421875 
Q 53.21875 48.921875 51.53125 44.890625 
Q 49.859375 40.875 45.40625 35.40625 
Q 44.1875 33.984375 37.640625 27.21875 
Q 31.109375 20.453125 19.1875 8.296875 
z
" id="DejaVuSans-50"/>
       </defs>
       <use xlink:href="#DejaVuSans-50"/>
       <use x="63.623047" xlink:href="#DejaVuSans-48"/>
       <use x="127.246094" xlink:href="#DejaVuSans-48"/>
      </g>
     </g>
    </g>
    <g id="xtick_6">
     <g id="line2d_6">
      <g>
       <use style="stroke:#000000;stroke-width:0.8;" x="575.023282" xlink:href="#m9cc324a356" y="283.5"/>
      </g>
     </g>
     <g id="text_6">
      <!-- 250 -->
      <g transform="translate(565.479532 298.098437)scale(0.1 -0.1)">
       <use xlink:href="#DejaVuSans-50"/>
       <use x="63.623047" xlink:href="#DejaVuSans-53"/>
       <use x="127.246094" xlink:href="#DejaVuSans-48"/>
      </g>
     </g>
    </g>
    <g id="xtick_7">
     <g id="line2d_7">
      <g>
       <use style="stroke:#000000;stroke-width:0.8;" x="661.187029" xlink:href="#m9cc324a356" y="283.5"/>
      </g>
     </g>
     <g id="text_7">
      <!-- 300 -->
      <g transform="translate(651.643279 298.098437)scale(0.1 -0.1)">
       <defs>
        <path d="M 40.578125 39.3125 
Q 47.65625 37.796875 51.625 33 
Q 55.609375 28.21875 55.609375 21.1875 
Q 55.609375 10.40625 48.1875 4.484375 
Q 40.765625 -1.421875 27.09375 -1.421875 
Q 22.515625 -1.421875 17.65625 -0.515625 
Q 12.796875 0.390625 7.625 2.203125 
L 7.625 11.71875 
Q 11.71875 9.328125 16.59375 8.109375 
Q 21.484375 6.890625 26.8125 6.890625 
Q 36.078125 6.890625 40.9375 10.546875 
Q 45.796875 14.203125 45.796875 21.1875 
Q 45.796875 27.640625 41.28125 31.265625 
Q 36.765625 34.90625 28.71875 34.90625 
L 20.21875 34.90625 
L 20.21875 43.015625 
L 29.109375 43.015625 
Q 36.375 43.015625 40.234375 45.921875 
Q 44.09375 48.828125 44.09375 54.296875 
Q 44.09375 59.90625 40.109375 62.90625 
Q 36.140625 65.921875 28.71875 65.921875 
Q 24.65625 65.921875 20.015625 65.03125 
Q 15.375 64.15625 9.8125 62.3125 
L 9.8125 71.09375 
Q 15.4375 72.65625 20.34375 73.4375 
Q 25.25 74.21875 29.59375 74.21875 
Q 40.828125 74.21875 47.359375 69.109375 
Q 53.90625 64.015625 53.90625 55.328125 
Q 53.90625 49.265625 50.4375 45.09375 
Q 46.96875 40.921875 40.578125 39.3125 
z
" id="DejaVuSans-51"/>
       </defs>
       <use xlink:href="#DejaVuSans-51"/>
       <use x="63.623047" xlink:href="#DejaVuSans-48"/>
       <use x="127.246094" xlink:href="#DejaVuSans-48"/>
      </g>
     </g>
    </g>
    <g id="xtick_8">
     <g id="line2d_8">
      <g>
       <use style="stroke:#000000;stroke-width:0.8;" x="747.350777" xlink:href="#m9cc324a356" y="283.5"/>
      </g>
     </g>
     <g id="text_8">
      <!-- 350 -->
      <g transform="translate(737.807027 298.098437)scale(0.1 -0.1)">
       <use xlink:href="#DejaVuSans-51"/>
       <use x="63.623047" xlink:href="#DejaVuSans-53"/>
       <use x="127.246094" xlink:href="#DejaVuSans-48"/>
      </g>
     </g>
    </g>
    <g id="text_9">
     <!-- Genome Size (kbp) -->
     <g transform="translate(384.90875 316.335625)scale(0.16 -0.16)">
      <defs>
       <path d="M 59.515625 10.40625 
L 59.515625 29.984375 
L 43.40625 29.984375 
L 43.40625 38.09375 
L 69.28125 38.09375 
L 69.28125 6.78125 
Q 63.578125 2.734375 56.6875 0.65625 
Q 49.8125 -1.421875 42 -1.421875 
Q 24.90625 -1.421875 15.25 8.5625 
Q 5.609375 18.5625 5.609375 36.375 
Q 5.609375 54.25 15.25 64.234375 
Q 24.90625 74.21875 42 74.21875 
Q 49.125 74.21875 55.546875 72.453125 
Q 61.96875 70.703125 67.390625 67.28125 
L 67.390625 56.78125 
Q 61.921875 61.421875 55.765625 63.765625 
Q 49.609375 66.109375 42.828125 66.109375 
Q 29.4375 66.109375 22.71875 58.640625 
Q 16.015625 51.171875 16.015625 36.375 
Q 16.015625 21.625 22.71875 14.15625 
Q 29.4375 6.6875 42.828125 6.6875 
Q 48.046875 6.6875 52.140625 7.59375 
Q 56.25 8.5 59.515625 10.40625 
z
" id="DejaVuSans-71"/>
       <path d="M 56.203125 29.59375 
L 56.203125 25.203125 
L 14.890625 25.203125 
Q 15.484375 15.921875 20.484375 11.0625 
Q 25.484375 6.203125 34.421875 6.203125 
Q 39.59375 6.203125 44.453125 7.46875 
Q 49.3125 8.734375 54.109375 11.28125 
L 54.109375 2.78125 
Q 49.265625 0.734375 44.1875 -0.34375 
Q 39.109375 -1.421875 33.890625 -1.421875 
Q 20.796875 -1.421875 13.15625 6.1875 
Q 5.515625 13.8125 5.515625 26.8125 
Q 5.515625 40.234375 12.765625 48.109375 
Q 20.015625 56 32.328125 56 
Q 43.359375 56 49.78125 48.890625 
Q 56.203125 41.796875 56.203125 29.59375 
z
M 47.21875 32.234375 
Q 47.125 39.59375 43.09375 43.984375 
Q 39.0625 48.390625 32.421875 48.390625 
Q 24.90625 48.390625 20.390625 44.140625 
Q 15.875 39.890625 15.1875 32.171875 
z
" id="DejaVuSans-101"/>
       <path d="M 54.890625 33.015625 
L 54.890625 0 
L 45.90625 0 
L 45.90625 32.71875 
Q 45.90625 40.484375 42.875 44.328125 
Q 39.84375 48.1875 33.796875 48.1875 
Q 26.515625 48.1875 22.3125 43.546875 
Q 18.109375 38.921875 18.109375 30.90625 
L 18.109375 0 
L 9.078125 0 
L 9.078125 54.6875 
L 18.109375 54.6875 
L 18.109375 46.1875 
Q 21.34375 51.125 25.703125 53.5625 
Q 30.078125 56 35.796875 56 
Q 45.21875 56 50.046875 50.171875 
Q 54.890625 44.34375 54.890625 33.015625 
z
" id="DejaVuSans-110"/>
       <path d="M 30.609375 48.390625 
Q 23.390625 48.390625 19.1875 42.75 
Q 14.984375 37.109375 14.984375 27.296875 
Q 14.984375 17.484375 19.15625 11.84375 
Q 23.34375 6.203125 30.609375 6.203125 
Q 37.796875 6.203125 41.984375 11.859375 
Q 46.1875 17.53125 46.1875 27.296875 
Q 46.1875 37.015625 41.984375 42.703125 
Q 37.796875 48.390625 30.609375 48.390625 
z
M 30.609375 56 
Q 42.328125 56 49.015625 48.375 
Q 55.71875 40.765625 55.71875 27.296875 
Q 55.71875 13.875 49.015625 6.21875 
Q 42.328125 -1.421875 30.609375 -1.421875 
Q 18.84375 -1.421875 12.171875 6.21875 
Q 5.515625 13.875 5.515625 27.296875 
Q 5.515625 40.765625 12.171875 48.375 
Q 18.84375 56 30.609375 56 
z
" id="DejaVuSans-111"/>
       <path d="M 52 44.1875 
Q 55.375 50.25 60.0625 53.125 
Q 64.75 56 71.09375 56 
Q 79.640625 56 84.28125 50.015625 
Q 88.921875 44.046875 88.921875 33.015625 
L 88.921875 0 
L 79.890625 0 
L 79.890625 32.71875 
Q 79.890625 40.578125 77.09375 44.375 
Q 74.3125 48.1875 68.609375 48.1875 
Q 61.625 48.1875 57.5625 43.546875 
Q 53.515625 38.921875 53.515625 30.90625 
L 53.515625 0 
L 44.484375 0 
L 44.484375 32.71875 
Q 44.484375 40.625 41.703125 44.40625 
Q 38.921875 48.1875 33.109375 48.1875 
Q 26.21875 48.1875 22.15625 43.53125 
Q 18.109375 38.875 18.109375 30.90625 
L 18.109375 0 
L 9.078125 0 
L 9.078125 54.6875 
L 18.109375 54.6875 
L 18.109375 46.1875 
Q 21.1875 51.21875 25.484375 53.609375 
Q 29.78125 56 35.6875 56 
Q 41.65625 56 45.828125 52.96875 
Q 50 49.953125 52 44.1875 
z
" id="DejaVuSans-109"/>
       <path id="DejaVuSans-32"/>
       <path d="M 53.515625 70.515625 
L 53.515625 60.890625 
Q 47.90625 63.578125 42.921875 64.890625 
Q 37.9375 66.21875 33.296875 66.21875 
Q 25.25 66.21875 20.875 63.09375 
Q 16.5 59.96875 16.5 54.203125 
Q 16.5 49.359375 19.40625 46.890625 
Q 22.3125 44.4375 30.421875 42.921875 
L 36.375 41.703125 
Q 47.40625 39.59375 52.65625 34.296875 
Q 57.90625 29 57.90625 20.125 
Q 57.90625 9.515625 50.796875 4.046875 
Q 43.703125 -1.421875 29.984375 -1.421875 
Q 24.8125 -1.421875 18.96875 -0.25 
Q 13.140625 0.921875 6.890625 3.21875 
L 6.890625 13.375 
Q 12.890625 10.015625 18.65625 8.296875 
Q 24.421875 6.59375 29.984375 6.59375 
Q 38.421875 6.59375 43.015625 9.90625 
Q 47.609375 13.234375 47.609375 19.390625 
Q 47.609375 24.75 44.3125 27.78125 
Q 41.015625 30.8125 33.5 32.328125 
L 27.484375 33.5 
Q 16.453125 35.6875 11.515625 40.375 
Q 6.59375 45.0625 6.59375 53.421875 
Q 6.59375 63.09375 13.40625 68.65625 
Q 20.21875 74.21875 32.171875 74.21875 
Q 37.3125 74.21875 42.625 73.28125 
Q 47.953125 72.359375 53.515625 70.515625 
z
" id="DejaVuSans-83"/>
       <path d="M 9.421875 54.6875 
L 18.40625 54.6875 
L 18.40625 0 
L 9.421875 0 
z
M 9.421875 75.984375 
L 18.40625 75.984375 
L 18.40625 64.59375 
L 9.421875 64.59375 
z
" id="DejaVuSans-105"/>
       <path d="M 5.515625 54.6875 
L 48.1875 54.6875 
L 48.1875 46.484375 
L 14.40625 7.171875 
L 48.1875 7.171875 
L 48.1875 0 
L 4.296875 0 
L 4.296875 8.203125 
L 38.09375 47.515625 
L 5.515625 47.515625 
z
" id="DejaVuSans-122"/>
       <path d="M 31 75.875 
Q 24.46875 64.65625 21.28125 53.65625 
Q 18.109375 42.671875 18.109375 31.390625 
Q 18.109375 20.125 21.3125 9.0625 
Q 24.515625 -2 31 -13.1875 
L 23.1875 -13.1875 
Q 15.875 -1.703125 12.234375 9.375 
Q 8.59375 20.453125 8.59375 31.390625 
Q 8.59375 42.28125 12.203125 53.3125 
Q 15.828125 64.359375 23.1875 75.875 
z
" id="DejaVuSans-40"/>
       <path d="M 9.078125 75.984375 
L 18.109375 75.984375 
L 18.109375 31.109375 
L 44.921875 54.6875 
L 56.390625 54.6875 
L 27.390625 29.109375 
L 57.625 0 
L 45.90625 0 
L 18.109375 26.703125 
L 18.109375 0 
L 9.078125 0 
z
" id="DejaVuSans-107"/>
       <path d="M 48.6875 27.296875 
Q 48.6875 37.203125 44.609375 42.84375 
Q 40.53125 48.484375 33.40625 48.484375 
Q 26.265625 48.484375 22.1875 42.84375 
Q 18.109375 37.203125 18.109375 27.296875 
Q 18.109375 17.390625 22.1875 11.75 
Q 26.265625 6.109375 33.40625 6.109375 
Q 40.53125 6.109375 44.609375 11.75 
Q 48.6875 17.390625 48.6875 27.296875 
z
M 18.109375 46.390625 
Q 20.953125 51.265625 25.265625 53.625 
Q 29.59375 56 35.59375 56 
Q 45.5625 56 51.78125 48.09375 
Q 58.015625 40.1875 58.015625 27.296875 
Q 58.015625 14.40625 51.78125 6.484375 
Q 45.5625 -1.421875 35.59375 -1.421875 
Q 29.59375 -1.421875 25.265625 0.953125 
Q 20.953125 3.328125 18.109375 8.203125 
L 18.109375 0 
L 9.078125 0 
L 9.078125 75.984375 
L 18.109375 75.984375 
z
" id="DejaVuSans-98"/>
       <path d="M 18.109375 8.203125 
L 18.109375 -20.796875 
L 9.078125 -20.796875 
L 9.078125 54.6875 
L 18.109375 54.6875 
L 18.109375 46.390625 
Q 20.953125 51.265625 25.265625 53.625 
Q 29.59375 56 35.59375 56 
Q 45.5625 56 51.78125 48.09375 
Q 58.015625 40.1875 58.015625 27.296875 
Q 58.015625 14.40625 51.78125 6.484375 
Q 45.5625 -1.421875 35.59375 -1.421875 
Q 29.59375 -1.421875 25.265625 0.953125 
Q 20.953125 3.328125 18.109375 8.203125 
z
M 48.6875 27.296875 
Q 48.6875 37.203125 44.609375 42.84375 
Q 40.53125 48.484375 33.40625 48.484375 
Q 26.265625 48.484375 22.1875 42.84375 
Q 18.109375 37.203125 18.109375 27.296875 
Q 18.109375 17.390625 22.1875 11.75 
Q 26.265625 6.109375 33.40625 6.109375 
Q 40.53125 6.109375 44.609375 11.75 
Q 48.6875 17.390625 48.6875 27.296875 
z
" id="DejaVuSans-112"/>
       <path d="M 8.015625 75.875 
L 15.828125 75.875 
Q 23.140625 64.359375 26.78125 53.3125 
Q 30.421875 42.28125 30.421875 31.390625 
Q 30.421875 20.453125 26.78125 9.375 
Q 23.140625 -1.703125 15.828125 -13.1875 
L 8.015625 -13.1875 
Q 14.5 -2 17.703125 9.0625 
Q 20.90625 20.125 20.90625 31.390625 
Q 20.90625 42.671875 17.703125 53.65625 
Q 14.5 64.65625 8.015625 75.875 
z
" id="DejaVuSans-41"/>
      </defs>
      <use xlink:href="#DejaVuSans-71"/>
      <use x="77.490234" xlink:href="#DejaVuSans-101"/>
      <use x="139.013672" xlink:href="#DejaVuSans-110"/>
      <use x="202.392578" xlink:href="#DejaVuSans-111"/>
      <use x="263.574219" xlink:href="#DejaVuSans-109"/>
      <use x="360.986328" xlink:href="#DejaVuSans-101"/>
      <use x="422.509766" xlink:href="#DejaVuSans-32"/>
      <use x="454.296875" xlink:href="#DejaVuSans-83"/>
      <use x="517.773438" xlink:href="#DejaVuSans-105"/>
      <use x="545.556641" xlink:href="#DejaVuSans-122"/>
      <use x="598.046875" xlink:href="#DejaVuSans-101"/>
      <use x="659.570312" xlink:href="#DejaVuSans-32"/>
      <use x="691.357422" xlink:href="#DejaVuSans-40"/>
      <use x="730.371094" xlink:href="#DejaVuSans-107"/>
      <use x="788.28125" xlink:href="#DejaVuSans-98"/>
      <use x="851.757812" xlink:href="#DejaVuSans-112"/>
      <use x="915.234375" xlink:href="#DejaVuSans-41"/>
     </g>
    </g>
   </g>
   <g id="matplotlib.axis_2">
    <g id="ytick_1">
     <g id="line2d_9">
      <defs>
       <path d="M 0 0 
L -3.5 0 
" id="m79ea8aac59" style="stroke:#000000;stroke-width:0.8;"/>
      </defs>
      <g>
       <use style="stroke:#000000;stroke-width:0.8;" x="112.5" xlink:href="#m79ea8aac59" y="283.5"/>
      </g>
     </g>
     <g id="text_10">
      <!-- 0.000 -->
      <g transform="translate(76.871875 287.299219)scale(0.1 -0.1)">
       <defs>
        <path d="M 10.6875 12.40625 
L 21 12.40625 
L 21 0 
L 10.6875 0 
z
" id="DejaVuSans-46"/>
       </defs>
       <use xlink:href="#DejaVuSans-48"/>
       <use x="63.623047" xlink:href="#DejaVuSans-46"/>
       <use x="95.410156" xlink:href="#DejaVuSans-48"/>
       <use x="159.033203" xlink:href="#DejaVuSans-48"/>
       <use x="222.65625" xlink:href="#DejaVuSans-48"/>
      </g>
     </g>
    </g>
    <g id="ytick_2">
     <g id="line2d_10">
      <g>
       <use style="stroke:#000000;stroke-width:0.8;" x="112.5" xlink:href="#m79ea8aac59" y="248.554286"/>
      </g>
     </g>
     <g id="text_11">
      <!-- 0.005 -->
      <g transform="translate(76.871875 252.353504)scale(0.1 -0.1)">
       <use xlink:href="#DejaVuSans-48"/>
       <use x="63.623047" xlink:href="#DejaVuSans-46"/>
       <use x="95.410156" xlink:href="#DejaVuSans-48"/>
       <use x="159.033203" xlink:href="#DejaVuSans-48"/>
       <use x="222.65625" xlink:href="#DejaVuSans-53"/>
      </g>
     </g>
    </g>
    <g id="ytick_3">
     <g id="line2d_11">
      <g>
       <use style="stroke:#000000;stroke-width:0.8;" x="112.5" xlink:href="#m79ea8aac59" y="213.608571"/>
      </g>
     </g>
     <g id="text_12">
      <!-- 0.010 -->
      <g transform="translate(76.871875 217.40779)scale(0.1 -0.1)">
       <use xlink:href="#DejaVuSans-48"/>
       <use x="63.623047" xlink:href="#DejaVuSans-46"/>
       <use x="95.410156" xlink:href="#DejaVuSans-48"/>
       <use x="159.033203" xlink:href="#DejaVuSans-49"/>
       <use x="222.65625" xlink:href="#DejaVuSans-48"/>
      </g>
     </g>
    </g>
    <g id="ytick_4">
     <g id="line2d_12">
      <g>
       <use style="stroke:#000000;stroke-width:0.8;" x="112.5" xlink:href="#m79ea8aac59" y="178.662857"/>
      </g>
     </g>
     <g id="text_13">
      <!-- 0.015 -->
      <g transform="translate(76.871875 182.462076)scale(0.1 -0.1)">
       <use xlink:href="#DejaVuSans-48"/>
       <use x="63.623047" xlink:href="#DejaVuSans-46"/>
       <use x="95.410156" xlink:href="#DejaVuSans-48"/>
       <use x="159.033203" xlink:href="#DejaVuSans-49"/>
       <use x="222.65625" xlink:href="#DejaVuSans-53"/>
      </g>
     </g>
    </g>
    <g id="ytick_5">
     <g id="line2d_13">
      <g>
       <use style="stroke:#000000;stroke-width:0.8;" x="112.5" xlink:href="#m79ea8aac59" y="143.717143"/>
      </g>
     </g>
     <g id="text_14">
      <!-- 0.020 -->
      <g transform="translate(76.871875 147.516362)scale(0.1 -0.1)">
       <use xlink:href="#DejaVuSans-48"/>
       <use x="63.623047" xlink:href="#DejaVuSans-46"/>
       <use x="95.410156" xlink:href="#DejaVuSans-48"/>
       <use x="159.033203" xlink:href="#DejaVuSans-50"/>
       <use x="222.65625" xlink:href="#DejaVuSans-48"/>
      </g>
     </g>
    </g>
    <g id="ytick_6">
     <g id="line2d_14">
      <g>
       <use style="stroke:#000000;stroke-width:0.8;" x="112.5" xlink:href="#m79ea8aac59" y="108.771429"/>
      </g>
     </g>
     <g id="text_15">
      <!-- 0.025 -->
      <g transform="translate(76.871875 112.570647)scale(0.1 -0.1)">
       <use xlink:href="#DejaVuSans-48"/>
       <use x="63.623047" xlink:href="#DejaVuSans-46"/>
       <use x="95.410156" xlink:href="#DejaVuSans-48"/>
       <use x="159.033203" xlink:href="#DejaVuSans-50"/>
       <use x="222.65625" xlink:href="#DejaVuSans-53"/>
      </g>
     </g>
    </g>
    <g id="ytick_7">
     <g id="line2d_15">
      <g>
       <use style="stroke:#000000;stroke-width:0.8;" x="112.5" xlink:href="#m79ea8aac59" y="73.825714"/>
      </g>
     </g>
     <g id="text_16">
      <!-- 0.030 -->
      <g transform="translate(76.871875 77.624933)scale(0.1 -0.1)">
       <use xlink:href="#DejaVuSans-48"/>
       <use x="63.623047" xlink:href="#DejaVuSans-46"/>
       <use x="95.410156" xlink:href="#DejaVuSans-48"/>
       <use x="159.033203" xlink:href="#DejaVuSans-51"/>
       <use x="222.65625" xlink:href="#DejaVuSans-48"/>
      </g>
     </g>
    </g>
    <g id="ytick_8">
     <g id="line2d_16">
      <g>
       <use style="stroke:#000000;stroke-width:0.8;" x="112.5" xlink:href="#m79ea8aac59" y="38.88"/>
      </g>
     </g>
     <g id="text_17">
      <!-- 0.035 -->
      <g transform="translate(76.871875 42.679219)scale(0.1 -0.1)">
       <use xlink:href="#DejaVuSans-48"/>
       <use x="63.623047" xlink:href="#DejaVuSans-46"/>
       <use x="95.410156" xlink:href="#DejaVuSans-48"/>
       <use x="159.033203" xlink:href="#DejaVuSans-51"/>
       <use x="222.65625" xlink:href="#DejaVuSans-53"/>
      </g>
     </g>
    </g>
    <g id="text_18">
     <!-- Density Distribution -->
     <g transform="translate(69.544375 240.81625)rotate(-90)scale(0.16 -0.16)">
      <defs>
       <path d="M 19.671875 64.796875 
L 19.671875 8.109375 
L 31.59375 8.109375 
Q 46.6875 8.109375 53.6875 14.9375 
Q 60.6875 21.78125 60.6875 36.53125 
Q 60.6875 51.171875 53.6875 57.984375 
Q 46.6875 64.796875 31.59375 64.796875 
z
M 9.8125 72.90625 
L 30.078125 72.90625 
Q 51.265625 72.90625 61.171875 64.09375 
Q 71.09375 55.28125 71.09375 36.53125 
Q 71.09375 17.671875 61.125 8.828125 
Q 51.171875 0 30.078125 0 
L 9.8125 0 
z
" id="DejaVuSans-68"/>
       <path d="M 44.28125 53.078125 
L 44.28125 44.578125 
Q 40.484375 46.53125 36.375 47.5 
Q 32.28125 48.484375 27.875 48.484375 
Q 21.1875 48.484375 17.84375 46.4375 
Q 14.5 44.390625 14.5 40.28125 
Q 14.5 37.15625 16.890625 35.375 
Q 19.28125 33.59375 26.515625 31.984375 
L 29.59375 31.296875 
Q 39.15625 29.25 43.1875 25.515625 
Q 47.21875 21.78125 47.21875 15.09375 
Q 47.21875 7.46875 41.1875 3.015625 
Q 35.15625 -1.421875 24.609375 -1.421875 
Q 20.21875 -1.421875 15.453125 -0.5625 
Q 10.6875 0.296875 5.421875 2 
L 5.421875 11.28125 
Q 10.40625 8.6875 15.234375 7.390625 
Q 20.0625 6.109375 24.8125 6.109375 
Q 31.15625 6.109375 34.5625 8.28125 
Q 37.984375 10.453125 37.984375 14.40625 
Q 37.984375 18.0625 35.515625 20.015625 
Q 33.0625 21.96875 24.703125 23.78125 
L 21.578125 24.515625 
Q 13.234375 26.265625 9.515625 29.90625 
Q 5.8125 33.546875 5.8125 39.890625 
Q 5.8125 47.609375 11.28125 51.796875 
Q 16.75 56 26.8125 56 
Q 31.78125 56 36.171875 55.265625 
Q 40.578125 54.546875 44.28125 53.078125 
z
" id="DejaVuSans-115"/>
       <path d="M 18.3125 70.21875 
L 18.3125 54.6875 
L 36.8125 54.6875 
L 36.8125 47.703125 
L 18.3125 47.703125 
L 18.3125 18.015625 
Q 18.3125 11.328125 20.140625 9.421875 
Q 21.96875 7.515625 27.59375 7.515625 
L 36.8125 7.515625 
L 36.8125 0 
L 27.59375 0 
Q 17.1875 0 13.234375 3.875 
Q 9.28125 7.765625 9.28125 18.015625 
L 9.28125 47.703125 
L 2.6875 47.703125 
L 2.6875 54.6875 
L 9.28125 54.6875 
L 9.28125 70.21875 
z
" id="DejaVuSans-116"/>
       <path d="M 32.171875 -5.078125 
Q 28.375 -14.84375 24.75 -17.8125 
Q 21.140625 -20.796875 15.09375 -20.796875 
L 7.90625 -20.796875 
L 7.90625 -13.28125 
L 13.1875 -13.28125 
Q 16.890625 -13.28125 18.9375 -11.515625 
Q 21 -9.765625 23.484375 -3.21875 
L 25.09375 0.875 
L 2.984375 54.6875 
L 12.5 54.6875 
L 29.59375 11.921875 
L 46.6875 54.6875 
L 56.203125 54.6875 
z
" id="DejaVuSans-121"/>
       <path d="M 41.109375 46.296875 
Q 39.59375 47.171875 37.8125 47.578125 
Q 36.03125 48 33.890625 48 
Q 26.265625 48 22.1875 43.046875 
Q 18.109375 38.09375 18.109375 28.8125 
L 18.109375 0 
L 9.078125 0 
L 9.078125 54.6875 
L 18.109375 54.6875 
L 18.109375 46.1875 
Q 20.953125 51.171875 25.484375 53.578125 
Q 30.03125 56 36.53125 56 
Q 37.453125 56 38.578125 55.875 
Q 39.703125 55.765625 41.0625 55.515625 
z
" id="DejaVuSans-114"/>
       <path d="M 8.5 21.578125 
L 8.5 54.6875 
L 17.484375 54.6875 
L 17.484375 21.921875 
Q 17.484375 14.15625 20.5 10.265625 
Q 23.53125 6.390625 29.59375 6.390625 
Q 36.859375 6.390625 41.078125 11.03125 
Q 45.3125 15.671875 45.3125 23.6875 
L 45.3125 54.6875 
L 54.296875 54.6875 
L 54.296875 0 
L 45.3125 0 
L 45.3125 8.40625 
Q 42.046875 3.421875 37.71875 1 
Q 33.40625 -1.421875 27.6875 -1.421875 
Q 18.265625 -1.421875 13.375 4.4375 
Q 8.5 10.296875 8.5 21.578125 
z
M 31.109375 56 
z
" id="DejaVuSans-117"/>
      </defs>
      <use xlink:href="#DejaVuSans-68"/>
      <use x="77.001953" xlink:href="#DejaVuSans-101"/>
      <use x="138.525391" xlink:href="#DejaVuSans-110"/>
      <use x="201.904297" xlink:href="#DejaVuSans-115"/>
      <use x="254.003906" xlink:href="#DejaVuSans-105"/>
      <use x="281.787109" xlink:href="#DejaVuSans-116"/>
      <use x="320.996094" xlink:href="#DejaVuSans-121"/>
      <use x="380.175781" xlink:href="#DejaVuSans-32"/>
      <use x="411.962891" xlink:href="#DejaVuSans-68"/>
      <use x="488.964844" xlink:href="#DejaVuSans-105"/>
      <use x="516.748047" xlink:href="#DejaVuSans-115"/>
      <use x="568.847656" xlink:href="#DejaVuSans-116"/>
      <use x="608.056641" xlink:href="#DejaVuSans-114"/>
      <use x="649.169922" xlink:href="#DejaVuSans-105"/>
      <use x="676.953125" xlink:href="#DejaVuSans-98"/>
      <use x="740.429688" xlink:href="#DejaVuSans-117"/>
      <use x="803.808594" xlink:href="#DejaVuSans-116"/>
      <use x="843.017578" xlink:href="#DejaVuSans-105"/>
      <use x="870.800781" xlink:href="#DejaVuSans-111"/>
      <use x="931.982422" xlink:href="#DejaVuSans-110"/>
     </g>
    </g>
   </g>
   <g id="line2d_17">
    <path clip-path="url(#p8b40c67493)" d="M 144.204545 283.499641 
L 154.588566 283.390168 
L 158.049906 283.044341 
L 159.780576 282.652345 
L 161.511246 282.015358 
L 163.241916 281.051303 
L 164.972586 279.695569 
L 166.703256 277.929606 
L 168.433926 275.808062 
L 171.895266 271.132366 
L 173.625937 269.029638 
L 175.356607 267.360347 
L 177.087277 266.209401 
L 178.817947 265.504067 
L 180.548617 265.012927 
L 182.279287 264.391958 
L 184.009957 263.260761 
L 185.740627 261.279391 
L 187.471297 258.197247 
L 189.201967 253.859408 
L 190.932637 248.175777 
L 192.663307 241.074776 
L 194.393977 232.469107 
L 196.124647 222.254346 
L 197.855317 210.345908 
L 199.585988 196.743519 
L 201.316658 181.601681 
L 208.239338 116.241028 
L 209.970008 103.038571 
L 211.700678 93.137324 
L 213.431348 87.398 
L 215.162018 86.339573 
L 216.892688 89.9836 
L 218.623358 97.76494 
L 220.354028 108.564969 
L 223.815368 133.200356 
L 225.546038 144.211183 
L 227.276709 153.213794 
L 229.007379 160.162197 
L 230.738049 165.585177 
L 234.199389 175.258129 
L 235.930059 180.96031 
L 237.660729 187.654029 
L 239.391399 195.201309 
L 244.583409 219.333165 
L 246.314079 226.848047 
L 248.044749 233.841332 
L 249.775419 240.246487 
L 251.506089 245.987377 
L 253.23676 250.965097 
L 254.96743 255.076476 
L 256.6981 258.24528 
L 258.42877 260.445675 
L 260.15944 261.708154 
L 261.89011 262.111882 
L 263.62078 261.775392 
L 265.35145 260.855698 
L 270.54346 256.884983 
L 272.27413 256.115232 
L 274.0048 256.073331 
L 275.73547 256.891311 
L 277.46614 258.542575 
L 279.19681 260.841975 
L 282.658151 266.149145 
L 284.388821 268.518148 
L 286.119491 270.394734 
L 287.850161 271.698884 
L 289.580831 272.465773 
L 291.311501 272.81541 
L 298.234181 273.243265 
L 299.964851 273.689085 
L 301.695521 274.335564 
L 305.156861 276.020353 
L 308.618202 277.755109 
L 312.079542 279.146372 
L 315.540882 280.114676 
L 317.271552 280.43337 
L 319.002222 280.607502 
L 320.732892 280.588081 
L 322.463562 280.322343 
L 324.194232 279.776092 
L 325.924902 278.956996 
L 331.116912 275.784158 
L 332.847583 274.994065 
L 334.578253 274.579111 
L 336.308923 274.600115 
L 338.039593 275.032995 
L 339.770263 275.778539 
L 344.962273 278.458369 
L 346.692943 279.112531 
L 348.423613 279.556356 
L 350.154283 279.783848 
L 351.884953 279.794273 
L 353.615623 279.575364 
L 355.346293 279.096701 
L 357.076963 278.314011 
L 358.807633 277.181624 
L 360.538304 275.669176 
L 362.268974 273.779048 
L 363.999644 271.561273 
L 369.191654 264.248239 
L 370.922324 262.202466 
L 372.652994 260.640022 
L 374.383664 259.648038 
L 376.114334 259.229265 
L 377.845004 259.312798 
L 379.575674 259.784744 
L 381.306344 260.525708 
L 384.767684 262.46623 
L 393.421035 267.869716 
L 395.151705 268.509297 
L 396.882375 268.762787 
L 398.613045 268.532098 
L 400.343715 267.735887 
L 402.074385 266.313477 
L 403.805055 264.234043 
L 405.535725 261.51513 
L 407.266395 258.24725 
L 412.458405 247.392181 
L 414.189076 244.449056 
L 415.919746 242.275305 
L 417.650416 240.924202 
L 419.381086 240.258353 
L 422.842426 239.769085 
L 424.573096 239.319712 
L 426.303766 238.52557 
L 429.765106 236.440804 
L 431.495776 235.749322 
L 433.226446 235.695668 
L 434.957116 236.432824 
L 436.687786 237.939221 
L 438.418456 240.048097 
L 441.879797 245.140111 
L 452.263817 260.883965 
L 457.455827 269.171532 
L 459.186497 271.646348 
L 460.917167 273.839586 
L 462.647837 275.694945 
L 464.378507 277.182556 
L 466.109177 278.303217 
L 467.839848 279.089828 
L 469.570518 279.603506 
L 473.031858 280.132095 
L 478.223868 280.700661 
L 483.415878 281.594105 
L 488.607888 282.546293 
L 492.069228 283.016247 
L 495.530569 283.297881 
L 500.722579 283.429517 
L 504.183919 283.34245 
L 507.645259 283.00875 
L 509.375929 282.687795 
L 511.106599 282.22998 
L 512.837269 281.622267 
L 516.298609 280.015744 
L 519.759949 278.2513 
L 521.49062 277.515538 
L 523.22129 276.98548 
L 524.95196 276.712524 
L 526.68263 276.710099 
L 528.4133 276.950166 
L 531.87464 277.872857 
L 535.33598 278.765126 
L 537.06665 279.010544 
L 538.79732 279.091403 
L 545.72 278.870062 
L 547.450671 279.043083 
L 550.912011 279.803565 
L 554.373351 280.674946 
L 556.104021 280.936588 
L 557.834691 280.997681 
L 559.565361 280.840984 
L 561.296031 280.492964 
L 566.488041 279.067896 
L 568.218711 278.773399 
L 569.949381 278.680696 
L 571.680051 278.802626 
L 573.410721 279.114571 
L 576.872062 280.098005 
L 582.064072 281.686473 
L 585.525412 282.484967 
L 588.986752 283.013657 
L 592.448092 283.306875 
L 597.640102 283.467684 
L 608.024123 283.470648 
L 613.216133 283.331561 
L 618.408143 282.948628 
L 623.600153 282.476542 
L 627.061493 282.372104 
L 630.522834 282.534036 
L 640.906854 283.366343 
L 647.829534 283.489865 
L 684.173606 283.5 
L 723.979017 283.39973 
L 727.440357 283.184436 
L 730.901697 282.710966 
L 734.363037 281.929622 
L 739.555048 280.621162 
L 741.285718 280.356016 
L 743.016388 280.257529 
L 744.747058 280.342894 
L 746.477728 280.598746 
L 749.939068 281.443012 
L 753.400408 282.347705 
L 756.861748 282.991447 
L 760.323088 283.323638 
L 762.053759 283.405189 
L 762.053759 283.405189 
" style="fill:none;stroke:#000000;stroke-linecap:square;stroke-width:1.5;"/>
   </g>
   <g id="line2d_18">
    <path clip-path="url(#p8b40c67493)" d="M 144.204545 283.499641 
L 154.588566 283.390168 
L 158.049906 283.044341 
L 159.780576 282.652345 
L 161.511246 282.015358 
L 163.241916 281.051303 
L 164.972586 279.695569 
L 166.703256 277.929606 
L 168.433926 275.808062 
L 171.895266 271.132366 
L 173.625937 269.029638 
L 175.356607 267.360347 
L 177.087277 266.209401 
L 178.817947 265.504067 
L 180.548617 265.012927 
L 182.279287 264.391958 
L 184.009957 263.260761 
L 185.740627 261.279391 
L 187.471297 258.197247 
L 189.201967 253.859408 
L 190.932637 248.175777 
L 192.663307 241.074776 
L 194.393977 232.469107 
L 196.124647 222.254346 
L 197.855317 210.345908 
L 199.585988 196.743519 
L 201.316658 181.601681 
L 208.239338 116.241028 
L 209.970008 103.038571 
L 211.700678 93.137324 
L 213.431348 87.398 
L 215.162018 86.339573 
L 216.892688 89.9836 
L 218.623358 97.76494 
L 220.354028 108.564969 
L 223.815368 133.200356 
L 225.546038 144.211183 
L 227.276709 153.213794 
L 229.007379 160.162197 
L 230.738049 165.585177 
L 234.199389 175.258129 
L 235.930059 180.96031 
L 237.660729 187.654029 
L 239.391399 195.201309 
L 244.583409 219.333165 
L 246.314079 226.848047 
L 248.044749 233.841332 
L 249.775419 240.246487 
L 251.506089 245.987377 
L 253.23676 250.965097 
L 254.96743 255.076476 
L 256.6981 258.24528 
L 258.42877 260.445675 
L 260.15944 261.708154 
L 261.89011 262.111882 
L 263.62078 261.775392 
L 265.35145 260.855698 
L 270.54346 256.884983 
L 272.27413 256.115232 
L 274.0048 256.073331 
L 275.73547 256.891311 
L 277.46614 258.542575 
L 279.19681 260.841975 
L 282.658151 266.149145 
L 284.388821 268.518148 
L 286.119491 270.394734 
L 287.850161 271.698884 
L 289.580831 272.465773 
L 291.311501 272.81541 
L 298.234181 273.243265 
L 299.964851 273.689085 
L 301.695521 274.335564 
L 305.156861 276.020353 
L 308.618202 277.755109 
L 312.079542 279.146372 
L 315.540882 280.114676 
L 317.271552 280.43337 
L 319.002222 280.607502 
L 320.732892 280.588081 
L 322.463562 280.322343 
L 324.194232 279.776092 
L 325.924902 278.956996 
L 331.116912 275.784158 
L 332.847583 274.994065 
L 334.578253 274.579111 
L 336.308923 274.600115 
L 338.039593 275.032995 
L 339.770263 275.778539 
L 344.962273 278.458369 
L 346.692943 279.112531 
L 348.423613 279.556356 
L 350.154283 279.783848 
L 351.884953 279.794273 
L 353.615623 279.575364 
L 355.346293 279.096701 
L 357.076963 278.314011 
L 358.807633 277.181624 
L 360.538304 275.669176 
L 362.268974 273.779048 
L 363.999644 271.561273 
L 369.191654 264.248239 
L 370.922324 262.202466 
L 372.652994 260.640022 
L 374.383664 259.648038 
L 376.114334 259.229265 
L 377.845004 259.312798 
L 379.575674 259.784744 
L 381.306344 260.525708 
L 384.767684 262.46623 
L 393.421035 267.869716 
L 395.151705 268.509297 
L 396.882375 268.762787 
L 398.613045 268.532098 
L 400.343715 267.735887 
L 402.074385 266.313477 
L 403.805055 264.234043 
L 405.535725 261.51513 
L 407.266395 258.24725 
L 412.458405 247.392181 
L 414.189076 244.449056 
L 415.919746 242.275305 
L 417.650416 240.924202 
L 419.381086 240.258353 
L 422.842426 239.769085 
L 424.573096 239.319712 
L 426.303766 238.52557 
L 429.765106 236.440804 
L 431.495776 235.749322 
L 433.226446 235.695668 
L 434.957116 236.432824 
L 436.687786 237.939221 
L 438.418456 240.048097 
L 441.879797 245.140111 
L 452.263817 260.883965 
L 457.455827 269.171532 
L 459.186497 271.646348 
L 460.917167 273.839586 
L 462.647837 275.694945 
L 464.378507 277.182556 
L 466.109177 278.303217 
L 467.839848 279.089828 
L 469.570518 279.603506 
L 473.031858 280.132095 
L 478.223868 280.700661 
L 483.415878 281.594105 
L 488.607888 282.546293 
L 492.069228 283.016247 
L 495.530569 283.297881 
L 500.722579 283.429517 
L 504.183919 283.34245 
L 507.645259 283.00875 
L 509.375929 282.687795 
L 511.106599 282.22998 
L 512.837269 281.622267 
L 516.298609 280.015744 
L 519.759949 278.2513 
L 521.49062 277.515538 
L 523.22129 276.98548 
L 524.95196 276.712524 
L 526.68263 276.710099 
L 528.4133 276.950166 
L 531.87464 277.872857 
L 535.33598 278.765126 
L 537.06665 279.010544 
L 538.79732 279.091403 
L 545.72 278.870062 
L 547.450671 279.043083 
L 550.912011 279.803565 
L 554.373351 280.674946 
L 556.104021 280.936588 
L 557.834691 280.997681 
L 559.565361 280.840984 
L 561.296031 280.492964 
L 566.488041 279.067896 
L 568.218711 278.773399 
L 569.949381 278.680696 
L 571.680051 278.802626 
L 573.410721 279.114571 
L 576.872062 280.098005 
L 582.064072 281.686473 
L 585.525412 282.484967 
L 588.986752 283.013657 
L 592.448092 283.306875 
L 597.640102 283.467684 
L 608.024123 283.470648 
L 613.216133 283.331561 
L 618.408143 282.948628 
L 623.600153 282.476542 
L 627.061493 282.372104 
L 630.522834 282.534036 
L 640.906854 283.366343 
L 647.829534 283.489865 
L 684.173606 283.5 
L 723.979017 283.39973 
L 727.440357 283.184436 
L 730.901697 282.710966 
L 734.363037 281.929622 
L 739.555048 280.621162 
L 741.285718 280.356016 
L 743.016388 280.257529 
L 744.747058 280.342894 
L 746.477728 280.598746 
L 749.939068 281.443012 
L 753.400408 282.347705 
L 756.861748 282.991447 
L 760.323088 283.323638 
L 762.053759 283.405189 
L 762.053759 283.405189 
" style="fill:none;stroke:#ff0000;stroke-linecap:square;stroke-width:1.5;"/>
   </g>
   <g id="line2d_19">
    <path clip-path="url(#p8b40c67493)" d="M 148.880995 283.5 
L 148.880995 38.88 
" style="fill:none;stroke:#0000ff;stroke-linecap:square;stroke-opacity:0.25;stroke-width:1.5;"/>
   </g>
   <g id="line2d_20">
    <path clip-path="url(#p8b40c67493)" d="M 151.176109 283.5 
L 151.176109 38.88 
" style="fill:none;stroke:#0000ff;stroke-linecap:square;stroke-opacity:0.25;stroke-width:1.5;"/>
   </g>
   <g id="line2d_21">
    <path clip-path="url(#p8b40c67493)" d="M 165.980104 283.5 
L 165.980104 38.88 
" style="fill:none;stroke:#0000ff;stroke-linecap:square;stroke-opacity:0.25;stroke-width:1.5;"/>
   </g>
   <g id="line2d_22">
    <path clip-path="url(#p8b40c67493)" d="M 176.781115 283.5 
L 176.781115 38.88 
" style="fill:none;stroke:#0000ff;stroke-linecap:square;stroke-opacity:0.25;stroke-width:1.5;"/>
   </g>
   <g id="line2d_23">
    <path clip-path="url(#p8b40c67493)" d="M 192.896949 283.5 
L 192.896949 38.88 
" style="fill:none;stroke:#0000ff;stroke-linecap:square;stroke-opacity:0.25;stroke-width:1.5;"/>
   </g>
   <g id="line2d_24">
    <path clip-path="url(#p8b40c67493)" d="M 215.522855 283.5 
L 215.522855 38.88 
" style="fill:none;stroke:#0000ff;stroke-linecap:square;stroke-opacity:0.25;stroke-width:1.5;"/>
   </g>
   <g id="line2d_25">
    <path clip-path="url(#p8b40c67493)" d="M 245.600902 283.5 
L 245.600902 38.88 
" style="fill:none;stroke:#0000ff;stroke-linecap:square;stroke-opacity:0.25;stroke-width:1.5;"/>
   </g>
   <g id="line2d_26">
    <path clip-path="url(#p8b40c67493)" d="M 250.844479 283.5 
L 250.844479 38.88 
" style="fill:none;stroke:#0000ff;stroke-linecap:square;stroke-opacity:0.25;stroke-width:1.5;"/>
   </g>
   <g id="line2d_27">
    <path clip-path="url(#p8b40c67493)" d="M 295.895048 283.5 
L 295.895048 38.88 
" style="fill:none;stroke:#0000ff;stroke-linecap:square;stroke-opacity:0.25;stroke-width:1.5;"/>
   </g>
   <g id="line2d_28">
    <path clip-path="url(#p8b40c67493)" d="M 313.884839 283.5 
L 313.884839 38.88 
" style="fill:none;stroke:#0000ff;stroke-linecap:square;stroke-opacity:0.25;stroke-width:1.5;"/>
   </g>
   <g id="line2d_29">
    <path clip-path="url(#p8b40c67493)" d="M 371.13586 283.5 
L 371.13586 38.88 
" style="fill:none;stroke:#0000ff;stroke-linecap:square;stroke-opacity:0.25;stroke-width:1.5;"/>
   </g>
   <g id="line2d_30">
    <path clip-path="url(#p8b40c67493)" d="M 397.980515 283.5 
L 397.980515 38.88 
" style="fill:none;stroke:#0000ff;stroke-linecap:square;stroke-opacity:0.25;stroke-width:1.5;"/>
   </g>
   <g id="line2d_31">
    <path clip-path="url(#p8b40c67493)" d="M 432.869807 283.5 
L 432.869807 38.88 
" style="fill:none;stroke:#0000ff;stroke-linecap:square;stroke-opacity:0.25;stroke-width:1.5;"/>
   </g>
   <g id="line2d_32">
    <path clip-path="url(#p8b40c67493)" d="M 476.293233 283.5 
L 476.293233 38.88 
" style="fill:none;stroke:#0000ff;stroke-linecap:square;stroke-opacity:0.25;stroke-width:1.5;"/>
   </g>
   <g id="line2d_33">
    <path clip-path="url(#p8b40c67493)" d="M 483.622998 283.5 
L 483.622998 38.88 
" style="fill:none;stroke:#0000ff;stroke-linecap:square;stroke-opacity:0.25;stroke-width:1.5;"/>
   </g>
   <g id="line2d_34">
    <path clip-path="url(#p8b40c67493)" d="M 568.117119 283.5 
L 568.117119 38.88 
" style="fill:none;stroke:#0000ff;stroke-linecap:square;stroke-opacity:0.25;stroke-width:1.5;"/>
   </g>
   <g id="line2d_35">
    <path clip-path="url(#p8b40c67493)" d="M 575.972639 283.5 
L 575.972639 38.88 
" style="fill:none;stroke:#0000ff;stroke-linecap:square;stroke-opacity:0.25;stroke-width:1.5;"/>
   </g>
   <g id="line2d_36">
    <path clip-path="url(#p8b40c67493)" d="M 616.349541 283.5 
L 616.349541 38.88 
" style="fill:none;stroke:#0000ff;stroke-linecap:square;stroke-opacity:0.25;stroke-width:1.5;"/>
   </g>
   <g id="line2d_37">
    <path clip-path="url(#p8b40c67493)" d="M 641.014308 283.5 
L 641.014308 38.88 
" style="fill:none;stroke:#0000ff;stroke-linecap:square;stroke-opacity:0.25;stroke-width:1.5;"/>
   </g>
   <g id="line2d_38">
    <path clip-path="url(#p8b40c67493)" d="M 717.110011 283.5 
L 717.110011 38.88 
" style="fill:none;stroke:#0000ff;stroke-linecap:square;stroke-opacity:0.25;stroke-width:1.5;"/>
   </g>
   <g id="line2d_39">
    <path clip-path="url(#p8b40c67493)" d="M 778.295455 283.5 
L 778.295455 38.88 
" style="fill:none;stroke:#0000ff;stroke-linecap:square;stroke-opacity:0.25;stroke-width:1.5;"/>
   </g>
   <g id="patch_3">
    <path d="M 112.5 283.5 
L 112.5 38.88 
" style="fill:none;stroke:#000000;stroke-linecap:square;stroke-linejoin:miter;stroke-width:0.8;"/>
   </g>
   <g id="patch_4">
    <path d="M 810 283.5 
L 810 38.88 
" style="fill:none;stroke:#000000;stroke-linecap:square;stroke-linejoin:miter;stroke-width:0.8;"/>
   </g>
   <g id="patch_5">
    <path d="M 112.5 283.5 
L 810 283.5 
" style="fill:none;stroke:#000000;stroke-linecap:square;stroke-linejoin:miter;stroke-width:0.8;"/>
   </g>
   <g id="patch_6">
    <path d="M 112.5 38.88 
L 810 38.88 
" style="fill:none;stroke:#000000;stroke-linecap:square;stroke-linejoin:miter;stroke-width:0.8;"/>
   </g>
   <g id="text_19">
    <!-- MCP database (n=617) -->
    <g transform="translate(345.28125 -21.12)scale(0.2 -0.2)">
     <defs>
      <path d="M 9.8125 72.90625 
L 24.515625 72.90625 
L 43.109375 23.296875 
L 61.8125 72.90625 
L 76.515625 72.90625 
L 76.515625 0 
L 66.890625 0 
L 66.890625 64.015625 
L 48.09375 14.015625 
L 38.1875 14.015625 
L 19.390625 64.015625 
L 19.390625 0 
L 9.8125 0 
z
" id="DejaVuSans-77"/>
      <path d="M 64.40625 67.28125 
L 64.40625 56.890625 
Q 59.421875 61.53125 53.78125 63.8125 
Q 48.140625 66.109375 41.796875 66.109375 
Q 29.296875 66.109375 22.65625 58.46875 
Q 16.015625 50.828125 16.015625 36.375 
Q 16.015625 21.96875 22.65625 14.328125 
Q 29.296875 6.6875 41.796875 6.6875 
Q 48.140625 6.6875 53.78125 8.984375 
Q 59.421875 11.28125 64.40625 15.921875 
L 64.40625 5.609375 
Q 59.234375 2.09375 53.4375 0.328125 
Q 47.65625 -1.421875 41.21875 -1.421875 
Q 24.65625 -1.421875 15.125 8.703125 
Q 5.609375 18.84375 5.609375 36.375 
Q 5.609375 53.953125 15.125 64.078125 
Q 24.65625 74.21875 41.21875 74.21875 
Q 47.75 74.21875 53.53125 72.484375 
Q 59.328125 70.75 64.40625 67.28125 
z
" id="DejaVuSans-67"/>
      <path d="M 19.671875 64.796875 
L 19.671875 37.40625 
L 32.078125 37.40625 
Q 38.96875 37.40625 42.71875 40.96875 
Q 46.484375 44.53125 46.484375 51.125 
Q 46.484375 57.671875 42.71875 61.234375 
Q 38.96875 64.796875 32.078125 64.796875 
z
M 9.8125 72.90625 
L 32.078125 72.90625 
Q 44.34375 72.90625 50.609375 67.359375 
Q 56.890625 61.8125 56.890625 51.125 
Q 56.890625 40.328125 50.609375 34.8125 
Q 44.34375 29.296875 32.078125 29.296875 
L 19.671875 29.296875 
L 19.671875 0 
L 9.8125 0 
z
" id="DejaVuSans-80"/>
      <path d="M 45.40625 46.390625 
L 45.40625 75.984375 
L 54.390625 75.984375 
L 54.390625 0 
L 45.40625 0 
L 45.40625 8.203125 
Q 42.578125 3.328125 38.25 0.953125 
Q 33.9375 -1.421875 27.875 -1.421875 
Q 17.96875 -1.421875 11.734375 6.484375 
Q 5.515625 14.40625 5.515625 27.296875 
Q 5.515625 40.1875 11.734375 48.09375 
Q 17.96875 56 27.875 56 
Q 33.9375 56 38.25 53.625 
Q 42.578125 51.265625 45.40625 46.390625 
z
M 14.796875 27.296875 
Q 14.796875 17.390625 18.875 11.75 
Q 22.953125 6.109375 30.078125 6.109375 
Q 37.203125 6.109375 41.296875 11.75 
Q 45.40625 17.390625 45.40625 27.296875 
Q 45.40625 37.203125 41.296875 42.84375 
Q 37.203125 48.484375 30.078125 48.484375 
Q 22.953125 48.484375 18.875 42.84375 
Q 14.796875 37.203125 14.796875 27.296875 
z
" id="DejaVuSans-100"/>
      <path d="M 34.28125 27.484375 
Q 23.390625 27.484375 19.1875 25 
Q 14.984375 22.515625 14.984375 16.5 
Q 14.984375 11.71875 18.140625 8.90625 
Q 21.296875 6.109375 26.703125 6.109375 
Q 34.1875 6.109375 38.703125 11.40625 
Q 43.21875 16.703125 43.21875 25.484375 
L 43.21875 27.484375 
z
M 52.203125 31.203125 
L 52.203125 0 
L 43.21875 0 
L 43.21875 8.296875 
Q 40.140625 3.328125 35.546875 0.953125 
Q 30.953125 -1.421875 24.3125 -1.421875 
Q 15.921875 -1.421875 10.953125 3.296875 
Q 6 8.015625 6 15.921875 
Q 6 25.140625 12.171875 29.828125 
Q 18.359375 34.515625 30.609375 34.515625 
L 43.21875 34.515625 
L 43.21875 35.40625 
Q 43.21875 41.609375 39.140625 45 
Q 35.0625 48.390625 27.6875 48.390625 
Q 23 48.390625 18.546875 47.265625 
Q 14.109375 46.140625 10.015625 43.890625 
L 10.015625 52.203125 
Q 14.9375 54.109375 19.578125 55.046875 
Q 24.21875 56 28.609375 56 
Q 40.484375 56 46.34375 49.84375 
Q 52.203125 43.703125 52.203125 31.203125 
z
" id="DejaVuSans-97"/>
      <path d="M 10.59375 45.40625 
L 73.1875 45.40625 
L 73.1875 37.203125 
L 10.59375 37.203125 
z
M 10.59375 25.484375 
L 73.1875 25.484375 
L 73.1875 17.1875 
L 10.59375 17.1875 
z
" id="DejaVuSans-61"/>
      <path d="M 33.015625 40.375 
Q 26.375 40.375 22.484375 35.828125 
Q 18.609375 31.296875 18.609375 23.390625 
Q 18.609375 15.53125 22.484375 10.953125 
Q 26.375 6.390625 33.015625 6.390625 
Q 39.65625 6.390625 43.53125 10.953125 
Q 47.40625 15.53125 47.40625 23.390625 
Q 47.40625 31.296875 43.53125 35.828125 
Q 39.65625 40.375 33.015625 40.375 
z
M 52.59375 71.296875 
L 52.59375 62.3125 
Q 48.875 64.0625 45.09375 64.984375 
Q 41.3125 65.921875 37.59375 65.921875 
Q 27.828125 65.921875 22.671875 59.328125 
Q 17.53125 52.734375 16.796875 39.40625 
Q 19.671875 43.65625 24.015625 45.921875 
Q 28.375 48.1875 33.59375 48.1875 
Q 44.578125 48.1875 50.953125 41.515625 
Q 57.328125 34.859375 57.328125 23.390625 
Q 57.328125 12.15625 50.6875 5.359375 
Q 44.046875 -1.421875 33.015625 -1.421875 
Q 20.359375 -1.421875 13.671875 8.265625 
Q 6.984375 17.96875 6.984375 36.375 
Q 6.984375 53.65625 15.1875 63.9375 
Q 23.390625 74.21875 37.203125 74.21875 
Q 40.921875 74.21875 44.703125 73.484375 
Q 48.484375 72.75 52.59375 71.296875 
z
" id="DejaVuSans-54"/>
      <path d="M 8.203125 72.90625 
L 55.078125 72.90625 
L 55.078125 68.703125 
L 28.609375 0 
L 18.3125 0 
L 43.21875 64.59375 
L 8.203125 64.59375 
z
" id="DejaVuSans-55"/>
     </defs>
     <use xlink:href="#DejaVuSans-77"/>
     <use x="86.279297" xlink:href="#DejaVuSans-67"/>
     <use x="156.103516" xlink:href="#DejaVuSans-80"/>
     <use x="216.40625" xlink:href="#DejaVuSans-32"/>
     <use x="248.193359" xlink:href="#DejaVuSans-100"/>
     <use x="311.669922" xlink:href="#DejaVuSans-97"/>
     <use x="372.949219" xlink:href="#DejaVuSans-116"/>
     <use x="412.158203" xlink:href="#DejaVuSans-97"/>
     <use x="473.4375" xlink:href="#DejaVuSans-98"/>
     <use x="536.914062" xlink:href="#DejaVuSans-97"/>
     <use x="598.193359" xlink:href="#DejaVuSans-115"/>
     <use x="650.292969" xlink:href="#DejaVuSans-101"/>
     <use x="711.816406" xlink:href="#DejaVuSans-32"/>
     <use x="743.603516" xlink:href="#DejaVuSans-40"/>
     <use x="782.617188" xlink:href="#DejaVuSans-110"/>
     <use x="845.996094" xlink:href="#DejaVuSans-61"/>
     <use x="929.785156" xlink:href="#DejaVuSans-54"/>
     <use x="993.408203" xlink:href="#DejaVuSans-49"/>
     <use x="1057.03125" xlink:href="#DejaVuSans-55"/>
     <use x="1120.654297" xlink:href="#DejaVuSans-41"/>
    </g>
   </g>
  </g>
  <g id="axes_2">
   <g id="matplotlib.axis_3">
    <g id="xtick_9">
     <g id="line2d_40">
      <defs>
       <path d="M 0 0 
L 0 -3.5 
" id="m04b98e6584" style="stroke:#000000;stroke-width:0.8;"/>
      </defs>
      <g>
       <use style="stroke:#000000;stroke-width:0.8;" x="148.880995" xlink:href="#m04b98e6584" y="38.88"/>
      </g>
     </g>
     <g id="text_20">
      <!-- 1.0 -->
      <g style="fill:#0000ff;opacity:0.5;" transform="translate(151.916308 31.88)rotate(-90)scale(0.11 -0.11)">
       <use xlink:href="#DejaVuSans-49"/>
       <use x="63.623047" xlink:href="#DejaVuSans-46"/>
       <use x="95.410156" xlink:href="#DejaVuSans-48"/>
      </g>
     </g>
    </g>
    <g id="xtick_10">
     <g id="line2d_41">
      <g>
       <use style="stroke:#000000;stroke-width:0.8;" x="151.176109" xlink:href="#m04b98e6584" y="38.88"/>
      </g>
     </g>
     <g id="text_21">
      <!-- 1.33 -->
      <g style="fill:#0000ff;opacity:0.5;" transform="translate(154.211421 31.88)rotate(-90)scale(0.11 -0.11)">
       <use xlink:href="#DejaVuSans-49"/>
       <use x="63.623047" xlink:href="#DejaVuSans-46"/>
       <use x="95.410156" xlink:href="#DejaVuSans-51"/>
       <use x="159.033203" xlink:href="#DejaVuSans-51"/>
      </g>
     </g>
    </g>
    <g id="xtick_11">
     <g id="line2d_42">
      <g>
       <use style="stroke:#000000;stroke-width:0.8;" x="165.980104" xlink:href="#m04b98e6584" y="38.88"/>
      </g>
     </g>
     <g id="text_22">
      <!-- 3.0 -->
      <g style="fill:#0000ff;opacity:0.5;" transform="translate(169.015417 31.88)rotate(-90)scale(0.11 -0.11)">
       <use xlink:href="#DejaVuSans-51"/>
       <use x="63.623047" xlink:href="#DejaVuSans-46"/>
       <use x="95.410156" xlink:href="#DejaVuSans-48"/>
      </g>
     </g>
    </g>
    <g id="xtick_12">
     <g id="line2d_43">
      <g>
       <use style="stroke:#000000;stroke-width:0.8;" x="176.781115" xlink:href="#m04b98e6584" y="38.88"/>
      </g>
     </g>
     <g id="text_23">
      <!-- 4.0 -->
      <g style="fill:#0000ff;opacity:0.5;" transform="translate(179.816427 31.88)rotate(-90)scale(0.11 -0.11)">
       <defs>
        <path d="M 37.796875 64.3125 
L 12.890625 25.390625 
L 37.796875 25.390625 
z
M 35.203125 72.90625 
L 47.609375 72.90625 
L 47.609375 25.390625 
L 58.015625 25.390625 
L 58.015625 17.1875 
L 47.609375 17.1875 
L 47.609375 0 
L 37.796875 0 
L 37.796875 17.1875 
L 4.890625 17.1875 
L 4.890625 26.703125 
z
" id="DejaVuSans-52"/>
       </defs>
       <use xlink:href="#DejaVuSans-52"/>
       <use x="63.623047" xlink:href="#DejaVuSans-46"/>
       <use x="95.410156" xlink:href="#DejaVuSans-48"/>
      </g>
     </g>
    </g>
    <g id="xtick_13">
     <g id="line2d_44">
      <g>
       <use style="stroke:#000000;stroke-width:0.8;" x="192.896949" xlink:href="#m04b98e6584" y="38.88"/>
      </g>
     </g>
     <g id="text_24">
      <!-- 5.33 -->
      <g style="fill:#0000ff;opacity:0.5;" transform="translate(195.932262 31.88)rotate(-90)scale(0.11 -0.11)">
       <use xlink:href="#DejaVuSans-53"/>
       <use x="63.623047" xlink:href="#DejaVuSans-46"/>
       <use x="95.410156" xlink:href="#DejaVuSans-51"/>
       <use x="159.033203" xlink:href="#DejaVuSans-51"/>
      </g>
     </g>
    </g>
    <g id="xtick_14">
     <g id="line2d_45">
      <g>
       <use style="stroke:#000000;stroke-width:0.8;" x="215.522855" xlink:href="#m04b98e6584" y="38.88"/>
      </g>
     </g>
     <g id="text_25">
      <!-- 7.0 -->
      <g style="fill:#0000ff;opacity:0.5;" transform="translate(218.558168 31.88)rotate(-90)scale(0.11 -0.11)">
       <use xlink:href="#DejaVuSans-55"/>
       <use x="63.623047" xlink:href="#DejaVuSans-46"/>
       <use x="95.410156" xlink:href="#DejaVuSans-48"/>
      </g>
     </g>
    </g>
    <g id="xtick_15">
     <g id="line2d_46">
      <g>
       <use style="stroke:#000000;stroke-width:0.8;" x="245.600902" xlink:href="#m04b98e6584" y="38.88"/>
      </g>
     </g>
     <g id="text_26">
      <!-- 9.0 -->
      <g style="fill:#0000ff;opacity:0.5;" transform="translate(248.636214 31.88)rotate(-90)scale(0.11 -0.11)">
       <defs>
        <path d="M 10.984375 1.515625 
L 10.984375 10.5 
Q 14.703125 8.734375 18.5 7.8125 
Q 22.3125 6.890625 25.984375 6.890625 
Q 35.75 6.890625 40.890625 13.453125 
Q 46.046875 20.015625 46.78125 33.40625 
Q 43.953125 29.203125 39.59375 26.953125 
Q 35.25 24.703125 29.984375 24.703125 
Q 19.046875 24.703125 12.671875 31.3125 
Q 6.296875 37.9375 6.296875 49.421875 
Q 6.296875 60.640625 12.9375 67.421875 
Q 19.578125 74.21875 30.609375 74.21875 
Q 43.265625 74.21875 49.921875 64.515625 
Q 56.59375 54.828125 56.59375 36.375 
Q 56.59375 19.140625 48.40625 8.859375 
Q 40.234375 -1.421875 26.421875 -1.421875 
Q 22.703125 -1.421875 18.890625 -0.6875 
Q 15.09375 0.046875 10.984375 1.515625 
z
M 30.609375 32.421875 
Q 37.25 32.421875 41.125 36.953125 
Q 45.015625 41.5 45.015625 49.421875 
Q 45.015625 57.28125 41.125 61.84375 
Q 37.25 66.40625 30.609375 66.40625 
Q 23.96875 66.40625 20.09375 61.84375 
Q 16.21875 57.28125 16.21875 49.421875 
Q 16.21875 41.5 20.09375 36.953125 
Q 23.96875 32.421875 30.609375 32.421875 
z
" id="DejaVuSans-57"/>
       </defs>
       <use xlink:href="#DejaVuSans-57"/>
       <use x="63.623047" xlink:href="#DejaVuSans-46"/>
       <use x="95.410156" xlink:href="#DejaVuSans-48"/>
      </g>
     </g>
    </g>
    <g id="xtick_16">
     <g id="line2d_47">
      <g>
       <use style="stroke:#000000;stroke-width:0.8;" x="250.844479" xlink:href="#m04b98e6584" y="38.88"/>
      </g>
     </g>
     <g id="text_27">
      <!-- 9.33 -->
      <g style="fill:#0000ff;opacity:0.5;" transform="translate(253.879792 31.88)rotate(-90)scale(0.11 -0.11)">
       <use xlink:href="#DejaVuSans-57"/>
       <use x="63.623047" xlink:href="#DejaVuSans-46"/>
       <use x="95.410156" xlink:href="#DejaVuSans-51"/>
       <use x="159.033203" xlink:href="#DejaVuSans-51"/>
      </g>
     </g>
    </g>
    <g id="xtick_17">
     <g id="line2d_48">
      <g>
       <use style="stroke:#000000;stroke-width:0.8;" x="295.895048" xlink:href="#m04b98e6584" y="38.88"/>
      </g>
     </g>
     <g id="text_28">
      <!-- 12.0 -->
      <g style="fill:#0000ff;opacity:0.5;" transform="translate(298.93036 31.88)rotate(-90)scale(0.11 -0.11)">
       <use xlink:href="#DejaVuSans-49"/>
       <use x="63.623047" xlink:href="#DejaVuSans-50"/>
       <use x="127.246094" xlink:href="#DejaVuSans-46"/>
       <use x="159.033203" xlink:href="#DejaVuSans-48"/>
      </g>
     </g>
    </g>
    <g id="xtick_18">
     <g id="line2d_49">
      <g>
       <use style="stroke:#000000;stroke-width:0.8;" x="313.884839" xlink:href="#m04b98e6584" y="38.88"/>
      </g>
     </g>
     <g id="text_29">
      <!-- 13.0 -->
      <g style="fill:#0000ff;opacity:0.5;" transform="translate(316.920151 31.88)rotate(-90)scale(0.11 -0.11)">
       <use xlink:href="#DejaVuSans-49"/>
       <use x="63.623047" xlink:href="#DejaVuSans-51"/>
       <use x="127.246094" xlink:href="#DejaVuSans-46"/>
       <use x="159.033203" xlink:href="#DejaVuSans-48"/>
      </g>
     </g>
    </g>
    <g id="xtick_19">
     <g id="line2d_50">
      <g>
       <use style="stroke:#000000;stroke-width:0.8;" x="371.13586" xlink:href="#m04b98e6584" y="38.88"/>
      </g>
     </g>
     <g id="text_30">
      <!-- 16.0 -->
      <g style="fill:#0000ff;opacity:0.5;" transform="translate(374.171173 31.88)rotate(-90)scale(0.11 -0.11)">
       <use xlink:href="#DejaVuSans-49"/>
       <use x="63.623047" xlink:href="#DejaVuSans-54"/>
       <use x="127.246094" xlink:href="#DejaVuSans-46"/>
       <use x="159.033203" xlink:href="#DejaVuSans-48"/>
      </g>
     </g>
    </g>
    <g id="xtick_20">
     <g id="line2d_51">
      <g>
       <use style="stroke:#000000;stroke-width:0.8;" x="397.980515" xlink:href="#m04b98e6584" y="38.88"/>
      </g>
     </g>
     <g id="text_31">
      <!-- 17.33 -->
      <g style="fill:#0000ff;opacity:0.5;" transform="translate(401.015827 31.88)rotate(-90)scale(0.11 -0.11)">
       <use xlink:href="#DejaVuSans-49"/>
       <use x="63.623047" xlink:href="#DejaVuSans-55"/>
       <use x="127.246094" xlink:href="#DejaVuSans-46"/>
       <use x="159.033203" xlink:href="#DejaVuSans-51"/>
       <use x="222.65625" xlink:href="#DejaVuSans-51"/>
      </g>
     </g>
    </g>
    <g id="xtick_21">
     <g id="line2d_52">
      <g>
       <use style="stroke:#000000;stroke-width:0.8;" x="432.869807" xlink:href="#m04b98e6584" y="38.88"/>
      </g>
     </g>
     <g id="text_32">
      <!-- 19.0 -->
      <g style="fill:#0000ff;opacity:0.5;" transform="translate(435.905119 31.88)rotate(-90)scale(0.11 -0.11)">
       <use xlink:href="#DejaVuSans-49"/>
       <use x="63.623047" xlink:href="#DejaVuSans-57"/>
       <use x="127.246094" xlink:href="#DejaVuSans-46"/>
       <use x="159.033203" xlink:href="#DejaVuSans-48"/>
      </g>
     </g>
    </g>
    <g id="xtick_22">
     <g id="line2d_53">
      <g>
       <use style="stroke:#000000;stroke-width:0.8;" x="476.293233" xlink:href="#m04b98e6584" y="38.88"/>
      </g>
     </g>
     <g id="text_33">
      <!-- 21.0 -->
      <g style="fill:#0000ff;opacity:0.5;" transform="translate(479.328545 31.88)rotate(-90)scale(0.11 -0.11)">
       <use xlink:href="#DejaVuSans-50"/>
       <use x="63.623047" xlink:href="#DejaVuSans-49"/>
       <use x="127.246094" xlink:href="#DejaVuSans-46"/>
       <use x="159.033203" xlink:href="#DejaVuSans-48"/>
      </g>
     </g>
    </g>
    <g id="xtick_23">
     <g id="line2d_54">
      <g>
       <use style="stroke:#000000;stroke-width:0.8;" x="483.622998" xlink:href="#m04b98e6584" y="38.88"/>
      </g>
     </g>
     <g id="text_34">
      <!-- 21.33 -->
      <g style="fill:#0000ff;opacity:0.5;" transform="translate(486.65831 31.88)rotate(-90)scale(0.11 -0.11)">
       <use xlink:href="#DejaVuSans-50"/>
       <use x="63.623047" xlink:href="#DejaVuSans-49"/>
       <use x="127.246094" xlink:href="#DejaVuSans-46"/>
       <use x="159.033203" xlink:href="#DejaVuSans-51"/>
       <use x="222.65625" xlink:href="#DejaVuSans-51"/>
      </g>
     </g>
    </g>
    <g id="xtick_24">
     <g id="line2d_55">
      <g>
       <use style="stroke:#000000;stroke-width:0.8;" x="568.117119" xlink:href="#m04b98e6584" y="38.88"/>
      </g>
     </g>
     <g id="text_35">
      <!-- 25.0 -->
      <g style="fill:#0000ff;opacity:0.5;" transform="translate(571.152432 31.88)rotate(-90)scale(0.11 -0.11)">
       <use xlink:href="#DejaVuSans-50"/>
       <use x="63.623047" xlink:href="#DejaVuSans-53"/>
       <use x="127.246094" xlink:href="#DejaVuSans-46"/>
       <use x="159.033203" xlink:href="#DejaVuSans-48"/>
      </g>
     </g>
    </g>
    <g id="xtick_25">
     <g id="line2d_56">
      <g>
       <use style="stroke:#000000;stroke-width:0.8;" x="575.972639" xlink:href="#m04b98e6584" y="38.88"/>
      </g>
     </g>
     <g id="text_36">
      <!-- 25.33 -->
      <g style="fill:#0000ff;opacity:0.5;" transform="translate(579.007952 31.88)rotate(-90)scale(0.11 -0.11)">
       <use xlink:href="#DejaVuSans-50"/>
       <use x="63.623047" xlink:href="#DejaVuSans-53"/>
       <use x="127.246094" xlink:href="#DejaVuSans-46"/>
       <use x="159.033203" xlink:href="#DejaVuSans-51"/>
       <use x="222.65625" xlink:href="#DejaVuSans-51"/>
      </g>
     </g>
    </g>
    <g id="xtick_26">
     <g id="line2d_57">
      <g>
       <use style="stroke:#000000;stroke-width:0.8;" x="616.349541" xlink:href="#m04b98e6584" y="38.88"/>
      </g>
     </g>
     <g id="text_37">
      <!-- 27.0 -->
      <g style="fill:#0000ff;opacity:0.5;" transform="translate(619.384853 31.88)rotate(-90)scale(0.11 -0.11)">
       <use xlink:href="#DejaVuSans-50"/>
       <use x="63.623047" xlink:href="#DejaVuSans-55"/>
       <use x="127.246094" xlink:href="#DejaVuSans-46"/>
       <use x="159.033203" xlink:href="#DejaVuSans-48"/>
      </g>
     </g>
    </g>
    <g id="xtick_27">
     <g id="line2d_58">
      <g>
       <use style="stroke:#000000;stroke-width:0.8;" x="641.014308" xlink:href="#m04b98e6584" y="38.88"/>
      </g>
     </g>
     <g id="text_38">
      <!-- 28.0 -->
      <g style="fill:#0000ff;opacity:0.5;" transform="translate(644.049621 31.88)rotate(-90)scale(0.11 -0.11)">
       <defs>
        <path d="M 31.78125 34.625 
Q 24.75 34.625 20.71875 30.859375 
Q 16.703125 27.09375 16.703125 20.515625 
Q 16.703125 13.921875 20.71875 10.15625 
Q 24.75 6.390625 31.78125 6.390625 
Q 38.8125 6.390625 42.859375 10.171875 
Q 46.921875 13.96875 46.921875 20.515625 
Q 46.921875 27.09375 42.890625 30.859375 
Q 38.875 34.625 31.78125 34.625 
z
M 21.921875 38.8125 
Q 15.578125 40.375 12.03125 44.71875 
Q 8.5 49.078125 8.5 55.328125 
Q 8.5 64.0625 14.71875 69.140625 
Q 20.953125 74.21875 31.78125 74.21875 
Q 42.671875 74.21875 48.875 69.140625 
Q 55.078125 64.0625 55.078125 55.328125 
Q 55.078125 49.078125 51.53125 44.71875 
Q 48 40.375 41.703125 38.8125 
Q 48.828125 37.15625 52.796875 32.3125 
Q 56.78125 27.484375 56.78125 20.515625 
Q 56.78125 9.90625 50.3125 4.234375 
Q 43.84375 -1.421875 31.78125 -1.421875 
Q 19.734375 -1.421875 13.25 4.234375 
Q 6.78125 9.90625 6.78125 20.515625 
Q 6.78125 27.484375 10.78125 32.3125 
Q 14.796875 37.15625 21.921875 38.8125 
z
M 18.3125 54.390625 
Q 18.3125 48.734375 21.84375 45.5625 
Q 25.390625 42.390625 31.78125 42.390625 
Q 38.140625 42.390625 41.71875 45.5625 
Q 45.3125 48.734375 45.3125 54.390625 
Q 45.3125 60.0625 41.71875 63.234375 
Q 38.140625 66.40625 31.78125 66.40625 
Q 25.390625 66.40625 21.84375 63.234375 
Q 18.3125 60.0625 18.3125 54.390625 
z
" id="DejaVuSans-56"/>
       </defs>
       <use xlink:href="#DejaVuSans-50"/>
       <use x="63.623047" xlink:href="#DejaVuSans-56"/>
       <use x="127.246094" xlink:href="#DejaVuSans-46"/>
       <use x="159.033203" xlink:href="#DejaVuSans-48"/>
      </g>
     </g>
    </g>
    <g id="xtick_28">
     <g id="line2d_59">
      <g>
       <use style="stroke:#000000;stroke-width:0.8;" x="717.110011" xlink:href="#m04b98e6584" y="38.88"/>
      </g>
     </g>
     <g id="text_39">
      <!-- 31.0 -->
      <g style="fill:#0000ff;opacity:0.5;" transform="translate(720.145323 31.88)rotate(-90)scale(0.11 -0.11)">
       <use xlink:href="#DejaVuSans-51"/>
       <use x="63.623047" xlink:href="#DejaVuSans-49"/>
       <use x="127.246094" xlink:href="#DejaVuSans-46"/>
       <use x="159.033203" xlink:href="#DejaVuSans-48"/>
      </g>
     </g>
    </g>
    <g id="xtick_29">
     <g id="line2d_60">
      <g>
       <use style="stroke:#000000;stroke-width:0.8;" x="778.295455" xlink:href="#m04b98e6584" y="38.88"/>
      </g>
     </g>
     <g id="text_40">
      <!-- 33.33 -->
      <g style="fill:#0000ff;opacity:0.5;" transform="translate(781.330767 31.88)rotate(-90)scale(0.11 -0.11)">
       <use xlink:href="#DejaVuSans-51"/>
       <use x="63.623047" xlink:href="#DejaVuSans-51"/>
       <use x="127.246094" xlink:href="#DejaVuSans-46"/>
       <use x="159.033203" xlink:href="#DejaVuSans-51"/>
       <use x="222.65625" xlink:href="#DejaVuSans-51"/>
      </g>
     </g>
    </g>
    <g id="text_41">
     <!-- T-number -->
     <g style="fill:#0000ff;opacity:0.5;" transform="translate(422.985 -3.610937)scale(0.16 -0.16)">
      <defs>
       <path d="M -0.296875 72.90625 
L 61.375 72.90625 
L 61.375 64.59375 
L 35.5 64.59375 
L 35.5 0 
L 25.59375 0 
L 25.59375 64.59375 
L -0.296875 64.59375 
z
" id="DejaVuSans-84"/>
       <path d="M 4.890625 31.390625 
L 31.203125 31.390625 
L 31.203125 23.390625 
L 4.890625 23.390625 
z
" id="DejaVuSans-45"/>
      </defs>
      <use xlink:href="#DejaVuSans-84"/>
      <use x="51.958984" xlink:href="#DejaVuSans-45"/>
      <use x="88.042969" xlink:href="#DejaVuSans-110"/>
      <use x="151.421875" xlink:href="#DejaVuSans-117"/>
      <use x="214.800781" xlink:href="#DejaVuSans-109"/>
      <use x="312.212891" xlink:href="#DejaVuSans-98"/>
      <use x="375.689453" xlink:href="#DejaVuSans-101"/>
      <use x="437.212891" xlink:href="#DejaVuSans-114"/>
     </g>
    </g>
   </g>
   <g id="patch_7">
    <path d="M 112.5 283.5 
L 112.5 38.88 
" style="fill:none;stroke:#000000;stroke-linecap:square;stroke-linejoin:miter;stroke-width:0.8;"/>
   </g>
   <g id="patch_8">
    <path d="M 810 283.5 
L 810 38.88 
" style="fill:none;stroke:#000000;stroke-linecap:square;stroke-linejoin:miter;stroke-width:0.8;"/>
   </g>
   <g id="patch_9">
    <path d="M 112.5 283.5 
L 810 283.5 
" style="fill:none;stroke:#000000;stroke-linecap:square;stroke-linejoin:miter;stroke-width:0.8;"/>
   </g>
   <g id="patch_10">
    <path d="M 112.5 38.88 
L 810 38.88 
" style="fill:none;stroke:#000000;stroke-linecap:square;stroke-linejoin:miter;stroke-width:0.8;"/>
   </g>
  </g>
 </g>
 <defs>
  <clipPath id="p8b40c67493">
   <rect height="244.62" width="697.5" x="112.5" y="38.88"/>
  </clipPath>
 </defs>
</svg>
