<?xml version="1.0" encoding="utf-8" standalone="no"?>
<!DOCTYPE svg PUBLIC "-//W3C//DTD SVG 1.1//EN"
  "http://www.w3.org/Graphics/SVG/1.1/DTD/svg11.dtd">
<!-- Created with matplotlib (https://matplotlib.org/) -->
<svg height="324pt" version="1.1" viewBox="0 0 900 324" width="900pt" xmlns="http://www.w3.org/2000/svg" xmlns:xlink="http://www.w3.org/1999/xlink">
 <metadata>
  <rdf:RDF xmlns:cc="http://creativecommons.org/ns#" xmlns:dc="http://purl.org/dc/elements/1.1/" xmlns:rdf="http://www.w3.org/1999/02/22-rdf-syntax-ns#">
   <cc:Work>
    <dc:type rdf:resource="http://purl.org/dc/dcmitype/StillImage"/>
    <dc:date>2021-09-08T14:23:24.861912</dc:date>
    <dc:format>image/svg+xml</dc:format>
    <dc:creator>
     <cc:Agent>
      <dc:title>Matplotlib v3.3.2, https://matplotlib.org/</dc:title>
     </cc:Agent>
    </dc:creator>
   </cc:Work>
  </rdf:RDF>
 </metadata>
 <defs>
  <style type="text/css">*{stroke-linecap:butt;stroke-linejoin:round;}</style>
 </defs>
 <g id="figure_1">
  <g id="patch_1">
   <path d="M 0 324 
L 900 324 
L 900 0 
L 0 0 
z
" style="fill:none;"/>
  </g>
  <g id="axes_1">
   <g id="patch_2">
    <path d="M 112.5 283.5 
L 810 283.5 
L 810 38.88 
L 112.5 38.88 
z
" style="fill:#ffffff;"/>
   </g>
   <g id="PolyCollection_1">
    <defs>
     <path d="M 112.5 -40.5 
L 112.5 -43.767779 
L 117.28459 -43.767779 
L 117.28459 -40.5 
L 117.28459 -40.5 
L 112.5 -40.5 
z
" id="m756b1df27c" style="stroke:#808080;"/>
    </defs>
    <g clip-path="url(#p87ba607ff4)">
     <use style="fill:#808080;stroke:#808080;" x="0" xlink:href="#m756b1df27c" y="324"/>
    </g>
   </g>
   <g id="PolyCollection_2">
    <defs>
     <path d="M 117.28459 -40.5 
L 117.28459 -43.767779 
L 118.230993 -43.767779 
L 118.230993 -40.5 
L 118.230993 -40.5 
L 117.28459 -40.5 
z
" id="m466ad35078" style="stroke:#0000ff;"/>
    </defs>
    <g clip-path="url(#p87ba607ff4)">
     <use style="fill:#0000ff;stroke:#0000ff;" x="0" xlink:href="#m466ad35078" y="324"/>
    </g>
   </g>
   <g id="PolyCollection_3">
    <defs>
     <path d="M 118.230993 -40.5 
L 118.230993 -43.767779 
L 119.632778 -43.767779 
L 119.632778 -40.5 
L 119.632778 -40.5 
L 118.230993 -40.5 
z
" id="m332b566ae4" style="stroke:#808080;"/>
    </defs>
    <g clip-path="url(#p87ba607ff4)">
     <use style="fill:#808080;stroke:#808080;" x="0" xlink:href="#m332b566ae4" y="324"/>
    </g>
   </g>
   <g id="PolyCollection_4">
    <defs>
     <path d="M 119.632778 -40.5 
L 119.632778 -43.767779 
L 121.043657 -43.767779 
L 121.043657 -40.5 
L 121.043657 -40.5 
L 119.632778 -40.5 
z
" id="m4937bb605d" style="stroke:#0000ff;"/>
    </defs>
    <g clip-path="url(#p87ba607ff4)">
     <use style="fill:#0000ff;stroke:#0000ff;" x="0" xlink:href="#m4937bb605d" y="324"/>
    </g>
   </g>
   <g id="PolyCollection_5">
    <defs>
     <path d="M 121.043657 -40.5 
L 121.043657 -43.767779 
L 134.77911 -43.767779 
L 134.77911 -40.5 
L 134.77911 -40.5 
L 121.043657 -40.5 
z
" id="me78eb106e2" style="stroke:#808080;"/>
    </defs>
    <g clip-path="url(#p87ba607ff4)">
     <use style="fill:#808080;stroke:#808080;" x="0" xlink:href="#me78eb106e2" y="324"/>
    </g>
   </g>
   <g id="PolyCollection_6">
    <defs>
     <path d="M 134.77911 -40.5 
L 134.77911 -43.767779 
L 139.185967 -50.919695 
L 139.185967 -40.5 
L 139.185967 -40.5 
L 134.77911 -40.5 
z
" id="m61645cd230" style="stroke:#0000ff;"/>
    </defs>
    <g clip-path="url(#p87ba607ff4)">
     <use style="fill:#0000ff;stroke:#0000ff;" x="0" xlink:href="#m61645cd230" y="324"/>
    </g>
   </g>
   <g id="PolyCollection_7">
    <defs>
     <path d="M 139.185967 -40.5 
L 139.185967 -50.919695 
L 145.82989 -71.165201 
L 145.82989 -40.5 
L 145.82989 -40.5 
L 139.185967 -40.5 
z
" id="m2853ad3485" style="stroke:#808080;"/>
    </defs>
    <g clip-path="url(#p87ba607ff4)">
     <use style="fill:#808080;stroke:#808080;" x="0" xlink:href="#m2853ad3485" y="324"/>
    </g>
   </g>
   <g id="PolyCollection_8">
    <defs>
     <path d="M 145.82989 -40.5 
L 145.82989 -71.165201 
L 151.587758 -52.087263 
L 151.587758 -40.5 
L 151.587758 -40.5 
L 145.82989 -40.5 
z
" id="mbd5264bfcb" style="stroke:#0000ff;"/>
    </defs>
    <g clip-path="url(#p87ba607ff4)">
     <use style="fill:#0000ff;stroke:#0000ff;" x="0" xlink:href="#mbd5264bfcb" y="324"/>
    </g>
   </g>
   <g id="PolyCollection_9">
    <defs>
     <path d="M 151.587758 -40.5 
L 151.587758 -57.265096 
L 155.886521 -52.760419 
L 157.860284 -56.477484 
L 159.834047 -63.835461 
L 161.807809 -74.834348 
L 161.807809 -40.5 
L 161.807809 -40.5 
L 159.834047 -40.5 
L 157.860284 -40.5 
L 155.886521 -40.5 
L 151.587758 -40.5 
z
" id="mb9328e8a02" style="stroke:#808080;"/>
    </defs>
    <g clip-path="url(#p87ba607ff4)">
     <use style="fill:#808080;stroke:#808080;" x="0" xlink:href="#mb9328e8a02" y="324"/>
    </g>
   </g>
   <g id="PolyCollection_10">
    <defs>
     <path d="M 161.807809 -40.5 
L 161.807809 -74.834348 
L 171.676624 -111.088835 
L 171.676624 -40.5 
L 171.676624 -40.5 
L 161.807809 -40.5 
z
" id="mf76d49ec21" style="stroke:#0000ff;"/>
    </defs>
    <g clip-path="url(#p87ba607ff4)">
     <use style="fill:#0000ff;stroke:#0000ff;" x="0" xlink:href="#mf76d49ec21" y="324"/>
    </g>
   </g>
   <g id="PolyCollection_11">
    <defs>
     <path d="M 171.676624 -40.5 
L 171.676624 -111.088835 
L 173.650387 -127.96755 
L 175.62415 -147.160242 
L 177.597913 -168.666782 
L 179.571676 -192.48717 
L 181.545438 -218.621534 
L 183.519201 -223.965 
L 185.492964 -243.277105 
L 185.492964 -40.5 
L 185.492964 -40.5 
L 183.519201 -40.5 
L 181.545438 -40.5 
L 179.571676 -40.5 
L 177.597913 -40.5 
L 175.62415 -40.5 
L 173.650387 -40.5 
L 171.676624 -40.5 
z
" id="m5ceabf3723" style="stroke:#808080;"/>
    </defs>
    <g clip-path="url(#p87ba607ff4)">
     <use style="fill:#808080;stroke:#808080;" x="0" xlink:href="#m5ceabf3723" y="324"/>
    </g>
   </g>
   <g id="PolyCollection_12">
    <defs>
     <path d="M 185.492964 -40.5 
L 185.492964 -243.277105 
L 189.6125 -268.382842 
L 189.6125 -40.5 
L 189.6125 -40.5 
L 185.492964 -40.5 
z
" id="mc76a41f170" style="stroke:#0000ff;"/>
    </defs>
    <g clip-path="url(#p87ba607ff4)">
     <use style="fill:#0000ff;stroke:#0000ff;" x="0" xlink:href="#mc76a41f170" y="324"/>
    </g>
   </g>
   <g id="PolyCollection_13">
    <defs>
     <path d="M 189.6125 -40.5 
L 189.6125 -268.382842 
L 199.900653 -129.979421 
L 199.900653 -40.5 
L 199.900653 -40.5 
L 189.6125 -40.5 
z
" id="mae77a05884" style="stroke:#0000ff;"/>
    </defs>
    <g clip-path="url(#p87ba607ff4)">
     <use style="fill:#0000ff;stroke:#0000ff;" x="0" xlink:href="#mae77a05884" y="324"/>
    </g>
   </g>
   <g id="PolyCollection_14">
    <defs>
     <path d="M 199.900653 -40.5 
L 199.900653 -129.979421 
L 203.5625 -129.979421 
L 203.5625 -40.5 
L 203.5625 -40.5 
L 199.900653 -40.5 
z
" id="m64e714d1d8" style="stroke:#808080;"/>
    </defs>
    <g clip-path="url(#p87ba607ff4)">
     <use style="fill:#808080;stroke:#808080;" x="0" xlink:href="#m64e714d1d8" y="324"/>
    </g>
   </g>
   <g id="PolyCollection_15">
    <defs>
     <path d="M 203.175 -40.5 
L 203.175 -129.979421 
L 208.9875 -169.247368 
L 208.9875 -40.5 
L 208.9875 -40.5 
L 203.175 -40.5 
z
" id="m269d066e9f" style="stroke:#808080;"/>
    </defs>
    <g clip-path="url(#p87ba607ff4)">
     <use style="fill:#808080;stroke:#808080;" x="0" xlink:href="#m269d066e9f" y="324"/>
    </g>
   </g>
   <g id="PolyCollection_16">
    <defs>
     <path d="M 208.9875 -40.5 
L 208.9875 -169.247368 
L 216.23375 -108.092368 
L 216.23375 -40.5 
L 216.23375 -40.5 
L 208.9875 -40.5 
z
" id="mb93e604e31" style="stroke:#808080;"/>
    </defs>
    <g clip-path="url(#p87ba607ff4)">
     <use style="fill:#808080;stroke:#808080;" x="0" xlink:href="#mb93e604e31" y="324"/>
    </g>
   </g>
   <g id="PolyCollection_17">
    <defs>
     <path d="M 216.23375 -40.5 
L 216.23375 -108.092368 
L 220.03125 -101.655 
L 220.03125 -40.5 
L 220.03125 -40.5 
L 216.23375 -40.5 
z
" id="m8a8f8e2a62" style="stroke:#0000ff;"/>
    </defs>
    <g clip-path="url(#p87ba607ff4)">
     <use style="fill:#0000ff;stroke:#0000ff;" x="0" xlink:href="#m8a8f8e2a62" y="324"/>
    </g>
   </g>
   <g id="PolyCollection_18">
    <defs>
     <path d="M 220.03125 -40.5 
L 220.03125 -101.655 
L 223.90625 -88.780263 
L 223.90625 -40.5 
L 223.90625 -40.5 
L 220.03125 -40.5 
z
" id="m670405492c" style="stroke:#0000ff;"/>
    </defs>
    <g clip-path="url(#p87ba607ff4)">
     <use style="fill:#0000ff;stroke:#0000ff;" x="0" xlink:href="#m670405492c" y="324"/>
    </g>
   </g>
   <g id="PolyCollection_19">
    <defs>
     <path d="M 223.90625 -40.5 
L 223.90625 -88.780263 
L 232.625 -59.812105 
L 232.625 -40.5 
L 232.625 -40.5 
L 223.90625 -40.5 
z
" id="m8555545fdc" style="stroke:#0000ff;"/>
    </defs>
    <g clip-path="url(#p87ba607ff4)">
     <use style="fill:#0000ff;stroke:#0000ff;" x="0" xlink:href="#m8555545fdc" y="324"/>
    </g>
   </g>
   <g id="PolyCollection_20">
    <defs>
     <path d="M 232.625 -40.5 
L 232.625 -59.812105 
L 243.187281 -61.743316 
L 243.187281 -40.5 
L 243.187281 -40.5 
L 232.625 -40.5 
z
" id="ma62426685d" style="stroke:#0000ff;"/>
    </defs>
    <g clip-path="url(#p87ba607ff4)">
     <use style="fill:#0000ff;stroke:#0000ff;" x="0" xlink:href="#ma62426685d" y="324"/>
    </g>
   </g>
   <g id="PolyCollection_21">
    <defs>
     <path d="M 243.187281 -40.5 
L 243.187281 -61.743316 
L 246.1875 -62.387053 
L 246.1875 -40.5 
L 246.1875 -40.5 
L 243.187281 -40.5 
z
" id="m5d54c2200c" style="stroke:#808080;"/>
    </defs>
    <g clip-path="url(#p87ba607ff4)">
     <use style="fill:#808080;stroke:#808080;" x="0" xlink:href="#m5d54c2200c" y="324"/>
    </g>
   </g>
   <g id="PolyCollection_22">
    <defs>
     <path d="M 246.1875 -40.5 
L 246.1875 -62.387053 
L 253.9375 -79.124211 
L 253.9375 -40.5 
L 253.9375 -40.5 
L 246.1875 -40.5 
z
" id="m51c056a4d3" style="stroke:#808080;"/>
    </defs>
    <g clip-path="url(#p87ba607ff4)">
     <use style="fill:#808080;stroke:#808080;" x="0" xlink:href="#m51c056a4d3" y="324"/>
    </g>
   </g>
   <g id="PolyCollection_23">
    <defs>
     <path d="M 253.9375 -40.5 
L 253.9375 -79.124211 
L 263.625 -54.018474 
L 263.625 -40.5 
L 263.625 -40.5 
L 253.9375 -40.5 
z
" id="m8ce7c6c182" style="stroke:#808080;"/>
    </defs>
    <g clip-path="url(#p87ba607ff4)">
     <use style="fill:#808080;stroke:#808080;" x="0" xlink:href="#m8ce7c6c182" y="324"/>
    </g>
   </g>
   <g id="PolyCollection_24">
    <defs>
     <path d="M 263.625 -40.5 
L 263.625 -54.018474 
L 267.69375 -51.443526 
L 267.69375 -40.5 
L 267.69375 -40.5 
L 263.625 -40.5 
z
" id="m0aae825db9" style="stroke:#808080;"/>
    </defs>
    <g clip-path="url(#p87ba607ff4)">
     <use style="fill:#808080;stroke:#808080;" x="0" xlink:href="#m0aae825db9" y="324"/>
    </g>
   </g>
   <g id="PolyCollection_25">
    <defs>
     <path d="M 267.69375 -40.5 
L 267.69375 -51.443526 
L 279.125 -57.880895 
L 279.125 -40.5 
L 279.125 -40.5 
L 267.69375 -40.5 
z
" id="m7e16a7bda9" style="stroke:#0000ff;"/>
    </defs>
    <g clip-path="url(#p87ba607ff4)">
     <use style="fill:#0000ff;stroke:#0000ff;" x="0" xlink:href="#m7e16a7bda9" y="324"/>
    </g>
   </g>
   <g id="PolyCollection_26">
    <defs>
     <path d="M 279.125 -40.5 
L 279.125 -57.880895 
L 292.6875 -46.937368 
L 292.6875 -40.5 
L 292.6875 -40.5 
L 279.125 -40.5 
z
" id="m5d826890a0" style="stroke:#0000ff;"/>
    </defs>
    <g clip-path="url(#p87ba607ff4)">
     <use style="fill:#0000ff;stroke:#0000ff;" x="0" xlink:href="#m5d826890a0" y="324"/>
    </g>
   </g>
   <g id="PolyCollection_27">
    <defs>
     <path d="M 292.6875 -40.5 
L 292.6875 -46.937368 
L 298.5 -50.156053 
L 298.5 -40.5 
L 298.5 -40.5 
L 292.6875 -40.5 
z
" id="m1d5a118fea" style="stroke:#0000ff;"/>
    </defs>
    <g clip-path="url(#p87ba607ff4)">
     <use style="fill:#0000ff;stroke:#0000ff;" x="0" xlink:href="#m1d5a118fea" y="324"/>
    </g>
   </g>
   <g id="PolyCollection_28">
    <defs>
     <path d="M 298.5 -40.5 
L 298.5 -50.156053 
L 306.25 -43.718684 
L 306.25 -40.5 
L 306.25 -40.5 
L 298.5 -40.5 
z
" id="m6ddc4e23fc" style="stroke:#0000ff;"/>
    </defs>
    <g clip-path="url(#p87ba607ff4)">
     <use style="fill:#0000ff;stroke:#0000ff;" x="0" xlink:href="#m6ddc4e23fc" y="324"/>
    </g>
   </g>
   <g id="PolyCollection_29">
    <defs>
     <path d="M 306.25 -40.5 
L 306.25 -43.718684 
L 310.125 -43.718684 
L 310.125 -40.5 
L 310.125 -40.5 
L 306.25 -40.5 
z
" id="m272025fc7d" style="stroke:#0000ff;"/>
    </defs>
    <g clip-path="url(#p87ba607ff4)">
     <use style="fill:#0000ff;stroke:#0000ff;" x="0" xlink:href="#m272025fc7d" y="324"/>
    </g>
   </g>
   <g id="PolyCollection_30">
    <defs>
     <path d="M 310.125 -40.5 
L 310.125 -43.718684 
L 320.4325 -56.593421 
L 320.4325 -40.5 
L 320.4325 -40.5 
L 310.125 -40.5 
z
" id="mfcf11aa543" style="stroke:#0000ff;"/>
    </defs>
    <g clip-path="url(#p87ba607ff4)">
     <use style="fill:#0000ff;stroke:#0000ff;" x="0" xlink:href="#mfcf11aa543" y="324"/>
    </g>
   </g>
   <g id="PolyCollection_31">
    <defs>
     <path d="M 320.4325 -40.5 
L 320.4325 -56.593421 
L 328.53125 -46.937368 
L 328.53125 -40.5 
L 328.53125 -40.5 
L 320.4325 -40.5 
z
" id="mac2d0c81e2" style="stroke:#808080;"/>
    </defs>
    <g clip-path="url(#p87ba607ff4)">
     <use style="fill:#808080;stroke:#808080;" x="0" xlink:href="#mac2d0c81e2" y="324"/>
    </g>
   </g>
   <g id="PolyCollection_32">
    <defs>
     <path d="M 328.53125 -40.5 
L 328.53125 -46.937368 
L 344.6125 -46.937368 
L 344.6125 -40.5 
L 344.6125 -40.5 
L 328.53125 -40.5 
z
" id="mb90d1af002" style="stroke:#808080;"/>
    </defs>
    <g clip-path="url(#p87ba607ff4)">
     <use style="fill:#808080;stroke:#808080;" x="0" xlink:href="#mb90d1af002" y="324"/>
    </g>
   </g>
   <g id="PolyCollection_33">
    <defs>
     <path d="M 344.6125 -40.5 
L 344.6125 -46.937368 
L 354.6875 -53.374737 
L 354.6875 -40.5 
L 354.6875 -40.5 
L 344.6125 -40.5 
z
" id="me4fde19a73" style="stroke:#0000ff;"/>
    </defs>
    <g clip-path="url(#p87ba607ff4)">
     <use style="fill:#0000ff;stroke:#0000ff;" x="0" xlink:href="#me4fde19a73" y="324"/>
    </g>
   </g>
   <g id="PolyCollection_34">
    <defs>
     <path d="M 354.6875 -40.5 
L 354.6875 -53.374737 
L 356.625 -59.812105 
L 356.625 -40.5 
L 356.625 -40.5 
L 354.6875 -40.5 
z
" id="m3beda438d0" style="stroke:#0000ff;"/>
    </defs>
    <g clip-path="url(#p87ba607ff4)">
     <use style="fill:#0000ff;stroke:#0000ff;" x="0" xlink:href="#m3beda438d0" y="324"/>
    </g>
   </g>
   <g id="PolyCollection_35">
    <defs>
     <path d="M 356.625 -40.5 
L 356.625 -59.812105 
L 364.375 -72.686842 
L 364.375 -40.5 
L 364.375 -40.5 
L 356.625 -40.5 
z
" id="mf5bcd3c41c" style="stroke:#0000ff;"/>
    </defs>
    <g clip-path="url(#p87ba607ff4)">
     <use style="fill:#0000ff;stroke:#0000ff;" x="0" xlink:href="#mf5bcd3c41c" y="324"/>
    </g>
   </g>
   <g id="PolyCollection_36">
    <defs>
     <path d="M 364.375 -40.5 
L 364.375 -72.686842 
L 370.1875 -63.030789 
L 370.1875 -40.5 
L 370.1875 -40.5 
L 364.375 -40.5 
z
" id="m0b51ac5d43" style="stroke:#0000ff;"/>
    </defs>
    <g clip-path="url(#p87ba607ff4)">
     <use style="fill:#0000ff;stroke:#0000ff;" x="0" xlink:href="#m0b51ac5d43" y="324"/>
    </g>
   </g>
   <g id="PolyCollection_37">
    <defs>
     <path d="M 370.1875 -40.5 
L 370.1875 -63.030789 
L 379.875 -63.030789 
L 379.875 -40.5 
L 379.875 -40.5 
L 370.1875 -40.5 
z
" id="md3138f19ba" style="stroke:#0000ff;"/>
    </defs>
    <g clip-path="url(#p87ba607ff4)">
     <use style="fill:#0000ff;stroke:#0000ff;" x="0" xlink:href="#md3138f19ba" y="324"/>
    </g>
   </g>
   <g id="PolyCollection_38">
    <defs>
     <path d="M 379.875 -40.5 
L 379.875 -63.030789 
L 387.625 -53.374737 
L 387.625 -40.5 
L 387.625 -40.5 
L 379.875 -40.5 
z
" id="m1411f4bd5f" style="stroke:#0000ff;"/>
    </defs>
    <g clip-path="url(#p87ba607ff4)">
     <use style="fill:#0000ff;stroke:#0000ff;" x="0" xlink:href="#m1411f4bd5f" y="324"/>
    </g>
   </g>
   <g id="PolyCollection_39">
    <defs>
     <path d="M 387.625 -40.5 
L 387.625 -53.374737 
L 399.25 -59.812105 
L 399.25 -40.5 
L 399.25 -40.5 
L 387.625 -40.5 
z
" id="ma5069d7c41" style="stroke:#0000ff;"/>
    </defs>
    <g clip-path="url(#p87ba607ff4)">
     <use style="fill:#0000ff;stroke:#0000ff;" x="0" xlink:href="#ma5069d7c41" y="324"/>
    </g>
   </g>
   <g id="PolyCollection_40">
    <defs>
     <path d="M 399.25 -40.5 
L 399.25 -59.812105 
L 401.1875 -63.030789 
L 401.1875 -40.5 
L 401.1875 -40.5 
L 399.25 -40.5 
z
" id="m5cba02c889" style="stroke:#0000ff;"/>
    </defs>
    <g clip-path="url(#p87ba607ff4)">
     <use style="fill:#0000ff;stroke:#0000ff;" x="0" xlink:href="#m5cba02c889" y="324"/>
    </g>
   </g>
   <g id="PolyCollection_41">
    <defs>
     <path d="M 401.1875 -40.5 
L 401.1875 -63.030789 
L 408.9375 -85.561579 
L 408.9375 -40.5 
L 408.9375 -40.5 
L 401.1875 -40.5 
z
" id="mb1c1760be5" style="stroke:#0000ff;"/>
    </defs>
    <g clip-path="url(#p87ba607ff4)">
     <use style="fill:#0000ff;stroke:#0000ff;" x="0" xlink:href="#mb1c1760be5" y="324"/>
    </g>
   </g>
   <g id="PolyCollection_42">
    <defs>
     <path d="M 408.9375 -40.5 
L 408.9375 -85.561579 
L 410.875 -95.217632 
L 410.875 -40.5 
L 410.875 -40.5 
L 408.9375 -40.5 
z
" id="m102c00e28b" style="stroke:#0000ff;"/>
    </defs>
    <g clip-path="url(#p87ba607ff4)">
     <use style="fill:#0000ff;stroke:#0000ff;" x="0" xlink:href="#m102c00e28b" y="324"/>
    </g>
   </g>
   <g id="PolyCollection_43">
    <defs>
     <path d="M 410.875 -40.5 
L 410.875 -95.217632 
L 419.59375 -72.686842 
L 419.59375 -40.5 
L 419.59375 -40.5 
L 410.875 -40.5 
z
" id="mae00e9f74e" style="stroke:#0000ff;"/>
    </defs>
    <g clip-path="url(#p87ba607ff4)">
     <use style="fill:#0000ff;stroke:#0000ff;" x="0" xlink:href="#mae00e9f74e" y="324"/>
    </g>
   </g>
   <g id="PolyCollection_44">
    <defs>
     <path d="M 419.59375 -40.5 
L 419.59375 -72.686842 
L 429.28125 -101.655 
L 429.28125 -40.5 
L 429.28125 -40.5 
L 419.59375 -40.5 
z
" id="mf361d95850" style="stroke:#0000ff;"/>
    </defs>
    <g clip-path="url(#p87ba607ff4)">
     <use style="fill:#0000ff;stroke:#0000ff;" x="0" xlink:href="#mf361d95850" y="324"/>
    </g>
   </g>
   <g id="PolyCollection_45">
    <defs>
     <path d="M 429.28125 -40.5 
L 429.28125 -101.655 
L 438 -72.043105 
L 438 -40.5 
L 438 -40.5 
L 429.28125 -40.5 
z
" id="mbcbf9e0a5b" style="stroke:#0000ff;"/>
    </defs>
    <g clip-path="url(#p87ba607ff4)">
     <use style="fill:#0000ff;stroke:#0000ff;" x="0" xlink:href="#mbcbf9e0a5b" y="324"/>
    </g>
   </g>
   <g id="PolyCollection_46">
    <defs>
     <path d="M 438 -40.5 
L 438 -72.043105 
L 443.8125 -75.905526 
L 443.8125 -40.5 
L 443.8125 -40.5 
L 438 -40.5 
z
" id="m50c1af8b51" style="stroke:#0000ff;"/>
    </defs>
    <g clip-path="url(#p87ba607ff4)">
     <use style="fill:#0000ff;stroke:#0000ff;" x="0" xlink:href="#m50c1af8b51" y="324"/>
    </g>
   </g>
   <g id="PolyCollection_47">
    <defs>
     <path d="M 443.8125 -40.5 
L 443.8125 -75.905526 
L 455.4375 -56.593421 
L 455.4375 -40.5 
L 455.4375 -40.5 
L 443.8125 -40.5 
z
" id="m2f98035dca" style="stroke:#0000ff;"/>
    </defs>
    <g clip-path="url(#p87ba607ff4)">
     <use style="fill:#0000ff;stroke:#0000ff;" x="0" xlink:href="#m2f98035dca" y="324"/>
    </g>
   </g>
   <g id="PolyCollection_48">
    <defs>
     <path d="M 455.4375 -40.5 
L 455.4375 -56.593421 
L 465.125 -43.718684 
L 465.125 -40.5 
L 465.125 -40.5 
L 455.4375 -40.5 
z
" id="me3999ce09a" style="stroke:#0000ff;"/>
    </defs>
    <g clip-path="url(#p87ba607ff4)">
     <use style="fill:#0000ff;stroke:#0000ff;" x="0" xlink:href="#me3999ce09a" y="324"/>
    </g>
   </g>
   <g id="PolyCollection_49">
    <defs>
     <path d="M 465.125 -40.5 
L 465.125 -43.718684 
L 475.78125 -48.868579 
L 475.78125 -40.5 
L 475.78125 -40.5 
L 465.125 -40.5 
z
" id="m6ec13638ad" style="stroke:#0000ff;"/>
    </defs>
    <g clip-path="url(#p87ba607ff4)">
     <use style="fill:#0000ff;stroke:#0000ff;" x="0" xlink:href="#m6ec13638ad" y="324"/>
    </g>
   </g>
   <g id="PolyCollection_50">
    <defs>
     <path d="M 475.78125 -40.5 
L 475.78125 -48.868579 
L 478.6875 -46.293632 
L 478.6875 -40.5 
L 478.6875 -40.5 
L 475.78125 -40.5 
z
" id="m235664cf73" style="stroke:#0000ff;"/>
    </defs>
    <g clip-path="url(#p87ba607ff4)">
     <use style="fill:#0000ff;stroke:#0000ff;" x="0" xlink:href="#m235664cf73" y="324"/>
    </g>
   </g>
   <g id="PolyCollection_51">
    <defs>
     <path d="M 478.6875 -40.5 
L 478.6875 -46.293632 
L 486.4375 -46.293632 
L 486.4375 -40.5 
L 486.4375 -40.5 
L 478.6875 -40.5 
z
" id="mb3a66d58c4" style="stroke:#0000ff;"/>
    </defs>
    <g clip-path="url(#p87ba607ff4)">
     <use style="fill:#0000ff;stroke:#0000ff;" x="0" xlink:href="#mb3a66d58c4" y="324"/>
    </g>
   </g>
   <g id="PolyCollection_52">
    <defs>
     <path d="M 486.4375 -40.5 
L 486.4375 -46.293632 
L 490.3125 -43.718684 
L 490.3125 -40.5 
L 490.3125 -40.5 
L 486.4375 -40.5 
z
" id="mbf76eb4ea5" style="stroke:#0000ff;"/>
    </defs>
    <g clip-path="url(#p87ba607ff4)">
     <use style="fill:#0000ff;stroke:#0000ff;" x="0" xlink:href="#mbf76eb4ea5" y="324"/>
    </g>
   </g>
   <g id="PolyCollection_53">
    <defs>
     <path d="M 490.3125 -40.5 
L 490.3125 -43.718684 
L 519.375 -43.718684 
L 519.375 -40.5 
L 519.375 -40.5 
L 490.3125 -40.5 
z
" id="m2a2ef2a209" style="stroke:#0000ff;"/>
    </defs>
    <g clip-path="url(#p87ba607ff4)">
     <use style="fill:#0000ff;stroke:#0000ff;" x="0" xlink:href="#m2a2ef2a209" y="324"/>
    </g>
   </g>
   <g id="PolyCollection_54">
    <defs>
     <path d="M 519.375 -40.5 
L 519.375 -43.718684 
L 528.09375 -51.443526 
L 528.09375 -40.5 
L 528.09375 -40.5 
L 519.375 -40.5 
z
" id="mbcd64e5728" style="stroke:#0000ff;"/>
    </defs>
    <g clip-path="url(#p87ba607ff4)">
     <use style="fill:#0000ff;stroke:#0000ff;" x="0" xlink:href="#mbcd64e5728" y="324"/>
    </g>
   </g>
   <g id="PolyCollection_55">
    <defs>
     <path d="M 528.09375 -40.5 
L 528.09375 -51.443526 
L 532.9375 -53.374737 
L 532.9375 -40.5 
L 532.9375 -40.5 
L 528.09375 -40.5 
z
" id="mdc0235992e" style="stroke:#808080;"/>
    </defs>
    <g clip-path="url(#p87ba607ff4)">
     <use style="fill:#808080;stroke:#808080;" x="0" xlink:href="#mdc0235992e" y="324"/>
    </g>
   </g>
   <g id="PolyCollection_56">
    <defs>
     <path d="M 532.9375 -40.5 
L 532.9375 -53.374737 
L 545.53125 -43.718684 
L 545.53125 -40.5 
L 545.53125 -40.5 
L 532.9375 -40.5 
z
" id="m621b9be70a" style="stroke:#808080;"/>
    </defs>
    <g clip-path="url(#p87ba607ff4)">
     <use style="fill:#808080;stroke:#808080;" x="0" xlink:href="#m621b9be70a" y="324"/>
    </g>
   </g>
   <g id="PolyCollection_57">
    <defs>
     <path d="M 545.53125 -40.5 
L 545.53125 -43.718684 
L 556.1875 -53.374737 
L 556.1875 -40.5 
L 556.1875 -40.5 
L 545.53125 -40.5 
z
" id="m815063e835" style="stroke:#0000ff;"/>
    </defs>
    <g clip-path="url(#p87ba607ff4)">
     <use style="fill:#0000ff;stroke:#0000ff;" x="0" xlink:href="#m815063e835" y="324"/>
    </g>
   </g>
   <g id="PolyCollection_58">
    <defs>
     <path d="M 556.1875 -40.5 
L 556.1875 -53.374737 
L 562.96875 -43.718684 
L 562.96875 -40.5 
L 562.96875 -40.5 
L 556.1875 -40.5 
z
" id="m8f53c4ad6e" style="stroke:#0000ff;"/>
    </defs>
    <g clip-path="url(#p87ba607ff4)">
     <use style="fill:#0000ff;stroke:#0000ff;" x="0" xlink:href="#m8f53c4ad6e" y="324"/>
    </g>
   </g>
   <g id="PolyCollection_59">
    <defs>
     <path d="M 562.96875 -40.5 
L 562.96875 -43.718684 
L 569.75 -43.718684 
L 569.75 -40.5 
L 569.75 -40.5 
L 562.96875 -40.5 
z
" id="mb181a83ade" style="stroke:#0000ff;"/>
    </defs>
    <g clip-path="url(#p87ba607ff4)">
     <use style="fill:#0000ff;stroke:#0000ff;" x="0" xlink:href="#mb181a83ade" y="324"/>
    </g>
   </g>
   <g id="PolyCollection_60">
    <defs>
     <path d="M 569.75 -40.5 
L 569.75 -43.718684 
L 579.4375 -52.409132 
L 579.4375 -40.5 
L 579.4375 -40.5 
L 569.75 -40.5 
z
" id="mfb600e4141" style="stroke:#0000ff;"/>
    </defs>
    <g clip-path="url(#p87ba607ff4)">
     <use style="fill:#0000ff;stroke:#0000ff;" x="0" xlink:href="#mfb600e4141" y="324"/>
    </g>
   </g>
   <g id="PolyCollection_61">
    <defs>
     <path d="M 579.4375 -40.5 
L 579.4375 -52.409132 
L 589.125 -46.937368 
L 589.125 -40.5 
L 589.125 -40.5 
L 579.4375 -40.5 
z
" id="m04344ff1a0" style="stroke:#0000ff;"/>
    </defs>
    <g clip-path="url(#p87ba607ff4)">
     <use style="fill:#0000ff;stroke:#0000ff;" x="0" xlink:href="#m04344ff1a0" y="324"/>
    </g>
   </g>
   <g id="PolyCollection_62">
    <defs>
     <path d="M 589.125 -40.5 
L 589.125 -46.937368 
L 596.875 -43.718684 
L 596.875 -40.5 
L 596.875 -40.5 
L 589.125 -40.5 
z
" id="m37756a2c7f" style="stroke:#0000ff;"/>
    </defs>
    <g clip-path="url(#p87ba607ff4)">
     <use style="fill:#0000ff;stroke:#0000ff;" x="0" xlink:href="#m37756a2c7f" y="324"/>
    </g>
   </g>
   <g id="PolyCollection_63">
    <defs>
     <path d="M 596.875 -40.5 
L 596.875 -43.718684 
L 635.625 -43.718684 
L 635.625 -40.5 
L 635.625 -40.5 
L 596.875 -40.5 
z
" id="m53813e76c8" style="stroke:#0000ff;"/>
    </defs>
    <g clip-path="url(#p87ba607ff4)">
     <use style="fill:#0000ff;stroke:#0000ff;" x="0" xlink:href="#m53813e76c8" y="324"/>
    </g>
   </g>
   <g id="PolyCollection_64">
    <defs>
     <path d="M 635.625 -40.5 
L 635.625 -43.718684 
L 645.3125 -46.937368 
L 645.3125 -40.5 
L 645.3125 -40.5 
L 635.625 -40.5 
z
" id="m452ce64c31" style="stroke:#0000ff;"/>
    </defs>
    <g clip-path="url(#p87ba607ff4)">
     <use style="fill:#0000ff;stroke:#0000ff;" x="0" xlink:href="#m452ce64c31" y="324"/>
    </g>
   </g>
   <g id="PolyCollection_65">
    <defs>
     <path d="M 645.3125 -40.5 
L 645.3125 -46.937368 
L 651.125 -43.718684 
L 651.125 -40.5 
L 651.125 -40.5 
L 645.3125 -40.5 
z
" id="m85df84fb12" style="stroke:#0000ff;"/>
    </defs>
    <g clip-path="url(#p87ba607ff4)">
     <use style="fill:#0000ff;stroke:#0000ff;" x="0" xlink:href="#m85df84fb12" y="324"/>
    </g>
   </g>
   <g id="PolyCollection_66">
    <defs>
     <path d="M 651.125 -40.5 
L 651.125 -43.718684 
L 761.5625 -43.718684 
L 761.5625 -40.5 
L 761.5625 -40.5 
L 651.125 -40.5 
z
" id="m26863fd6cc" style="stroke:#0000ff;"/>
    </defs>
    <g clip-path="url(#p87ba607ff4)">
     <use style="fill:#0000ff;stroke:#0000ff;" x="0" xlink:href="#m26863fd6cc" y="324"/>
    </g>
   </g>
   <g id="PolyCollection_67">
    <defs>
     <path d="M 761.5625 -40.5 
L 761.5625 -43.718684 
L 772.21875 -48.546711 
L 772.21875 -40.5 
L 772.21875 -40.5 
L 761.5625 -40.5 
z
" id="m1c01bc0d97" style="stroke:#0000ff;"/>
    </defs>
    <g clip-path="url(#p87ba607ff4)">
     <use style="fill:#0000ff;stroke:#0000ff;" x="0" xlink:href="#m1c01bc0d97" y="324"/>
    </g>
   </g>
   <g id="PolyCollection_68">
    <defs>
     <path d="M 772.21875 -40.5 
L 772.21875 -48.546711 
L 779 -43.718684 
L 779 -40.5 
L 779 -40.5 
L 772.21875 -40.5 
z
" id="mc3e7401b4d" style="stroke:#0000ff;"/>
    </defs>
    <g clip-path="url(#p87ba607ff4)">
     <use style="fill:#0000ff;stroke:#0000ff;" x="0" xlink:href="#mc3e7401b4d" y="324"/>
    </g>
   </g>
   <g id="PolyCollection_69">
    <defs>
     <path d="M 779 -40.5 
L 779 -43.718684 
L 788.6875 -43.718684 
L 788.6875 -40.5 
L 788.6875 -40.5 
L 779 -40.5 
z
" id="m2b379e6136" style="stroke:#0000ff;"/>
    </defs>
    <g clip-path="url(#p87ba607ff4)">
     <use style="fill:#0000ff;stroke:#0000ff;" x="0" xlink:href="#m2b379e6136" y="324"/>
    </g>
   </g>
   <g id="matplotlib.axis_1">
    <g id="xtick_1">
     <g id="line2d_1">
      <defs>
       <path d="M 0 0 
L 0 3.5 
" id="mf90216f079" style="stroke:#000000;stroke-width:0.8;"/>
      </defs>
      <g>
       <use style="stroke:#000000;stroke-width:0.8;" x="112.5" xlink:href="#mf90216f079" y="283.5"/>
      </g>
     </g>
     <g id="text_1">
      <!-- 0 -->
      <g transform="translate(106.1375 305.696875)scale(0.2 -0.2)">
       <defs>
        <path d="M 31.78125 66.40625 
Q 24.171875 66.40625 20.328125 58.90625 
Q 16.5 51.421875 16.5 36.375 
Q 16.5 21.390625 20.328125 13.890625 
Q 24.171875 6.390625 31.78125 6.390625 
Q 39.453125 6.390625 43.28125 13.890625 
Q 47.125 21.390625 47.125 36.375 
Q 47.125 51.421875 43.28125 58.90625 
Q 39.453125 66.40625 31.78125 66.40625 
z
M 31.78125 74.21875 
Q 44.046875 74.21875 50.515625 64.515625 
Q 56.984375 54.828125 56.984375 36.375 
Q 56.984375 17.96875 50.515625 8.265625 
Q 44.046875 -1.421875 31.78125 -1.421875 
Q 19.53125 -1.421875 13.0625 8.265625 
Q 6.59375 17.96875 6.59375 36.375 
Q 6.59375 54.828125 13.0625 64.515625 
Q 19.53125 74.21875 31.78125 74.21875 
z
" id="DejaVuSans-48"/>
       </defs>
       <use xlink:href="#DejaVuSans-48"/>
      </g>
     </g>
    </g>
    <g id="xtick_2">
     <g id="line2d_2">
      <g>
       <use style="stroke:#000000;stroke-width:0.8;" x="209.375" xlink:href="#mf90216f079" y="283.5"/>
      </g>
     </g>
     <g id="text_2">
      <!-- 50 -->
      <g transform="translate(196.65 305.696875)scale(0.2 -0.2)">
       <defs>
        <path d="M 10.796875 72.90625 
L 49.515625 72.90625 
L 49.515625 64.59375 
L 19.828125 64.59375 
L 19.828125 46.734375 
Q 21.96875 47.46875 24.109375 47.828125 
Q 26.265625 48.1875 28.421875 48.1875 
Q 40.625 48.1875 47.75 41.5 
Q 54.890625 34.8125 54.890625 23.390625 
Q 54.890625 11.625 47.5625 5.09375 
Q 40.234375 -1.421875 26.90625 -1.421875 
Q 22.3125 -1.421875 17.546875 -0.640625 
Q 12.796875 0.140625 7.71875 1.703125 
L 7.71875 11.625 
Q 12.109375 9.234375 16.796875 8.0625 
Q 21.484375 6.890625 26.703125 6.890625 
Q 35.15625 6.890625 40.078125 11.328125 
Q 45.015625 15.765625 45.015625 23.390625 
Q 45.015625 31 40.078125 35.4375 
Q 35.15625 39.890625 26.703125 39.890625 
Q 22.75 39.890625 18.8125 39.015625 
Q 14.890625 38.140625 10.796875 36.28125 
z
" id="DejaVuSans-53"/>
       </defs>
       <use xlink:href="#DejaVuSans-53"/>
       <use x="63.623047" xlink:href="#DejaVuSans-48"/>
      </g>
     </g>
    </g>
    <g id="xtick_3">
     <g id="line2d_3">
      <g>
       <use style="stroke:#000000;stroke-width:0.8;" x="306.25" xlink:href="#mf90216f079" y="283.5"/>
      </g>
     </g>
     <g id="text_3">
      <!-- 100 -->
      <g transform="translate(287.1625 305.696875)scale(0.2 -0.2)">
       <defs>
        <path d="M 12.40625 8.296875 
L 28.515625 8.296875 
L 28.515625 63.921875 
L 10.984375 60.40625 
L 10.984375 69.390625 
L 28.421875 72.90625 
L 38.28125 72.90625 
L 38.28125 8.296875 
L 54.390625 8.296875 
L 54.390625 0 
L 12.40625 0 
z
" id="DejaVuSans-49"/>
       </defs>
       <use xlink:href="#DejaVuSans-49"/>
       <use x="63.623047" xlink:href="#DejaVuSans-48"/>
       <use x="127.246094" xlink:href="#DejaVuSans-48"/>
      </g>
     </g>
    </g>
    <g id="xtick_4">
     <g id="line2d_4">
      <g>
       <use style="stroke:#000000;stroke-width:0.8;" x="403.125" xlink:href="#mf90216f079" y="283.5"/>
      </g>
     </g>
     <g id="text_4">
      <!-- 150 -->
      <g transform="translate(384.0375 305.696875)scale(0.2 -0.2)">
       <use xlink:href="#DejaVuSans-49"/>
       <use x="63.623047" xlink:href="#DejaVuSans-53"/>
       <use x="127.246094" xlink:href="#DejaVuSans-48"/>
      </g>
     </g>
    </g>
    <g id="xtick_5">
     <g id="line2d_5">
      <g>
       <use style="stroke:#000000;stroke-width:0.8;" x="500" xlink:href="#mf90216f079" y="283.5"/>
      </g>
     </g>
     <g id="text_5">
      <!-- 200 -->
      <g transform="translate(480.9125 305.696875)scale(0.2 -0.2)">
       <defs>
        <path d="M 19.1875 8.296875 
L 53.609375 8.296875 
L 53.609375 0 
L 7.328125 0 
L 7.328125 8.296875 
Q 12.9375 14.109375 22.625 23.890625 
Q 32.328125 33.6875 34.8125 36.53125 
Q 39.546875 41.84375 41.421875 45.53125 
Q 43.3125 49.21875 43.3125 52.78125 
Q 43.3125 58.59375 39.234375 62.25 
Q 35.15625 65.921875 28.609375 65.921875 
Q 23.96875 65.921875 18.8125 64.3125 
Q 13.671875 62.703125 7.8125 59.421875 
L 7.8125 69.390625 
Q 13.765625 71.78125 18.9375 73 
Q 24.125 74.21875 28.421875 74.21875 
Q 39.75 74.21875 46.484375 68.546875 
Q 53.21875 62.890625 53.21875 53.421875 
Q 53.21875 48.921875 51.53125 44.890625 
Q 49.859375 40.875 45.40625 35.40625 
Q 44.1875 33.984375 37.640625 27.21875 
Q 31.109375 20.453125 19.1875 8.296875 
z
" id="DejaVuSans-50"/>
       </defs>
       <use xlink:href="#DejaVuSans-50"/>
       <use x="63.623047" xlink:href="#DejaVuSans-48"/>
       <use x="127.246094" xlink:href="#DejaVuSans-48"/>
      </g>
     </g>
    </g>
    <g id="xtick_6">
     <g id="line2d_6">
      <g>
       <use style="stroke:#000000;stroke-width:0.8;" x="596.875" xlink:href="#mf90216f079" y="283.5"/>
      </g>
     </g>
     <g id="text_6">
      <!-- 250 -->
      <g transform="translate(577.7875 305.696875)scale(0.2 -0.2)">
       <use xlink:href="#DejaVuSans-50"/>
       <use x="63.623047" xlink:href="#DejaVuSans-53"/>
       <use x="127.246094" xlink:href="#DejaVuSans-48"/>
      </g>
     </g>
    </g>
    <g id="xtick_7">
     <g id="line2d_7">
      <g>
       <use style="stroke:#000000;stroke-width:0.8;" x="693.75" xlink:href="#mf90216f079" y="283.5"/>
      </g>
     </g>
     <g id="text_7">
      <!-- 300 -->
      <g transform="translate(674.6625 305.696875)scale(0.2 -0.2)">
       <defs>
        <path d="M 40.578125 39.3125 
Q 47.65625 37.796875 51.625 33 
Q 55.609375 28.21875 55.609375 21.1875 
Q 55.609375 10.40625 48.1875 4.484375 
Q 40.765625 -1.421875 27.09375 -1.421875 
Q 22.515625 -1.421875 17.65625 -0.515625 
Q 12.796875 0.390625 7.625 2.203125 
L 7.625 11.71875 
Q 11.71875 9.328125 16.59375 8.109375 
Q 21.484375 6.890625 26.8125 6.890625 
Q 36.078125 6.890625 40.9375 10.546875 
Q 45.796875 14.203125 45.796875 21.1875 
Q 45.796875 27.640625 41.28125 31.265625 
Q 36.765625 34.90625 28.71875 34.90625 
L 20.21875 34.90625 
L 20.21875 43.015625 
L 29.109375 43.015625 
Q 36.375 43.015625 40.234375 45.921875 
Q 44.09375 48.828125 44.09375 54.296875 
Q 44.09375 59.90625 40.109375 62.90625 
Q 36.140625 65.921875 28.71875 65.921875 
Q 24.65625 65.921875 20.015625 65.03125 
Q 15.375 64.15625 9.8125 62.3125 
L 9.8125 71.09375 
Q 15.4375 72.65625 20.34375 73.4375 
Q 25.25 74.21875 29.59375 74.21875 
Q 40.828125 74.21875 47.359375 69.109375 
Q 53.90625 64.015625 53.90625 55.328125 
Q 53.90625 49.265625 50.4375 45.09375 
Q 46.96875 40.921875 40.578125 39.3125 
z
" id="DejaVuSans-51"/>
       </defs>
       <use xlink:href="#DejaVuSans-51"/>
       <use x="63.623047" xlink:href="#DejaVuSans-48"/>
       <use x="127.246094" xlink:href="#DejaVuSans-48"/>
      </g>
     </g>
    </g>
    <g id="xtick_8">
     <g id="line2d_8">
      <g>
       <use style="stroke:#000000;stroke-width:0.8;" x="790.625" xlink:href="#mf90216f079" y="283.5"/>
      </g>
     </g>
     <g id="text_8">
      <!-- 350 -->
      <g transform="translate(771.5375 305.696875)scale(0.2 -0.2)">
       <use xlink:href="#DejaVuSans-51"/>
       <use x="63.623047" xlink:href="#DejaVuSans-53"/>
       <use x="127.246094" xlink:href="#DejaVuSans-48"/>
      </g>
     </g>
    </g>
    <g id="text_9">
     <!-- Genome length (kbp) -->
     <g transform="translate(354.476562 329.053125)scale(0.2 -0.2)">
      <defs>
       <path d="M 59.515625 10.40625 
L 59.515625 29.984375 
L 43.40625 29.984375 
L 43.40625 38.09375 
L 69.28125 38.09375 
L 69.28125 6.78125 
Q 63.578125 2.734375 56.6875 0.65625 
Q 49.8125 -1.421875 42 -1.421875 
Q 24.90625 -1.421875 15.25 8.5625 
Q 5.609375 18.5625 5.609375 36.375 
Q 5.609375 54.25 15.25 64.234375 
Q 24.90625 74.21875 42 74.21875 
Q 49.125 74.21875 55.546875 72.453125 
Q 61.96875 70.703125 67.390625 67.28125 
L 67.390625 56.78125 
Q 61.921875 61.421875 55.765625 63.765625 
Q 49.609375 66.109375 42.828125 66.109375 
Q 29.4375 66.109375 22.71875 58.640625 
Q 16.015625 51.171875 16.015625 36.375 
Q 16.015625 21.625 22.71875 14.15625 
Q 29.4375 6.6875 42.828125 6.6875 
Q 48.046875 6.6875 52.140625 7.59375 
Q 56.25 8.5 59.515625 10.40625 
z
" id="DejaVuSans-71"/>
       <path d="M 56.203125 29.59375 
L 56.203125 25.203125 
L 14.890625 25.203125 
Q 15.484375 15.921875 20.484375 11.0625 
Q 25.484375 6.203125 34.421875 6.203125 
Q 39.59375 6.203125 44.453125 7.46875 
Q 49.3125 8.734375 54.109375 11.28125 
L 54.109375 2.78125 
Q 49.265625 0.734375 44.1875 -0.34375 
Q 39.109375 -1.421875 33.890625 -1.421875 
Q 20.796875 -1.421875 13.15625 6.1875 
Q 5.515625 13.8125 5.515625 26.8125 
Q 5.515625 40.234375 12.765625 48.109375 
Q 20.015625 56 32.328125 56 
Q 43.359375 56 49.78125 48.890625 
Q 56.203125 41.796875 56.203125 29.59375 
z
M 47.21875 32.234375 
Q 47.125 39.59375 43.09375 43.984375 
Q 39.0625 48.390625 32.421875 48.390625 
Q 24.90625 48.390625 20.390625 44.140625 
Q 15.875 39.890625 15.1875 32.171875 
z
" id="DejaVuSans-101"/>
       <path d="M 54.890625 33.015625 
L 54.890625 0 
L 45.90625 0 
L 45.90625 32.71875 
Q 45.90625 40.484375 42.875 44.328125 
Q 39.84375 48.1875 33.796875 48.1875 
Q 26.515625 48.1875 22.3125 43.546875 
Q 18.109375 38.921875 18.109375 30.90625 
L 18.109375 0 
L 9.078125 0 
L 9.078125 54.6875 
L 18.109375 54.6875 
L 18.109375 46.1875 
Q 21.34375 51.125 25.703125 53.5625 
Q 30.078125 56 35.796875 56 
Q 45.21875 56 50.046875 50.171875 
Q 54.890625 44.34375 54.890625 33.015625 
z
" id="DejaVuSans-110"/>
       <path d="M 30.609375 48.390625 
Q 23.390625 48.390625 19.1875 42.75 
Q 14.984375 37.109375 14.984375 27.296875 
Q 14.984375 17.484375 19.15625 11.84375 
Q 23.34375 6.203125 30.609375 6.203125 
Q 37.796875 6.203125 41.984375 11.859375 
Q 46.1875 17.53125 46.1875 27.296875 
Q 46.1875 37.015625 41.984375 42.703125 
Q 37.796875 48.390625 30.609375 48.390625 
z
M 30.609375 56 
Q 42.328125 56 49.015625 48.375 
Q 55.71875 40.765625 55.71875 27.296875 
Q 55.71875 13.875 49.015625 6.21875 
Q 42.328125 -1.421875 30.609375 -1.421875 
Q 18.84375 -1.421875 12.171875 6.21875 
Q 5.515625 13.875 5.515625 27.296875 
Q 5.515625 40.765625 12.171875 48.375 
Q 18.84375 56 30.609375 56 
z
" id="DejaVuSans-111"/>
       <path d="M 52 44.1875 
Q 55.375 50.25 60.0625 53.125 
Q 64.75 56 71.09375 56 
Q 79.640625 56 84.28125 50.015625 
Q 88.921875 44.046875 88.921875 33.015625 
L 88.921875 0 
L 79.890625 0 
L 79.890625 32.71875 
Q 79.890625 40.578125 77.09375 44.375 
Q 74.3125 48.1875 68.609375 48.1875 
Q 61.625 48.1875 57.5625 43.546875 
Q 53.515625 38.921875 53.515625 30.90625 
L 53.515625 0 
L 44.484375 0 
L 44.484375 32.71875 
Q 44.484375 40.625 41.703125 44.40625 
Q 38.921875 48.1875 33.109375 48.1875 
Q 26.21875 48.1875 22.15625 43.53125 
Q 18.109375 38.875 18.109375 30.90625 
L 18.109375 0 
L 9.078125 0 
L 9.078125 54.6875 
L 18.109375 54.6875 
L 18.109375 46.1875 
Q 21.1875 51.21875 25.484375 53.609375 
Q 29.78125 56 35.6875 56 
Q 41.65625 56 45.828125 52.96875 
Q 50 49.953125 52 44.1875 
z
" id="DejaVuSans-109"/>
       <path id="DejaVuSans-32"/>
       <path d="M 9.421875 75.984375 
L 18.40625 75.984375 
L 18.40625 0 
L 9.421875 0 
z
" id="DejaVuSans-108"/>
       <path d="M 45.40625 27.984375 
Q 45.40625 37.75 41.375 43.109375 
Q 37.359375 48.484375 30.078125 48.484375 
Q 22.859375 48.484375 18.828125 43.109375 
Q 14.796875 37.75 14.796875 27.984375 
Q 14.796875 18.265625 18.828125 12.890625 
Q 22.859375 7.515625 30.078125 7.515625 
Q 37.359375 7.515625 41.375 12.890625 
Q 45.40625 18.265625 45.40625 27.984375 
z
M 54.390625 6.78125 
Q 54.390625 -7.171875 48.1875 -13.984375 
Q 42 -20.796875 29.203125 -20.796875 
Q 24.46875 -20.796875 20.265625 -20.09375 
Q 16.0625 -19.390625 12.109375 -17.921875 
L 12.109375 -9.1875 
Q 16.0625 -11.328125 19.921875 -12.34375 
Q 23.78125 -13.375 27.78125 -13.375 
Q 36.625 -13.375 41.015625 -8.765625 
Q 45.40625 -4.15625 45.40625 5.171875 
L 45.40625 9.625 
Q 42.625 4.78125 38.28125 2.390625 
Q 33.9375 0 27.875 0 
Q 17.828125 0 11.671875 7.65625 
Q 5.515625 15.328125 5.515625 27.984375 
Q 5.515625 40.671875 11.671875 48.328125 
Q 17.828125 56 27.875 56 
Q 33.9375 56 38.28125 53.609375 
Q 42.625 51.21875 45.40625 46.390625 
L 45.40625 54.6875 
L 54.390625 54.6875 
z
" id="DejaVuSans-103"/>
       <path d="M 18.3125 70.21875 
L 18.3125 54.6875 
L 36.8125 54.6875 
L 36.8125 47.703125 
L 18.3125 47.703125 
L 18.3125 18.015625 
Q 18.3125 11.328125 20.140625 9.421875 
Q 21.96875 7.515625 27.59375 7.515625 
L 36.8125 7.515625 
L 36.8125 0 
L 27.59375 0 
Q 17.1875 0 13.234375 3.875 
Q 9.28125 7.765625 9.28125 18.015625 
L 9.28125 47.703125 
L 2.6875 47.703125 
L 2.6875 54.6875 
L 9.28125 54.6875 
L 9.28125 70.21875 
z
" id="DejaVuSans-116"/>
       <path d="M 54.890625 33.015625 
L 54.890625 0 
L 45.90625 0 
L 45.90625 32.71875 
Q 45.90625 40.484375 42.875 44.328125 
Q 39.84375 48.1875 33.796875 48.1875 
Q 26.515625 48.1875 22.3125 43.546875 
Q 18.109375 38.921875 18.109375 30.90625 
L 18.109375 0 
L 9.078125 0 
L 9.078125 75.984375 
L 18.109375 75.984375 
L 18.109375 46.1875 
Q 21.34375 51.125 25.703125 53.5625 
Q 30.078125 56 35.796875 56 
Q 45.21875 56 50.046875 50.171875 
Q 54.890625 44.34375 54.890625 33.015625 
z
" id="DejaVuSans-104"/>
       <path d="M 31 75.875 
Q 24.46875 64.65625 21.28125 53.65625 
Q 18.109375 42.671875 18.109375 31.390625 
Q 18.109375 20.125 21.3125 9.0625 
Q 24.515625 -2 31 -13.1875 
L 23.1875 -13.1875 
Q 15.875 -1.703125 12.234375 9.375 
Q 8.59375 20.453125 8.59375 31.390625 
Q 8.59375 42.28125 12.203125 53.3125 
Q 15.828125 64.359375 23.1875 75.875 
z
" id="DejaVuSans-40"/>
       <path d="M 9.078125 75.984375 
L 18.109375 75.984375 
L 18.109375 31.109375 
L 44.921875 54.6875 
L 56.390625 54.6875 
L 27.390625 29.109375 
L 57.625 0 
L 45.90625 0 
L 18.109375 26.703125 
L 18.109375 0 
L 9.078125 0 
z
" id="DejaVuSans-107"/>
       <path d="M 48.6875 27.296875 
Q 48.6875 37.203125 44.609375 42.84375 
Q 40.53125 48.484375 33.40625 48.484375 
Q 26.265625 48.484375 22.1875 42.84375 
Q 18.109375 37.203125 18.109375 27.296875 
Q 18.109375 17.390625 22.1875 11.75 
Q 26.265625 6.109375 33.40625 6.109375 
Q 40.53125 6.109375 44.609375 11.75 
Q 48.6875 17.390625 48.6875 27.296875 
z
M 18.109375 46.390625 
Q 20.953125 51.265625 25.265625 53.625 
Q 29.59375 56 35.59375 56 
Q 45.5625 56 51.78125 48.09375 
Q 58.015625 40.1875 58.015625 27.296875 
Q 58.015625 14.40625 51.78125 6.484375 
Q 45.5625 -1.421875 35.59375 -1.421875 
Q 29.59375 -1.421875 25.265625 0.953125 
Q 20.953125 3.328125 18.109375 8.203125 
L 18.109375 0 
L 9.078125 0 
L 9.078125 75.984375 
L 18.109375 75.984375 
z
" id="DejaVuSans-98"/>
       <path d="M 18.109375 8.203125 
L 18.109375 -20.796875 
L 9.078125 -20.796875 
L 9.078125 54.6875 
L 18.109375 54.6875 
L 18.109375 46.390625 
Q 20.953125 51.265625 25.265625 53.625 
Q 29.59375 56 35.59375 56 
Q 45.5625 56 51.78125 48.09375 
Q 58.015625 40.1875 58.015625 27.296875 
Q 58.015625 14.40625 51.78125 6.484375 
Q 45.5625 -1.421875 35.59375 -1.421875 
Q 29.59375 -1.421875 25.265625 0.953125 
Q 20.953125 3.328125 18.109375 8.203125 
z
M 48.6875 27.296875 
Q 48.6875 37.203125 44.609375 42.84375 
Q 40.53125 48.484375 33.40625 48.484375 
Q 26.265625 48.484375 22.1875 42.84375 
Q 18.109375 37.203125 18.109375 27.296875 
Q 18.109375 17.390625 22.1875 11.75 
Q 26.265625 6.109375 33.40625 6.109375 
Q 40.53125 6.109375 44.609375 11.75 
Q 48.6875 17.390625 48.6875 27.296875 
z
" id="DejaVuSans-112"/>
       <path d="M 8.015625 75.875 
L 15.828125 75.875 
Q 23.140625 64.359375 26.78125 53.3125 
Q 30.421875 42.28125 30.421875 31.390625 
Q 30.421875 20.453125 26.78125 9.375 
Q 23.140625 -1.703125 15.828125 -13.1875 
L 8.015625 -13.1875 
Q 14.5 -2 17.703125 9.0625 
Q 20.90625 20.125 20.90625 31.390625 
Q 20.90625 42.671875 17.703125 53.65625 
Q 14.5 64.65625 8.015625 75.875 
z
" id="DejaVuSans-41"/>
      </defs>
      <use xlink:href="#DejaVuSans-71"/>
      <use x="77.490234" xlink:href="#DejaVuSans-101"/>
      <use x="139.013672" xlink:href="#DejaVuSans-110"/>
      <use x="202.392578" xlink:href="#DejaVuSans-111"/>
      <use x="263.574219" xlink:href="#DejaVuSans-109"/>
      <use x="360.986328" xlink:href="#DejaVuSans-101"/>
      <use x="422.509766" xlink:href="#DejaVuSans-32"/>
      <use x="454.296875" xlink:href="#DejaVuSans-108"/>
      <use x="482.080078" xlink:href="#DejaVuSans-101"/>
      <use x="543.603516" xlink:href="#DejaVuSans-110"/>
      <use x="606.982422" xlink:href="#DejaVuSans-103"/>
      <use x="670.458984" xlink:href="#DejaVuSans-116"/>
      <use x="709.667969" xlink:href="#DejaVuSans-104"/>
      <use x="773.046875" xlink:href="#DejaVuSans-32"/>
      <use x="804.833984" xlink:href="#DejaVuSans-40"/>
      <use x="843.847656" xlink:href="#DejaVuSans-107"/>
      <use x="901.757812" xlink:href="#DejaVuSans-98"/>
      <use x="965.234375" xlink:href="#DejaVuSans-112"/>
      <use x="1028.710938" xlink:href="#DejaVuSans-41"/>
     </g>
    </g>
   </g>
   <g id="matplotlib.axis_2">
    <g id="ytick_1">
     <g id="line2d_9">
      <defs>
       <path d="M 0 0 
L -3.5 0 
" id="m6e7e6fe7b8" style="stroke:#000000;stroke-width:0.8;"/>
      </defs>
      <g>
       <use style="stroke:#000000;stroke-width:0.8;" x="112.5" xlink:href="#m6e7e6fe7b8" y="280.281316"/>
      </g>
     </g>
     <g id="text_10">
      <!-- 0.000 -->
      <g transform="translate(48.24375 287.879753)scale(0.2 -0.2)">
       <defs>
        <path d="M 10.6875 12.40625 
L 21 12.40625 
L 21 0 
L 10.6875 0 
z
" id="DejaVuSans-46"/>
       </defs>
       <use xlink:href="#DejaVuSans-48"/>
       <use x="63.623047" xlink:href="#DejaVuSans-46"/>
       <use x="95.410156" xlink:href="#DejaVuSans-48"/>
       <use x="159.033203" xlink:href="#DejaVuSans-48"/>
       <use x="222.65625" xlink:href="#DejaVuSans-48"/>
      </g>
     </g>
    </g>
    <g id="ytick_2">
     <g id="line2d_10">
      <g>
       <use style="stroke:#000000;stroke-width:0.8;" x="112.5" xlink:href="#m6e7e6fe7b8" y="248.094474"/>
      </g>
     </g>
     <g id="text_11">
      <!-- 0.005 -->
      <g transform="translate(48.24375 255.692911)scale(0.2 -0.2)">
       <use xlink:href="#DejaVuSans-48"/>
       <use x="63.623047" xlink:href="#DejaVuSans-46"/>
       <use x="95.410156" xlink:href="#DejaVuSans-48"/>
       <use x="159.033203" xlink:href="#DejaVuSans-48"/>
       <use x="222.65625" xlink:href="#DejaVuSans-53"/>
      </g>
     </g>
    </g>
    <g id="ytick_3">
     <g id="line2d_11">
      <g>
       <use style="stroke:#000000;stroke-width:0.8;" x="112.5" xlink:href="#m6e7e6fe7b8" y="215.907632"/>
      </g>
     </g>
     <g id="text_12">
      <!-- 0.010 -->
      <g transform="translate(48.24375 223.506069)scale(0.2 -0.2)">
       <use xlink:href="#DejaVuSans-48"/>
       <use x="63.623047" xlink:href="#DejaVuSans-46"/>
       <use x="95.410156" xlink:href="#DejaVuSans-48"/>
       <use x="159.033203" xlink:href="#DejaVuSans-49"/>
       <use x="222.65625" xlink:href="#DejaVuSans-48"/>
      </g>
     </g>
    </g>
    <g id="ytick_4">
     <g id="line2d_12">
      <g>
       <use style="stroke:#000000;stroke-width:0.8;" x="112.5" xlink:href="#m6e7e6fe7b8" y="183.720789"/>
      </g>
     </g>
     <g id="text_13">
      <!-- 0.015 -->
      <g transform="translate(48.24375 191.319227)scale(0.2 -0.2)">
       <use xlink:href="#DejaVuSans-48"/>
       <use x="63.623047" xlink:href="#DejaVuSans-46"/>
       <use x="95.410156" xlink:href="#DejaVuSans-48"/>
       <use x="159.033203" xlink:href="#DejaVuSans-49"/>
       <use x="222.65625" xlink:href="#DejaVuSans-53"/>
      </g>
     </g>
    </g>
    <g id="ytick_5">
     <g id="line2d_13">
      <g>
       <use style="stroke:#000000;stroke-width:0.8;" x="112.5" xlink:href="#m6e7e6fe7b8" y="151.533947"/>
      </g>
     </g>
     <g id="text_14">
      <!-- 0.020 -->
      <g transform="translate(48.24375 159.132385)scale(0.2 -0.2)">
       <use xlink:href="#DejaVuSans-48"/>
       <use x="63.623047" xlink:href="#DejaVuSans-46"/>
       <use x="95.410156" xlink:href="#DejaVuSans-48"/>
       <use x="159.033203" xlink:href="#DejaVuSans-50"/>
       <use x="222.65625" xlink:href="#DejaVuSans-48"/>
      </g>
     </g>
    </g>
    <g id="ytick_6">
     <g id="line2d_14">
      <g>
       <use style="stroke:#000000;stroke-width:0.8;" x="112.5" xlink:href="#m6e7e6fe7b8" y="119.347105"/>
      </g>
     </g>
     <g id="text_15">
      <!-- 0.025 -->
      <g transform="translate(48.24375 126.945543)scale(0.2 -0.2)">
       <use xlink:href="#DejaVuSans-48"/>
       <use x="63.623047" xlink:href="#DejaVuSans-46"/>
       <use x="95.410156" xlink:href="#DejaVuSans-48"/>
       <use x="159.033203" xlink:href="#DejaVuSans-50"/>
       <use x="222.65625" xlink:href="#DejaVuSans-53"/>
      </g>
     </g>
    </g>
    <g id="ytick_7">
     <g id="line2d_15">
      <g>
       <use style="stroke:#000000;stroke-width:0.8;" x="112.5" xlink:href="#m6e7e6fe7b8" y="87.160263"/>
      </g>
     </g>
     <g id="text_16">
      <!-- 0.030 -->
      <g transform="translate(48.24375 94.758701)scale(0.2 -0.2)">
       <use xlink:href="#DejaVuSans-48"/>
       <use x="63.623047" xlink:href="#DejaVuSans-46"/>
       <use x="95.410156" xlink:href="#DejaVuSans-48"/>
       <use x="159.033203" xlink:href="#DejaVuSans-51"/>
       <use x="222.65625" xlink:href="#DejaVuSans-48"/>
      </g>
     </g>
    </g>
    <g id="ytick_8">
     <g id="line2d_16">
      <g>
       <use style="stroke:#000000;stroke-width:0.8;" x="112.5" xlink:href="#m6e7e6fe7b8" y="54.973421"/>
      </g>
     </g>
     <g id="text_17">
      <!-- 0.035 -->
      <g transform="translate(48.24375 62.571859)scale(0.2 -0.2)">
       <use xlink:href="#DejaVuSans-48"/>
       <use x="63.623047" xlink:href="#DejaVuSans-46"/>
       <use x="95.410156" xlink:href="#DejaVuSans-48"/>
       <use x="159.033203" xlink:href="#DejaVuSans-51"/>
       <use x="222.65625" xlink:href="#DejaVuSans-53"/>
      </g>
     </g>
    </g>
    <g id="text_18">
     <!-- Density distribution -->
     <g transform="translate(40.084375 259.37125)rotate(-90)scale(0.2 -0.2)">
      <defs>
       <path d="M 19.671875 64.796875 
L 19.671875 8.109375 
L 31.59375 8.109375 
Q 46.6875 8.109375 53.6875 14.9375 
Q 60.6875 21.78125 60.6875 36.53125 
Q 60.6875 51.171875 53.6875 57.984375 
Q 46.6875 64.796875 31.59375 64.796875 
z
M 9.8125 72.90625 
L 30.078125 72.90625 
Q 51.265625 72.90625 61.171875 64.09375 
Q 71.09375 55.28125 71.09375 36.53125 
Q 71.09375 17.671875 61.125 8.828125 
Q 51.171875 0 30.078125 0 
L 9.8125 0 
z
" id="DejaVuSans-68"/>
       <path d="M 44.28125 53.078125 
L 44.28125 44.578125 
Q 40.484375 46.53125 36.375 47.5 
Q 32.28125 48.484375 27.875 48.484375 
Q 21.1875 48.484375 17.84375 46.4375 
Q 14.5 44.390625 14.5 40.28125 
Q 14.5 37.15625 16.890625 35.375 
Q 19.28125 33.59375 26.515625 31.984375 
L 29.59375 31.296875 
Q 39.15625 29.25 43.1875 25.515625 
Q 47.21875 21.78125 47.21875 15.09375 
Q 47.21875 7.46875 41.1875 3.015625 
Q 35.15625 -1.421875 24.609375 -1.421875 
Q 20.21875 -1.421875 15.453125 -0.5625 
Q 10.6875 0.296875 5.421875 2 
L 5.421875 11.28125 
Q 10.40625 8.6875 15.234375 7.390625 
Q 20.0625 6.109375 24.8125 6.109375 
Q 31.15625 6.109375 34.5625 8.28125 
Q 37.984375 10.453125 37.984375 14.40625 
Q 37.984375 18.0625 35.515625 20.015625 
Q 33.0625 21.96875 24.703125 23.78125 
L 21.578125 24.515625 
Q 13.234375 26.265625 9.515625 29.90625 
Q 5.8125 33.546875 5.8125 39.890625 
Q 5.8125 47.609375 11.28125 51.796875 
Q 16.75 56 26.8125 56 
Q 31.78125 56 36.171875 55.265625 
Q 40.578125 54.546875 44.28125 53.078125 
z
" id="DejaVuSans-115"/>
       <path d="M 9.421875 54.6875 
L 18.40625 54.6875 
L 18.40625 0 
L 9.421875 0 
z
M 9.421875 75.984375 
L 18.40625 75.984375 
L 18.40625 64.59375 
L 9.421875 64.59375 
z
" id="DejaVuSans-105"/>
       <path d="M 32.171875 -5.078125 
Q 28.375 -14.84375 24.75 -17.8125 
Q 21.140625 -20.796875 15.09375 -20.796875 
L 7.90625 -20.796875 
L 7.90625 -13.28125 
L 13.1875 -13.28125 
Q 16.890625 -13.28125 18.9375 -11.515625 
Q 21 -9.765625 23.484375 -3.21875 
L 25.09375 0.875 
L 2.984375 54.6875 
L 12.5 54.6875 
L 29.59375 11.921875 
L 46.6875 54.6875 
L 56.203125 54.6875 
z
" id="DejaVuSans-121"/>
       <path d="M 45.40625 46.390625 
L 45.40625 75.984375 
L 54.390625 75.984375 
L 54.390625 0 
L 45.40625 0 
L 45.40625 8.203125 
Q 42.578125 3.328125 38.25 0.953125 
Q 33.9375 -1.421875 27.875 -1.421875 
Q 17.96875 -1.421875 11.734375 6.484375 
Q 5.515625 14.40625 5.515625 27.296875 
Q 5.515625 40.1875 11.734375 48.09375 
Q 17.96875 56 27.875 56 
Q 33.9375 56 38.25 53.625 
Q 42.578125 51.265625 45.40625 46.390625 
z
M 14.796875 27.296875 
Q 14.796875 17.390625 18.875 11.75 
Q 22.953125 6.109375 30.078125 6.109375 
Q 37.203125 6.109375 41.296875 11.75 
Q 45.40625 17.390625 45.40625 27.296875 
Q 45.40625 37.203125 41.296875 42.84375 
Q 37.203125 48.484375 30.078125 48.484375 
Q 22.953125 48.484375 18.875 42.84375 
Q 14.796875 37.203125 14.796875 27.296875 
z
" id="DejaVuSans-100"/>
       <path d="M 41.109375 46.296875 
Q 39.59375 47.171875 37.8125 47.578125 
Q 36.03125 48 33.890625 48 
Q 26.265625 48 22.1875 43.046875 
Q 18.109375 38.09375 18.109375 28.8125 
L 18.109375 0 
L 9.078125 0 
L 9.078125 54.6875 
L 18.109375 54.6875 
L 18.109375 46.1875 
Q 20.953125 51.171875 25.484375 53.578125 
Q 30.03125 56 36.53125 56 
Q 37.453125 56 38.578125 55.875 
Q 39.703125 55.765625 41.0625 55.515625 
z
" id="DejaVuSans-114"/>
       <path d="M 8.5 21.578125 
L 8.5 54.6875 
L 17.484375 54.6875 
L 17.484375 21.921875 
Q 17.484375 14.15625 20.5 10.265625 
Q 23.53125 6.390625 29.59375 6.390625 
Q 36.859375 6.390625 41.078125 11.03125 
Q 45.3125 15.671875 45.3125 23.6875 
L 45.3125 54.6875 
L 54.296875 54.6875 
L 54.296875 0 
L 45.3125 0 
L 45.3125 8.40625 
Q 42.046875 3.421875 37.71875 1 
Q 33.40625 -1.421875 27.6875 -1.421875 
Q 18.265625 -1.421875 13.375 4.4375 
Q 8.5 10.296875 8.5 21.578125 
z
M 31.109375 56 
z
" id="DejaVuSans-117"/>
      </defs>
      <use xlink:href="#DejaVuSans-68"/>
      <use x="77.001953" xlink:href="#DejaVuSans-101"/>
      <use x="138.525391" xlink:href="#DejaVuSans-110"/>
      <use x="201.904297" xlink:href="#DejaVuSans-115"/>
      <use x="254.003906" xlink:href="#DejaVuSans-105"/>
      <use x="281.787109" xlink:href="#DejaVuSans-116"/>
      <use x="320.996094" xlink:href="#DejaVuSans-121"/>
      <use x="380.175781" xlink:href="#DejaVuSans-32"/>
      <use x="411.962891" xlink:href="#DejaVuSans-100"/>
      <use x="475.439453" xlink:href="#DejaVuSans-105"/>
      <use x="503.222656" xlink:href="#DejaVuSans-115"/>
      <use x="555.322266" xlink:href="#DejaVuSans-116"/>
      <use x="594.53125" xlink:href="#DejaVuSans-114"/>
      <use x="635.644531" xlink:href="#DejaVuSans-105"/>
      <use x="663.427734" xlink:href="#DejaVuSans-98"/>
      <use x="726.904297" xlink:href="#DejaVuSans-117"/>
      <use x="790.283203" xlink:href="#DejaVuSans-116"/>
      <use x="829.492188" xlink:href="#DejaVuSans-105"/>
      <use x="857.275391" xlink:href="#DejaVuSans-111"/>
      <use x="918.457031" xlink:href="#DejaVuSans-110"/>
     </g>
    </g>
   </g>
   <g id="line2d_17">
    <path clip-path="url(#p87ba607ff4)" d="M 112.5 280.281316 
L 131.875 280.232221 
L 133.8125 280.04563 
L 135.75 279.379701 
L 137.6875 277.528981 
L 139.625 273.57359 
L 141.5625 267.228901 
L 143.5 259.986715 
L 145.4375 254.995175 
L 147.375 254.859897 
L 149.3125 259.348944 
L 151.25 265.62089 
L 153.1875 270.434237 
L 155.125 271.808203 
L 157.0625 269.308758 
L 159 263.745481 
L 162.875 249.732729 
L 164.8125 243.754902 
L 166.75 238.277383 
L 168.6875 231.621715 
L 170.625 221.934104 
L 172.5625 208.311515 
L 174.5 190.837717 
L 176.4375 169.843532 
L 180.3125 123.043197 
L 182.25 103.547148 
L 184.1875 88.219189 
L 186.125 74.329974 
L 188.0625 61.396578 
L 190 55.198056 
L 191.9375 63.978875 
L 193.875 90.045039 
L 197.75 160.941136 
L 199.6875 185.112224 
L 201.625 194.417625 
L 203.5625 188.996332 
L 207.4375 159.687769 
L 209.375 154.868254 
L 211.3125 163.033853 
L 213.25 180.411646 
L 215.1875 199.633533 
L 217.125 214.248578 
L 219.0625 221.688103 
L 221 223.981166 
L 222.9375 225.912817 
L 224.875 231.293848 
L 226.8125 240.18155 
L 228.75 249.715692 
L 230.6875 257.228483 
L 232.625 261.918654 
L 234.5625 264.189482 
L 236.5 264.686181 
L 238.4375 264.144077 
L 240.375 263.400891 
L 242.3125 263.056736 
L 244.25 263.027745 
L 246.1875 262.363115 
L 248.125 259.636078 
L 250.0625 254.170652 
L 252 247.479196 
L 253.9375 243.087973 
L 255.875 244.004843 
L 257.8125 250.15974 
L 259.75 258.63782 
L 261.6875 266.144128 
L 263.625 270.91648 
L 265.5625 272.94982 
L 267.5 273.303131 
L 269.4375 273.114692 
L 271.375 272.730756 
L 273.3125 271.737526 
L 277.1875 268.4139 
L 279.125 268.003116 
L 281.0625 268.789347 
L 286.875 272.191939 
L 290.75 275.975754 
L 292.6875 277.155729 
L 294.625 277.254298 
L 296.5625 276.732325 
L 298.5 276.383221 
L 300.4375 276.709301 
L 302.375 277.635259 
L 304.3125 278.708398 
L 306.25 279.509324 
L 308.1875 279.850833 
L 310.125 279.638341 
L 312.0625 278.639721 
L 314 276.502947 
L 315.9375 273.157877 
L 317.875 269.320763 
L 319.8125 266.46878 
L 321.75 265.974426 
L 323.6875 268.057749 
L 327.5625 275.052979 
L 329.5 277.294399 
L 331.4375 278.108222 
L 333.375 277.908841 
L 335.3125 277.343363 
L 337.25 276.941286 
L 339.1875 276.961038 
L 341.125 277.39896 
L 343.0625 277.990431 
L 345 278.227487 
L 346.9375 277.600308 
L 348.875 276.033512 
L 350.8125 274.064466 
L 352.75 272.264788 
L 354.6875 270.285209 
L 356.625 266.905173 
L 358.5625 261.574617 
L 360.5 255.717254 
L 362.4375 251.913396 
L 364.375 251.651425 
L 366.3125 254.115057 
L 368.25 257.14312 
L 370.1875 259.117209 
L 372.125 259.915443 
L 376 260.513209 
L 377.9375 260.629482 
L 379.875 261.064715 
L 381.8125 262.711971 
L 385.6875 268.580739 
L 387.625 270.22231 
L 389.5625 270.199551 
L 393.4375 268.25918 
L 395.375 267.585929 
L 397.3125 266.707136 
L 399.25 264.972681 
L 401.1875 261.962549 
L 403.125 257.197682 
L 405.0625 250.222812 
L 407 241.580156 
L 408.9375 233.463328 
L 410.875 228.875452 
L 412.8125 229.822899 
L 414.75 235.918794 
L 416.6875 244.205335 
L 418.625 250.4391 
L 420.5625 251.35482 
L 422.5 246.366015 
L 426.375 228.872723 
L 428.3125 223.795989 
L 430.25 224.27036 
L 432.1875 229.576863 
L 434.125 237.156386 
L 436.0625 244.120367 
L 438 248.497932 
L 439.9375 249.911789 
L 443.8125 249.065399 
L 445.75 249.999894 
L 447.6875 252.765168 
L 453.5 264.776664 
L 455.4375 267.442987 
L 459.3125 272.008392 
L 461.25 274.542904 
L 463.1875 276.83479 
L 465.125 278.344186 
L 467.0625 278.78335 
L 469 278.225209 
L 470.9375 277.124893 
L 472.875 276.231066 
L 474.8125 276.149353 
L 478.6875 277.610797 
L 480.625 277.985782 
L 484.5 278.140264 
L 486.4375 278.595985 
L 490.3125 279.777556 
L 492.25 280.093845 
L 496.125 280.269383 
L 513.5625 280.2707 
L 515.5 280.223916 
L 517.4375 280.041259 
L 519.375 279.503423 
L 521.3125 278.320952 
L 523.25 276.410087 
L 525.1875 274.199753 
L 527.125 272.462992 
L 529.0625 271.66758 
L 531 271.663874 
L 532.9375 272.096319 
L 534.875 272.83776 
L 536.8125 273.930395 
L 542.625 278.128677 
L 544.5625 278.707785 
L 546.5 278.326957 
L 548.4375 277.01051 
L 550.375 275.217594 
L 552.3125 273.751155 
L 554.25 273.314622 
L 556.1875 274.055099 
L 558.125 275.561001 
L 560.0625 277.235138 
L 562 278.622343 
L 563.9375 279.523559 
L 565.875 279.952431 
L 567.8125 279.988784 
L 569.75 279.62386 
L 571.6875 278.732862 
L 573.625 277.229639 
L 575.5625 275.311888 
L 577.5 273.584396 
L 579.4375 272.835082 
L 581.375 273.469055 
L 585.25 276.682486 
L 587.1875 277.599763 
L 593 278.534981 
L 596.875 279.737453 
L 598.8125 280.074215 
L 602.6875 280.267506 
L 622.0625 280.281315 
L 633.6875 280.181859 
L 635.625 279.974529 
L 637.5625 279.551247 
L 641.4375 278.3829 
L 643.375 278.206922 
L 645.3125 278.532615 
L 649.1875 279.71071 
L 651.125 280.060448 
L 655 280.266121 
L 674.375 280.281316 
L 757.6875 280.237379 
L 759.625 280.117677 
L 761.5625 279.80179 
L 763.5 279.160144 
L 765.4375 278.147261 
L 769.3125 275.721114 
L 771.25 275.048083 
L 773.1875 275.234057 
L 775.125 276.281388 
L 777.0625 277.732108 
L 779 278.995342 
L 780.9375 279.772971 
L 782.875 280.124778 
L 786.75 280.274381 
L 788.6875 280.280321 
L 788.6875 280.280321 
" style="fill:none;stroke:#0000ff;stroke-linecap:square;stroke-width:1.5;"/>
   </g>
   <g id="line2d_18">
    <defs>
     <path d="M -3 3 
L 3 -3 
M -3 -3 
L 3 3 
" id="md860510b0b" style="stroke:#000000;"/>
    </defs>
    <g clip-path="url(#p87ba607ff4)">
     <use style="stroke:#000000;" x="147.375" xlink:href="#md860510b0b" y="254.859897"/>
     <use style="stroke:#000000;" x="190" xlink:href="#md860510b0b" y="55.198056"/>
     <use style="stroke:#000000;" x="209.375" xlink:href="#md860510b0b" y="154.868254"/>
     <use style="stroke:#000000;" x="224.875" xlink:href="#md860510b0b" y="231.293848"/>
     <use style="stroke:#000000;" x="253.9375" xlink:href="#md860510b0b" y="243.087973"/>
     <use style="stroke:#000000;" x="279.125" xlink:href="#md860510b0b" y="268.003116"/>
     <use style="stroke:#000000;" x="298.5" xlink:href="#md860510b0b" y="276.383221"/>
     <use style="stroke:#000000;" x="321.75" xlink:href="#md860510b0b" y="265.974426"/>
     <use style="stroke:#000000;" x="337.25" xlink:href="#md860510b0b" y="276.941286"/>
     <use style="stroke:#000000;" x="364.375" xlink:href="#md860510b0b" y="251.651425"/>
     <use style="stroke:#000000;" x="410.875" xlink:href="#md860510b0b" y="228.875452"/>
     <use style="stroke:#000000;" x="428.3125" xlink:href="#md860510b0b" y="223.795989"/>
     <use style="stroke:#000000;" x="443.8125" xlink:href="#md860510b0b" y="249.065399"/>
     <use style="stroke:#000000;" x="474.8125" xlink:href="#md860510b0b" y="276.149353"/>
     <use style="stroke:#000000;" x="531" xlink:href="#md860510b0b" y="271.663874"/>
     <use style="stroke:#000000;" x="554.25" xlink:href="#md860510b0b" y="273.314622"/>
     <use style="stroke:#000000;" x="579.4375" xlink:href="#md860510b0b" y="272.835082"/>
     <use style="stroke:#000000;" x="643.375" xlink:href="#md860510b0b" y="278.206922"/>
     <use style="stroke:#000000;" x="771.25" xlink:href="#md860510b0b" y="275.048083"/>
    </g>
   </g>
   <g id="line2d_19">
    <path clip-path="url(#p87ba607ff4)" d="M 112.5 280.281316 
L 131.875 280.232221 
L 133.8125 280.04563 
L 135.75 279.379701 
L 137.6875 277.528981 
L 139.625 273.57359 
L 141.5625 267.228901 
L 143.5 259.986715 
L 145.4375 254.995175 
L 147.375 254.859897 
L 149.3125 259.348944 
L 151.25 265.62089 
L 153.1875 270.434237 
L 155.125 271.808203 
L 157.0625 269.308758 
L 159 263.745481 
L 162.875 249.732729 
L 164.8125 243.754902 
L 166.75 238.277383 
L 168.6875 231.621715 
L 170.625 221.934104 
L 172.5625 208.311515 
L 174.5 190.837717 
L 176.4375 169.843532 
L 180.3125 123.043197 
L 182.25 103.547148 
L 184.1875 88.219189 
L 186.125 74.329974 
L 188.0625 61.396578 
L 190 55.198056 
L 191.9375 63.978875 
L 193.875 90.045039 
L 197.75 160.941136 
L 199.6875 185.112224 
L 201.625 194.417625 
L 203.5625 188.996332 
L 207.4375 159.687769 
L 209.375 154.868254 
L 211.3125 163.033853 
L 213.25 180.411646 
L 215.1875 199.633533 
L 217.125 214.248578 
L 219.0625 221.688103 
L 221 223.981166 
L 222.9375 225.912817 
L 224.875 231.293848 
L 226.8125 240.18155 
L 228.75 249.715692 
L 230.6875 257.228483 
L 232.625 261.918654 
L 234.5625 264.189482 
L 236.5 264.686181 
L 238.4375 264.144077 
L 240.375 263.400891 
L 242.3125 263.056736 
L 244.25 263.027745 
L 246.1875 262.363115 
L 248.125 259.636078 
L 250.0625 254.170652 
L 252 247.479196 
L 253.9375 243.087973 
L 255.875 244.004843 
L 257.8125 250.15974 
L 259.75 258.63782 
L 261.6875 266.144128 
L 263.625 270.91648 
L 265.5625 272.94982 
L 267.5 273.303131 
L 269.4375 273.114692 
L 271.375 272.730756 
L 273.3125 271.737526 
L 277.1875 268.4139 
L 279.125 268.003116 
L 281.0625 268.789347 
L 286.875 272.191939 
L 290.75 275.975754 
L 292.6875 277.155729 
L 294.625 277.254298 
L 296.5625 276.732325 
L 298.5 276.383221 
L 300.4375 276.709301 
L 302.375 277.635259 
L 304.3125 278.708398 
L 306.25 279.509324 
L 308.1875 279.850833 
L 310.125 279.638341 
L 312.0625 278.639721 
L 314 276.502947 
L 315.9375 273.157877 
L 317.875 269.320763 
L 319.8125 266.46878 
L 321.75 265.974426 
L 323.6875 268.057749 
L 327.5625 275.052979 
L 329.5 277.294399 
L 331.4375 278.108222 
L 333.375 277.908841 
L 335.3125 277.343363 
L 337.25 276.941286 
L 339.1875 276.961038 
L 341.125 277.39896 
L 343.0625 277.990431 
L 345 278.227487 
L 346.9375 277.600308 
L 348.875 276.033512 
L 350.8125 274.064466 
L 352.75 272.264788 
L 354.6875 270.285209 
L 356.625 266.905173 
L 358.5625 261.574617 
L 360.5 255.717254 
L 362.4375 251.913396 
L 364.375 251.651425 
L 366.3125 254.115057 
L 368.25 257.14312 
L 370.1875 259.117209 
L 372.125 259.915443 
L 376 260.513209 
L 377.9375 260.629482 
L 379.875 261.064715 
L 381.8125 262.711971 
L 385.6875 268.580739 
L 387.625 270.22231 
L 389.5625 270.199551 
L 393.4375 268.25918 
L 395.375 267.585929 
L 397.3125 266.707136 
L 399.25 264.972681 
L 401.1875 261.962549 
L 403.125 257.197682 
L 405.0625 250.222812 
L 407 241.580156 
L 408.9375 233.463328 
L 410.875 228.875452 
L 412.8125 229.822899 
L 414.75 235.918794 
L 416.6875 244.205335 
L 418.625 250.4391 
L 420.5625 251.35482 
L 422.5 246.366015 
L 426.375 228.872723 
L 428.3125 223.795989 
L 430.25 224.27036 
L 432.1875 229.576863 
L 434.125 237.156386 
L 436.0625 244.120367 
L 438 248.497932 
L 439.9375 249.911789 
L 443.8125 249.065399 
L 445.75 249.999894 
L 447.6875 252.765168 
L 453.5 264.776664 
L 455.4375 267.442987 
L 459.3125 272.008392 
L 461.25 274.542904 
L 463.1875 276.83479 
L 465.125 278.344186 
L 467.0625 278.78335 
L 469 278.225209 
L 470.9375 277.124893 
L 472.875 276.231066 
L 474.8125 276.149353 
L 478.6875 277.610797 
L 480.625 277.985782 
L 484.5 278.140264 
L 486.4375 278.595985 
L 490.3125 279.777556 
L 492.25 280.093845 
L 496.125 280.269383 
L 513.5625 280.2707 
L 515.5 280.223916 
L 517.4375 280.041259 
L 519.375 279.503423 
L 521.3125 278.320952 
L 523.25 276.410087 
L 525.1875 274.199753 
L 527.125 272.462992 
L 529.0625 271.66758 
L 531 271.663874 
L 532.9375 272.096319 
L 534.875 272.83776 
L 536.8125 273.930395 
L 542.625 278.128677 
L 544.5625 278.707785 
L 546.5 278.326957 
L 548.4375 277.01051 
L 550.375 275.217594 
L 552.3125 273.751155 
L 554.25 273.314622 
L 556.1875 274.055099 
L 558.125 275.561001 
L 560.0625 277.235138 
L 562 278.622343 
L 563.9375 279.523559 
L 565.875 279.952431 
L 567.8125 279.988784 
L 569.75 279.62386 
L 571.6875 278.732862 
L 573.625 277.229639 
L 575.5625 275.311888 
L 577.5 273.584396 
L 579.4375 272.835082 
L 581.375 273.469055 
L 585.25 276.682486 
L 587.1875 277.599763 
L 593 278.534981 
L 596.875 279.737453 
L 598.8125 280.074215 
L 602.6875 280.267506 
L 622.0625 280.281315 
L 633.6875 280.181859 
L 635.625 279.974529 
L 637.5625 279.551247 
L 641.4375 278.3829 
L 643.375 278.206922 
L 645.3125 278.532615 
L 649.1875 279.71071 
L 651.125 280.060448 
L 655 280.266121 
L 674.375 280.281316 
L 757.6875 280.237379 
L 759.625 280.117677 
L 761.5625 279.80179 
L 763.5 279.160144 
L 765.4375 278.147261 
L 769.3125 275.721114 
L 771.25 275.048083 
L 773.1875 275.234057 
L 775.125 276.281388 
L 777.0625 277.732108 
L 779 278.995342 
L 780.9375 279.772971 
L 782.875 280.124778 
L 786.75 280.274381 
L 788.6875 280.280321 
L 788.6875 280.280321 
" style="fill:none;stroke:#000000;stroke-linecap:square;stroke-width:1.5;"/>
   </g>
   <g id="patch_3">
    <path d="M 112.5 283.5 
L 112.5 38.88 
" style="fill:none;stroke:#000000;stroke-linecap:square;stroke-linejoin:miter;stroke-width:0.8;"/>
   </g>
   <g id="patch_4">
    <path d="M 810 283.5 
L 810 38.88 
" style="fill:none;stroke:#000000;stroke-linecap:square;stroke-linejoin:miter;stroke-width:0.8;"/>
   </g>
   <g id="patch_5">
    <path d="M 112.5 283.5 
L 810 283.5 
" style="fill:none;stroke:#000000;stroke-linecap:square;stroke-linejoin:miter;stroke-width:0.8;"/>
   </g>
   <g id="patch_6">
    <path d="M 112.5 38.88 
L 810 38.88 
" style="fill:none;stroke:#000000;stroke-linecap:square;stroke-linejoin:miter;stroke-width:0.8;"/>
   </g>
   <g id="patch_7">
    <path d="M 147.114848 233.725087 
Q 147.230157 241.520776 147.328931 248.198554 
" style="fill:none;stroke:#000000;stroke-linecap:round;"/>
    <path d="M 151.210175 240.14027 
L 147.328931 248.198554 
L 143.21105 240.258588 
" style="fill:none;stroke:#000000;stroke-linecap:round;"/>
   </g>
   <g id="text_19">
    <!-- T=4 -->
    <g transform="translate(126.0625 225.563684)scale(0.2 -0.2)">
     <defs>
      <path d="M -0.296875 72.90625 
L 61.375 72.90625 
L 61.375 64.59375 
L 35.5 64.59375 
L 35.5 0 
L 25.59375 0 
L 25.59375 64.59375 
L -0.296875 64.59375 
z
" id="DejaVuSans-84"/>
      <path d="M 10.59375 45.40625 
L 73.1875 45.40625 
L 73.1875 37.203125 
L 10.59375 37.203125 
z
M 10.59375 25.484375 
L 73.1875 25.484375 
L 73.1875 17.1875 
L 10.59375 17.1875 
z
" id="DejaVuSans-61"/>
      <path d="M 37.796875 64.3125 
L 12.890625 25.390625 
L 37.796875 25.390625 
z
M 35.203125 72.90625 
L 47.609375 72.90625 
L 47.609375 25.390625 
L 58.015625 25.390625 
L 58.015625 17.1875 
L 47.609375 17.1875 
L 47.609375 0 
L 37.796875 0 
L 37.796875 17.1875 
L 4.890625 17.1875 
L 4.890625 26.703125 
z
" id="DejaVuSans-52"/>
     </defs>
     <use xlink:href="#DejaVuSans-84"/>
     <use x="61.083984" xlink:href="#DejaVuSans-61"/>
     <use x="144.873047" xlink:href="#DejaVuSans-52"/>
    </g>
   </g>
   <g id="patch_8">
    <path d="M 222.874136 75.047208 
Q 210.309569 71.704729 198.825458 68.649678 
" style="fill:none;stroke:#000000;stroke-linecap:round;"/>
    <path d="M 205.528241 74.571899 
L 198.825458 68.649678 
L 207.584905 66.840784 
" style="fill:none;stroke:#000000;stroke-linecap:round;"/>
   </g>
   <g id="text_20">
    <!-- T=7 -->
    <g transform="translate(226.8125 87.160263)scale(0.2 -0.2)">
     <defs>
      <path d="M 8.203125 72.90625 
L 55.078125 72.90625 
L 55.078125 68.703125 
L 28.609375 0 
L 18.3125 0 
L 43.21875 64.59375 
L 8.203125 64.59375 
z
" id="DejaVuSans-55"/>
     </defs>
     <use xlink:href="#DejaVuSans-84"/>
     <use x="61.083984" xlink:href="#DejaVuSans-61"/>
     <use x="144.873047" xlink:href="#DejaVuSans-55"/>
    </g>
   </g>
   <g id="patch_9">
    <path d="M 249.95099 148.761333 
Q 238.406301 150.037812 227.972873 151.19142 
" style="fill:none;stroke:#000000;stroke-linecap:round;"/>
    <path d="M 236.36401 154.288001 
L 227.972873 151.19142 
L 235.48482 146.336459 
" style="fill:none;stroke:#000000;stroke-linecap:round;"/>
   </g>
   <g id="text_21">
    <!-- T=9 -->
    <g transform="translate(253.9375 151.533947)scale(0.2 -0.2)">
     <defs>
      <path d="M 10.984375 1.515625 
L 10.984375 10.5 
Q 14.703125 8.734375 18.5 7.8125 
Q 22.3125 6.890625 25.984375 6.890625 
Q 35.75 6.890625 40.890625 13.453125 
Q 46.046875 20.015625 46.78125 33.40625 
Q 43.953125 29.203125 39.59375 26.953125 
Q 35.25 24.703125 29.984375 24.703125 
Q 19.046875 24.703125 12.671875 31.3125 
Q 6.296875 37.9375 6.296875 49.421875 
Q 6.296875 60.640625 12.9375 67.421875 
Q 19.578125 74.21875 30.609375 74.21875 
Q 43.265625 74.21875 49.921875 64.515625 
Q 56.59375 54.828125 56.59375 36.375 
Q 56.59375 19.140625 48.40625 8.859375 
Q 40.234375 -1.421875 26.421875 -1.421875 
Q 22.703125 -1.421875 18.890625 -0.6875 
Q 15.09375 0.046875 10.984375 1.515625 
z
M 30.609375 32.421875 
Q 37.25 32.421875 41.125 36.953125 
Q 45.015625 41.5 45.015625 49.421875 
Q 45.015625 57.28125 41.125 61.84375 
Q 37.25 66.40625 30.609375 66.40625 
Q 23.96875 66.40625 20.09375 61.84375 
Q 16.21875 57.28125 16.21875 49.421875 
Q 16.21875 41.5 20.09375 36.953125 
Q 23.96875 32.421875 30.609375 32.421875 
z
" id="DejaVuSans-57"/>
     </defs>
     <use xlink:href="#DejaVuSans-84"/>
     <use x="61.083984" xlink:href="#DejaVuSans-61"/>
     <use x="144.873047" xlink:href="#DejaVuSans-57"/>
    </g>
   </g>
   <g id="patch_10">
    <path d="M 273.054136 190.899711 
Q 252.7332 202.894629 233.375078 214.321225 
" style="fill:none;stroke:#000000;stroke-linecap:round;"/>
    <path d="M 242.297701 213.699298 
L 233.375078 214.321225 
L 238.23111 206.80997 
" style="fill:none;stroke:#000000;stroke-linecap:round;"/>
   </g>
   <g id="text_22">
    <!-- T=9.33 -->
    <g transform="translate(257.8125 183.720789)scale(0.2 -0.2)">
     <use xlink:href="#DejaVuSans-84"/>
     <use x="61.083984" xlink:href="#DejaVuSans-61"/>
     <use x="144.873047" xlink:href="#DejaVuSans-57"/>
     <use x="208.496094" xlink:href="#DejaVuSans-46"/>
     <use x="240.283203" xlink:href="#DejaVuSans-51"/>
     <use x="303.90625" xlink:href="#DejaVuSans-51"/>
    </g>
   </g>
   <g id="patch_11">
    <path d="M 291.28901 243.2456 
Q 287.51231 252.787484 284.147072 261.289802 
" style="fill:none;stroke:#000000;stroke-linecap:round;"/>
    <path d="M 290.810526 255.323364 
L 284.147072 261.289802 
L 283.371995 252.379176 
" style="fill:none;stroke:#000000;stroke-linecap:round;"/>
   </g>
   <g id="text_23">
    <!-- T=12 -->
    <g transform="translate(269.4375 235.219737)scale(0.2 -0.2)">
     <use xlink:href="#DejaVuSans-84"/>
     <use x="61.083984" xlink:href="#DejaVuSans-61"/>
     <use x="144.873047" xlink:href="#DejaVuSans-49"/>
     <use x="208.496094" xlink:href="#DejaVuSans-50"/>
    </g>
   </g>
   <g id="patch_12">
    <path d="M 313.064049 262.246721 
Q 308.34975 268.071347 304.338838 273.026922 
" style="fill:none;stroke:#000000;stroke-linecap:round;"/>
    <path d="M 312.481068 269.325017 
L 304.338838 273.026922 
L 306.262652 264.291996 
" style="fill:none;stroke:#000000;stroke-linecap:round;"/>
   </g>
   <g id="text_24">
    <!-- T=13 -->
    <g transform="translate(296.5625 254.531842)scale(0.2 -0.2)">
     <use xlink:href="#DejaVuSans-84"/>
     <use x="61.083984" xlink:href="#DejaVuSans-61"/>
     <use x="144.873047" xlink:href="#DejaVuSans-49"/>
     <use x="208.496094" xlink:href="#DejaVuSans-51"/>
    </g>
   </g>
   <g id="patch_13">
    <path d="M 369.638413 233.686821 
Q 368.160996 241.516684 366.890883 248.247901 
" style="fill:none;stroke:#000000;stroke-linecap:round;"/>
    <path d="M 372.304866 241.128295 
L 366.890883 248.247901 
L 364.443589 239.644951 
" style="fill:none;stroke:#000000;stroke-linecap:round;"/>
   </g>
   <g id="text_25">
    <!-- T=16 -->
    <g transform="translate(345 225.563684)scale(0.2 -0.2)">
     <defs>
      <path d="M 33.015625 40.375 
Q 26.375 40.375 22.484375 35.828125 
Q 18.609375 31.296875 18.609375 23.390625 
Q 18.609375 15.53125 22.484375 10.953125 
Q 26.375 6.390625 33.015625 6.390625 
Q 39.65625 6.390625 43.53125 10.953125 
Q 47.40625 15.53125 47.40625 23.390625 
Q 47.40625 31.296875 43.53125 35.828125 
Q 39.65625 40.375 33.015625 40.375 
z
M 52.59375 71.296875 
L 52.59375 62.3125 
Q 48.875 64.0625 45.09375 64.984375 
Q 41.3125 65.921875 37.59375 65.921875 
Q 27.828125 65.921875 22.671875 59.328125 
Q 17.53125 52.734375 16.796875 39.40625 
Q 19.671875 43.65625 24.015625 45.921875 
Q 28.375 48.1875 33.59375 48.1875 
Q 44.578125 48.1875 50.953125 41.515625 
Q 57.328125 34.859375 57.328125 23.390625 
Q 57.328125 12.15625 50.6875 5.359375 
Q 44.046875 -1.421875 33.015625 -1.421875 
Q 20.359375 -1.421875 13.671875 8.265625 
Q 6.984375 17.96875 6.984375 36.375 
Q 6.984375 53.65625 15.1875 63.9375 
Q 23.390625 74.21875 37.203125 74.21875 
Q 40.921875 74.21875 44.703125 73.484375 
Q 48.484375 72.75 52.59375 71.296875 
z
" id="DejaVuSans-54"/>
     </defs>
     <use xlink:href="#DejaVuSans-84"/>
     <use x="61.083984" xlink:href="#DejaVuSans-61"/>
     <use x="144.873047" xlink:href="#DejaVuSans-49"/>
     <use x="208.496094" xlink:href="#DejaVuSans-54"/>
    </g>
   </g>
   <g id="patch_14">
    <path d="M 437.353041 201.53375 
Q 436.761412 212.549914 436.229741 222.449653 
" style="fill:none;stroke:#000000;stroke-linecap:round;"/>
    <path d="M 440.653011 214.675679 
L 436.229741 222.449653 
L 432.664523 214.246653 
" style="fill:none;stroke:#000000;stroke-linecap:round;"/>
   </g>
   <g id="text_26">
    <!-- T=19 -->
    <g transform="translate(410.875 193.376842)scale(0.2 -0.2)">
     <use xlink:href="#DejaVuSans-84"/>
     <use x="61.083984" xlink:href="#DejaVuSans-61"/>
     <use x="144.873047" xlink:href="#DejaVuSans-49"/>
     <use x="208.496094" xlink:href="#DejaVuSans-57"/>
    </g>
   </g>
   <g id="patch_15">
    <path d="M 485.216024 256.19438 
Q 483.151969 264.852896 481.347171 272.423853 
" style="fill:none;stroke:#000000;stroke-linecap:round;"/>
    <path d="M 487.093236 265.569457 
L 481.347171 272.423853 
L 479.311293 263.714363 
" style="fill:none;stroke:#000000;stroke-linecap:round;"/>
   </g>
   <g id="text_27">
    <!-- T=21 -->
    <g transform="translate(461.25 248.094474)scale(0.2 -0.2)">
     <use xlink:href="#DejaVuSans-84"/>
     <use x="61.083984" xlink:href="#DejaVuSans-61"/>
     <use x="144.873047" xlink:href="#DejaVuSans-50"/>
     <use x="208.496094" xlink:href="#DejaVuSans-49"/>
    </g>
   </g>
   <g id="patch_16">
    <path d="M 579.209156 240.099785 
Q 582.945596 254.395561 586.399316 267.609639 
" style="fill:none;stroke:#000000;stroke-linecap:round;"/>
    <path d="M 588.246338 258.858153 
L 586.399316 267.609639 
L 580.50634 260.881131 
" style="fill:none;stroke:#000000;stroke-linecap:round;"/>
   </g>
   <g id="text_28">
    <!-- T=25 -->
    <g transform="translate(548.4375 232.001053)scale(0.2 -0.2)">
     <use xlink:href="#DejaVuSans-84"/>
     <use x="61.083984" xlink:href="#DejaVuSans-61"/>
     <use x="144.873047" xlink:href="#DejaVuSans-50"/>
     <use x="208.496094" xlink:href="#DejaVuSans-53"/>
    </g>
   </g>
   <g id="patch_17">
    <path d="M 637.611718 256.255876 
Q 637.589903 264.051565 637.571216 270.729225 
" style="fill:none;stroke:#000000;stroke-linecap:round;"/>
    <path d="M 641.593587 262.74045 
L 637.571216 270.729225 
L 633.593619 262.718063 
" style="fill:none;stroke:#000000;stroke-linecap:round;"/>
   </g>
   <g id="text_29">
    <!-- T=27 -->
    <g transform="translate(610.4375 248.094474)scale(0.2 -0.2)">
     <use xlink:href="#DejaVuSans-84"/>
     <use x="61.083984" xlink:href="#DejaVuSans-61"/>
     <use x="144.873047" xlink:href="#DejaVuSans-50"/>
     <use x="208.496094" xlink:href="#DejaVuSans-55"/>
    </g>
   </g>
   <g id="patch_18">
    <path d="M 774.400997 256.12912 
Q 777.323752 264.050191 779.859476 270.922354 
" style="fill:none;stroke:#000000;stroke-linecap:round;"/>
    <path d="M 780.842794 262.032299 
L 779.859476 270.922354 
L 773.337423 264.801667 
" style="fill:none;stroke:#000000;stroke-linecap:round;"/>
   </g>
   <g id="text_30">
    <!-- T=31 -->
    <g transform="translate(742.1875 248.094474)scale(0.2 -0.2)">
     <use xlink:href="#DejaVuSans-84"/>
     <use x="61.083984" xlink:href="#DejaVuSans-61"/>
     <use x="144.873047" xlink:href="#DejaVuSans-51"/>
     <use x="208.496094" xlink:href="#DejaVuSans-49"/>
    </g>
   </g>
   <g id="text_31">
    <!-- MCP database (n=617) -->
    <g transform="translate(322.0875 18.88)scale(0.24 -0.24)">
     <defs>
      <path d="M 9.8125 72.90625 
L 24.515625 72.90625 
L 43.109375 23.296875 
L 61.8125 72.90625 
L 76.515625 72.90625 
L 76.515625 0 
L 66.890625 0 
L 66.890625 64.015625 
L 48.09375 14.015625 
L 38.1875 14.015625 
L 19.390625 64.015625 
L 19.390625 0 
L 9.8125 0 
z
" id="DejaVuSans-77"/>
      <path d="M 64.40625 67.28125 
L 64.40625 56.890625 
Q 59.421875 61.53125 53.78125 63.8125 
Q 48.140625 66.109375 41.796875 66.109375 
Q 29.296875 66.109375 22.65625 58.46875 
Q 16.015625 50.828125 16.015625 36.375 
Q 16.015625 21.96875 22.65625 14.328125 
Q 29.296875 6.6875 41.796875 6.6875 
Q 48.140625 6.6875 53.78125 8.984375 
Q 59.421875 11.28125 64.40625 15.921875 
L 64.40625 5.609375 
Q 59.234375 2.09375 53.4375 0.328125 
Q 47.65625 -1.421875 41.21875 -1.421875 
Q 24.65625 -1.421875 15.125 8.703125 
Q 5.609375 18.84375 5.609375 36.375 
Q 5.609375 53.953125 15.125 64.078125 
Q 24.65625 74.21875 41.21875 74.21875 
Q 47.75 74.21875 53.53125 72.484375 
Q 59.328125 70.75 64.40625 67.28125 
z
" id="DejaVuSans-67"/>
      <path d="M 19.671875 64.796875 
L 19.671875 37.40625 
L 32.078125 37.40625 
Q 38.96875 37.40625 42.71875 40.96875 
Q 46.484375 44.53125 46.484375 51.125 
Q 46.484375 57.671875 42.71875 61.234375 
Q 38.96875 64.796875 32.078125 64.796875 
z
M 9.8125 72.90625 
L 32.078125 72.90625 
Q 44.34375 72.90625 50.609375 67.359375 
Q 56.890625 61.8125 56.890625 51.125 
Q 56.890625 40.328125 50.609375 34.8125 
Q 44.34375 29.296875 32.078125 29.296875 
L 19.671875 29.296875 
L 19.671875 0 
L 9.8125 0 
z
" id="DejaVuSans-80"/>
      <path d="M 34.28125 27.484375 
Q 23.390625 27.484375 19.1875 25 
Q 14.984375 22.515625 14.984375 16.5 
Q 14.984375 11.71875 18.140625 8.90625 
Q 21.296875 6.109375 26.703125 6.109375 
Q 34.1875 6.109375 38.703125 11.40625 
Q 43.21875 16.703125 43.21875 25.484375 
L 43.21875 27.484375 
z
M 52.203125 31.203125 
L 52.203125 0 
L 43.21875 0 
L 43.21875 8.296875 
Q 40.140625 3.328125 35.546875 0.953125 
Q 30.953125 -1.421875 24.3125 -1.421875 
Q 15.921875 -1.421875 10.953125 3.296875 
Q 6 8.015625 6 15.921875 
Q 6 25.140625 12.171875 29.828125 
Q 18.359375 34.515625 30.609375 34.515625 
L 43.21875 34.515625 
L 43.21875 35.40625 
Q 43.21875 41.609375 39.140625 45 
Q 35.0625 48.390625 27.6875 48.390625 
Q 23 48.390625 18.546875 47.265625 
Q 14.109375 46.140625 10.015625 43.890625 
L 10.015625 52.203125 
Q 14.9375 54.109375 19.578125 55.046875 
Q 24.21875 56 28.609375 56 
Q 40.484375 56 46.34375 49.84375 
Q 52.203125 43.703125 52.203125 31.203125 
z
" id="DejaVuSans-97"/>
     </defs>
     <use xlink:href="#DejaVuSans-77"/>
     <use x="86.279297" xlink:href="#DejaVuSans-67"/>
     <use x="156.103516" xlink:href="#DejaVuSans-80"/>
     <use x="216.40625" xlink:href="#DejaVuSans-32"/>
     <use x="248.193359" xlink:href="#DejaVuSans-100"/>
     <use x="311.669922" xlink:href="#DejaVuSans-97"/>
     <use x="372.949219" xlink:href="#DejaVuSans-116"/>
     <use x="412.158203" xlink:href="#DejaVuSans-97"/>
     <use x="473.4375" xlink:href="#DejaVuSans-98"/>
     <use x="536.914062" xlink:href="#DejaVuSans-97"/>
     <use x="598.193359" xlink:href="#DejaVuSans-115"/>
     <use x="650.292969" xlink:href="#DejaVuSans-101"/>
     <use x="711.816406" xlink:href="#DejaVuSans-32"/>
     <use x="743.603516" xlink:href="#DejaVuSans-40"/>
     <use x="782.617188" xlink:href="#DejaVuSans-110"/>
     <use x="845.996094" xlink:href="#DejaVuSans-61"/>
     <use x="929.785156" xlink:href="#DejaVuSans-54"/>
     <use x="993.408203" xlink:href="#DejaVuSans-49"/>
     <use x="1057.03125" xlink:href="#DejaVuSans-55"/>
     <use x="1120.654297" xlink:href="#DejaVuSans-41"/>
    </g>
   </g>
  </g>
 </g>
 <defs>
  <clipPath id="p87ba607ff4">
   <rect height="244.62" width="697.5" x="112.5" y="38.88"/>
  </clipPath>
 </defs>
</svg>
