<?xml version="1.0" encoding="utf-8" standalone="no"?>
<!DOCTYPE svg PUBLIC "-//W3C//DTD SVG 1.1//EN"
  "http://www.w3.org/Graphics/SVG/1.1/DTD/svg11.dtd">
<!-- Created with matplotlib (https://matplotlib.org/) -->
<svg height="432pt" version="1.1" viewBox="0 0 720 432" width="720pt" xmlns="http://www.w3.org/2000/svg" xmlns:xlink="http://www.w3.org/1999/xlink">
 <metadata>
  <rdf:RDF xmlns:cc="http://creativecommons.org/ns#" xmlns:dc="http://purl.org/dc/elements/1.1/" xmlns:rdf="http://www.w3.org/1999/02/22-rdf-syntax-ns#">
   <cc:Work>
    <dc:type rdf:resource="http://purl.org/dc/dcmitype/StillImage"/>
    <dc:date>2021-09-10T00:02:57.796438</dc:date>
    <dc:format>image/svg+xml</dc:format>
    <dc:creator>
     <cc:Agent>
      <dc:title>Matplotlib v3.3.2, https://matplotlib.org/</dc:title>
     </cc:Agent>
    </dc:creator>
   </cc:Work>
  </rdf:RDF>
 </metadata>
 <defs>
  <style type="text/css">*{stroke-linecap:butt;stroke-linejoin:round;}</style>
 </defs>
 <g id="figure_1">
  <g id="patch_1">
   <path d="M 0 432 
L 720 432 
L 720 0 
L 0 0 
z
" style="fill:none;"/>
  </g>
  <g id="axes_1">
   <g id="patch_2">
    <path d="M 90 378 
L 648 378 
L 648 51.84 
L 90 51.84 
z
" style="fill:#ffffff;"/>
   </g>
   <g id="PolyCollection_1">
    <path clip-path="url(#p012d3d0051)" d="M 196.641476 363.174545 
L 187.194141 363.174545 
L 187.129838 360.179504 
L 187.073368 357.184463 
L 187.024297 354.189421 
L 186.982074 351.19438 
L 186.946038 348.199339 
L 186.915425 345.204298 
L 186.889384 342.209256 
L 186.866987 339.214215 
L 186.847243 336.219174 
L 186.829113 333.224132 
L 186.811524 330.229091 
L 186.793388 327.23405 
L 186.773612 324.239008 
L 186.75112 321.243967 
L 186.72486 318.248926 
L 186.69382 315.253884 
L 186.657045 312.258843 
L 186.613638 309.263802 
L 186.562778 306.26876 
L 186.503724 303.273719 
L 186.43582 300.278678 
L 186.358501 297.283636 
L 186.271294 294.288595 
L 186.17382 291.293554 
L 186.065792 288.298512 
L 185.947013 285.303471 
L 185.817372 282.30843 
L 185.67684 279.313388 
L 185.525461 276.318347 
L 185.363351 273.323306 
L 185.19068 270.328264 
L 185.007676 267.333223 
L 184.814607 264.338182 
L 184.611774 261.34314 
L 184.399505 258.348099 
L 184.178146 255.353058 
L 183.948047 252.358017 
L 183.709561 249.362975 
L 183.46303 246.367934 
L 183.208785 243.372893 
L 182.947132 240.377851 
L 182.678353 237.38281 
L 182.402698 234.387769 
L 182.120383 231.392727 
L 181.831587 228.397686 
L 181.53645 225.402645 
L 181.235072 222.407603 
L 180.927518 219.412562 
L 180.613813 216.417521 
L 180.293951 213.422479 
L 179.967892 210.427438 
L 179.635575 207.432397 
L 179.296915 204.437355 
L 178.951817 201.442314 
L 178.600178 198.447273 
L 178.241898 195.452231 
L 177.876887 192.45719 
L 177.505077 189.462149 
L 177.12643 186.467107 
L 176.740951 183.472066 
L 176.348696 180.477025 
L 175.949786 177.481983 
L 175.544418 174.486942 
L 175.132877 171.491901 
L 174.71555 168.49686 
L 174.292933 165.501818 
L 173.865648 162.506777 
L 173.43445 159.511736 
L 173.00024 156.516694 
L 172.564073 153.521653 
L 172.127165 150.526612 
L 171.690902 147.53157 
L 171.256841 144.536529 
L 170.826715 141.541488 
L 170.402432 138.546446 
L 169.98607 135.551405 
L 169.579873 132.556364 
L 169.186238 129.561322 
L 168.807706 126.566281 
L 168.446939 123.57124 
L 168.106705 120.576198 
L 167.789848 117.581157 
L 167.499262 114.586116 
L 167.23786 111.591074 
L 167.008537 108.596033 
L 166.814133 105.600992 
L 166.657395 102.60595 
L 166.540933 99.610909 
L 166.467182 96.615868 
L 166.438356 93.620826 
L 166.456413 90.625785 
L 166.52301 87.630744 
L 166.639475 84.635702 
L 166.806767 81.640661 
L 167.025455 78.64562 
L 167.295689 75.650579 
L 167.617191 72.655537 
L 167.989241 69.660496 
L 168.410672 66.665455 
L 215.424944 66.665455 
L 215.424944 66.665455 
L 215.846376 69.660496 
L 216.218425 72.655537 
L 216.539927 75.650579 
L 216.810162 78.64562 
L 217.028849 81.640661 
L 217.196141 84.635702 
L 217.312606 87.630744 
L 217.379204 90.625785 
L 217.39726 93.620826 
L 217.368434 96.615868 
L 217.294683 99.610909 
L 217.178221 102.60595 
L 217.021483 105.600992 
L 216.827079 108.596033 
L 216.597756 111.591074 
L 216.336354 114.586116 
L 216.045769 117.581157 
L 215.728911 120.576198 
L 215.388677 123.57124 
L 215.02791 126.566281 
L 214.649378 129.561322 
L 214.255743 132.556364 
L 213.849546 135.551405 
L 213.433184 138.546446 
L 213.008901 141.541488 
L 212.578776 144.536529 
L 212.144715 147.53157 
L 211.708451 150.526612 
L 211.271544 153.521653 
L 210.835376 156.516694 
L 210.401167 159.511736 
L 209.969969 162.506777 
L 209.542684 165.501818 
L 209.120067 168.49686 
L 208.702739 171.491901 
L 208.291199 174.486942 
L 207.885831 177.481983 
L 207.486921 180.477025 
L 207.094665 183.472066 
L 206.709186 186.467107 
L 206.33054 189.462149 
L 205.95873 192.45719 
L 205.593719 195.452231 
L 205.235438 198.447273 
L 204.883799 201.442314 
L 204.538701 204.437355 
L 204.200041 207.432397 
L 203.867724 210.427438 
L 203.541666 213.422479 
L 203.221803 216.417521 
L 202.908098 219.412562 
L 202.600544 222.407603 
L 202.299167 225.402645 
L 202.004029 228.397686 
L 201.715233 231.392727 
L 201.432918 234.387769 
L 201.157263 237.38281 
L 200.888484 240.377851 
L 200.626832 243.372893 
L 200.372586 246.367934 
L 200.126056 249.362975 
L 199.887569 252.358017 
L 199.657471 255.353058 
L 199.436111 258.348099 
L 199.223843 261.34314 
L 199.02101 264.338182 
L 198.82794 267.333223 
L 198.644936 270.328264 
L 198.472266 273.323306 
L 198.310155 276.318347 
L 198.158777 279.313388 
L 198.018245 282.30843 
L 197.888604 285.303471 
L 197.769825 288.298512 
L 197.661797 291.293554 
L 197.564323 294.288595 
L 197.477116 297.283636 
L 197.399797 300.278678 
L 197.331893 303.273719 
L 197.272838 306.26876 
L 197.221979 309.263802 
L 197.178572 312.258843 
L 197.141796 315.253884 
L 197.110757 318.248926 
L 197.084496 321.243967 
L 197.062004 324.239008 
L 197.042229 327.23405 
L 197.024093 330.229091 
L 197.006504 333.224132 
L 196.988374 336.219174 
L 196.968629 339.214215 
L 196.946233 342.209256 
L 196.920192 345.204298 
L 196.889579 348.199339 
L 196.853542 351.19438 
L 196.811319 354.189421 
L 196.762248 357.184463 
L 196.705778 360.179504 
L 196.641476 363.174545 
z
" style="fill:#1f77b4;fill-opacity:0.3;"/>
   </g>
   <g id="PolyCollection_2">
    <path clip-path="url(#p012d3d0051)" d="M 318.385986 363.174545 
L 269.285247 363.174545 
L 268.914337 361.605714 
L 268.634954 360.036883 
L 268.448736 358.468052 
L 268.356164 356.899221 
L 268.356588 355.33039 
L 268.448265 353.761558 
L 268.628427 352.192727 
L 268.893368 350.623896 
L 269.238543 349.055065 
L 269.658683 347.486234 
L 270.147914 345.917403 
L 270.699887 344.348571 
L 271.307903 342.77974 
L 271.965034 341.210909 
L 272.66425 339.642078 
L 273.398516 338.073247 
L 274.160903 336.504416 
L 274.944662 334.935584 
L 275.743307 333.366753 
L 276.550668 331.797922 
L 277.360938 330.229091 
L 278.16871 328.66026 
L 278.96899 327.091429 
L 279.757217 325.522597 
L 280.529259 323.953766 
L 281.281414 322.384935 
L 282.010393 320.816104 
L 282.713312 319.247273 
L 283.387673 317.678442 
L 284.03135 316.10961 
L 284.642568 314.540779 
L 285.219893 312.971948 
L 285.762211 311.403117 
L 286.268724 309.834286 
L 286.738932 308.265455 
L 287.172629 306.696623 
L 287.569895 305.127792 
L 287.93109 303.558961 
L 288.256845 301.99013 
L 288.548061 300.421299 
L 288.805893 298.852468 
L 289.03175 297.283636 
L 289.227274 295.714805 
L 289.39433 294.145974 
L 289.534984 292.577143 
L 289.651481 291.008312 
L 289.746222 289.439481 
L 289.821728 287.870649 
L 289.88061 286.301818 
L 289.925533 284.732987 
L 289.959174 283.164156 
L 289.984186 281.595325 
L 290.003151 280.026494 
L 290.018546 278.457662 
L 290.032698 276.888831 
L 290.047753 275.32 
L 290.065634 273.751169 
L 290.088022 272.182338 
L 290.116325 270.613506 
L 290.151662 269.044675 
L 290.194852 267.475844 
L 290.246412 265.907013 
L 290.306553 264.338182 
L 290.375196 262.769351 
L 290.451983 261.200519 
L 290.536303 259.631688 
L 290.627317 258.062857 
L 290.723989 256.494026 
L 290.825128 254.925195 
L 290.92942 253.356364 
L 291.035473 251.787532 
L 291.141854 250.218701 
L 291.247136 248.64987 
L 291.34993 247.081039 
L 291.448926 245.512208 
L 291.542925 243.943377 
L 291.630867 242.374545 
L 291.711856 240.805714 
L 291.785178 239.236883 
L 291.850318 237.668052 
L 291.906963 236.099221 
L 291.95501 234.53039 
L 291.994556 232.961558 
L 292.025897 231.392727 
L 292.049511 229.823896 
L 292.066041 228.255065 
L 292.076275 226.686234 
L 292.081124 225.117403 
L 292.081592 223.548571 
L 292.078751 221.97974 
L 292.073716 220.410909 
L 292.067608 218.842078 
L 292.061535 217.273247 
L 292.056564 215.704416 
L 292.053693 214.135584 
L 292.053833 212.566753 
L 292.05779 210.997922 
L 292.066249 209.429091 
L 292.079761 207.86026 
L 295.591472 207.86026 
L 295.591472 207.86026 
L 295.604984 209.429091 
L 295.613442 210.997922 
L 295.6174 212.566753 
L 295.61754 214.135584 
L 295.614669 215.704416 
L 295.609697 217.273247 
L 295.603625 218.842078 
L 295.597517 220.410909 
L 295.592481 221.97974 
L 295.589641 223.548571 
L 295.590109 225.117403 
L 295.594958 226.686234 
L 295.605192 228.255065 
L 295.621722 229.823896 
L 295.645336 231.392727 
L 295.676677 232.961558 
L 295.716223 234.53039 
L 295.76427 236.099221 
L 295.820915 237.668052 
L 295.886055 239.236883 
L 295.959377 240.805714 
L 296.040366 242.374545 
L 296.128307 243.943377 
L 296.222306 245.512208 
L 296.321303 247.081039 
L 296.424097 248.64987 
L 296.529379 250.218701 
L 296.63576 251.787532 
L 296.741813 253.356364 
L 296.846105 254.925195 
L 296.947244 256.494026 
L 297.043916 258.062857 
L 297.13493 259.631688 
L 297.21925 261.200519 
L 297.296037 262.769351 
L 297.36468 264.338182 
L 297.424821 265.907013 
L 297.476381 267.475844 
L 297.519571 269.044675 
L 297.554908 270.613506 
L 297.583211 272.182338 
L 297.605599 273.751169 
L 297.62348 275.32 
L 297.638534 276.888831 
L 297.652687 278.457662 
L 297.668082 280.026494 
L 297.687047 281.595325 
L 297.712059 283.164156 
L 297.7457 284.732987 
L 297.790623 286.301818 
L 297.849505 287.870649 
L 297.925011 289.439481 
L 298.019752 291.008312 
L 298.136249 292.577143 
L 298.276903 294.145974 
L 298.443958 295.714805 
L 298.639483 297.283636 
L 298.865339 298.852468 
L 299.123172 300.421299 
L 299.414388 301.99013 
L 299.740143 303.558961 
L 300.101338 305.127792 
L 300.498604 306.696623 
L 300.932301 308.265455 
L 301.402509 309.834286 
L 301.909022 311.403117 
L 302.45134 312.971948 
L 303.028665 314.540779 
L 303.639883 316.10961 
L 304.28356 317.678442 
L 304.957921 319.247273 
L 305.66084 320.816104 
L 306.389819 322.384935 
L 307.141973 323.953766 
L 307.914016 325.522597 
L 308.702243 327.091429 
L 309.502523 328.66026 
L 310.310294 330.229091 
L 311.120565 331.797922 
L 311.927926 333.366753 
L 312.726571 334.935584 
L 313.51033 336.504416 
L 314.272716 338.073247 
L 315.006983 339.642078 
L 315.706198 341.210909 
L 316.36333 342.77974 
L 316.971345 344.348571 
L 317.523318 345.917403 
L 318.01255 347.486234 
L 318.432689 349.055065 
L 318.777865 350.623896 
L 319.042806 352.192727 
L 319.222968 353.761558 
L 319.314645 355.33039 
L 319.315068 356.899221 
L 319.222497 358.468052 
L 319.036279 360.036883 
L 318.756896 361.605714 
L 318.385986 363.174545 
z
" style="fill:#1f77b4;fill-opacity:0.3;"/>
   </g>
   <g id="PolyCollection_3">
    <path clip-path="url(#p012d3d0051)" d="M 420.767871 363.174545 
L 370.738978 363.174545 
L 370.477994 362.516295 
L 370.322909 361.858044 
L 370.273973 361.199793 
L 370.329881 360.541542 
L 370.487816 359.883291 
L 370.743523 359.22504 
L 371.091414 358.56679 
L 371.524707 357.908539 
L 372.035587 357.250288 
L 372.615388 356.592037 
L 373.254787 355.933786 
L 373.944007 355.275535 
L 374.673024 354.617285 
L 375.431765 353.959034 
L 376.210306 353.300783 
L 376.99905 352.642532 
L 377.788888 351.984281 
L 378.571345 351.32603 
L 379.338697 350.667779 
L 380.084067 350.009529 
L 380.801499 349.351278 
L 381.486 348.693027 
L 382.133565 348.034776 
L 382.741178 347.376525 
L 383.306788 346.718274 
L 383.829277 346.060024 
L 384.308398 345.401773 
L 384.744713 344.743522 
L 385.139513 344.085271 
L 385.494731 343.42702 
L 385.812854 342.768769 
L 386.096824 342.110519 
L 386.349947 341.452268 
L 386.575796 340.794017 
L 386.778118 340.135766 
L 386.96075 339.477515 
L 387.127536 338.819264 
L 387.282248 338.161014 
L 387.42852 337.502763 
L 387.569786 336.844512 
L 387.709228 336.186261 
L 387.849729 335.52801 
L 387.993842 334.869759 
L 388.14376 334.211508 
L 388.301296 333.553258 
L 388.467878 332.895007 
L 388.644544 332.236756 
L 388.831946 331.578505 
L 389.030366 330.920254 
L 389.239731 330.262003 
L 389.459641 329.603753 
L 389.689395 328.945502 
L 389.928024 328.287251 
L 390.174329 327.629 
L 390.426914 326.970749 
L 390.684231 326.312498 
L 390.944613 325.654248 
L 391.206316 324.995997 
L 391.467555 324.337746 
L 391.726541 323.679495 
L 391.981508 323.021244 
L 392.230751 322.362993 
L 392.472646 321.704743 
L 392.705674 321.046492 
L 392.928443 320.388241 
L 393.139699 319.72999 
L 393.338344 319.071739 
L 393.523439 318.413488 
L 393.694214 317.755237 
L 393.850069 317.096987 
L 393.990574 316.438736 
L 394.115471 315.780485 
L 394.224666 315.122234 
L 394.318227 314.463983 
L 394.396377 313.805732 
L 394.459489 313.147482 
L 394.508075 312.489231 
L 394.542781 311.83098 
L 394.564376 311.172729 
L 394.573741 310.514478 
L 394.571862 309.856227 
L 394.559815 309.197977 
L 394.538759 308.539726 
L 394.509917 307.881475 
L 394.474565 307.223224 
L 394.434021 306.564973 
L 394.389623 305.906722 
L 394.342716 305.248472 
L 394.294634 304.590221 
L 394.246684 303.93197 
L 394.200124 303.273719 
L 394.156151 302.615468 
L 394.11588 301.957217 
L 394.080328 301.298966 
L 394.0504 300.640716 
L 394.026877 299.982465 
L 394.010403 299.324214 
L 394.001478 298.665963 
L 394.000453 298.007712 
L 397.506396 298.007712 
L 397.506396 298.007712 
L 397.505371 298.665963 
L 397.496447 299.324214 
L 397.479973 299.982465 
L 397.456449 300.640716 
L 397.426521 301.298966 
L 397.390969 301.957217 
L 397.350698 302.615468 
L 397.306725 303.273719 
L 397.260166 303.93197 
L 397.212215 304.590221 
L 397.164133 305.248472 
L 397.117226 305.906722 
L 397.072828 306.564973 
L 397.032284 307.223224 
L 396.996933 307.881475 
L 396.96809 308.539726 
L 396.947034 309.197977 
L 396.934988 309.856227 
L 396.933108 310.514478 
L 396.942474 311.172729 
L 396.964068 311.83098 
L 396.998774 312.489231 
L 397.047361 313.147482 
L 397.110472 313.805732 
L 397.188623 314.463983 
L 397.282183 315.122234 
L 397.391378 315.780485 
L 397.516275 316.438736 
L 397.656781 317.096987 
L 397.812636 317.755237 
L 397.983411 318.413488 
L 398.168506 319.071739 
L 398.36715 319.72999 
L 398.578407 320.388241 
L 398.801175 321.046492 
L 399.034203 321.704743 
L 399.276098 322.362993 
L 399.525341 323.021244 
L 399.780309 323.679495 
L 400.039294 324.337746 
L 400.300534 324.995997 
L 400.562237 325.654248 
L 400.822619 326.312498 
L 401.079935 326.970749 
L 401.332521 327.629 
L 401.578825 328.287251 
L 401.817454 328.945502 
L 402.047208 329.603753 
L 402.267118 330.262003 
L 402.476484 330.920254 
L 402.674903 331.578505 
L 402.862305 332.236756 
L 403.038971 332.895007 
L 403.205553 333.553258 
L 403.36309 334.211508 
L 403.513007 334.869759 
L 403.65712 335.52801 
L 403.797621 336.186261 
L 403.937063 336.844512 
L 404.078329 337.502763 
L 404.224601 338.161014 
L 404.379313 338.819264 
L 404.546099 339.477515 
L 404.728732 340.135766 
L 404.931054 340.794017 
L 405.156902 341.452268 
L 405.410025 342.110519 
L 405.693995 342.768769 
L 406.012118 343.42702 
L 406.367337 344.085271 
L 406.762137 344.743522 
L 407.198452 345.401773 
L 407.677573 346.060024 
L 408.200061 346.718274 
L 408.765672 347.376525 
L 409.373284 348.034776 
L 410.020849 348.693027 
L 410.70535 349.351278 
L 411.422782 350.009529 
L 412.168153 350.667779 
L 412.935504 351.32603 
L 413.717961 351.984281 
L 414.5078 352.642532 
L 415.296544 353.300783 
L 416.075085 353.959034 
L 416.833826 354.617285 
L 417.562842 355.275535 
L 418.252062 355.933786 
L 418.891461 356.592037 
L 419.471263 357.250288 
L 419.982143 357.908539 
L 420.415436 358.56679 
L 420.763326 359.22504 
L 421.019033 359.883291 
L 421.176969 360.541542 
L 421.232877 361.199793 
L 421.18394 361.858044 
L 421.028855 362.516295 
L 420.767871 363.174545 
z
" style="fill:#1f77b4;fill-opacity:0.3;"/>
   </g>
   <g id="PolyCollection_4">
    <path clip-path="url(#p012d3d0051)" d="M 523.026772 363.174545 
L 472.315693 363.174545 
L 472.203496 362.176198 
L 472.191781 361.177851 
L 472.279578 360.179504 
L 472.464628 359.181157 
L 472.743435 358.18281 
L 473.111348 357.184463 
L 473.562662 356.186116 
L 474.090744 355.187769 
L 474.688174 354.189421 
L 475.346894 353.191074 
L 476.058373 352.192727 
L 476.813769 351.19438 
L 477.604094 350.196033 
L 478.42037 349.197686 
L 479.253783 348.199339 
L 480.095816 347.200992 
L 480.938372 346.202645 
L 481.773883 345.204298 
L 482.59539 344.20595 
L 483.396615 343.207603 
L 484.172005 342.209256 
L 484.916766 341.210909 
L 485.626866 340.212562 
L 486.299036 339.214215 
L 486.930749 338.215868 
L 487.520186 337.217521 
L 488.066196 336.219174 
L 488.568246 335.220826 
L 489.02637 334.222479 
L 489.441106 333.224132 
L 489.813443 332.225785 
L 490.144763 331.227438 
L 490.436783 330.229091 
L 490.691504 329.230744 
L 490.911164 328.232397 
L 491.098191 327.23405 
L 491.255167 326.235702 
L 491.384785 325.237355 
L 491.489825 324.239008 
L 491.573117 323.240661 
L 491.637519 322.242314 
L 491.685893 321.243967 
L 491.721077 320.24562 
L 491.745866 319.247273 
L 491.762992 318.248926 
L 491.775095 317.250579 
L 491.784709 316.252231 
L 491.794234 315.253884 
L 491.805915 314.255537 
L 491.821826 313.25719 
L 491.843839 312.258843 
L 491.873614 311.260496 
L 491.912576 310.262149 
L 491.961903 309.263802 
L 492.02251 308.265455 
L 492.095046 307.267107 
L 492.179883 306.26876 
L 492.277125 305.270413 
L 492.386602 304.272066 
L 492.507889 303.273719 
L 492.640314 302.275372 
L 492.782981 301.277025 
L 492.934788 300.278678 
L 493.09446 299.280331 
L 493.260571 298.281983 
L 493.431584 297.283636 
L 493.605879 296.285289 
L 493.78179 295.286942 
L 493.957639 294.288595 
L 494.131771 293.290248 
L 494.302588 292.291901 
L 494.468576 291.293554 
L 494.628336 290.295207 
L 494.780606 289.29686 
L 494.924285 288.298512 
L 495.058448 287.300165 
L 495.182358 286.301818 
L 495.295477 285.303471 
L 495.397466 284.305124 
L 495.488188 283.306777 
L 495.567701 282.30843 
L 495.636254 281.310083 
L 495.69427 280.311736 
L 495.742333 279.313388 
L 495.781172 278.315041 
L 495.81164 277.316694 
L 495.834693 276.318347 
L 495.851366 275.32 
L 495.862751 274.321653 
L 495.869972 273.323306 
L 495.874164 272.324959 
L 495.876447 271.326612 
L 495.87791 270.328264 
L 495.879584 269.329917 
L 495.88243 268.33157 
L 495.887323 267.333223 
L 495.895035 266.334876 
L 495.906228 265.336529 
L 495.921446 264.338182 
L 499.42102 264.338182 
L 499.42102 264.338182 
L 499.436238 265.336529 
L 499.447431 266.334876 
L 499.455143 267.333223 
L 499.460035 268.33157 
L 499.462882 269.329917 
L 499.464556 270.328264 
L 499.466018 271.326612 
L 499.468302 272.324959 
L 499.472494 273.323306 
L 499.479715 274.321653 
L 499.4911 275.32 
L 499.507773 276.318347 
L 499.530826 277.316694 
L 499.561294 278.315041 
L 499.600133 279.313388 
L 499.648196 280.311736 
L 499.706212 281.310083 
L 499.774764 282.30843 
L 499.854278 283.306777 
L 499.945 284.305124 
L 500.046989 285.303471 
L 500.160107 286.301818 
L 500.284018 287.300165 
L 500.418181 288.298512 
L 500.56186 289.29686 
L 500.71413 290.295207 
L 500.873889 291.293554 
L 501.039877 292.291901 
L 501.210694 293.290248 
L 501.384827 294.288595 
L 501.560676 295.286942 
L 501.736587 296.285289 
L 501.910882 297.283636 
L 502.081895 298.281983 
L 502.248006 299.280331 
L 502.407678 300.278678 
L 502.559485 301.277025 
L 502.702152 302.275372 
L 502.834577 303.273719 
L 502.955864 304.272066 
L 503.065341 305.270413 
L 503.162582 306.26876 
L 503.24742 307.267107 
L 503.319956 308.265455 
L 503.380563 309.263802 
L 503.42989 310.262149 
L 503.468852 311.260496 
L 503.498627 312.258843 
L 503.52064 313.25719 
L 503.53655 314.255537 
L 503.548232 315.253884 
L 503.557757 316.252231 
L 503.56737 317.250579 
L 503.579474 318.248926 
L 503.596599 319.247273 
L 503.621389 320.24562 
L 503.656573 321.243967 
L 503.704947 322.242314 
L 503.769349 323.240661 
L 503.852641 324.239008 
L 503.95768 325.237355 
L 504.087299 326.235702 
L 504.244274 327.23405 
L 504.431302 328.232397 
L 504.650962 329.230744 
L 504.905683 330.229091 
L 505.197702 331.227438 
L 505.529022 332.225785 
L 505.90136 333.224132 
L 506.316096 334.222479 
L 506.77422 335.220826 
L 507.27627 336.219174 
L 507.82228 337.217521 
L 508.411717 338.215868 
L 509.04343 339.214215 
L 509.7156 340.212562 
L 510.4257 341.210909 
L 511.17046 342.209256 
L 511.945851 343.207603 
L 512.747076 344.20595 
L 513.568583 345.204298 
L 514.404093 346.202645 
L 515.24665 347.200992 
L 516.088683 348.199339 
L 516.922096 349.197686 
L 517.738372 350.196033 
L 518.528696 351.19438 
L 519.284092 352.192727 
L 519.995571 353.191074 
L 520.654292 354.189421 
L 521.251721 355.187769 
L 521.779804 356.186116 
L 522.231118 357.184463 
L 522.599031 358.18281 
L 522.877838 359.181157 
L 523.062888 360.179504 
L 523.150685 361.177851 
L 523.13897 362.176198 
L 523.026772 363.174545 
z
" style="fill:#1f77b4;fill-opacity:0.3;"/>
   </g>
   <g id="PolyCollection_5">
    <path clip-path="url(#p012d3d0051)" d="M 623.676777 363.174545 
L 575.501305 363.174545 
L 574.933947 360.179504 
L 574.509307 357.184463 
L 574.23343 354.189421 
L 574.109589 351.19438 
L 574.138233 348.199339 
L 574.317043 345.204298 
L 574.641064 342.209256 
L 575.102919 339.214215 
L 575.69308 336.219174 
L 576.400197 333.224132 
L 577.211459 330.229091 
L 578.112969 327.23405 
L 579.090134 324.239008 
L 580.12803 321.243967 
L 581.211757 318.248926 
L 582.326754 315.253884 
L 583.459077 312.258843 
L 584.595631 309.263802 
L 585.724359 306.26876 
L 586.83438 303.273719 
L 587.916086 300.278678 
L 588.961194 297.283636 
L 589.962764 294.288595 
L 590.915183 291.293554 
L 591.814119 288.298512 
L 592.65646 285.303471 
L 593.440227 282.30843 
L 594.16448 279.313388 
L 594.829208 276.318347 
L 595.435227 273.323306 
L 595.984058 270.328264 
L 596.477817 267.333223 
L 596.919105 264.338182 
L 597.310898 261.34314 
L 597.656452 258.348099 
L 597.959204 255.353058 
L 598.222687 252.358017 
L 598.450459 249.362975 
L 598.646031 246.367934 
L 598.812816 243.372893 
L 598.954077 240.377851 
L 599.072896 237.38281 
L 599.172144 234.387769 
L 599.254465 231.392727 
L 599.322264 228.397686 
L 599.377705 225.402645 
L 599.422714 222.407603 
L 599.458987 219.412562 
L 599.488002 216.417521 
L 599.511032 213.422479 
L 599.529163 210.427438 
L 599.543311 207.432397 
L 599.55424 204.437355 
L 599.562578 201.442314 
L 599.568834 198.447273 
L 599.573414 195.452231 
L 599.576633 192.45719 
L 599.578727 189.462149 
L 599.579865 186.467107 
L 599.580154 183.472066 
L 599.579648 180.477025 
L 599.578355 177.481983 
L 599.576235 174.486942 
L 599.57321 171.491901 
L 599.56916 168.49686 
L 599.563929 165.501818 
L 599.557325 162.506777 
L 599.549123 159.511736 
L 599.539062 156.516694 
L 599.526858 153.521653 
L 599.5122 150.526612 
L 599.494759 147.53157 
L 599.474197 144.536529 
L 599.450176 141.541488 
L 599.422369 138.546446 
L 599.390473 135.551405 
L 599.354226 132.556364 
L 599.313422 129.561322 
L 599.267928 126.566281 
L 599.217701 123.57124 
L 599.162806 120.576198 
L 599.103429 117.581157 
L 599.039887 114.586116 
L 598.972642 111.591074 
L 598.9023 108.596033 
L 598.829611 105.600992 
L 598.755464 102.60595 
L 598.680871 99.610909 
L 598.606949 96.615868 
L 598.534897 93.620826 
L 598.465959 90.625785 
L 598.401397 87.630744 
L 598.342448 84.635702 
L 598.290289 81.640661 
L 598.245995 78.64562 
L 598.210501 75.650579 
L 598.184576 72.655537 
L 598.168788 69.660496 
L 598.163486 66.665455 
L 601.014597 66.665455 
L 601.014597 66.665455 
L 601.009294 69.660496 
L 600.993506 72.655537 
L 600.967581 75.650579 
L 600.932088 78.64562 
L 600.887793 81.640661 
L 600.835634 84.635702 
L 600.776686 87.630744 
L 600.712123 90.625785 
L 600.643186 93.620826 
L 600.571133 96.615868 
L 600.497211 99.610909 
L 600.422619 102.60595 
L 600.348471 105.600992 
L 600.275783 108.596033 
L 600.20544 111.591074 
L 600.138195 114.586116 
L 600.074654 117.581157 
L 600.015276 120.576198 
L 599.960381 123.57124 
L 599.910154 126.566281 
L 599.86466 129.561322 
L 599.823856 132.556364 
L 599.787609 135.551405 
L 599.755713 138.546446 
L 599.727906 141.541488 
L 599.703885 144.536529 
L 599.683323 147.53157 
L 599.665882 150.526612 
L 599.651224 153.521653 
L 599.63902 156.516694 
L 599.62896 159.511736 
L 599.620757 162.506777 
L 599.614153 165.501818 
L 599.608923 168.49686 
L 599.604873 171.491901 
L 599.601847 174.486942 
L 599.599727 177.481983 
L 599.598434 180.477025 
L 599.597928 183.472066 
L 599.598217 186.467107 
L 599.599355 189.462149 
L 599.601449 192.45719 
L 599.604668 195.452231 
L 599.609248 198.447273 
L 599.615504 201.442314 
L 599.623842 204.437355 
L 599.634771 207.432397 
L 599.648919 210.427438 
L 599.66705 213.422479 
L 599.69008 216.417521 
L 599.719095 219.412562 
L 599.755368 222.407603 
L 599.800378 225.402645 
L 599.855819 228.397686 
L 599.923617 231.392727 
L 600.005938 234.387769 
L 600.105187 237.38281 
L 600.224005 240.377851 
L 600.365266 243.372893 
L 600.532051 246.367934 
L 600.727623 249.362975 
L 600.955395 252.358017 
L 601.218878 255.353058 
L 601.52163 258.348099 
L 601.867184 261.34314 
L 602.258978 264.338182 
L 602.700265 267.333223 
L 603.194024 270.328264 
L 603.742855 273.323306 
L 604.348874 276.318347 
L 605.013603 279.313388 
L 605.737855 282.30843 
L 606.521622 285.303471 
L 607.363963 288.298512 
L 608.2629 291.293554 
L 609.215318 294.288595 
L 610.216888 297.283636 
L 611.261997 300.278678 
L 612.343702 303.273719 
L 613.453724 306.26876 
L 614.582451 309.263802 
L 615.719005 312.258843 
L 616.851328 315.253884 
L 617.966325 318.248926 
L 619.050052 321.243967 
L 620.087948 324.239008 
L 621.065113 327.23405 
L 621.966624 330.229091 
L 622.777885 333.224132 
L 623.485002 336.219174 
L 624.075163 339.214215 
L 624.537018 342.209256 
L 624.861039 345.204298 
L 625.039849 348.199339 
L 625.068493 351.19438 
L 624.944652 354.189421 
L 624.668776 357.184463 
L 624.244135 360.179504 
L 623.676777 363.174545 
z
" style="fill:#1f77b4;fill-opacity:0.3;"/>
   </g>
   <g id="matplotlib.axis_1">
    <g id="xtick_1">
     <g id="line2d_1">
      <defs>
       <path d="M 0 0 
L 0 6 
" id="mc0dd409b75" style="stroke:#000000;stroke-width:2;"/>
      </defs>
      <g>
       <use style="stroke:#000000;stroke-width:2;" x="90" xlink:href="#mc0dd409b75" y="378"/>
      </g>
     </g>
     <g id="text_1">
      <!-- 0 -->
      <g transform="translate(85.54625 398.137812)scale(0.14 -0.14)">
       <defs>
        <path d="M 31.78125 66.40625 
Q 24.171875 66.40625 20.328125 58.90625 
Q 16.5 51.421875 16.5 36.375 
Q 16.5 21.390625 20.328125 13.890625 
Q 24.171875 6.390625 31.78125 6.390625 
Q 39.453125 6.390625 43.28125 13.890625 
Q 47.125 21.390625 47.125 36.375 
Q 47.125 51.421875 43.28125 58.90625 
Q 39.453125 66.40625 31.78125 66.40625 
z
M 31.78125 74.21875 
Q 44.046875 74.21875 50.515625 64.515625 
Q 56.984375 54.828125 56.984375 36.375 
Q 56.984375 17.96875 50.515625 8.265625 
Q 44.046875 -1.421875 31.78125 -1.421875 
Q 19.53125 -1.421875 13.0625 8.265625 
Q 6.59375 17.96875 6.59375 36.375 
Q 6.59375 54.828125 13.0625 64.515625 
Q 19.53125 74.21875 31.78125 74.21875 
z
" id="DejaVuSans-48"/>
       </defs>
       <use xlink:href="#DejaVuSans-48"/>
      </g>
     </g>
    </g>
    <g id="xtick_2">
     <g id="line2d_2">
      <g>
       <use style="stroke:#000000;stroke-width:2;" x="191.917808" xlink:href="#mc0dd409b75" y="378"/>
      </g>
     </g>
     <g id="text_2">
      <!-- [0,20) -->
      <g transform="translate(170.869683 398.137812)scale(0.14 -0.14)">
       <defs>
        <path d="M 8.59375 75.984375 
L 29.296875 75.984375 
L 29.296875 69 
L 17.578125 69 
L 17.578125 -6.203125 
L 29.296875 -6.203125 
L 29.296875 -13.1875 
L 8.59375 -13.1875 
z
" id="DejaVuSans-91"/>
        <path d="M 11.71875 12.40625 
L 22.015625 12.40625 
L 22.015625 4 
L 14.015625 -11.625 
L 7.71875 -11.625 
L 11.71875 4 
z
" id="DejaVuSans-44"/>
        <path d="M 19.1875 8.296875 
L 53.609375 8.296875 
L 53.609375 0 
L 7.328125 0 
L 7.328125 8.296875 
Q 12.9375 14.109375 22.625 23.890625 
Q 32.328125 33.6875 34.8125 36.53125 
Q 39.546875 41.84375 41.421875 45.53125 
Q 43.3125 49.21875 43.3125 52.78125 
Q 43.3125 58.59375 39.234375 62.25 
Q 35.15625 65.921875 28.609375 65.921875 
Q 23.96875 65.921875 18.8125 64.3125 
Q 13.671875 62.703125 7.8125 59.421875 
L 7.8125 69.390625 
Q 13.765625 71.78125 18.9375 73 
Q 24.125 74.21875 28.421875 74.21875 
Q 39.75 74.21875 46.484375 68.546875 
Q 53.21875 62.890625 53.21875 53.421875 
Q 53.21875 48.921875 51.53125 44.890625 
Q 49.859375 40.875 45.40625 35.40625 
Q 44.1875 33.984375 37.640625 27.21875 
Q 31.109375 20.453125 19.1875 8.296875 
z
" id="DejaVuSans-50"/>
        <path d="M 8.015625 75.875 
L 15.828125 75.875 
Q 23.140625 64.359375 26.78125 53.3125 
Q 30.421875 42.28125 30.421875 31.390625 
Q 30.421875 20.453125 26.78125 9.375 
Q 23.140625 -1.703125 15.828125 -13.1875 
L 8.015625 -13.1875 
Q 14.5 -2 17.703125 9.0625 
Q 20.90625 20.125 20.90625 31.390625 
Q 20.90625 42.671875 17.703125 53.65625 
Q 14.5 64.65625 8.015625 75.875 
z
" id="DejaVuSans-41"/>
       </defs>
       <use xlink:href="#DejaVuSans-91"/>
       <use x="39.013672" xlink:href="#DejaVuSans-48"/>
       <use x="102.636719" xlink:href="#DejaVuSans-44"/>
       <use x="134.423828" xlink:href="#DejaVuSans-50"/>
       <use x="198.046875" xlink:href="#DejaVuSans-48"/>
       <use x="261.669922" xlink:href="#DejaVuSans-41"/>
      </g>
     </g>
    </g>
    <g id="xtick_3">
     <g id="line2d_3">
      <g>
       <use style="stroke:#000000;stroke-width:2;" x="293.835616" xlink:href="#mc0dd409b75" y="378"/>
      </g>
     </g>
     <g id="text_3">
      <!-- [20,40) -->
      <g transform="translate(268.333741 398.137812)scale(0.14 -0.14)">
       <defs>
        <path d="M 37.796875 64.3125 
L 12.890625 25.390625 
L 37.796875 25.390625 
z
M 35.203125 72.90625 
L 47.609375 72.90625 
L 47.609375 25.390625 
L 58.015625 25.390625 
L 58.015625 17.1875 
L 47.609375 17.1875 
L 47.609375 0 
L 37.796875 0 
L 37.796875 17.1875 
L 4.890625 17.1875 
L 4.890625 26.703125 
z
" id="DejaVuSans-52"/>
       </defs>
       <use xlink:href="#DejaVuSans-91"/>
       <use x="39.013672" xlink:href="#DejaVuSans-50"/>
       <use x="102.636719" xlink:href="#DejaVuSans-48"/>
       <use x="166.259766" xlink:href="#DejaVuSans-44"/>
       <use x="198.046875" xlink:href="#DejaVuSans-52"/>
       <use x="261.669922" xlink:href="#DejaVuSans-48"/>
       <use x="325.292969" xlink:href="#DejaVuSans-41"/>
      </g>
     </g>
    </g>
    <g id="xtick_4">
     <g id="line2d_4">
      <g>
       <use style="stroke:#000000;stroke-width:2;" x="395.753425" xlink:href="#mc0dd409b75" y="378"/>
      </g>
     </g>
     <g id="text_4">
      <!-- [40, 60) -->
      <g transform="translate(368.026862 398.137812)scale(0.14 -0.14)">
       <defs>
        <path id="DejaVuSans-32"/>
        <path d="M 33.015625 40.375 
Q 26.375 40.375 22.484375 35.828125 
Q 18.609375 31.296875 18.609375 23.390625 
Q 18.609375 15.53125 22.484375 10.953125 
Q 26.375 6.390625 33.015625 6.390625 
Q 39.65625 6.390625 43.53125 10.953125 
Q 47.40625 15.53125 47.40625 23.390625 
Q 47.40625 31.296875 43.53125 35.828125 
Q 39.65625 40.375 33.015625 40.375 
z
M 52.59375 71.296875 
L 52.59375 62.3125 
Q 48.875 64.0625 45.09375 64.984375 
Q 41.3125 65.921875 37.59375 65.921875 
Q 27.828125 65.921875 22.671875 59.328125 
Q 17.53125 52.734375 16.796875 39.40625 
Q 19.671875 43.65625 24.015625 45.921875 
Q 28.375 48.1875 33.59375 48.1875 
Q 44.578125 48.1875 50.953125 41.515625 
Q 57.328125 34.859375 57.328125 23.390625 
Q 57.328125 12.15625 50.6875 5.359375 
Q 44.046875 -1.421875 33.015625 -1.421875 
Q 20.359375 -1.421875 13.671875 8.265625 
Q 6.984375 17.96875 6.984375 36.375 
Q 6.984375 53.65625 15.1875 63.9375 
Q 23.390625 74.21875 37.203125 74.21875 
Q 40.921875 74.21875 44.703125 73.484375 
Q 48.484375 72.75 52.59375 71.296875 
z
" id="DejaVuSans-54"/>
       </defs>
       <use xlink:href="#DejaVuSans-91"/>
       <use x="39.013672" xlink:href="#DejaVuSans-52"/>
       <use x="102.636719" xlink:href="#DejaVuSans-48"/>
       <use x="166.259766" xlink:href="#DejaVuSans-44"/>
       <use x="198.046875" xlink:href="#DejaVuSans-32"/>
       <use x="229.833984" xlink:href="#DejaVuSans-54"/>
       <use x="293.457031" xlink:href="#DejaVuSans-48"/>
       <use x="357.080078" xlink:href="#DejaVuSans-41"/>
      </g>
     </g>
    </g>
    <g id="xtick_5">
     <g id="line2d_5">
      <g>
       <use style="stroke:#000000;stroke-width:2;" x="497.671233" xlink:href="#mc0dd409b75" y="378"/>
      </g>
     </g>
     <g id="text_5">
      <!-- [60,80) -->
      <g transform="translate(472.169358 398.137812)scale(0.14 -0.14)">
       <defs>
        <path d="M 31.78125 34.625 
Q 24.75 34.625 20.71875 30.859375 
Q 16.703125 27.09375 16.703125 20.515625 
Q 16.703125 13.921875 20.71875 10.15625 
Q 24.75 6.390625 31.78125 6.390625 
Q 38.8125 6.390625 42.859375 10.171875 
Q 46.921875 13.96875 46.921875 20.515625 
Q 46.921875 27.09375 42.890625 30.859375 
Q 38.875 34.625 31.78125 34.625 
z
M 21.921875 38.8125 
Q 15.578125 40.375 12.03125 44.71875 
Q 8.5 49.078125 8.5 55.328125 
Q 8.5 64.0625 14.71875 69.140625 
Q 20.953125 74.21875 31.78125 74.21875 
Q 42.671875 74.21875 48.875 69.140625 
Q 55.078125 64.0625 55.078125 55.328125 
Q 55.078125 49.078125 51.53125 44.71875 
Q 48 40.375 41.703125 38.8125 
Q 48.828125 37.15625 52.796875 32.3125 
Q 56.78125 27.484375 56.78125 20.515625 
Q 56.78125 9.90625 50.3125 4.234375 
Q 43.84375 -1.421875 31.78125 -1.421875 
Q 19.734375 -1.421875 13.25 4.234375 
Q 6.78125 9.90625 6.78125 20.515625 
Q 6.78125 27.484375 10.78125 32.3125 
Q 14.796875 37.15625 21.921875 38.8125 
z
M 18.3125 54.390625 
Q 18.3125 48.734375 21.84375 45.5625 
Q 25.390625 42.390625 31.78125 42.390625 
Q 38.140625 42.390625 41.71875 45.5625 
Q 45.3125 48.734375 45.3125 54.390625 
Q 45.3125 60.0625 41.71875 63.234375 
Q 38.140625 66.40625 31.78125 66.40625 
Q 25.390625 66.40625 21.84375 63.234375 
Q 18.3125 60.0625 18.3125 54.390625 
z
" id="DejaVuSans-56"/>
       </defs>
       <use xlink:href="#DejaVuSans-91"/>
       <use x="39.013672" xlink:href="#DejaVuSans-54"/>
       <use x="102.636719" xlink:href="#DejaVuSans-48"/>
       <use x="166.259766" xlink:href="#DejaVuSans-44"/>
       <use x="198.046875" xlink:href="#DejaVuSans-56"/>
       <use x="261.669922" xlink:href="#DejaVuSans-48"/>
       <use x="325.292969" xlink:href="#DejaVuSans-41"/>
      </g>
     </g>
    </g>
    <g id="xtick_6">
     <g id="line2d_6">
      <g>
       <use style="stroke:#000000;stroke-width:2;" x="599.589041" xlink:href="#mc0dd409b75" y="378"/>
      </g>
     </g>
     <g id="text_6">
      <!-- [80,100] -->
      <g transform="translate(569.633416 398.137812)scale(0.14 -0.14)">
       <defs>
        <path d="M 12.40625 8.296875 
L 28.515625 8.296875 
L 28.515625 63.921875 
L 10.984375 60.40625 
L 10.984375 69.390625 
L 28.421875 72.90625 
L 38.28125 72.90625 
L 38.28125 8.296875 
L 54.390625 8.296875 
L 54.390625 0 
L 12.40625 0 
z
" id="DejaVuSans-49"/>
        <path d="M 30.421875 75.984375 
L 30.421875 -13.1875 
L 9.71875 -13.1875 
L 9.71875 -6.203125 
L 21.390625 -6.203125 
L 21.390625 69 
L 9.71875 69 
L 9.71875 75.984375 
z
" id="DejaVuSans-93"/>
       </defs>
       <use xlink:href="#DejaVuSans-91"/>
       <use x="39.013672" xlink:href="#DejaVuSans-56"/>
       <use x="102.636719" xlink:href="#DejaVuSans-48"/>
       <use x="166.259766" xlink:href="#DejaVuSans-44"/>
       <use x="198.046875" xlink:href="#DejaVuSans-49"/>
       <use x="261.669922" xlink:href="#DejaVuSans-48"/>
       <use x="325.292969" xlink:href="#DejaVuSans-48"/>
       <use x="388.916016" xlink:href="#DejaVuSans-93"/>
      </g>
     </g>
    </g>
    <g id="text_7">
     <!-- MCP-MCP Similiarity (%) -->
     <g transform="translate(260.655469 418.726562)scale(0.18 -0.18)">
      <defs>
       <path d="M 9.8125 72.90625 
L 24.515625 72.90625 
L 43.109375 23.296875 
L 61.8125 72.90625 
L 76.515625 72.90625 
L 76.515625 0 
L 66.890625 0 
L 66.890625 64.015625 
L 48.09375 14.015625 
L 38.1875 14.015625 
L 19.390625 64.015625 
L 19.390625 0 
L 9.8125 0 
z
" id="DejaVuSans-77"/>
       <path d="M 64.40625 67.28125 
L 64.40625 56.890625 
Q 59.421875 61.53125 53.78125 63.8125 
Q 48.140625 66.109375 41.796875 66.109375 
Q 29.296875 66.109375 22.65625 58.46875 
Q 16.015625 50.828125 16.015625 36.375 
Q 16.015625 21.96875 22.65625 14.328125 
Q 29.296875 6.6875 41.796875 6.6875 
Q 48.140625 6.6875 53.78125 8.984375 
Q 59.421875 11.28125 64.40625 15.921875 
L 64.40625 5.609375 
Q 59.234375 2.09375 53.4375 0.328125 
Q 47.65625 -1.421875 41.21875 -1.421875 
Q 24.65625 -1.421875 15.125 8.703125 
Q 5.609375 18.84375 5.609375 36.375 
Q 5.609375 53.953125 15.125 64.078125 
Q 24.65625 74.21875 41.21875 74.21875 
Q 47.75 74.21875 53.53125 72.484375 
Q 59.328125 70.75 64.40625 67.28125 
z
" id="DejaVuSans-67"/>
       <path d="M 19.671875 64.796875 
L 19.671875 37.40625 
L 32.078125 37.40625 
Q 38.96875 37.40625 42.71875 40.96875 
Q 46.484375 44.53125 46.484375 51.125 
Q 46.484375 57.671875 42.71875 61.234375 
Q 38.96875 64.796875 32.078125 64.796875 
z
M 9.8125 72.90625 
L 32.078125 72.90625 
Q 44.34375 72.90625 50.609375 67.359375 
Q 56.890625 61.8125 56.890625 51.125 
Q 56.890625 40.328125 50.609375 34.8125 
Q 44.34375 29.296875 32.078125 29.296875 
L 19.671875 29.296875 
L 19.671875 0 
L 9.8125 0 
z
" id="DejaVuSans-80"/>
       <path d="M 4.890625 31.390625 
L 31.203125 31.390625 
L 31.203125 23.390625 
L 4.890625 23.390625 
z
" id="DejaVuSans-45"/>
       <path d="M 53.515625 70.515625 
L 53.515625 60.890625 
Q 47.90625 63.578125 42.921875 64.890625 
Q 37.9375 66.21875 33.296875 66.21875 
Q 25.25 66.21875 20.875 63.09375 
Q 16.5 59.96875 16.5 54.203125 
Q 16.5 49.359375 19.40625 46.890625 
Q 22.3125 44.4375 30.421875 42.921875 
L 36.375 41.703125 
Q 47.40625 39.59375 52.65625 34.296875 
Q 57.90625 29 57.90625 20.125 
Q 57.90625 9.515625 50.796875 4.046875 
Q 43.703125 -1.421875 29.984375 -1.421875 
Q 24.8125 -1.421875 18.96875 -0.25 
Q 13.140625 0.921875 6.890625 3.21875 
L 6.890625 13.375 
Q 12.890625 10.015625 18.65625 8.296875 
Q 24.421875 6.59375 29.984375 6.59375 
Q 38.421875 6.59375 43.015625 9.90625 
Q 47.609375 13.234375 47.609375 19.390625 
Q 47.609375 24.75 44.3125 27.78125 
Q 41.015625 30.8125 33.5 32.328125 
L 27.484375 33.5 
Q 16.453125 35.6875 11.515625 40.375 
Q 6.59375 45.0625 6.59375 53.421875 
Q 6.59375 63.09375 13.40625 68.65625 
Q 20.21875 74.21875 32.171875 74.21875 
Q 37.3125 74.21875 42.625 73.28125 
Q 47.953125 72.359375 53.515625 70.515625 
z
" id="DejaVuSans-83"/>
       <path d="M 9.421875 54.6875 
L 18.40625 54.6875 
L 18.40625 0 
L 9.421875 0 
z
M 9.421875 75.984375 
L 18.40625 75.984375 
L 18.40625 64.59375 
L 9.421875 64.59375 
z
" id="DejaVuSans-105"/>
       <path d="M 52 44.1875 
Q 55.375 50.25 60.0625 53.125 
Q 64.75 56 71.09375 56 
Q 79.640625 56 84.28125 50.015625 
Q 88.921875 44.046875 88.921875 33.015625 
L 88.921875 0 
L 79.890625 0 
L 79.890625 32.71875 
Q 79.890625 40.578125 77.09375 44.375 
Q 74.3125 48.1875 68.609375 48.1875 
Q 61.625 48.1875 57.5625 43.546875 
Q 53.515625 38.921875 53.515625 30.90625 
L 53.515625 0 
L 44.484375 0 
L 44.484375 32.71875 
Q 44.484375 40.625 41.703125 44.40625 
Q 38.921875 48.1875 33.109375 48.1875 
Q 26.21875 48.1875 22.15625 43.53125 
Q 18.109375 38.875 18.109375 30.90625 
L 18.109375 0 
L 9.078125 0 
L 9.078125 54.6875 
L 18.109375 54.6875 
L 18.109375 46.1875 
Q 21.1875 51.21875 25.484375 53.609375 
Q 29.78125 56 35.6875 56 
Q 41.65625 56 45.828125 52.96875 
Q 50 49.953125 52 44.1875 
z
" id="DejaVuSans-109"/>
       <path d="M 9.421875 75.984375 
L 18.40625 75.984375 
L 18.40625 0 
L 9.421875 0 
z
" id="DejaVuSans-108"/>
       <path d="M 34.28125 27.484375 
Q 23.390625 27.484375 19.1875 25 
Q 14.984375 22.515625 14.984375 16.5 
Q 14.984375 11.71875 18.140625 8.90625 
Q 21.296875 6.109375 26.703125 6.109375 
Q 34.1875 6.109375 38.703125 11.40625 
Q 43.21875 16.703125 43.21875 25.484375 
L 43.21875 27.484375 
z
M 52.203125 31.203125 
L 52.203125 0 
L 43.21875 0 
L 43.21875 8.296875 
Q 40.140625 3.328125 35.546875 0.953125 
Q 30.953125 -1.421875 24.3125 -1.421875 
Q 15.921875 -1.421875 10.953125 3.296875 
Q 6 8.015625 6 15.921875 
Q 6 25.140625 12.171875 29.828125 
Q 18.359375 34.515625 30.609375 34.515625 
L 43.21875 34.515625 
L 43.21875 35.40625 
Q 43.21875 41.609375 39.140625 45 
Q 35.0625 48.390625 27.6875 48.390625 
Q 23 48.390625 18.546875 47.265625 
Q 14.109375 46.140625 10.015625 43.890625 
L 10.015625 52.203125 
Q 14.9375 54.109375 19.578125 55.046875 
Q 24.21875 56 28.609375 56 
Q 40.484375 56 46.34375 49.84375 
Q 52.203125 43.703125 52.203125 31.203125 
z
" id="DejaVuSans-97"/>
       <path d="M 41.109375 46.296875 
Q 39.59375 47.171875 37.8125 47.578125 
Q 36.03125 48 33.890625 48 
Q 26.265625 48 22.1875 43.046875 
Q 18.109375 38.09375 18.109375 28.8125 
L 18.109375 0 
L 9.078125 0 
L 9.078125 54.6875 
L 18.109375 54.6875 
L 18.109375 46.1875 
Q 20.953125 51.171875 25.484375 53.578125 
Q 30.03125 56 36.53125 56 
Q 37.453125 56 38.578125 55.875 
Q 39.703125 55.765625 41.0625 55.515625 
z
" id="DejaVuSans-114"/>
       <path d="M 18.3125 70.21875 
L 18.3125 54.6875 
L 36.8125 54.6875 
L 36.8125 47.703125 
L 18.3125 47.703125 
L 18.3125 18.015625 
Q 18.3125 11.328125 20.140625 9.421875 
Q 21.96875 7.515625 27.59375 7.515625 
L 36.8125 7.515625 
L 36.8125 0 
L 27.59375 0 
Q 17.1875 0 13.234375 3.875 
Q 9.28125 7.765625 9.28125 18.015625 
L 9.28125 47.703125 
L 2.6875 47.703125 
L 2.6875 54.6875 
L 9.28125 54.6875 
L 9.28125 70.21875 
z
" id="DejaVuSans-116"/>
       <path d="M 32.171875 -5.078125 
Q 28.375 -14.84375 24.75 -17.8125 
Q 21.140625 -20.796875 15.09375 -20.796875 
L 7.90625 -20.796875 
L 7.90625 -13.28125 
L 13.1875 -13.28125 
Q 16.890625 -13.28125 18.9375 -11.515625 
Q 21 -9.765625 23.484375 -3.21875 
L 25.09375 0.875 
L 2.984375 54.6875 
L 12.5 54.6875 
L 29.59375 11.921875 
L 46.6875 54.6875 
L 56.203125 54.6875 
z
" id="DejaVuSans-121"/>
       <path d="M 31 75.875 
Q 24.46875 64.65625 21.28125 53.65625 
Q 18.109375 42.671875 18.109375 31.390625 
Q 18.109375 20.125 21.3125 9.0625 
Q 24.515625 -2 31 -13.1875 
L 23.1875 -13.1875 
Q 15.875 -1.703125 12.234375 9.375 
Q 8.59375 20.453125 8.59375 31.390625 
Q 8.59375 42.28125 12.203125 53.3125 
Q 15.828125 64.359375 23.1875 75.875 
z
" id="DejaVuSans-40"/>
       <path d="M 72.703125 32.078125 
Q 68.453125 32.078125 66.03125 28.46875 
Q 63.625 24.859375 63.625 18.40625 
Q 63.625 12.0625 66.03125 8.421875 
Q 68.453125 4.78125 72.703125 4.78125 
Q 76.859375 4.78125 79.265625 8.421875 
Q 81.6875 12.0625 81.6875 18.40625 
Q 81.6875 24.8125 79.265625 28.4375 
Q 76.859375 32.078125 72.703125 32.078125 
z
M 72.703125 38.28125 
Q 80.421875 38.28125 84.953125 32.90625 
Q 89.5 27.546875 89.5 18.40625 
Q 89.5 9.28125 84.9375 3.921875 
Q 80.375 -1.421875 72.703125 -1.421875 
Q 64.890625 -1.421875 60.34375 3.921875 
Q 55.8125 9.28125 55.8125 18.40625 
Q 55.8125 27.59375 60.375 32.9375 
Q 64.9375 38.28125 72.703125 38.28125 
z
M 22.3125 68.015625 
Q 18.109375 68.015625 15.6875 64.375 
Q 13.28125 60.75 13.28125 54.390625 
Q 13.28125 47.953125 15.671875 44.328125 
Q 18.0625 40.71875 22.3125 40.71875 
Q 26.5625 40.71875 28.96875 44.328125 
Q 31.390625 47.953125 31.390625 54.390625 
Q 31.390625 60.6875 28.953125 64.34375 
Q 26.515625 68.015625 22.3125 68.015625 
z
M 66.40625 74.21875 
L 74.21875 74.21875 
L 28.609375 -1.421875 
L 20.796875 -1.421875 
z
M 22.3125 74.21875 
Q 30.03125 74.21875 34.609375 68.875 
Q 39.203125 63.53125 39.203125 54.390625 
Q 39.203125 45.171875 34.640625 39.84375 
Q 30.078125 34.515625 22.3125 34.515625 
Q 14.546875 34.515625 10.03125 39.859375 
Q 5.515625 45.21875 5.515625 54.390625 
Q 5.515625 63.484375 10.046875 68.84375 
Q 14.59375 74.21875 22.3125 74.21875 
z
" id="DejaVuSans-37"/>
      </defs>
      <use xlink:href="#DejaVuSans-77"/>
      <use x="86.279297" xlink:href="#DejaVuSans-67"/>
      <use x="156.103516" xlink:href="#DejaVuSans-80"/>
      <use x="214.15625" xlink:href="#DejaVuSans-45"/>
      <use x="250.240234" xlink:href="#DejaVuSans-77"/>
      <use x="336.519531" xlink:href="#DejaVuSans-67"/>
      <use x="406.34375" xlink:href="#DejaVuSans-80"/>
      <use x="466.646484" xlink:href="#DejaVuSans-32"/>
      <use x="498.433594" xlink:href="#DejaVuSans-83"/>
      <use x="561.910156" xlink:href="#DejaVuSans-105"/>
      <use x="589.693359" xlink:href="#DejaVuSans-109"/>
      <use x="687.105469" xlink:href="#DejaVuSans-105"/>
      <use x="714.888672" xlink:href="#DejaVuSans-108"/>
      <use x="742.671875" xlink:href="#DejaVuSans-105"/>
      <use x="770.455078" xlink:href="#DejaVuSans-97"/>
      <use x="831.734375" xlink:href="#DejaVuSans-114"/>
      <use x="872.847656" xlink:href="#DejaVuSans-105"/>
      <use x="900.630859" xlink:href="#DejaVuSans-116"/>
      <use x="939.839844" xlink:href="#DejaVuSans-121"/>
      <use x="999.019531" xlink:href="#DejaVuSans-32"/>
      <use x="1030.806641" xlink:href="#DejaVuSans-40"/>
      <use x="1069.820312" xlink:href="#DejaVuSans-37"/>
      <use x="1164.839844" xlink:href="#DejaVuSans-41"/>
     </g>
    </g>
   </g>
   <g id="matplotlib.axis_2">
    <g id="ytick_1">
     <g id="line2d_7">
      <defs>
       <path d="M 0 0 
L -6 0 
" id="mf2cfd432dc" style="stroke:#000000;stroke-width:2;"/>
      </defs>
      <g>
       <use style="stroke:#000000;stroke-width:2;" x="90" xlink:href="#mf2cfd432dc" y="363.174545"/>
      </g>
     </g>
     <g id="text_8">
      <!-- 0.0 -->
      <g transform="translate(64.596875 366.973764)scale(0.1 -0.1)">
       <defs>
        <path d="M 10.6875 12.40625 
L 21 12.40625 
L 21 0 
L 10.6875 0 
z
" id="DejaVuSans-46"/>
       </defs>
       <use xlink:href="#DejaVuSans-48"/>
       <use x="63.623047" xlink:href="#DejaVuSans-46"/>
       <use x="95.410156" xlink:href="#DejaVuSans-48"/>
      </g>
     </g>
    </g>
    <g id="ytick_2">
     <g id="line2d_8">
      <g>
       <use style="stroke:#000000;stroke-width:2;" x="90" xlink:href="#mf2cfd432dc" y="303.872727"/>
      </g>
     </g>
     <g id="text_9">
      <!-- 0.2 -->
      <g transform="translate(64.596875 307.671946)scale(0.1 -0.1)">
       <use xlink:href="#DejaVuSans-48"/>
       <use x="63.623047" xlink:href="#DejaVuSans-46"/>
       <use x="95.410156" xlink:href="#DejaVuSans-50"/>
      </g>
     </g>
    </g>
    <g id="ytick_3">
     <g id="line2d_9">
      <g>
       <use style="stroke:#000000;stroke-width:2;" x="90" xlink:href="#mf2cfd432dc" y="244.570909"/>
      </g>
     </g>
     <g id="text_10">
      <!-- 0.4 -->
      <g transform="translate(64.596875 248.370128)scale(0.1 -0.1)">
       <use xlink:href="#DejaVuSans-48"/>
       <use x="63.623047" xlink:href="#DejaVuSans-46"/>
       <use x="95.410156" xlink:href="#DejaVuSans-52"/>
      </g>
     </g>
    </g>
    <g id="ytick_4">
     <g id="line2d_10">
      <g>
       <use style="stroke:#000000;stroke-width:2;" x="90" xlink:href="#mf2cfd432dc" y="185.269091"/>
      </g>
     </g>
     <g id="text_11">
      <!-- 0.6 -->
      <g transform="translate(64.596875 189.06831)scale(0.1 -0.1)">
       <use xlink:href="#DejaVuSans-48"/>
       <use x="63.623047" xlink:href="#DejaVuSans-46"/>
       <use x="95.410156" xlink:href="#DejaVuSans-54"/>
      </g>
     </g>
    </g>
    <g id="ytick_5">
     <g id="line2d_11">
      <g>
       <use style="stroke:#000000;stroke-width:2;" x="90" xlink:href="#mf2cfd432dc" y="125.967273"/>
      </g>
     </g>
     <g id="text_12">
      <!-- 0.8 -->
      <g transform="translate(64.596875 129.766491)scale(0.1 -0.1)">
       <use xlink:href="#DejaVuSans-48"/>
       <use x="63.623047" xlink:href="#DejaVuSans-46"/>
       <use x="95.410156" xlink:href="#DejaVuSans-56"/>
      </g>
     </g>
    </g>
    <g id="ytick_6">
     <g id="line2d_12">
      <g>
       <use style="stroke:#000000;stroke-width:2;" x="90" xlink:href="#mf2cfd432dc" y="66.665455"/>
      </g>
     </g>
     <g id="text_13">
      <!-- 1.0 -->
      <g transform="translate(64.596875 70.464673)scale(0.1 -0.1)">
       <use xlink:href="#DejaVuSans-49"/>
       <use x="63.623047" xlink:href="#DejaVuSans-46"/>
       <use x="95.410156" xlink:href="#DejaVuSans-48"/>
      </g>
     </g>
    </g>
    <g id="text_14">
     <!-- Frequency within T-Number (%) -->
     <g transform="translate(56.853437 356.942812)rotate(-90)scale(0.18 -0.18)">
      <defs>
       <path d="M 9.8125 72.90625 
L 51.703125 72.90625 
L 51.703125 64.59375 
L 19.671875 64.59375 
L 19.671875 43.109375 
L 48.578125 43.109375 
L 48.578125 34.8125 
L 19.671875 34.8125 
L 19.671875 0 
L 9.8125 0 
z
" id="DejaVuSans-70"/>
       <path d="M 56.203125 29.59375 
L 56.203125 25.203125 
L 14.890625 25.203125 
Q 15.484375 15.921875 20.484375 11.0625 
Q 25.484375 6.203125 34.421875 6.203125 
Q 39.59375 6.203125 44.453125 7.46875 
Q 49.3125 8.734375 54.109375 11.28125 
L 54.109375 2.78125 
Q 49.265625 0.734375 44.1875 -0.34375 
Q 39.109375 -1.421875 33.890625 -1.421875 
Q 20.796875 -1.421875 13.15625 6.1875 
Q 5.515625 13.8125 5.515625 26.8125 
Q 5.515625 40.234375 12.765625 48.109375 
Q 20.015625 56 32.328125 56 
Q 43.359375 56 49.78125 48.890625 
Q 56.203125 41.796875 56.203125 29.59375 
z
M 47.21875 32.234375 
Q 47.125 39.59375 43.09375 43.984375 
Q 39.0625 48.390625 32.421875 48.390625 
Q 24.90625 48.390625 20.390625 44.140625 
Q 15.875 39.890625 15.1875 32.171875 
z
" id="DejaVuSans-101"/>
       <path d="M 14.796875 27.296875 
Q 14.796875 17.390625 18.875 11.75 
Q 22.953125 6.109375 30.078125 6.109375 
Q 37.203125 6.109375 41.296875 11.75 
Q 45.40625 17.390625 45.40625 27.296875 
Q 45.40625 37.203125 41.296875 42.84375 
Q 37.203125 48.484375 30.078125 48.484375 
Q 22.953125 48.484375 18.875 42.84375 
Q 14.796875 37.203125 14.796875 27.296875 
z
M 45.40625 8.203125 
Q 42.578125 3.328125 38.25 0.953125 
Q 33.9375 -1.421875 27.875 -1.421875 
Q 17.96875 -1.421875 11.734375 6.484375 
Q 5.515625 14.40625 5.515625 27.296875 
Q 5.515625 40.1875 11.734375 48.09375 
Q 17.96875 56 27.875 56 
Q 33.9375 56 38.25 53.625 
Q 42.578125 51.265625 45.40625 46.390625 
L 45.40625 54.6875 
L 54.390625 54.6875 
L 54.390625 -20.796875 
L 45.40625 -20.796875 
z
" id="DejaVuSans-113"/>
       <path d="M 8.5 21.578125 
L 8.5 54.6875 
L 17.484375 54.6875 
L 17.484375 21.921875 
Q 17.484375 14.15625 20.5 10.265625 
Q 23.53125 6.390625 29.59375 6.390625 
Q 36.859375 6.390625 41.078125 11.03125 
Q 45.3125 15.671875 45.3125 23.6875 
L 45.3125 54.6875 
L 54.296875 54.6875 
L 54.296875 0 
L 45.3125 0 
L 45.3125 8.40625 
Q 42.046875 3.421875 37.71875 1 
Q 33.40625 -1.421875 27.6875 -1.421875 
Q 18.265625 -1.421875 13.375 4.4375 
Q 8.5 10.296875 8.5 21.578125 
z
M 31.109375 56 
z
" id="DejaVuSans-117"/>
       <path d="M 54.890625 33.015625 
L 54.890625 0 
L 45.90625 0 
L 45.90625 32.71875 
Q 45.90625 40.484375 42.875 44.328125 
Q 39.84375 48.1875 33.796875 48.1875 
Q 26.515625 48.1875 22.3125 43.546875 
Q 18.109375 38.921875 18.109375 30.90625 
L 18.109375 0 
L 9.078125 0 
L 9.078125 54.6875 
L 18.109375 54.6875 
L 18.109375 46.1875 
Q 21.34375 51.125 25.703125 53.5625 
Q 30.078125 56 35.796875 56 
Q 45.21875 56 50.046875 50.171875 
Q 54.890625 44.34375 54.890625 33.015625 
z
" id="DejaVuSans-110"/>
       <path d="M 48.78125 52.59375 
L 48.78125 44.1875 
Q 44.96875 46.296875 41.140625 47.34375 
Q 37.3125 48.390625 33.40625 48.390625 
Q 24.65625 48.390625 19.8125 42.84375 
Q 14.984375 37.3125 14.984375 27.296875 
Q 14.984375 17.28125 19.8125 11.734375 
Q 24.65625 6.203125 33.40625 6.203125 
Q 37.3125 6.203125 41.140625 7.25 
Q 44.96875 8.296875 48.78125 10.40625 
L 48.78125 2.09375 
Q 45.015625 0.34375 40.984375 -0.53125 
Q 36.96875 -1.421875 32.421875 -1.421875 
Q 20.0625 -1.421875 12.78125 6.34375 
Q 5.515625 14.109375 5.515625 27.296875 
Q 5.515625 40.671875 12.859375 48.328125 
Q 20.21875 56 33.015625 56 
Q 37.15625 56 41.109375 55.140625 
Q 45.0625 54.296875 48.78125 52.59375 
z
" id="DejaVuSans-99"/>
       <path d="M 4.203125 54.6875 
L 13.1875 54.6875 
L 24.421875 12.015625 
L 35.59375 54.6875 
L 46.1875 54.6875 
L 57.421875 12.015625 
L 68.609375 54.6875 
L 77.59375 54.6875 
L 63.28125 0 
L 52.6875 0 
L 40.921875 44.828125 
L 29.109375 0 
L 18.5 0 
z
" id="DejaVuSans-119"/>
       <path d="M 54.890625 33.015625 
L 54.890625 0 
L 45.90625 0 
L 45.90625 32.71875 
Q 45.90625 40.484375 42.875 44.328125 
Q 39.84375 48.1875 33.796875 48.1875 
Q 26.515625 48.1875 22.3125 43.546875 
Q 18.109375 38.921875 18.109375 30.90625 
L 18.109375 0 
L 9.078125 0 
L 9.078125 75.984375 
L 18.109375 75.984375 
L 18.109375 46.1875 
Q 21.34375 51.125 25.703125 53.5625 
Q 30.078125 56 35.796875 56 
Q 45.21875 56 50.046875 50.171875 
Q 54.890625 44.34375 54.890625 33.015625 
z
" id="DejaVuSans-104"/>
       <path d="M -0.296875 72.90625 
L 61.375 72.90625 
L 61.375 64.59375 
L 35.5 64.59375 
L 35.5 0 
L 25.59375 0 
L 25.59375 64.59375 
L -0.296875 64.59375 
z
" id="DejaVuSans-84"/>
       <path d="M 9.8125 72.90625 
L 23.09375 72.90625 
L 55.421875 11.921875 
L 55.421875 72.90625 
L 64.984375 72.90625 
L 64.984375 0 
L 51.703125 0 
L 19.390625 60.984375 
L 19.390625 0 
L 9.8125 0 
z
" id="DejaVuSans-78"/>
       <path d="M 48.6875 27.296875 
Q 48.6875 37.203125 44.609375 42.84375 
Q 40.53125 48.484375 33.40625 48.484375 
Q 26.265625 48.484375 22.1875 42.84375 
Q 18.109375 37.203125 18.109375 27.296875 
Q 18.109375 17.390625 22.1875 11.75 
Q 26.265625 6.109375 33.40625 6.109375 
Q 40.53125 6.109375 44.609375 11.75 
Q 48.6875 17.390625 48.6875 27.296875 
z
M 18.109375 46.390625 
Q 20.953125 51.265625 25.265625 53.625 
Q 29.59375 56 35.59375 56 
Q 45.5625 56 51.78125 48.09375 
Q 58.015625 40.1875 58.015625 27.296875 
Q 58.015625 14.40625 51.78125 6.484375 
Q 45.5625 -1.421875 35.59375 -1.421875 
Q 29.59375 -1.421875 25.265625 0.953125 
Q 20.953125 3.328125 18.109375 8.203125 
L 18.109375 0 
L 9.078125 0 
L 9.078125 75.984375 
L 18.109375 75.984375 
z
" id="DejaVuSans-98"/>
      </defs>
      <use xlink:href="#DejaVuSans-70"/>
      <use x="50.269531" xlink:href="#DejaVuSans-114"/>
      <use x="89.132812" xlink:href="#DejaVuSans-101"/>
      <use x="150.65625" xlink:href="#DejaVuSans-113"/>
      <use x="214.132812" xlink:href="#DejaVuSans-117"/>
      <use x="277.511719" xlink:href="#DejaVuSans-101"/>
      <use x="339.035156" xlink:href="#DejaVuSans-110"/>
      <use x="402.414062" xlink:href="#DejaVuSans-99"/>
      <use x="457.394531" xlink:href="#DejaVuSans-121"/>
      <use x="516.574219" xlink:href="#DejaVuSans-32"/>
      <use x="548.361328" xlink:href="#DejaVuSans-119"/>
      <use x="630.148438" xlink:href="#DejaVuSans-105"/>
      <use x="657.931641" xlink:href="#DejaVuSans-116"/>
      <use x="697.140625" xlink:href="#DejaVuSans-104"/>
      <use x="760.519531" xlink:href="#DejaVuSans-105"/>
      <use x="788.302734" xlink:href="#DejaVuSans-110"/>
      <use x="851.681641" xlink:href="#DejaVuSans-32"/>
      <use x="883.46875" xlink:href="#DejaVuSans-84"/>
      <use x="935.427734" xlink:href="#DejaVuSans-45"/>
      <use x="971.511719" xlink:href="#DejaVuSans-78"/>
      <use x="1046.316406" xlink:href="#DejaVuSans-117"/>
      <use x="1109.695312" xlink:href="#DejaVuSans-109"/>
      <use x="1207.107422" xlink:href="#DejaVuSans-98"/>
      <use x="1270.583984" xlink:href="#DejaVuSans-101"/>
      <use x="1332.107422" xlink:href="#DejaVuSans-114"/>
      <use x="1373.220703" xlink:href="#DejaVuSans-32"/>
      <use x="1405.007812" xlink:href="#DejaVuSans-40"/>
      <use x="1444.021484" xlink:href="#DejaVuSans-37"/>
      <use x="1539.041016" xlink:href="#DejaVuSans-41"/>
     </g>
    </g>
   </g>
   <g id="LineCollection_1">
    <path clip-path="url(#p012d3d0051)" d="M 179.178082 66.665455 
L 204.657534 66.665455 
" style="fill:none;stroke:#1f77b4;stroke-width:1.5;"/>
    <path clip-path="url(#p012d3d0051)" d="M 281.09589 207.86026 
L 306.575342 207.86026 
" style="fill:none;stroke:#1f77b4;stroke-width:1.5;"/>
    <path clip-path="url(#p012d3d0051)" d="M 383.013699 298.007712 
L 408.493151 298.007712 
" style="fill:none;stroke:#1f77b4;stroke-width:1.5;"/>
    <path clip-path="url(#p012d3d0051)" d="M 484.931507 264.338182 
L 510.410959 264.338182 
" style="fill:none;stroke:#1f77b4;stroke-width:1.5;"/>
    <path clip-path="url(#p012d3d0051)" d="M 586.849315 66.665455 
L 612.328767 66.665455 
" style="fill:none;stroke:#1f77b4;stroke-width:1.5;"/>
   </g>
   <g id="LineCollection_2">
    <path clip-path="url(#p012d3d0051)" d="M 179.178082 363.174545 
L 204.657534 363.174545 
" style="fill:none;stroke:#1f77b4;stroke-width:1.5;"/>
    <path clip-path="url(#p012d3d0051)" d="M 281.09589 363.174545 
L 306.575342 363.174545 
" style="fill:none;stroke:#1f77b4;stroke-width:1.5;"/>
    <path clip-path="url(#p012d3d0051)" d="M 383.013699 363.174545 
L 408.493151 363.174545 
" style="fill:none;stroke:#1f77b4;stroke-width:1.5;"/>
    <path clip-path="url(#p012d3d0051)" d="M 484.931507 363.174545 
L 510.410959 363.174545 
" style="fill:none;stroke:#1f77b4;stroke-width:1.5;"/>
    <path clip-path="url(#p012d3d0051)" d="M 586.849315 363.174545 
L 612.328767 363.174545 
" style="fill:none;stroke:#1f77b4;stroke-width:1.5;"/>
   </g>
   <g id="LineCollection_3">
    <path clip-path="url(#p012d3d0051)" d="M 191.917808 363.174545 
L 191.917808 66.665455 
" style="fill:none;stroke:#1f77b4;stroke-width:1.5;"/>
    <path clip-path="url(#p012d3d0051)" d="M 293.835616 363.174545 
L 293.835616 207.86026 
" style="fill:none;stroke:#1f77b4;stroke-width:1.5;"/>
    <path clip-path="url(#p012d3d0051)" d="M 395.753425 363.174545 
L 395.753425 298.007712 
" style="fill:none;stroke:#1f77b4;stroke-width:1.5;"/>
    <path clip-path="url(#p012d3d0051)" d="M 497.671233 363.174545 
L 497.671233 264.338182 
" style="fill:none;stroke:#1f77b4;stroke-width:1.5;"/>
    <path clip-path="url(#p012d3d0051)" d="M 599.589041 363.174545 
L 599.589041 66.665455 
" style="fill:none;stroke:#1f77b4;stroke-width:1.5;"/>
   </g>
   <g id="LineCollection_4">
    <path clip-path="url(#p012d3d0051)" d="M 179.178082 66.665455 
L 204.657534 66.665455 
" style="fill:none;stroke:#1f77b4;stroke-width:1.5;"/>
    <path clip-path="url(#p012d3d0051)" d="M 281.09589 333.849471 
L 306.575342 333.849471 
" style="fill:none;stroke:#1f77b4;stroke-width:1.5;"/>
    <path clip-path="url(#p012d3d0051)" d="M 383.013699 346.882837 
L 408.493151 346.882837 
" style="fill:none;stroke:#1f77b4;stroke-width:1.5;"/>
    <path clip-path="url(#p012d3d0051)" d="M 484.931507 340.366154 
L 510.410959 340.366154 
" style="fill:none;stroke:#1f77b4;stroke-width:1.5;"/>
    <path clip-path="url(#p012d3d0051)" d="M 586.849315 328.581818 
L 612.328767 328.581818 
" style="fill:none;stroke:#1f77b4;stroke-width:1.5;"/>
   </g>
   <g id="patch_3">
    <path d="M 90 378 
L 90 51.84 
" style="fill:none;stroke:#000000;stroke-linecap:square;stroke-linejoin:miter;stroke-width:0.8;"/>
   </g>
   <g id="patch_4">
    <path d="M 648 378 
L 648 51.84 
" style="fill:none;stroke:#000000;stroke-linecap:square;stroke-linejoin:miter;stroke-width:0.8;"/>
   </g>
   <g id="patch_5">
    <path d="M 90 378 
L 648 378 
" style="fill:none;stroke:#000000;stroke-linecap:square;stroke-linejoin:miter;stroke-width:0.8;"/>
   </g>
   <g id="patch_6">
    <path d="M 90 51.84 
L 648 51.84 
" style="fill:none;stroke:#000000;stroke-linecap:square;stroke-linejoin:miter;stroke-width:0.8;"/>
   </g>
   <g id="text_15">
    <!-- Pairwise difference within T-number versus similarity (eVal=0.001) -->
    <g transform="translate(68.841563 45.84)scale(0.18 -0.18)">
     <defs>
      <path d="M 44.28125 53.078125 
L 44.28125 44.578125 
Q 40.484375 46.53125 36.375 47.5 
Q 32.28125 48.484375 27.875 48.484375 
Q 21.1875 48.484375 17.84375 46.4375 
Q 14.5 44.390625 14.5 40.28125 
Q 14.5 37.15625 16.890625 35.375 
Q 19.28125 33.59375 26.515625 31.984375 
L 29.59375 31.296875 
Q 39.15625 29.25 43.1875 25.515625 
Q 47.21875 21.78125 47.21875 15.09375 
Q 47.21875 7.46875 41.1875 3.015625 
Q 35.15625 -1.421875 24.609375 -1.421875 
Q 20.21875 -1.421875 15.453125 -0.5625 
Q 10.6875 0.296875 5.421875 2 
L 5.421875 11.28125 
Q 10.40625 8.6875 15.234375 7.390625 
Q 20.0625 6.109375 24.8125 6.109375 
Q 31.15625 6.109375 34.5625 8.28125 
Q 37.984375 10.453125 37.984375 14.40625 
Q 37.984375 18.0625 35.515625 20.015625 
Q 33.0625 21.96875 24.703125 23.78125 
L 21.578125 24.515625 
Q 13.234375 26.265625 9.515625 29.90625 
Q 5.8125 33.546875 5.8125 39.890625 
Q 5.8125 47.609375 11.28125 51.796875 
Q 16.75 56 26.8125 56 
Q 31.78125 56 36.171875 55.265625 
Q 40.578125 54.546875 44.28125 53.078125 
z
" id="DejaVuSans-115"/>
      <path d="M 45.40625 46.390625 
L 45.40625 75.984375 
L 54.390625 75.984375 
L 54.390625 0 
L 45.40625 0 
L 45.40625 8.203125 
Q 42.578125 3.328125 38.25 0.953125 
Q 33.9375 -1.421875 27.875 -1.421875 
Q 17.96875 -1.421875 11.734375 6.484375 
Q 5.515625 14.40625 5.515625 27.296875 
Q 5.515625 40.1875 11.734375 48.09375 
Q 17.96875 56 27.875 56 
Q 33.9375 56 38.25 53.625 
Q 42.578125 51.265625 45.40625 46.390625 
z
M 14.796875 27.296875 
Q 14.796875 17.390625 18.875 11.75 
Q 22.953125 6.109375 30.078125 6.109375 
Q 37.203125 6.109375 41.296875 11.75 
Q 45.40625 17.390625 45.40625 27.296875 
Q 45.40625 37.203125 41.296875 42.84375 
Q 37.203125 48.484375 30.078125 48.484375 
Q 22.953125 48.484375 18.875 42.84375 
Q 14.796875 37.203125 14.796875 27.296875 
z
" id="DejaVuSans-100"/>
      <path d="M 37.109375 75.984375 
L 37.109375 68.5 
L 28.515625 68.5 
Q 23.6875 68.5 21.796875 66.546875 
Q 19.921875 64.59375 19.921875 59.515625 
L 19.921875 54.6875 
L 34.71875 54.6875 
L 34.71875 47.703125 
L 19.921875 47.703125 
L 19.921875 0 
L 10.890625 0 
L 10.890625 47.703125 
L 2.296875 47.703125 
L 2.296875 54.6875 
L 10.890625 54.6875 
L 10.890625 58.5 
Q 10.890625 67.625 15.140625 71.796875 
Q 19.390625 75.984375 28.609375 75.984375 
z
" id="DejaVuSans-102"/>
      <path d="M 2.984375 54.6875 
L 12.5 54.6875 
L 29.59375 8.796875 
L 46.6875 54.6875 
L 56.203125 54.6875 
L 35.6875 0 
L 23.484375 0 
z
" id="DejaVuSans-118"/>
      <path d="M 28.609375 0 
L 0.78125 72.90625 
L 11.078125 72.90625 
L 34.1875 11.53125 
L 57.328125 72.90625 
L 67.578125 72.90625 
L 39.796875 0 
z
" id="DejaVuSans-86"/>
      <path d="M 10.59375 45.40625 
L 73.1875 45.40625 
L 73.1875 37.203125 
L 10.59375 37.203125 
z
M 10.59375 25.484375 
L 73.1875 25.484375 
L 73.1875 17.1875 
L 10.59375 17.1875 
z
" id="DejaVuSans-61"/>
     </defs>
     <use xlink:href="#DejaVuSans-80"/>
     <use x="55.802734" xlink:href="#DejaVuSans-97"/>
     <use x="117.082031" xlink:href="#DejaVuSans-105"/>
     <use x="144.865234" xlink:href="#DejaVuSans-114"/>
     <use x="185.978516" xlink:href="#DejaVuSans-119"/>
     <use x="267.765625" xlink:href="#DejaVuSans-105"/>
     <use x="295.548828" xlink:href="#DejaVuSans-115"/>
     <use x="347.648438" xlink:href="#DejaVuSans-101"/>
     <use x="409.171875" xlink:href="#DejaVuSans-32"/>
     <use x="440.958984" xlink:href="#DejaVuSans-100"/>
     <use x="504.435547" xlink:href="#DejaVuSans-105"/>
     <use x="532.21875" xlink:href="#DejaVuSans-102"/>
     <use x="567.423828" xlink:href="#DejaVuSans-102"/>
     <use x="602.628906" xlink:href="#DejaVuSans-101"/>
     <use x="664.152344" xlink:href="#DejaVuSans-114"/>
     <use x="703.015625" xlink:href="#DejaVuSans-101"/>
     <use x="764.539062" xlink:href="#DejaVuSans-110"/>
     <use x="827.917969" xlink:href="#DejaVuSans-99"/>
     <use x="882.898438" xlink:href="#DejaVuSans-101"/>
     <use x="944.421875" xlink:href="#DejaVuSans-32"/>
     <use x="976.208984" xlink:href="#DejaVuSans-119"/>
     <use x="1057.996094" xlink:href="#DejaVuSans-105"/>
     <use x="1085.779297" xlink:href="#DejaVuSans-116"/>
     <use x="1124.988281" xlink:href="#DejaVuSans-104"/>
     <use x="1188.367188" xlink:href="#DejaVuSans-105"/>
     <use x="1216.150391" xlink:href="#DejaVuSans-110"/>
     <use x="1279.529297" xlink:href="#DejaVuSans-32"/>
     <use x="1311.316406" xlink:href="#DejaVuSans-84"/>
     <use x="1363.275391" xlink:href="#DejaVuSans-45"/>
     <use x="1399.359375" xlink:href="#DejaVuSans-110"/>
     <use x="1462.738281" xlink:href="#DejaVuSans-117"/>
     <use x="1526.117188" xlink:href="#DejaVuSans-109"/>
     <use x="1623.529297" xlink:href="#DejaVuSans-98"/>
     <use x="1687.005859" xlink:href="#DejaVuSans-101"/>
     <use x="1748.529297" xlink:href="#DejaVuSans-114"/>
     <use x="1789.642578" xlink:href="#DejaVuSans-32"/>
     <use x="1821.429688" xlink:href="#DejaVuSans-118"/>
     <use x="1880.609375" xlink:href="#DejaVuSans-101"/>
     <use x="1942.132812" xlink:href="#DejaVuSans-114"/>
     <use x="1983.246094" xlink:href="#DejaVuSans-115"/>
     <use x="2035.345703" xlink:href="#DejaVuSans-117"/>
     <use x="2098.724609" xlink:href="#DejaVuSans-115"/>
     <use x="2150.824219" xlink:href="#DejaVuSans-32"/>
     <use x="2182.611328" xlink:href="#DejaVuSans-115"/>
     <use x="2234.710938" xlink:href="#DejaVuSans-105"/>
     <use x="2262.494141" xlink:href="#DejaVuSans-109"/>
     <use x="2359.90625" xlink:href="#DejaVuSans-105"/>
     <use x="2387.689453" xlink:href="#DejaVuSans-108"/>
     <use x="2415.472656" xlink:href="#DejaVuSans-97"/>
     <use x="2476.751953" xlink:href="#DejaVuSans-114"/>
     <use x="2517.865234" xlink:href="#DejaVuSans-105"/>
     <use x="2545.648438" xlink:href="#DejaVuSans-116"/>
     <use x="2584.857422" xlink:href="#DejaVuSans-121"/>
     <use x="2644.037109" xlink:href="#DejaVuSans-32"/>
     <use x="2675.824219" xlink:href="#DejaVuSans-40"/>
     <use x="2714.837891" xlink:href="#DejaVuSans-101"/>
     <use x="2776.361328" xlink:href="#DejaVuSans-86"/>
     <use x="2837.019531" xlink:href="#DejaVuSans-97"/>
     <use x="2898.298828" xlink:href="#DejaVuSans-108"/>
     <use x="2926.082031" xlink:href="#DejaVuSans-61"/>
     <use x="3009.871094" xlink:href="#DejaVuSans-48"/>
     <use x="3073.494141" xlink:href="#DejaVuSans-46"/>
     <use x="3105.28125" xlink:href="#DejaVuSans-48"/>
     <use x="3168.904297" xlink:href="#DejaVuSans-48"/>
     <use x="3232.527344" xlink:href="#DejaVuSans-49"/>
     <use x="3296.150391" xlink:href="#DejaVuSans-41"/>
    </g>
   </g>
  </g>
 </g>
 <defs>
  <clipPath id="p012d3d0051">
   <rect height="326.16" width="558" x="90" y="51.84"/>
  </clipPath>
 </defs>
</svg>
